<svg width="68" height="80" viewBox="0 0 68 80" fill="none" xmlns="http://www.w3.org/2000/svg">
<path d="M18.5682 10.3636V22H17.2273V10.3636H18.5682ZM23.5923 22.2045C23.0393 22.2045 22.5374 22.1004 22.0866 21.892C21.6359 21.6799 21.2779 21.375 21.0128 20.9773C20.7476 20.5758 20.6151 20.0909 20.6151 19.5227C20.6151 19.0227 20.7135 18.6174 20.9105 18.3068C21.1075 17.9924 21.3707 17.7462 21.7003 17.5682C22.0298 17.3902 22.3935 17.2576 22.7912 17.1705C23.1927 17.0795 23.5961 17.0076 24.0014 16.9545C24.5317 16.8864 24.9616 16.8352 25.2912 16.8011C25.6245 16.7633 25.867 16.7008 26.0185 16.6136C26.1738 16.5265 26.2514 16.375 26.2514 16.1591V16.1136C26.2514 15.553 26.098 15.1174 25.7912 14.8068C25.4882 14.4962 25.0279 14.3409 24.4105 14.3409C23.7704 14.3409 23.2685 14.4811 22.9048 14.7614C22.5412 15.0417 22.2855 15.3409 22.1378 15.6591L20.8651 15.2045C21.0923 14.6742 21.3954 14.2614 21.7741 13.9659C22.1567 13.6667 22.5734 13.4583 23.0241 13.3409C23.4787 13.2197 23.9257 13.1591 24.3651 13.1591C24.6454 13.1591 24.9673 13.1932 25.331 13.2614C25.6984 13.3258 26.0526 13.4602 26.3935 13.6648C26.7382 13.8693 27.0241 14.178 27.2514 14.5909C27.4787 15.0038 27.5923 15.5568 27.5923 16.25V22H26.2514V20.8182H26.1832C26.0923 21.0076 25.9408 21.2102 25.7287 21.4261C25.5166 21.642 25.2344 21.8258 24.8821 21.9773C24.5298 22.1288 24.0999 22.2045 23.5923 22.2045ZM23.7969 21C24.3272 21 24.7741 20.8958 25.1378 20.6875C25.5052 20.4792 25.7817 20.2102 25.9673 19.8807C26.1567 19.5511 26.2514 19.2045 26.2514 18.8409V17.6136C26.1946 17.6818 26.0696 17.7443 25.8764 17.8011C25.687 17.8542 25.4673 17.9015 25.2173 17.9432C24.9711 17.9811 24.7306 18.0152 24.4957 18.0455C24.2647 18.072 24.0772 18.0947 23.9332 18.1136C23.5848 18.1591 23.259 18.233 22.956 18.3352C22.6567 18.4337 22.4143 18.5833 22.2287 18.7841C22.0469 18.9811 21.956 19.25 21.956 19.5909C21.956 20.0568 22.1283 20.4091 22.473 20.6477C22.8215 20.8826 23.2628 21 23.7969 21ZM30.2216 22V10.3636H31.5625V14.6591H31.6761C31.7746 14.5076 31.911 14.3144 32.0852 14.0795C32.2633 13.8409 32.517 13.6288 32.8466 13.4432C33.1799 13.2538 33.6307 13.1591 34.1989 13.1591C34.9337 13.1591 35.5814 13.3428 36.142 13.7102C36.7027 14.0777 37.1402 14.5985 37.4545 15.2727C37.7689 15.947 37.9261 16.7424 37.9261 17.6591C37.9261 18.5833 37.7689 19.3845 37.4545 20.0625C37.1402 20.7367 36.7045 21.2595 36.1477 21.6307C35.5909 21.9981 34.9489 22.1818 34.2216 22.1818C33.661 22.1818 33.2121 22.089 32.875 21.9034C32.5379 21.714 32.2784 21.5 32.0966 21.2614C31.9148 21.0189 31.7746 20.8182 31.6761 20.6591H31.517V22H30.2216ZM31.5398 17.6364C31.5398 18.2955 31.6364 18.8769 31.8295 19.3807C32.0227 19.8807 32.3049 20.2727 32.6761 20.5568C33.0473 20.8371 33.5019 20.9773 34.0398 20.9773C34.6004 20.9773 35.0682 20.8295 35.4432 20.5341C35.822 20.2348 36.1061 19.8333 36.2955 19.3295C36.4886 18.822 36.5852 18.2576 36.5852 17.6364C36.5852 17.0227 36.4905 16.4697 36.3011 15.9773C36.1155 15.4811 35.8333 15.089 35.4545 14.8011C35.0795 14.5095 34.608 14.3636 34.0398 14.3636C33.4943 14.3636 33.036 14.5019 32.6648 14.7784C32.2936 15.0511 32.0133 15.4337 31.8239 15.9261C31.6345 16.4148 31.5398 16.9848 31.5398 17.6364ZM41.3182 10.3636V22H39.9773V10.3636H41.3182ZM47.4332 22.1818C46.5923 22.1818 45.867 21.9962 45.2571 21.625C44.651 21.25 44.1832 20.7273 43.8537 20.0568C43.5279 19.3826 43.3651 18.5985 43.3651 17.7045C43.3651 16.8106 43.5279 16.0227 43.8537 15.3409C44.1832 14.6553 44.6416 14.1212 45.2287 13.7386C45.8196 13.3523 46.509 13.1591 47.2969 13.1591C47.7514 13.1591 48.2003 13.2348 48.6435 13.3864C49.0866 13.5379 49.4901 13.7841 49.8537 14.125C50.2173 14.4621 50.5071 14.9091 50.723 15.4659C50.9389 16.0227 51.0469 16.7083 51.0469 17.5227V18.0909H44.3196V16.9318H49.6832C49.6832 16.4394 49.5848 16 49.3878 15.6136C49.1946 15.2273 48.9181 14.9223 48.5582 14.6989C48.2022 14.4754 47.7817 14.3636 47.2969 14.3636C46.7628 14.3636 46.3007 14.4962 45.9105 14.7614C45.5241 15.0227 45.2268 15.3636 45.0185 15.7841C44.8101 16.2045 44.706 16.6553 44.706 17.1364V17.9091C44.706 18.5682 44.8196 19.1269 45.0469 19.5852C45.2779 20.0398 45.598 20.3864 46.0071 20.625C46.4162 20.8598 46.8916 20.9773 47.4332 20.9773C47.7855 20.9773 48.1037 20.928 48.3878 20.8295C48.6757 20.7273 48.9238 20.5758 49.1321 20.375C49.3404 20.1705 49.5014 19.9167 49.6151 19.6136L50.9105 19.9773C50.7741 20.4167 50.545 20.803 50.223 21.1364C49.901 21.4659 49.5033 21.7235 49.0298 21.9091C48.5563 22.0909 48.0241 22.1818 47.4332 22.1818Z" fill="#CDCDCD"/>
<rect y="48" width="68" height="32" rx="8" fill="#404044"/>
<path d="M18.5682 58.3636V70H17.2273V58.3636H18.5682ZM23.5923 70.2045C23.0393 70.2045 22.5374 70.1004 22.0866 69.892C21.6359 69.6799 21.2779 69.375 21.0128 68.9773C20.7476 68.5758 20.6151 68.0909 20.6151 67.5227C20.6151 67.0227 20.7135 66.6174 20.9105 66.3068C21.1075 65.9924 21.3707 65.7462 21.7003 65.5682C22.0298 65.3902 22.3935 65.2576 22.7912 65.1705C23.1927 65.0795 23.5961 65.0076 24.0014 64.9545C24.5317 64.8864 24.9616 64.8352 25.2912 64.8011C25.6245 64.7633 25.867 64.7008 26.0185 64.6136C26.1738 64.5265 26.2514 64.375 26.2514 64.1591V64.1136C26.2514 63.553 26.098 63.1174 25.7912 62.8068C25.4882 62.4962 25.0279 62.3409 24.4105 62.3409C23.7704 62.3409 23.2685 62.4811 22.9048 62.7614C22.5412 63.0417 22.2855 63.3409 22.1378 63.6591L20.8651 63.2045C21.0923 62.6742 21.3954 62.2614 21.7741 61.9659C22.1567 61.6667 22.5734 61.4583 23.0241 61.3409C23.4787 61.2197 23.9257 61.1591 24.3651 61.1591C24.6454 61.1591 24.9673 61.1932 25.331 61.2614C25.6984 61.3258 26.0526 61.4602 26.3935 61.6648C26.7382 61.8693 27.0241 62.178 27.2514 62.5909C27.4787 63.0038 27.5923 63.5568 27.5923 64.25V70H26.2514V68.8182H26.1832C26.0923 69.0076 25.9408 69.2102 25.7287 69.4261C25.5166 69.642 25.2344 69.8258 24.8821 69.9773C24.5298 70.1288 24.0999 70.2045 23.5923 70.2045ZM23.7969 69C24.3272 69 24.7741 68.8958 25.1378 68.6875C25.5052 68.4792 25.7817 68.2102 25.9673 67.8807C26.1567 67.5511 26.2514 67.2045 26.2514 66.8409V65.6136C26.1946 65.6818 26.0696 65.7443 25.8764 65.8011C25.687 65.8542 25.4673 65.9015 25.2173 65.9432C24.9711 65.9811 24.7306 66.0152 24.4957 66.0455C24.2647 66.072 24.0772 66.0947 23.9332 66.1136C23.5848 66.1591 23.259 66.233 22.956 66.3352C22.6567 66.4337 22.4143 66.5833 22.2287 66.7841C22.0469 66.9811 21.956 67.25 21.956 67.5909C21.956 68.0568 22.1283 68.4091 22.473 68.6477C22.8215 68.8826 23.2628 69 23.7969 69ZM30.2216 70V58.3636H31.5625V62.6591H31.6761C31.7746 62.5076 31.911 62.3144 32.0852 62.0795C32.2633 61.8409 32.517 61.6288 32.8466 61.4432C33.1799 61.2538 33.6307 61.1591 34.1989 61.1591C34.9337 61.1591 35.5814 61.3428 36.142 61.7102C36.7027 62.0777 37.1402 62.5985 37.4545 63.2727C37.7689 63.947 37.9261 64.7424 37.9261 65.6591C37.9261 66.5833 37.7689 67.3845 37.4545 68.0625C37.1402 68.7367 36.7045 69.2595 36.1477 69.6307C35.5909 69.9981 34.9489 70.1818 34.2216 70.1818C33.661 70.1818 33.2121 70.089 32.875 69.9034C32.5379 69.714 32.2784 69.5 32.0966 69.2614C31.9148 69.0189 31.7746 68.8182 31.6761 68.6591H31.517V70H30.2216ZM31.5398 65.6364C31.5398 66.2955 31.6364 66.8769 31.8295 67.3807C32.0227 67.8807 32.3049 68.2727 32.6761 68.5568C33.0473 68.8371 33.5019 68.9773 34.0398 68.9773C34.6004 68.9773 35.0682 68.8295 35.4432 68.5341C35.822 68.2348 36.1061 67.8333 36.2955 67.3295C36.4886 66.822 36.5852 66.2576 36.5852 65.6364C36.5852 65.0227 36.4905 64.4697 36.3011 63.9773C36.1155 63.4811 35.8333 63.089 35.4545 62.8011C35.0795 62.5095 34.608 62.3636 34.0398 62.3636C33.4943 62.3636 33.036 62.5019 32.6648 62.7784C32.2936 63.0511 32.0133 63.4337 31.8239 63.9261C31.6345 64.4148 31.5398 64.9848 31.5398 65.6364ZM41.3182 58.3636V70H39.9773V58.3636H41.3182ZM47.4332 70.1818C46.5923 70.1818 45.867 69.9962 45.2571 69.625C44.651 69.25 44.1832 68.7273 43.8537 68.0568C43.5279 67.3826 43.3651 66.5985 43.3651 65.7045C43.3651 64.8106 43.5279 64.0227 43.8537 63.3409C44.1832 62.6553 44.6416 62.1212 45.2287 61.7386C45.8196 61.3523 46.509 61.1591 47.2969 61.1591C47.7514 61.1591 48.2003 61.2348 48.6435 61.3864C49.0866 61.5379 49.4901 61.7841 49.8537 62.125C50.2173 62.4621 50.5071 62.9091 50.723 63.4659C50.9389 64.0227 51.0469 64.7083 51.0469 65.5227V66.0909H44.3196V64.9318H49.6832C49.6832 64.4394 49.5848 64 49.3878 63.6136C49.1946 63.2273 48.9181 62.9223 48.5582 62.6989C48.2022 62.4754 47.7817 62.3636 47.2969 62.3636C46.7628 62.3636 46.3007 62.4962 45.9105 62.7614C45.5241 63.0227 45.2268 63.3636 45.0185 63.7841C44.8101 64.2045 44.706 64.6553 44.706 65.1364V65.9091C44.706 66.5682 44.8196 67.1269 45.0469 67.5852C45.2779 68.0398 45.598 68.3864 46.0071 68.625C46.4162 68.8598 46.8916 68.9773 47.4332 68.9773C47.7855 68.9773 48.1037 68.928 48.3878 68.8295C48.6757 68.7273 48.9238 68.5758 49.1321 68.375C49.3404 68.1705 49.5014 67.9167 49.6151 67.6136L50.9105 67.9773C50.7741 68.4167 50.545 68.803 50.223 69.1364C49.901 69.4659 49.5033 69.7235 49.0298 69.9091C48.5563 70.0909 48.0241 70.1818 47.4332 70.1818Z" fill="white"/>
</svg>
