<svg width="328" height="96" viewBox="0 0 328 96" fill="none" xmlns="http://www.w3.org/2000/svg">
<rect x="2" y="2" width="324" height="36" rx="6" stroke="#18181C" stroke-width="4"/>
<path d="M148.568 14.3636V26H147.227V14.3636H148.568ZM153.592 26.2045C153.039 26.2045 152.537 26.1004 152.087 25.892C151.636 25.6799 151.278 25.375 151.013 24.9773C150.748 24.5758 150.615 24.0909 150.615 23.5227C150.615 23.0227 150.714 22.6174 150.911 22.3068C151.107 21.9924 151.371 21.7462 151.7 21.5682C152.03 21.3902 152.393 21.2576 152.791 21.1705C153.193 21.0795 153.596 21.0076 154.001 20.9545C154.532 20.8864 154.962 20.8352 155.291 20.8011C155.625 20.7633 155.867 20.7008 156.018 20.6136C156.174 20.5265 156.251 20.375 156.251 20.1591V20.1136C156.251 19.553 156.098 19.1174 155.791 18.8068C155.488 18.4962 155.028 18.3409 154.411 18.3409C153.77 18.3409 153.268 18.4811 152.905 18.7614C152.541 19.0417 152.286 19.3409 152.138 19.6591L150.865 19.2045C151.092 18.6742 151.395 18.2614 151.774 17.9659C152.157 17.6667 152.573 17.4583 153.024 17.3409C153.479 17.2197 153.926 17.1591 154.365 17.1591C154.645 17.1591 154.967 17.1932 155.331 17.2614C155.698 17.3258 156.053 17.4602 156.393 17.6648C156.738 17.8693 157.024 18.178 157.251 18.5909C157.479 19.0038 157.592 19.5568 157.592 20.25V26H156.251V24.8182H156.183C156.092 25.0076 155.941 25.2102 155.729 25.4261C155.517 25.642 155.234 25.8258 154.882 25.9773C154.53 26.1288 154.1 26.2045 153.592 26.2045ZM153.797 25C154.327 25 154.774 24.8958 155.138 24.6875C155.505 24.4792 155.782 24.2102 155.967 23.8807C156.157 23.5511 156.251 23.2045 156.251 22.8409V21.6136C156.195 21.6818 156.07 21.7443 155.876 21.8011C155.687 21.8542 155.467 21.9015 155.217 21.9432C154.971 21.9811 154.731 22.0152 154.496 22.0455C154.265 22.072 154.077 22.0947 153.933 22.1136C153.585 22.1591 153.259 22.233 152.956 22.3352C152.657 22.4337 152.414 22.5833 152.229 22.7841C152.047 22.9811 151.956 23.25 151.956 23.5909C151.956 24.0568 152.128 24.4091 152.473 24.6477C152.821 24.8826 153.263 25 153.797 25ZM160.222 26V14.3636H161.562V18.6591H161.676C161.775 18.5076 161.911 18.3144 162.085 18.0795C162.263 17.8409 162.517 17.6288 162.847 17.4432C163.18 17.2538 163.631 17.1591 164.199 17.1591C164.934 17.1591 165.581 17.3428 166.142 17.7102C166.703 18.0777 167.14 18.5985 167.455 19.2727C167.769 19.947 167.926 20.7424 167.926 21.6591C167.926 22.5833 167.769 23.3845 167.455 24.0625C167.14 24.7367 166.705 25.2595 166.148 25.6307C165.591 25.9981 164.949 26.1818 164.222 26.1818C163.661 26.1818 163.212 26.089 162.875 25.9034C162.538 25.714 162.278 25.5 162.097 25.2614C161.915 25.0189 161.775 24.8182 161.676 24.6591H161.517V26H160.222ZM161.54 21.6364C161.54 22.2955 161.636 22.8769 161.83 23.3807C162.023 23.8807 162.305 24.2727 162.676 24.5568C163.047 24.8371 163.502 24.9773 164.04 24.9773C164.6 24.9773 165.068 24.8295 165.443 24.5341C165.822 24.2348 166.106 23.8333 166.295 23.3295C166.489 22.822 166.585 22.2576 166.585 21.6364C166.585 21.0227 166.491 20.4697 166.301 19.9773C166.116 19.4811 165.833 19.089 165.455 18.8011C165.08 18.5095 164.608 18.3636 164.04 18.3636C163.494 18.3636 163.036 18.5019 162.665 18.7784C162.294 19.0511 162.013 19.4337 161.824 19.9261C161.634 20.4148 161.54 20.9848 161.54 21.6364ZM171.318 14.3636V26H169.977V14.3636H171.318ZM177.433 26.1818C176.592 26.1818 175.867 25.9962 175.257 25.625C174.651 25.25 174.183 24.7273 173.854 24.0568C173.528 23.3826 173.365 22.5985 173.365 21.7045C173.365 20.8106 173.528 20.0227 173.854 19.3409C174.183 18.6553 174.642 18.1212 175.229 17.7386C175.82 17.3523 176.509 17.1591 177.297 17.1591C177.751 17.1591 178.2 17.2348 178.643 17.3864C179.087 17.5379 179.49 17.7841 179.854 18.125C180.217 18.4621 180.507 18.9091 180.723 19.4659C180.939 20.0227 181.047 20.7083 181.047 21.5227V22.0909H174.32V20.9318H179.683C179.683 20.4394 179.585 20 179.388 19.6136C179.195 19.2273 178.918 18.9223 178.558 18.6989C178.202 18.4754 177.782 18.3636 177.297 18.3636C176.763 18.3636 176.301 18.4962 175.911 18.7614C175.524 19.0227 175.227 19.3636 175.018 19.7841C174.81 20.2045 174.706 20.6553 174.706 21.1364V21.9091C174.706 22.5682 174.82 23.1269 175.047 23.5852C175.278 24.0398 175.598 24.3864 176.007 24.625C176.416 24.8598 176.892 24.9773 177.433 24.9773C177.786 24.9773 178.104 24.928 178.388 24.8295C178.676 24.7273 178.924 24.5758 179.132 24.375C179.34 24.1705 179.501 23.9167 179.615 23.6136L180.911 23.9773C180.774 24.4167 180.545 24.803 180.223 25.1364C179.901 25.4659 179.503 25.7235 179.03 25.9091C178.556 26.0909 178.024 26.1818 177.433 26.1818Z" fill="#CDCDCD"/>
<rect y="56" width="328" height="40" rx="8" fill="#404044"/>
<path d="M148.568 70.3636V82H147.227V70.3636H148.568ZM153.592 82.2045C153.039 82.2045 152.537 82.1004 152.087 81.892C151.636 81.6799 151.278 81.375 151.013 80.9773C150.748 80.5758 150.615 80.0909 150.615 79.5227C150.615 79.0227 150.714 78.6174 150.911 78.3068C151.107 77.9924 151.371 77.7462 151.7 77.5682C152.03 77.3902 152.393 77.2576 152.791 77.1705C153.193 77.0795 153.596 77.0076 154.001 76.9545C154.532 76.8864 154.962 76.8352 155.291 76.8011C155.625 76.7633 155.867 76.7008 156.018 76.6136C156.174 76.5265 156.251 76.375 156.251 76.1591V76.1136C156.251 75.553 156.098 75.1174 155.791 74.8068C155.488 74.4962 155.028 74.3409 154.411 74.3409C153.77 74.3409 153.268 74.4811 152.905 74.7614C152.541 75.0417 152.286 75.3409 152.138 75.6591L150.865 75.2045C151.092 74.6742 151.395 74.2614 151.774 73.9659C152.157 73.6667 152.573 73.4583 153.024 73.3409C153.479 73.2197 153.926 73.1591 154.365 73.1591C154.645 73.1591 154.967 73.1932 155.331 73.2614C155.698 73.3258 156.053 73.4602 156.393 73.6648C156.738 73.8693 157.024 74.178 157.251 74.5909C157.479 75.0038 157.592 75.5568 157.592 76.25V82H156.251V80.8182H156.183C156.092 81.0076 155.941 81.2102 155.729 81.4261C155.517 81.642 155.234 81.8258 154.882 81.9773C154.53 82.1288 154.1 82.2045 153.592 82.2045ZM153.797 81C154.327 81 154.774 80.8958 155.138 80.6875C155.505 80.4792 155.782 80.2102 155.967 79.8807C156.157 79.5511 156.251 79.2045 156.251 78.8409V77.6136C156.195 77.6818 156.07 77.7443 155.876 77.8011C155.687 77.8542 155.467 77.9015 155.217 77.9432C154.971 77.9811 154.731 78.0152 154.496 78.0455C154.265 78.072 154.077 78.0947 153.933 78.1136C153.585 78.1591 153.259 78.233 152.956 78.3352C152.657 78.4337 152.414 78.5833 152.229 78.7841C152.047 78.9811 151.956 79.25 151.956 79.5909C151.956 80.0568 152.128 80.4091 152.473 80.6477C152.821 80.8826 153.263 81 153.797 81ZM160.222 82V70.3636H161.562V74.6591H161.676C161.775 74.5076 161.911 74.3144 162.085 74.0795C162.263 73.8409 162.517 73.6288 162.847 73.4432C163.18 73.2538 163.631 73.1591 164.199 73.1591C164.934 73.1591 165.581 73.3428 166.142 73.7102C166.703 74.0777 167.14 74.5985 167.455 75.2727C167.769 75.947 167.926 76.7424 167.926 77.6591C167.926 78.5833 167.769 79.3845 167.455 80.0625C167.14 80.7367 166.705 81.2595 166.148 81.6307C165.591 81.9981 164.949 82.1818 164.222 82.1818C163.661 82.1818 163.212 82.089 162.875 81.9034C162.538 81.714 162.278 81.5 162.097 81.2614C161.915 81.0189 161.775 80.8182 161.676 80.6591H161.517V82H160.222ZM161.54 77.6364C161.54 78.2955 161.636 78.8769 161.83 79.3807C162.023 79.8807 162.305 80.2727 162.676 80.5568C163.047 80.8371 163.502 80.9773 164.04 80.9773C164.6 80.9773 165.068 80.8295 165.443 80.5341C165.822 80.2348 166.106 79.8333 166.295 79.3295C166.489 78.822 166.585 78.2576 166.585 77.6364C166.585 77.0227 166.491 76.4697 166.301 75.9773C166.116 75.4811 165.833 75.089 165.455 74.8011C165.08 74.5095 164.608 74.3636 164.04 74.3636C163.494 74.3636 163.036 74.5019 162.665 74.7784C162.294 75.0511 162.013 75.4337 161.824 75.9261C161.634 76.4148 161.54 76.9848 161.54 77.6364ZM171.318 70.3636V82H169.977V70.3636H171.318ZM177.433 82.1818C176.592 82.1818 175.867 81.9962 175.257 81.625C174.651 81.25 174.183 80.7273 173.854 80.0568C173.528 79.3826 173.365 78.5985 173.365 77.7045C173.365 76.8106 173.528 76.0227 173.854 75.3409C174.183 74.6553 174.642 74.1212 175.229 73.7386C175.82 73.3523 176.509 73.1591 177.297 73.1591C177.751 73.1591 178.2 73.2348 178.643 73.3864C179.087 73.5379 179.49 73.7841 179.854 74.125C180.217 74.4621 180.507 74.9091 180.723 75.4659C180.939 76.0227 181.047 76.7083 181.047 77.5227V78.0909H174.32V76.9318H179.683C179.683 76.4394 179.585 76 179.388 75.6136C179.195 75.2273 178.918 74.9223 178.558 74.6989C178.202 74.4754 177.782 74.3636 177.297 74.3636C176.763 74.3636 176.301 74.4962 175.911 74.7614C175.524 75.0227 175.227 75.3636 175.018 75.7841C174.81 76.2045 174.706 76.6553 174.706 77.1364V77.9091C174.706 78.5682 174.82 79.1269 175.047 79.5852C175.278 80.0398 175.598 80.3864 176.007 80.625C176.416 80.8598 176.892 80.9773 177.433 80.9773C177.786 80.9773 178.104 80.928 178.388 80.8295C178.676 80.7273 178.924 80.5758 179.132 80.375C179.34 80.1705 179.501 79.9167 179.615 79.6136L180.911 79.9773C180.774 80.4167 180.545 80.803 180.223 81.1364C179.901 81.4659 179.503 81.7235 179.03 81.9091C178.556 82.0909 178.024 82.1818 177.433 82.1818Z" fill="white"/>
</svg>
