<svg width="70" height="80" viewBox="0 0 70 80" fill="none" xmlns="http://www.w3.org/2000/svg">
<rect width="70" height="32" rx="8" fill="white"/>
<path d="M19.652 10.3636V22H17.2315V10.3636H19.652ZM24.0795 22.1648C23.5227 22.1648 23.0265 22.0682 22.5909 21.875C22.1553 21.678 21.8106 21.3883 21.5568 21.0057C21.3068 20.6193 21.1818 20.1383 21.1818 19.5625C21.1818 19.0777 21.2708 18.6705 21.4489 18.3409C21.6269 18.0114 21.8693 17.7462 22.1761 17.5455C22.483 17.3447 22.8314 17.1932 23.2216 17.0909C23.6155 16.9886 24.0284 16.9167 24.4602 16.875C24.9678 16.822 25.3769 16.7727 25.6875 16.7273C25.9981 16.678 26.2235 16.6061 26.3636 16.5114C26.5038 16.4167 26.5739 16.2765 26.5739 16.0909V16.0568C26.5739 15.697 26.4602 15.4186 26.233 15.2216C26.0095 15.0246 25.6913 14.9261 25.2784 14.9261C24.8428 14.9261 24.4962 15.0227 24.2386 15.2159C23.9811 15.4053 23.8106 15.6439 23.7273 15.9318L21.4886 15.75C21.6023 15.2197 21.8258 14.7614 22.1591 14.375C22.4924 13.9848 22.9223 13.6856 23.4489 13.4773C23.9792 13.2652 24.5928 13.1591 25.2898 13.1591C25.7746 13.1591 26.2386 13.2159 26.6818 13.3295C27.1288 13.4432 27.5246 13.6193 27.8693 13.858C28.2178 14.0966 28.4924 14.4034 28.6932 14.7784C28.8939 15.1496 28.9943 15.5947 28.9943 16.1136V22H26.6989V20.7898H26.6307C26.4905 21.0625 26.303 21.303 26.0682 21.5114C25.8333 21.7159 25.5511 21.8769 25.2216 21.9943C24.892 22.108 24.5114 22.1648 24.0795 22.1648ZM24.7727 20.4943C25.1288 20.4943 25.4432 20.4242 25.7159 20.2841C25.9886 20.1402 26.2027 19.947 26.358 19.7045C26.5133 19.4621 26.5909 19.1875 26.5909 18.8807V17.9545C26.5152 18.0038 26.411 18.0492 26.2784 18.0909C26.1496 18.1288 26.0038 18.1648 25.8409 18.1989C25.678 18.2292 25.5152 18.2576 25.3523 18.2841C25.1894 18.3068 25.0417 18.3277 24.9091 18.3466C24.625 18.3883 24.3769 18.4545 24.1648 18.5455C23.9527 18.6364 23.7879 18.7595 23.6705 18.9148C23.553 19.0663 23.4943 19.2557 23.4943 19.483C23.4943 19.8125 23.6136 20.0644 23.8523 20.2386C24.0947 20.4091 24.4015 20.4943 24.7727 20.4943ZM30.9176 22V10.3636H33.3381V14.7386H33.4119C33.518 14.5038 33.6714 14.2652 33.8722 14.0227C34.0767 13.7765 34.3419 13.572 34.6676 13.4091C34.9972 13.2424 35.4063 13.1591 35.8949 13.1591C36.5313 13.1591 37.1184 13.3258 37.6562 13.6591C38.1941 13.9886 38.6241 14.4867 38.946 15.1534C39.268 15.8163 39.429 16.6477 39.429 17.6477C39.429 18.6212 39.2718 19.4432 38.9574 20.1136C38.6468 20.7803 38.2225 21.286 37.6847 21.6307C37.1506 21.9716 36.5521 22.142 35.8892 22.142C35.4195 22.142 35.0199 22.0644 34.6903 21.9091C34.3646 21.7538 34.0975 21.5587 33.8892 21.3239C33.6809 21.0852 33.5218 20.8447 33.4119 20.6023H33.304V22H30.9176ZM33.2869 17.6364C33.2869 18.1553 33.3589 18.608 33.5028 18.9943C33.6468 19.3807 33.8551 19.6818 34.1278 19.8977C34.4006 20.1098 34.732 20.2159 35.1222 20.2159C35.5161 20.2159 35.8494 20.108 36.1222 19.892C36.3949 19.6723 36.6013 19.3693 36.7415 18.983C36.8854 18.5928 36.9574 18.1439 36.9574 17.6364C36.9574 17.1326 36.8873 16.6894 36.7472 16.3068C36.607 15.9242 36.4006 15.625 36.1278 15.4091C35.8551 15.1932 35.5199 15.0852 35.1222 15.0852C34.7282 15.0852 34.3949 15.1894 34.1222 15.3977C33.8532 15.6061 33.6468 15.9015 33.5028 16.2841C33.3589 16.6667 33.2869 17.1174 33.2869 17.6364ZM43.4645 10.3636V22H41.044V10.3636H43.4645ZM49.3807 22.1705C48.483 22.1705 47.7102 21.9886 47.0625 21.625C46.4186 21.2576 45.9223 20.7386 45.5739 20.0682C45.2254 19.3939 45.0511 18.5966 45.0511 17.6761C45.0511 16.7784 45.2254 15.9905 45.5739 15.3125C45.9223 14.6345 46.4129 14.1061 47.0455 13.7273C47.6818 13.3485 48.428 13.1591 49.2841 13.1591C49.8598 13.1591 50.3958 13.2519 50.892 13.4375C51.392 13.6193 51.8277 13.8939 52.1989 14.2614C52.5739 14.6288 52.8655 15.0909 53.0739 15.6477C53.2822 16.2008 53.3864 16.8485 53.3864 17.5909V18.2557H46.017V16.7557H51.108C51.108 16.4072 51.0322 16.0985 50.8807 15.8295C50.7292 15.5606 50.5189 15.3504 50.25 15.1989C49.9848 15.0436 49.6761 14.9659 49.3239 14.9659C48.9564 14.9659 48.6307 15.0511 48.3466 15.2216C48.0663 15.3883 47.8466 15.6136 47.6875 15.8977C47.5284 16.178 47.447 16.4905 47.4432 16.8352V18.2614C47.4432 18.6932 47.5227 19.0663 47.6818 19.3807C47.8447 19.6951 48.0739 19.9375 48.3693 20.108C48.6648 20.2784 49.0152 20.3636 49.4205 20.3636C49.6894 20.3636 49.9356 20.3258 50.1591 20.25C50.3826 20.1742 50.5739 20.0606 50.733 19.9091C50.892 19.7576 51.0133 19.572 51.0966 19.3523L53.3352 19.5C53.2216 20.0379 52.9886 20.5076 52.6364 20.9091C52.2879 21.3068 51.8371 21.6174 51.2841 21.8409C50.7348 22.0606 50.1004 22.1705 49.3807 22.1705Z" fill="black"/>
<rect y="48" width="70" height="32" rx="8" fill="#CDCDCD"/>
<rect x="2" y="50" width="66" height="28" rx="6" stroke="white" stroke-opacity="0.7" stroke-width="4"/>
<path d="M19.652 58.3636V70H17.2315V58.3636H19.652ZM24.0795 70.1648C23.5227 70.1648 23.0265 70.0682 22.5909 69.875C22.1553 69.678 21.8106 69.3883 21.5568 69.0057C21.3068 68.6193 21.1818 68.1383 21.1818 67.5625C21.1818 67.0777 21.2708 66.6705 21.4489 66.3409C21.6269 66.0114 21.8693 65.7462 22.1761 65.5455C22.483 65.3447 22.8314 65.1932 23.2216 65.0909C23.6155 64.9886 24.0284 64.9167 24.4602 64.875C24.9678 64.822 25.3769 64.7727 25.6875 64.7273C25.9981 64.678 26.2235 64.6061 26.3636 64.5114C26.5038 64.4167 26.5739 64.2765 26.5739 64.0909V64.0568C26.5739 63.697 26.4602 63.4186 26.233 63.2216C26.0095 63.0246 25.6913 62.9261 25.2784 62.9261C24.8428 62.9261 24.4962 63.0227 24.2386 63.2159C23.9811 63.4053 23.8106 63.6439 23.7273 63.9318L21.4886 63.75C21.6023 63.2197 21.8258 62.7614 22.1591 62.375C22.4924 61.9848 22.9223 61.6856 23.4489 61.4773C23.9792 61.2652 24.5928 61.1591 25.2898 61.1591C25.7746 61.1591 26.2386 61.2159 26.6818 61.3295C27.1288 61.4432 27.5246 61.6193 27.8693 61.858C28.2178 62.0966 28.4924 62.4034 28.6932 62.7784C28.8939 63.1496 28.9943 63.5947 28.9943 64.1136V70H26.6989V68.7898H26.6307C26.4905 69.0625 26.303 69.303 26.0682 69.5114C25.8333 69.7159 25.5511 69.8769 25.2216 69.9943C24.892 70.108 24.5114 70.1648 24.0795 70.1648ZM24.7727 68.4943C25.1288 68.4943 25.4432 68.4242 25.7159 68.2841C25.9886 68.1402 26.2027 67.947 26.358 67.7045C26.5133 67.4621 26.5909 67.1875 26.5909 66.8807V65.9545C26.5152 66.0038 26.411 66.0492 26.2784 66.0909C26.1496 66.1288 26.0038 66.1648 25.8409 66.1989C25.678 66.2292 25.5152 66.2576 25.3523 66.2841C25.1894 66.3068 25.0417 66.3277 24.9091 66.3466C24.625 66.3883 24.3769 66.4545 24.1648 66.5455C23.9527 66.6364 23.7879 66.7595 23.6705 66.9148C23.553 67.0663 23.4943 67.2557 23.4943 67.483C23.4943 67.8125 23.6136 68.0644 23.8523 68.2386C24.0947 68.4091 24.4015 68.4943 24.7727 68.4943ZM30.9176 70V58.3636H33.3381V62.7386H33.4119C33.518 62.5038 33.6714 62.2652 33.8722 62.0227C34.0767 61.7765 34.3419 61.572 34.6676 61.4091C34.9972 61.2424 35.4063 61.1591 35.8949 61.1591C36.5313 61.1591 37.1184 61.3258 37.6562 61.6591C38.1941 61.9886 38.6241 62.4867 38.946 63.1534C39.268 63.8163 39.429 64.6477 39.429 65.6477C39.429 66.6212 39.2718 67.4432 38.9574 68.1136C38.6468 68.7803 38.2225 69.286 37.6847 69.6307C37.1506 69.9716 36.5521 70.142 35.8892 70.142C35.4195 70.142 35.0199 70.0644 34.6903 69.9091C34.3646 69.7538 34.0975 69.5587 33.8892 69.3239C33.6809 69.0852 33.5218 68.8447 33.4119 68.6023H33.304V70H30.9176ZM33.2869 65.6364C33.2869 66.1553 33.3589 66.608 33.5028 66.9943C33.6468 67.3807 33.8551 67.6818 34.1278 67.8977C34.4006 68.1098 34.732 68.2159 35.1222 68.2159C35.5161 68.2159 35.8494 68.108 36.1222 67.892C36.3949 67.6723 36.6013 67.3693 36.7415 66.983C36.8854 66.5928 36.9574 66.1439 36.9574 65.6364C36.9574 65.1326 36.8873 64.6894 36.7472 64.3068C36.607 63.9242 36.4006 63.625 36.1278 63.4091C35.8551 63.1932 35.5199 63.0852 35.1222 63.0852C34.7282 63.0852 34.3949 63.1894 34.1222 63.3977C33.8532 63.6061 33.6468 63.9015 33.5028 64.2841C33.3589 64.6667 33.2869 65.1174 33.2869 65.6364ZM43.4645 58.3636V70H41.044V58.3636H43.4645ZM49.3807 70.1705C48.483 70.1705 47.7102 69.9886 47.0625 69.625C46.4186 69.2576 45.9223 68.7386 45.5739 68.0682C45.2254 67.3939 45.0511 66.5966 45.0511 65.6761C45.0511 64.7784 45.2254 63.9905 45.5739 63.3125C45.9223 62.6345 46.4129 62.1061 47.0455 61.7273C47.6818 61.3485 48.428 61.1591 49.2841 61.1591C49.8598 61.1591 50.3958 61.2519 50.892 61.4375C51.392 61.6193 51.8277 61.8939 52.1989 62.2614C52.5739 62.6288 52.8655 63.0909 53.0739 63.6477C53.2822 64.2008 53.3864 64.8485 53.3864 65.5909V66.2557H46.017V64.7557H51.108C51.108 64.4072 51.0322 64.0985 50.8807 63.8295C50.7292 63.5606 50.5189 63.3504 50.25 63.1989C49.9848 63.0436 49.6761 62.9659 49.3239 62.9659C48.9564 62.9659 48.6307 63.0511 48.3466 63.2216C48.0663 63.3883 47.8466 63.6136 47.6875 63.8977C47.5284 64.178 47.447 64.4905 47.4432 64.8352V66.2614C47.4432 66.6932 47.5227 67.0663 47.6818 67.3807C47.8447 67.6951 48.0739 67.9375 48.3693 68.108C48.6648 68.2784 49.0152 68.3636 49.4205 68.3636C49.6894 68.3636 49.9356 68.3258 50.1591 68.25C50.3826 68.1742 50.5739 68.0606 50.733 67.9091C50.892 67.7576 51.0133 67.572 51.0966 67.3523L53.3352 67.5C53.2216 68.0379 52.9886 68.5076 52.6364 68.9091C52.2879 69.3068 51.8371 69.6174 51.2841 69.8409C50.7348 70.0606 50.1004 70.1705 49.3807 70.1705Z" fill="black"/>
</svg>
