<svg width="108" height="128" viewBox="0 0 108 128" fill="none" xmlns="http://www.w3.org/2000/svg">
<rect width="108" height="56" rx="8" fill="#F7FF19"/>
<path d="M22.7727 16.2273V39.5H17.9318V16.2273H22.7727ZM31.6278 39.8295C30.5142 39.8295 29.5218 39.6364 28.6506 39.25C27.7794 38.8561 27.09 38.2765 26.5824 37.5114C26.0824 36.7386 25.8324 35.7765 25.8324 34.625C25.8324 33.6553 26.0104 32.8409 26.3665 32.1818C26.7225 31.5227 27.2074 30.9924 27.821 30.5909C28.4347 30.1894 29.1316 29.8864 29.9119 29.6818C30.6998 29.4773 31.5256 29.3333 32.3892 29.25C33.4044 29.1439 34.2225 29.0455 34.8438 28.9545C35.465 28.8561 35.9157 28.7121 36.196 28.5227C36.4763 28.3333 36.6165 28.053 36.6165 27.6818V27.6136C36.6165 26.8939 36.3892 26.3371 35.9347 25.9432C35.4877 25.5492 34.8513 25.3523 34.0256 25.3523C33.1544 25.3523 32.4612 25.5455 31.946 25.9318C31.4309 26.3106 31.09 26.7879 30.9233 27.3636L26.446 27C26.6733 25.9394 27.1203 25.0227 27.7869 24.25C28.4536 23.4697 29.3134 22.8712 30.3665 22.4545C31.4271 22.0303 32.6544 21.8182 34.0483 21.8182C35.018 21.8182 35.946 21.9318 36.8324 22.1591C37.7263 22.3864 38.518 22.7386 39.2074 23.2159C39.9044 23.6932 40.4536 24.3068 40.8551 25.0568C41.2566 25.7992 41.4574 26.6894 41.4574 27.7273V39.5H36.8665V37.0795H36.7301C36.4498 37.625 36.0748 38.1061 35.6051 38.5227C35.1354 38.9318 34.571 39.2538 33.9119 39.4886C33.2528 39.7159 32.4915 39.8295 31.6278 39.8295ZM33.0142 36.4886C33.7263 36.4886 34.3551 36.3485 34.9006 36.0682C35.446 35.7803 35.8741 35.3939 36.1847 34.9091C36.4953 34.4242 36.6506 33.875 36.6506 33.2614V31.4091C36.4991 31.5076 36.2907 31.5985 36.0256 31.6818C35.768 31.7576 35.4763 31.8295 35.1506 31.8977C34.8248 31.9583 34.4991 32.0152 34.1733 32.0682C33.8475 32.1136 33.5521 32.1553 33.2869 32.1932C32.7188 32.2765 32.2225 32.4091 31.7983 32.5909C31.3741 32.7727 31.0445 33.0189 30.8097 33.3295C30.5748 33.6326 30.4574 34.0114 30.4574 34.4659C30.4574 35.125 30.696 35.6288 31.1733 35.9773C31.6581 36.3182 32.2718 36.4886 33.0142 36.4886ZM45.304 39.5V16.2273H50.1449V24.9773H50.2926C50.5047 24.5076 50.8116 24.0303 51.2131 23.5455C51.6222 23.053 52.1525 22.6439 52.804 22.3182C53.4631 21.9848 54.2813 21.8182 55.2585 21.8182C56.5313 21.8182 57.7055 22.1515 58.7812 22.8182C59.857 23.4773 60.7169 24.4735 61.3608 25.8068C62.0047 27.1326 62.3267 28.7955 62.3267 30.7955C62.3267 32.7424 62.0123 34.3864 61.3835 35.7273C60.7623 37.0606 59.9138 38.072 58.8381 38.7614C57.7699 39.4432 56.5729 39.7841 55.2472 39.7841C54.3078 39.7841 53.5085 39.6288 52.8494 39.3182C52.1979 39.0076 51.6638 38.6174 51.2472 38.1477C50.8305 37.6705 50.5123 37.1894 50.2926 36.7045H50.0767V39.5H45.304ZM50.0426 30.7727C50.0426 31.8106 50.1866 32.7159 50.4744 33.4886C50.7623 34.2614 51.179 34.8636 51.7244 35.2955C52.2699 35.7197 52.9328 35.9318 53.7131 35.9318C54.5009 35.9318 55.1676 35.7159 55.7131 35.2841C56.2585 34.8447 56.6714 34.2386 56.9517 33.4659C57.2396 32.6856 57.3835 31.7879 57.3835 30.7727C57.3835 29.7652 57.2434 28.8788 56.9631 28.1136C56.6828 27.3485 56.2699 26.75 55.7244 26.3182C55.179 25.8864 54.5085 25.6705 53.7131 25.6705C52.9252 25.6705 52.2585 25.8788 51.7131 26.2955C51.1752 26.7121 50.7623 27.303 50.4744 28.0682C50.1866 28.8333 50.0426 29.7348 50.0426 30.7727ZM70.3977 16.2273V39.5H65.5568V16.2273H70.3977ZM82.2301 39.8409C80.4347 39.8409 78.8892 39.4773 77.5938 38.75C76.3059 38.0152 75.3134 36.9773 74.6165 35.6364C73.9195 34.2879 73.571 32.6932 73.571 30.8523C73.571 29.0568 73.9195 27.4811 74.6165 26.125C75.3134 24.7689 76.2945 23.7121 77.5597 22.9545C78.8324 22.197 80.3248 21.8182 82.0369 21.8182C83.1884 21.8182 84.2604 22.0038 85.2528 22.375C86.2528 22.7386 87.1241 23.2879 87.8665 24.0227C88.6165 24.7576 89.1998 25.6818 89.6165 26.7955C90.0331 27.9015 90.2415 29.197 90.2415 30.6818V32.0114H75.5028V29.0114H85.6847C85.6847 28.3144 85.5331 27.697 85.2301 27.1591C84.9271 26.6212 84.5066 26.2008 83.9688 25.8977C83.4384 25.5871 82.821 25.4318 82.1165 25.4318C81.3816 25.4318 80.7301 25.6023 80.1619 25.9432C79.6013 26.2765 79.1619 26.7273 78.8438 27.2955C78.5256 27.8561 78.3627 28.4811 78.3551 29.1705V32.0227C78.3551 32.8864 78.5142 33.6326 78.8324 34.2614C79.1581 34.8902 79.6165 35.375 80.2074 35.7159C80.7983 36.0568 81.4991 36.2273 82.3097 36.2273C82.8475 36.2273 83.34 36.1515 83.7869 36C84.2339 35.8485 84.6165 35.6212 84.9347 35.3182C85.2528 35.0152 85.4953 34.6439 85.6619 34.2045L90.1392 34.5C89.9119 35.5758 89.446 36.5152 88.7415 37.3182C88.0445 38.1136 87.143 38.7348 86.0369 39.1818C84.9384 39.6212 83.6695 39.8409 82.2301 39.8409Z" fill="black"/>
<rect x="2" y="74" width="104" height="52" rx="6" fill="#D9DF35"/>
<rect x="2" y="74" width="104" height="52" rx="6" stroke="white" stroke-width="4"/>
<path d="M22.7727 88.2273V111.5H17.9318V88.2273H22.7727ZM31.6278 111.83C30.5142 111.83 29.5218 111.636 28.6506 111.25C27.7794 110.856 27.09 110.277 26.5824 109.511C26.0824 108.739 25.8324 107.777 25.8324 106.625C25.8324 105.655 26.0104 104.841 26.3665 104.182C26.7225 103.523 27.2074 102.992 27.821 102.591C28.4347 102.189 29.1316 101.886 29.9119 101.682C30.6998 101.477 31.5256 101.333 32.3892 101.25C33.4044 101.144 34.2225 101.045 34.8438 100.955C35.465 100.856 35.9157 100.712 36.196 100.523C36.4763 100.333 36.6165 100.053 36.6165 99.6818V99.6136C36.6165 98.8939 36.3892 98.3371 35.9347 97.9432C35.4877 97.5492 34.8513 97.3523 34.0256 97.3523C33.1544 97.3523 32.4612 97.5455 31.946 97.9318C31.4309 98.3106 31.09 98.7879 30.9233 99.3636L26.446 99C26.6733 97.9394 27.1203 97.0227 27.7869 96.25C28.4536 95.4697 29.3134 94.8712 30.3665 94.4545C31.4271 94.0303 32.6544 93.8182 34.0483 93.8182C35.018 93.8182 35.946 93.9318 36.8324 94.1591C37.7263 94.3864 38.518 94.7386 39.2074 95.2159C39.9044 95.6932 40.4536 96.3068 40.8551 97.0568C41.2566 97.7992 41.4574 98.6894 41.4574 99.7273V111.5H36.8665V109.08H36.7301C36.4498 109.625 36.0748 110.106 35.6051 110.523C35.1354 110.932 34.571 111.254 33.9119 111.489C33.2528 111.716 32.4915 111.83 31.6278 111.83ZM33.0142 108.489C33.7263 108.489 34.3551 108.348 34.9006 108.068C35.446 107.78 35.8741 107.394 36.1847 106.909C36.4953 106.424 36.6506 105.875 36.6506 105.261V103.409C36.4991 103.508 36.2907 103.598 36.0256 103.682C35.768 103.758 35.4763 103.83 35.1506 103.898C34.8248 103.958 34.4991 104.015 34.1733 104.068C33.8475 104.114 33.5521 104.155 33.2869 104.193C32.7188 104.277 32.2225 104.409 31.7983 104.591C31.3741 104.773 31.0445 105.019 30.8097 105.33C30.5748 105.633 30.4574 106.011 30.4574 106.466C30.4574 107.125 30.696 107.629 31.1733 107.977C31.6581 108.318 32.2718 108.489 33.0142 108.489ZM45.304 111.5V88.2273H50.1449V96.9773H50.2926C50.5047 96.5076 50.8116 96.0303 51.2131 95.5455C51.6222 95.053 52.1525 94.6439 52.804 94.3182C53.4631 93.9848 54.2813 93.8182 55.2585 93.8182C56.5313 93.8182 57.7055 94.1515 58.7812 94.8182C59.857 95.4773 60.7169 96.4735 61.3608 97.8068C62.0047 99.1326 62.3267 100.795 62.3267 102.795C62.3267 104.742 62.0123 106.386 61.3835 107.727C60.7623 109.061 59.9138 110.072 58.8381 110.761C57.7699 111.443 56.5729 111.784 55.2472 111.784C54.3078 111.784 53.5085 111.629 52.8494 111.318C52.1979 111.008 51.6638 110.617 51.2472 110.148C50.8305 109.67 50.5123 109.189 50.2926 108.705H50.0767V111.5H45.304ZM50.0426 102.773C50.0426 103.811 50.1866 104.716 50.4744 105.489C50.7623 106.261 51.179 106.864 51.7244 107.295C52.2699 107.72 52.9328 107.932 53.7131 107.932C54.5009 107.932 55.1676 107.716 55.7131 107.284C56.2585 106.845 56.6714 106.239 56.9517 105.466C57.2396 104.686 57.3835 103.788 57.3835 102.773C57.3835 101.765 57.2434 100.879 56.9631 100.114C56.6828 99.3485 56.2699 98.75 55.7244 98.3182C55.179 97.8864 54.5085 97.6705 53.7131 97.6705C52.9252 97.6705 52.2585 97.8788 51.7131 98.2955C51.1752 98.7121 50.7623 99.303 50.4744 100.068C50.1866 100.833 50.0426 101.735 50.0426 102.773ZM70.3977 88.2273V111.5H65.5568V88.2273H70.3977ZM82.2301 111.841C80.4347 111.841 78.8892 111.477 77.5938 110.75C76.3059 110.015 75.3134 108.977 74.6165 107.636C73.9195 106.288 73.571 104.693 73.571 102.852C73.571 101.057 73.9195 99.4811 74.6165 98.125C75.3134 96.7689 76.2945 95.7121 77.5597 94.9545C78.8324 94.197 80.3248 93.8182 82.0369 93.8182C83.1884 93.8182 84.2604 94.0038 85.2528 94.375C86.2528 94.7386 87.1241 95.2879 87.8665 96.0227C88.6165 96.7576 89.1998 97.6818 89.6165 98.7955C90.0331 99.9015 90.2415 101.197 90.2415 102.682V104.011H75.5028V101.011H85.6847C85.6847 100.314 85.5331 99.697 85.2301 99.1591C84.9271 98.6212 84.5066 98.2008 83.9688 97.8977C83.4384 97.5871 82.821 97.4318 82.1165 97.4318C81.3816 97.4318 80.7301 97.6023 80.1619 97.9432C79.6013 98.2765 79.1619 98.7273 78.8438 99.2955C78.5256 99.8561 78.3627 100.481 78.3551 101.17V104.023C78.3551 104.886 78.5142 105.633 78.8324 106.261C79.1581 106.89 79.6165 107.375 80.2074 107.716C80.7983 108.057 81.4991 108.227 82.3097 108.227C82.8475 108.227 83.34 108.152 83.7869 108C84.2339 107.848 84.6165 107.621 84.9347 107.318C85.2528 107.015 85.4953 106.644 85.6619 106.205L90.1392 106.5C89.9119 107.576 89.446 108.515 88.7415 109.318C88.0445 110.114 87.143 110.735 86.0369 111.182C84.9384 111.621 83.6695 111.841 82.2301 111.841Z" fill="black"/>
</svg>
