<svg width="32" height="80" viewBox="0 0 32 80" fill="none" xmlns="http://www.w3.org/2000/svg">
<rect width="32" height="32" rx="8" fill="black"/>
<mask id="mask0_239_233" style="mask-type:alpha" maskUnits="userSpaceOnUse" x="4" y="4" width="24" height="24">
<rect x="4" y="4" width="24" height="24" fill="#D9D9D9"/>
</mask>
<g mask="url(#mask0_239_233)">
<path d="M7 22V20H25V22H7ZM7 17V15H25V17H7ZM7 12V10H25V12H7Z" fill="white"/>
</g>
<rect y="48" width="32" height="32" rx="8" fill="#404044"/>
<mask id="mask1_239_233" style="mask-type:alpha" maskUnits="userSpaceOnUse" x="4" y="52" width="24" height="24">
<rect x="4" y="52" width="24" height="24" fill="#D9D9D9"/>
</mask>
<g mask="url(#mask1_239_233)">
<path d="M7 70V68H25V70H7ZM7 65V63H25V65H7ZM7 60V58H25V60H7Z" fill="white"/>
</g>
</svg>
