<svg width="200" height="60" viewBox="0 0 200 60" fill="none" xmlns="http://www.w3.org/2000/svg">
<path d="M0 8C0 3.58172 3.58172 0 8 0H192C196.418 0 200 3.58172 200 8V30H0V8Z" fill="white"/>
<path d="M0.5 8C0.5 3.85786 3.85786 0.5 8 0.5H192C196.142 0.5 199.5 3.85787 199.5 8V29.5H0.5V8Z" stroke="black" stroke-opacity="0.04"/>
<path d="M17.7273 21V12.2727H19.0227V13.5909H19.1136C19.2727 13.1591 19.5606 12.8087 19.9773 12.5398C20.3939 12.2708 20.8636 12.1364 21.3864 12.1364C21.4848 12.1364 21.608 12.1383 21.7557 12.142C21.9034 12.1458 22.0152 12.1515 22.0909 12.1591V13.5227C22.0455 13.5114 21.9413 13.4943 21.7784 13.4716C21.6193 13.4451 21.4508 13.4318 21.2727 13.4318C20.8485 13.4318 20.4697 13.5208 20.1364 13.6989C19.8068 13.8731 19.5455 14.1155 19.3523 14.4261C19.1629 14.733 19.0682 15.0833 19.0682 15.4773V21H17.7273ZM26.9375 24.4545C26.2898 24.4545 25.733 24.3712 25.267 24.2045C24.8011 24.0417 24.4129 23.8258 24.1023 23.5568C23.7955 23.2917 23.5511 23.0076 23.3693 22.7045L24.4375 21.9545C24.5587 22.1136 24.7121 22.2955 24.8977 22.5C25.0833 22.7083 25.3371 22.8883 25.6591 23.0398C25.9848 23.1951 26.411 23.2727 26.9375 23.2727C27.642 23.2727 28.2235 23.1023 28.6818 22.7614C29.1402 22.4205 29.3693 21.8864 29.3693 21.1591V19.3864H29.2557C29.1572 19.5455 29.017 19.7424 28.8352 19.9773C28.6572 20.2083 28.3996 20.4148 28.0625 20.5966C27.7292 20.7746 27.2784 20.8636 26.7102 20.8636C26.0057 20.8636 25.3731 20.697 24.8125 20.3636C24.2557 20.0303 23.8144 19.5455 23.4886 18.9091C23.1667 18.2727 23.0057 17.5 23.0057 16.5909C23.0057 15.697 23.1629 14.9186 23.4773 14.2557C23.7917 13.589 24.2292 13.0739 24.7898 12.7102C25.3504 12.3428 25.9981 12.1591 26.733 12.1591C27.3011 12.1591 27.7519 12.2538 28.0852 12.4432C28.4223 12.6288 28.6799 12.8409 28.858 13.0795C29.0398 13.3144 29.1799 13.5076 29.2784 13.6591H29.4148V12.2727H30.7102V21.25C30.7102 22 30.5398 22.6098 30.1989 23.0795C29.8617 23.553 29.4072 23.8996 28.8352 24.1193C28.267 24.3428 27.6345 24.4545 26.9375 24.4545ZM26.892 19.6591C27.4299 19.6591 27.8845 19.536 28.2557 19.2898C28.6269 19.0436 28.9091 18.6894 29.1023 18.2273C29.2955 17.7652 29.392 17.2121 29.392 16.5682C29.392 15.9394 29.2973 15.3845 29.108 14.9034C28.9186 14.4223 28.6383 14.0455 28.267 13.7727C27.8958 13.5 27.4375 13.3636 26.892 13.3636C26.3239 13.3636 25.8504 13.5076 25.4716 13.7955C25.0966 14.0833 24.8144 14.4697 24.625 14.9545C24.4394 15.4394 24.3466 15.9773 24.3466 16.5682C24.3466 17.1742 24.4413 17.7102 24.6307 18.1761C24.8239 18.6383 25.108 19.0019 25.483 19.267C25.8617 19.5284 26.3314 19.6591 26.892 19.6591ZM33.3466 21V9.36364H34.6875V13.6591H34.8011C34.8996 13.5076 35.036 13.3144 35.2102 13.0795C35.3883 12.8409 35.642 12.6288 35.9716 12.4432C36.3049 12.2538 36.7557 12.1591 37.3239 12.1591C38.0587 12.1591 38.7064 12.3428 39.267 12.7102C39.8277 13.0777 40.2652 13.5985 40.5795 14.2727C40.8939 14.947 41.0511 15.7424 41.0511 16.6591C41.0511 17.5833 40.8939 18.3845 40.5795 19.0625C40.2652 19.7367 39.8295 20.2595 39.2727 20.6307C38.7159 20.9981 38.0739 21.1818 37.3466 21.1818C36.786 21.1818 36.3371 21.089 36 20.9034C35.6629 20.714 35.4034 20.5 35.2216 20.2614C35.0398 20.0189 34.8996 19.8182 34.8011 19.6591H34.642V21H33.3466ZM34.6648 16.6364C34.6648 17.2955 34.7614 17.8769 34.9545 18.3807C35.1477 18.8807 35.4299 19.2727 35.8011 19.5568C36.1723 19.8371 36.6269 19.9773 37.1648 19.9773C37.7254 19.9773 38.1932 19.8295 38.5682 19.5341C38.947 19.2348 39.2311 18.8333 39.4205 18.3295C39.6136 17.822 39.7102 17.2576 39.7102 16.6364C39.7102 16.0227 39.6155 15.4697 39.4261 14.9773C39.2405 14.4811 38.9583 14.089 38.5795 13.8011C38.2045 13.5095 37.733 13.3636 37.1648 13.3636C36.6193 13.3636 36.161 13.5019 35.7898 13.7784C35.4186 14.0511 35.1383 14.4337 34.9489 14.9261C34.7595 15.4148 34.6648 15.9848 34.6648 16.6364ZM45.6705 21.2045C45.1174 21.2045 44.6155 21.1004 44.1648 20.892C43.714 20.6799 43.3561 20.375 43.0909 19.9773C42.8258 19.5758 42.6932 19.0909 42.6932 18.5227C42.6932 18.0227 42.7917 17.6174 42.9886 17.3068C43.1856 16.9924 43.4489 16.7462 43.7784 16.5682C44.108 16.3902 44.4716 16.2576 44.8693 16.1705C45.2708 16.0795 45.6742 16.0076 46.0795 15.9545C46.6098 15.8864 47.0398 15.8352 47.3693 15.8011C47.7027 15.7633 47.9451 15.7008 48.0966 15.6136C48.2519 15.5265 48.3295 15.375 48.3295 15.1591V15.1136C48.3295 14.553 48.1761 14.1174 47.8693 13.8068C47.5663 13.4962 47.1061 13.3409 46.4886 13.3409C45.8485 13.3409 45.3466 13.4811 44.983 13.7614C44.6193 14.0417 44.3636 14.3409 44.2159 14.6591L42.9432 14.2045C43.1705 13.6742 43.4735 13.2614 43.8523 12.9659C44.2348 12.6667 44.6515 12.4583 45.1023 12.3409C45.5568 12.2197 46.0038 12.1591 46.4432 12.1591C46.7235 12.1591 47.0455 12.1932 47.4091 12.2614C47.7765 12.3258 48.1307 12.4602 48.4716 12.6648C48.8163 12.8693 49.1023 13.178 49.3295 13.5909C49.5568 14.0038 49.6705 14.5568 49.6705 15.25V21H48.3295V19.8182H48.2614C48.1705 20.0076 48.0189 20.2102 47.8068 20.4261C47.5947 20.642 47.3125 20.8258 46.9602 20.9773C46.608 21.1288 46.178 21.2045 45.6705 21.2045ZM45.875 20C46.4053 20 46.8523 19.8958 47.2159 19.6875C47.5833 19.4792 47.8598 19.2102 48.0455 18.8807C48.2348 18.5511 48.3295 18.2045 48.3295 17.8409V16.6136C48.2727 16.6818 48.1477 16.7443 47.9545 16.8011C47.7652 16.8542 47.5455 16.9015 47.2955 16.9432C47.0492 16.9811 46.8087 17.0152 46.5739 17.0455C46.3428 17.072 46.1553 17.0947 46.0114 17.1136C45.6629 17.1591 45.3371 17.233 45.0341 17.3352C44.7348 17.4337 44.4924 17.5833 44.3068 17.7841C44.125 17.9811 44.0341 18.25 44.0341 18.5909C44.0341 19.0568 44.2064 19.4091 44.5511 19.6477C44.8996 19.8826 45.3409 20 45.875 20ZM52.5952 16.0909C52.5952 14.6591 52.7808 13.3428 53.152 12.142C53.527 10.9375 54.0611 9.82955 54.7543 8.81818H55.9361C55.6634 9.19318 55.4077 9.6553 55.169 10.2045C54.9342 10.75 54.7277 11.3504 54.5497 12.0057C54.3717 12.6572 54.2315 13.3314 54.1293 14.0284C54.0308 14.7254 53.9815 15.4129 53.9815 16.0909C53.9815 16.9924 54.0687 17.9072 54.2429 18.8352C54.4171 19.7633 54.652 20.625 54.9474 21.4205C55.2429 22.2159 55.5724 22.8636 55.9361 23.3636H54.7543C54.0611 22.3523 53.527 21.2462 53.152 20.0455C52.7808 18.8409 52.5952 17.5227 52.5952 16.0909ZM57.892 21V19.9773L61.733 15.7727C62.1837 15.2803 62.5549 14.8523 62.8466 14.4886C63.1383 14.1212 63.3542 13.7765 63.4943 13.4545C63.6383 13.1288 63.7102 12.7879 63.7102 12.4318C63.7102 12.0227 63.6117 11.6686 63.4148 11.3693C63.2216 11.0701 62.9564 10.839 62.6193 10.6761C62.2822 10.5133 61.9034 10.4318 61.483 10.4318C61.036 10.4318 60.6458 10.5246 60.3125 10.7102C59.983 10.892 59.7273 11.1477 59.5455 11.4773C59.3674 11.8068 59.2784 12.1932 59.2784 12.6364H57.9375C57.9375 11.9545 58.0947 11.3561 58.4091 10.8409C58.7235 10.3258 59.1515 9.92424 59.6932 9.63636C60.2386 9.34848 60.8504 9.20455 61.5284 9.20455C62.2102 9.20455 62.8144 9.34848 63.3409 9.63636C63.8674 9.92424 64.2803 10.3125 64.5795 10.8011C64.8788 11.2898 65.0284 11.8333 65.0284 12.4318C65.0284 12.8598 64.9508 13.2784 64.7955 13.6875C64.6439 14.0928 64.3788 14.5455 64 15.0455C63.625 15.5417 63.1042 16.1477 62.4375 16.8636L59.8239 19.6591V19.75H65.233V21H57.892ZM71.2159 21.1591C70.5492 21.1591 69.9489 21.0265 69.4148 20.7614C68.8807 20.4962 68.4527 20.1326 68.1307 19.6705C67.8087 19.2083 67.6326 18.6818 67.6023 18.0909H68.9659C69.0189 18.6174 69.2576 19.053 69.6818 19.3977C70.1098 19.7386 70.6212 19.9091 71.2159 19.9091C71.6932 19.9091 72.1174 19.7973 72.4886 19.5739C72.8636 19.3504 73.1572 19.0436 73.3693 18.6534C73.5852 18.2595 73.6932 17.8144 73.6932 17.3182C73.6932 16.8106 73.5814 16.358 73.358 15.9602C73.1383 15.5587 72.8352 15.2424 72.4489 15.0114C72.0625 14.7803 71.6212 14.6629 71.125 14.6591C70.7689 14.6553 70.4034 14.7102 70.0284 14.8239C69.6534 14.9337 69.3447 15.0758 69.1023 15.25L67.7841 15.0909L68.4886 9.36364H74.5341V10.6136H69.6705L69.2614 14.0455H69.3295C69.5682 13.8561 69.8674 13.6989 70.2273 13.5739C70.5871 13.4489 70.9621 13.3864 71.3523 13.3864C72.0644 13.3864 72.6989 13.5568 73.2557 13.8977C73.8163 14.2348 74.2557 14.697 74.5739 15.2841C74.8958 15.8712 75.0568 16.5417 75.0568 17.2955C75.0568 18.0379 74.8902 18.7008 74.5568 19.2841C74.2273 19.8636 73.7727 20.322 73.1932 20.6591C72.6136 20.9924 71.9545 21.1591 71.2159 21.1591ZM80.9503 21.1591C80.2836 21.1591 79.6832 21.0265 79.1491 20.7614C78.6151 20.4962 78.187 20.1326 77.8651 19.6705C77.5431 19.2083 77.367 18.6818 77.3366 18.0909H78.7003C78.7533 18.6174 78.992 19.053 79.4162 19.3977C79.8442 19.7386 80.3556 19.9091 80.9503 19.9091C81.4276 19.9091 81.8518 19.7973 82.223 19.5739C82.598 19.3504 82.8916 19.0436 83.1037 18.6534C83.3196 18.2595 83.4276 17.8144 83.4276 17.3182C83.4276 16.8106 83.3158 16.358 83.0923 15.9602C82.8726 15.5587 82.5696 15.2424 82.1832 15.0114C81.7969 14.7803 81.3556 14.6629 80.8594 14.6591C80.5033 14.6553 80.1378 14.7102 79.7628 14.8239C79.3878 14.9337 79.0791 15.0758 78.8366 15.25L77.5185 15.0909L78.223 9.36364H84.2685V10.6136H79.4048L78.9957 14.0455H79.0639C79.3026 13.8561 79.6018 13.6989 79.9616 13.5739C80.3215 13.4489 80.6965 13.3864 81.0866 13.3864C81.7988 13.3864 82.4332 13.5568 82.9901 13.8977C83.5507 14.2348 83.9901 14.697 84.3082 15.2841C84.6302 15.8712 84.7912 16.5417 84.7912 17.2955C84.7912 18.0379 84.6245 18.7008 84.2912 19.2841C83.9616 19.8636 83.5071 20.322 82.9276 20.6591C82.348 20.9924 81.6889 21.1591 80.9503 21.1591ZM88.6335 19.4091L88.5426 20.0227C88.4782 20.4545 88.3797 20.9167 88.2472 21.4091C88.1184 21.9015 87.9839 22.3655 87.8438 22.8011C87.7036 23.2367 87.5881 23.5833 87.4972 23.8409H86.4744C86.5237 23.5985 86.5881 23.2784 86.6676 22.8807C86.7472 22.483 86.8267 22.0379 86.9062 21.5455C86.9896 21.0568 87.0578 20.5568 87.1108 20.0455L87.179 19.4091H88.6335ZM95.5952 21V19.9773L99.4361 15.7727C99.8868 15.2803 100.258 14.8523 100.55 14.4886C100.841 14.1212 101.057 13.7765 101.197 13.4545C101.341 13.1288 101.413 12.7879 101.413 12.4318C101.413 12.0227 101.315 11.6686 101.118 11.3693C100.925 11.0701 100.66 10.839 100.322 10.6761C99.9853 10.5133 99.6065 10.4318 99.1861 10.4318C98.7391 10.4318 98.349 10.5246 98.0156 10.7102C97.6861 10.892 97.4304 11.1477 97.2486 11.4773C97.0705 11.8068 96.9815 12.1932 96.9815 12.6364H95.6406C95.6406 11.9545 95.7978 11.3561 96.1122 10.8409C96.4266 10.3258 96.8546 9.92424 97.3963 9.63636C97.9418 9.34848 98.5535 9.20455 99.2315 9.20455C99.9134 9.20455 100.518 9.34848 101.044 9.63636C101.571 9.92424 101.983 10.3125 102.283 10.8011C102.582 11.2898 102.732 11.8333 102.732 12.4318C102.732 12.8598 102.654 13.2784 102.499 13.6875C102.347 14.0928 102.082 14.5455 101.703 15.0455C101.328 15.5417 100.807 16.1477 100.141 16.8636L97.527 19.6591V19.75H102.936V21H95.5952ZM108.919 21.1591C108.252 21.1591 107.652 21.0265 107.118 20.7614C106.584 20.4962 106.156 20.1326 105.834 19.6705C105.512 19.2083 105.336 18.6818 105.305 18.0909H106.669C106.722 18.6174 106.961 19.053 107.385 19.3977C107.813 19.7386 108.324 19.9091 108.919 19.9091C109.396 19.9091 109.821 19.7973 110.192 19.5739C110.567 19.3504 110.86 19.0436 111.072 18.6534C111.288 18.2595 111.396 17.8144 111.396 17.3182C111.396 16.8106 111.285 16.358 111.061 15.9602C110.841 15.5587 110.538 15.2424 110.152 15.0114C109.766 14.7803 109.324 14.6629 108.828 14.6591C108.472 14.6553 108.107 14.7102 107.732 14.8239C107.357 14.9337 107.048 15.0758 106.805 15.25L105.487 15.0909L106.192 9.36364H112.237V10.6136H107.374L106.964 14.0455H107.033C107.271 13.8561 107.571 13.6989 107.93 13.5739C108.29 13.4489 108.665 13.3864 109.055 13.3864C109.768 13.3864 110.402 13.5568 110.959 13.8977C111.519 14.2348 111.959 14.697 112.277 15.2841C112.599 15.8712 112.76 16.5417 112.76 17.2955C112.76 18.0379 112.593 18.7008 112.26 19.2841C111.93 19.8636 111.476 20.322 110.896 20.6591C110.317 20.9924 109.658 21.1591 108.919 21.1591ZM118.653 21.1591C117.987 21.1591 117.386 21.0265 116.852 20.7614C116.318 20.4962 115.89 20.1326 115.568 19.6705C115.246 19.2083 115.07 18.6818 115.04 18.0909H116.403C116.456 18.6174 116.695 19.053 117.119 19.3977C117.547 19.7386 118.059 19.9091 118.653 19.9091C119.131 19.9091 119.555 19.7973 119.926 19.5739C120.301 19.3504 120.595 19.0436 120.807 18.6534C121.023 18.2595 121.131 17.8144 121.131 17.3182C121.131 16.8106 121.019 16.358 120.795 15.9602C120.576 15.5587 120.273 15.2424 119.886 15.0114C119.5 14.7803 119.059 14.6629 118.562 14.6591C118.206 14.6553 117.841 14.7102 117.466 14.8239C117.091 14.9337 116.782 15.0758 116.54 15.25L115.222 15.0909L115.926 9.36364H121.972V10.6136H117.108L116.699 14.0455H116.767C117.006 13.8561 117.305 13.6989 117.665 13.5739C118.025 13.4489 118.4 13.3864 118.79 13.3864C119.502 13.3864 120.136 13.5568 120.693 13.8977C121.254 14.2348 121.693 14.697 122.011 15.2841C122.333 15.8712 122.494 16.5417 122.494 17.2955C122.494 18.0379 122.328 18.7008 121.994 19.2841C121.665 19.8636 121.21 20.322 120.631 20.6591C120.051 20.9924 119.392 21.1591 118.653 21.1591ZM126.337 19.4091L126.246 20.0227C126.181 20.4545 126.083 20.9167 125.95 21.4091C125.821 21.9015 125.687 22.3655 125.547 22.8011C125.407 23.2367 125.291 23.5833 125.2 23.8409H124.178C124.227 23.5985 124.291 23.2784 124.371 22.8807C124.45 22.483 124.53 22.0379 124.609 21.5455C124.693 21.0568 124.761 20.5568 124.814 20.0455L124.882 19.4091H126.337ZM133.298 21V19.9773L137.139 15.7727C137.59 15.2803 137.961 14.8523 138.253 14.4886C138.545 14.1212 138.76 13.7765 138.901 13.4545C139.045 13.1288 139.116 12.7879 139.116 12.4318C139.116 12.0227 139.018 11.6686 138.821 11.3693C138.628 11.0701 138.363 10.839 138.026 10.6761C137.688 10.5133 137.31 10.4318 136.889 10.4318C136.442 10.4318 136.052 10.5246 135.719 10.7102C135.389 10.892 135.134 11.1477 134.952 11.4773C134.774 11.8068 134.685 12.1932 134.685 12.6364H133.344C133.344 11.9545 133.501 11.3561 133.815 10.8409C134.13 10.3258 134.558 9.92424 135.099 9.63636C135.645 9.34848 136.257 9.20455 136.935 9.20455C137.616 9.20455 138.221 9.34848 138.747 9.63636C139.274 9.92424 139.687 10.3125 139.986 10.8011C140.285 11.2898 140.435 11.8333 140.435 12.4318C140.435 12.8598 140.357 13.2784 140.202 13.6875C140.05 14.0928 139.785 14.5455 139.406 15.0455C139.031 15.5417 138.51 16.1477 137.844 16.8636L135.23 19.6591V19.75H140.639V21H133.298ZM146.622 21.1591C145.955 21.1591 145.355 21.0265 144.821 20.7614C144.287 20.4962 143.859 20.1326 143.537 19.6705C143.215 19.2083 143.039 18.6818 143.009 18.0909H144.372C144.425 18.6174 144.664 19.053 145.088 19.3977C145.516 19.7386 146.027 19.9091 146.622 19.9091C147.099 19.9091 147.524 19.7973 147.895 19.5739C148.27 19.3504 148.563 19.0436 148.776 18.6534C148.991 18.2595 149.099 17.8144 149.099 17.3182C149.099 16.8106 148.988 16.358 148.764 15.9602C148.545 15.5587 148.241 15.2424 147.855 15.0114C147.469 14.7803 147.027 14.6629 146.531 14.6591C146.175 14.6553 145.81 14.7102 145.435 14.8239C145.06 14.9337 144.751 15.0758 144.509 15.25L143.19 15.0909L143.895 9.36364H149.94V10.6136H145.077L144.668 14.0455H144.736C144.974 13.8561 145.274 13.6989 145.634 13.5739C145.993 13.4489 146.368 13.3864 146.759 13.3864C147.471 13.3864 148.105 13.5568 148.662 13.8977C149.223 14.2348 149.662 14.697 149.98 15.2841C150.302 15.8712 150.463 16.5417 150.463 17.2955C150.463 18.0379 150.296 18.7008 149.963 19.2841C149.634 19.8636 149.179 20.322 148.599 20.6591C148.02 20.9924 147.361 21.1591 146.622 21.1591ZM156.357 21.1591C155.69 21.1591 155.089 21.0265 154.555 20.7614C154.021 20.4962 153.593 20.1326 153.271 19.6705C152.949 19.2083 152.773 18.6818 152.743 18.0909H154.107C154.16 18.6174 154.398 19.053 154.822 19.3977C155.25 19.7386 155.762 19.9091 156.357 19.9091C156.834 19.9091 157.258 19.7973 157.629 19.5739C158.004 19.3504 158.298 19.0436 158.51 18.6534C158.726 18.2595 158.834 17.8144 158.834 17.3182C158.834 16.8106 158.722 16.358 158.499 15.9602C158.279 15.5587 157.976 15.2424 157.589 15.0114C157.203 14.7803 156.762 14.6629 156.266 14.6591C155.91 14.6553 155.544 14.7102 155.169 14.8239C154.794 14.9337 154.485 15.0758 154.243 15.25L152.925 15.0909L153.629 9.36364H159.675V10.6136H154.811L154.402 14.0455H154.47C154.709 13.8561 155.008 13.6989 155.368 13.5739C155.728 13.4489 156.103 13.3864 156.493 13.3864C157.205 13.3864 157.839 13.5568 158.396 13.8977C158.957 14.2348 159.396 14.697 159.714 15.2841C160.036 15.8712 160.197 16.5417 160.197 17.2955C160.197 18.0379 160.031 18.7008 159.697 19.2841C159.368 19.8636 158.913 20.322 158.334 20.6591C157.754 20.9924 157.095 21.1591 156.357 21.1591ZM164.04 19.4091L163.949 20.0227C163.884 20.4545 163.786 20.9167 163.653 21.4091C163.525 21.9015 163.39 22.3655 163.25 22.8011C163.11 23.2367 162.994 23.5833 162.903 23.8409H161.881C161.93 23.5985 161.994 23.2784 162.074 22.8807C162.153 22.483 162.233 22.0379 162.312 21.5455C162.396 21.0568 162.464 20.5568 162.517 20.0455L162.585 19.4091H164.04ZM175.092 9.36364V21H173.683V10.8409H173.615L170.774 12.7273V11.2955L173.683 9.36364H175.092ZM181.325 15.1818C181.325 16.6136 181.138 17.9318 180.763 19.1364C180.392 20.3371 179.859 21.4432 179.166 22.4545H177.984C178.257 22.0795 178.511 21.6174 178.746 21.0682C178.984 20.5227 179.193 19.9242 179.371 19.2727C179.549 18.6174 179.687 17.9413 179.786 17.2443C179.888 16.5436 179.939 15.8561 179.939 15.1818C179.939 14.2803 179.852 13.3655 179.678 12.4375C179.503 11.5095 179.268 10.6477 178.973 9.85227C178.678 9.05682 178.348 8.40909 177.984 7.90909H179.166C179.859 8.92045 180.392 10.0284 180.763 11.233C181.138 12.4337 181.325 13.75 181.325 15.1818Z" fill="black"/>
<path d="M0 30H200V52C200 56.4183 196.418 60 192 60H8C3.58173 60 0 56.4183 0 52V30Z" fill="#CDCDCD"/>
<path d="M0.5 30.5H199.5V52C199.5 56.1421 196.142 59.5 192 59.5H8C3.85787 59.5 0.5 56.1421 0.5 52V30.5Z" stroke="#EBEAEA" stroke-opacity="0.12"/>
<path d="M17.2273 51V42.2727H18.5227V43.5909H18.6136C18.7727 43.1591 19.0606 42.8087 19.4773 42.5398C19.8939 42.2708 20.3636 42.1364 20.8864 42.1364C20.9848 42.1364 21.108 42.1383 21.2557 42.142C21.4034 42.1458 21.5152 42.1515 21.5909 42.1591V43.5227C21.5455 43.5114 21.4413 43.4943 21.2784 43.4716C21.1193 43.4451 20.9508 43.4318 20.7727 43.4318C20.3485 43.4318 19.9697 43.5208 19.6364 43.6989C19.3068 43.8731 19.0455 44.1155 18.8523 44.4261C18.6629 44.733 18.5682 45.0833 18.5682 45.4773V51H17.2273ZM26.4375 54.4545C25.7898 54.4545 25.233 54.3712 24.767 54.2045C24.3011 54.0417 23.9129 53.8258 23.6023 53.5568C23.2955 53.2917 23.0511 53.0076 22.8693 52.7045L23.9375 51.9545C24.0587 52.1136 24.2121 52.2955 24.3977 52.5C24.5833 52.7083 24.8371 52.8883 25.1591 53.0398C25.4848 53.1951 25.911 53.2727 26.4375 53.2727C27.142 53.2727 27.7235 53.1023 28.1818 52.7614C28.6402 52.4205 28.8693 51.8864 28.8693 51.1591V49.3864H28.7557C28.6572 49.5455 28.517 49.7424 28.3352 49.9773C28.1572 50.2083 27.8996 50.4148 27.5625 50.5966C27.2292 50.7746 26.7784 50.8636 26.2102 50.8636C25.5057 50.8636 24.8731 50.697 24.3125 50.3636C23.7557 50.0303 23.3144 49.5455 22.9886 48.9091C22.6667 48.2727 22.5057 47.5 22.5057 46.5909C22.5057 45.697 22.6629 44.9186 22.9773 44.2557C23.2917 43.589 23.7292 43.0739 24.2898 42.7102C24.8504 42.3428 25.4981 42.1591 26.233 42.1591C26.8011 42.1591 27.2519 42.2538 27.5852 42.4432C27.9223 42.6288 28.1799 42.8409 28.358 43.0795C28.5398 43.3144 28.6799 43.5076 28.7784 43.6591H28.9148V42.2727H30.2102V51.25C30.2102 52 30.0398 52.6098 29.6989 53.0795C29.3617 53.553 28.9072 53.8996 28.3352 54.1193C27.767 54.3428 27.1345 54.4545 26.4375 54.4545ZM26.392 49.6591C26.9299 49.6591 27.3845 49.536 27.7557 49.2898C28.1269 49.0436 28.4091 48.6894 28.6023 48.2273C28.7955 47.7652 28.892 47.2121 28.892 46.5682C28.892 45.9394 28.7973 45.3845 28.608 44.9034C28.4186 44.4223 28.1383 44.0455 27.767 43.7727C27.3958 43.5 26.9375 43.3636 26.392 43.3636C25.8239 43.3636 25.3504 43.5076 24.9716 43.7955C24.5966 44.0833 24.3144 44.4697 24.125 44.9545C23.9394 45.4394 23.8466 45.9773 23.8466 46.5682C23.8466 47.1742 23.9413 47.7102 24.1307 48.1761C24.3239 48.6383 24.608 49.0019 24.983 49.267C25.3617 49.5284 25.8314 49.6591 26.392 49.6591ZM32.8466 51V39.3636H34.1875V43.6591H34.3011C34.3996 43.5076 34.536 43.3144 34.7102 43.0795C34.8883 42.8409 35.142 42.6288 35.4716 42.4432C35.8049 42.2538 36.2557 42.1591 36.8239 42.1591C37.5587 42.1591 38.2064 42.3428 38.767 42.7102C39.3277 43.0777 39.7652 43.5985 40.0795 44.2727C40.3939 44.947 40.5511 45.7424 40.5511 46.6591C40.5511 47.5833 40.3939 48.3845 40.0795 49.0625C39.7652 49.7367 39.3295 50.2595 38.7727 50.6307C38.2159 50.9981 37.5739 51.1818 36.8466 51.1818C36.286 51.1818 35.8371 51.089 35.5 50.9034C35.1629 50.714 34.9034 50.5 34.7216 50.2614C34.5398 50.0189 34.3996 49.8182 34.3011 49.6591H34.142V51H32.8466ZM34.1648 46.6364C34.1648 47.2955 34.2614 47.8769 34.4545 48.3807C34.6477 48.8807 34.9299 49.2727 35.3011 49.5568C35.6723 49.8371 36.1269 49.9773 36.6648 49.9773C37.2254 49.9773 37.6932 49.8295 38.0682 49.5341C38.447 49.2348 38.7311 48.8333 38.9205 48.3295C39.1136 47.822 39.2102 47.2576 39.2102 46.6364C39.2102 46.0227 39.1155 45.4697 38.9261 44.9773C38.7405 44.4811 38.4583 44.089 38.0795 43.8011C37.7045 43.5095 37.233 43.3636 36.6648 43.3636C36.1193 43.3636 35.661 43.5019 35.2898 43.7784C34.9186 44.0511 34.6383 44.4337 34.4489 44.9261C34.2595 45.4148 34.1648 45.9848 34.1648 46.6364ZM45.1705 51.2045C44.6174 51.2045 44.1155 51.1004 43.6648 50.892C43.214 50.6799 42.8561 50.375 42.5909 49.9773C42.3258 49.5758 42.1932 49.0909 42.1932 48.5227C42.1932 48.0227 42.2917 47.6174 42.4886 47.3068C42.6856 46.9924 42.9489 46.7462 43.2784 46.5682C43.608 46.3902 43.9716 46.2576 44.3693 46.1705C44.7708 46.0795 45.1742 46.0076 45.5795 45.9545C46.1098 45.8864 46.5398 45.8352 46.8693 45.8011C47.2027 45.7633 47.4451 45.7008 47.5966 45.6136C47.7519 45.5265 47.8295 45.375 47.8295 45.1591V45.1136C47.8295 44.553 47.6761 44.1174 47.3693 43.8068C47.0663 43.4962 46.6061 43.3409 45.9886 43.3409C45.3485 43.3409 44.8466 43.4811 44.483 43.7614C44.1193 44.0417 43.8636 44.3409 43.7159 44.6591L42.4432 44.2045C42.6705 43.6742 42.9735 43.2614 43.3523 42.9659C43.7348 42.6667 44.1515 42.4583 44.6023 42.3409C45.0568 42.2197 45.5038 42.1591 45.9432 42.1591C46.2235 42.1591 46.5455 42.1932 46.9091 42.2614C47.2765 42.3258 47.6307 42.4602 47.9716 42.6648C48.3163 42.8693 48.6023 43.178 48.8295 43.5909C49.0568 44.0038 49.1705 44.5568 49.1705 45.25V51H47.8295V49.8182H47.7614C47.6705 50.0076 47.5189 50.2102 47.3068 50.4261C47.0947 50.642 46.8125 50.8258 46.4602 50.9773C46.108 51.1288 45.678 51.2045 45.1705 51.2045ZM45.375 50C45.9053 50 46.3523 49.8958 46.7159 49.6875C47.0833 49.4792 47.3598 49.2102 47.5455 48.8807C47.7348 48.5511 47.8295 48.2045 47.8295 47.8409V46.6136C47.7727 46.6818 47.6477 46.7443 47.4545 46.8011C47.2652 46.8542 47.0455 46.9015 46.7955 46.9432C46.5492 46.9811 46.3087 47.0152 46.0739 47.0455C45.8428 47.072 45.6553 47.0947 45.5114 47.1136C45.1629 47.1591 44.8371 47.233 44.5341 47.3352C44.2348 47.4337 43.9924 47.5833 43.8068 47.7841C43.625 47.9811 43.5341 48.25 43.5341 48.5909C43.5341 49.0568 43.7064 49.4091 44.0511 49.6477C44.3996 49.8826 44.8409 50 45.375 50ZM52.0952 46.0909C52.0952 44.6591 52.2808 43.3428 52.652 42.142C53.027 40.9375 53.5611 39.8295 54.2543 38.8182H55.4361C55.1634 39.1932 54.9077 39.6553 54.669 40.2045C54.4342 40.75 54.2277 41.3504 54.0497 42.0057C53.8717 42.6572 53.7315 43.3314 53.6293 44.0284C53.5308 44.7254 53.4815 45.4129 53.4815 46.0909C53.4815 46.9924 53.5687 47.9072 53.7429 48.8352C53.9171 49.7633 54.152 50.625 54.4474 51.4205C54.7429 52.2159 55.0724 52.8636 55.4361 53.3636H54.2543C53.5611 52.3523 53.027 51.2462 52.652 50.0455C52.2808 48.8409 52.0952 47.5227 52.0952 46.0909ZM57.392 51V49.9773L61.233 45.7727C61.6837 45.2803 62.0549 44.8523 62.3466 44.4886C62.6383 44.1212 62.8542 43.7765 62.9943 43.4545C63.1383 43.1288 63.2102 42.7879 63.2102 42.4318C63.2102 42.0227 63.1117 41.6686 62.9148 41.3693C62.7216 41.0701 62.4564 40.839 62.1193 40.6761C61.7822 40.5133 61.4034 40.4318 60.983 40.4318C60.536 40.4318 60.1458 40.5246 59.8125 40.7102C59.483 40.892 59.2273 41.1477 59.0455 41.4773C58.8674 41.8068 58.7784 42.1932 58.7784 42.6364H57.4375C57.4375 41.9545 57.5947 41.3561 57.9091 40.8409C58.2235 40.3258 58.6515 39.9242 59.1932 39.6364C59.7386 39.3485 60.3504 39.2045 61.0284 39.2045C61.7102 39.2045 62.3144 39.3485 62.8409 39.6364C63.3674 39.9242 63.7803 40.3125 64.0795 40.8011C64.3788 41.2898 64.5284 41.8333 64.5284 42.4318C64.5284 42.8598 64.4508 43.2784 64.2955 43.6875C64.1439 44.0928 63.8788 44.5455 63.5 45.0455C63.125 45.5417 62.6042 46.1477 61.9375 46.8636L59.3239 49.6591V49.75H64.733V51H57.392ZM70.875 51.1591C70.0189 51.1591 69.2898 50.9261 68.6875 50.4602C68.0852 49.9905 67.625 49.3106 67.3068 48.4205C66.9886 47.5265 66.8295 46.447 66.8295 45.1818C66.8295 43.9242 66.9886 42.8504 67.3068 41.9602C67.6288 41.0663 68.0909 40.3845 68.6932 39.9148C69.2992 39.4413 70.0265 39.2045 70.875 39.2045C71.7235 39.2045 72.4489 39.4413 73.0511 39.9148C73.6572 40.3845 74.1193 41.0663 74.4375 41.9602C74.7595 42.8504 74.9205 43.9242 74.9205 45.1818C74.9205 46.447 74.7614 47.5265 74.4432 48.4205C74.125 49.3106 73.6648 49.9905 73.0625 50.4602C72.4602 50.9261 71.7311 51.1591 70.875 51.1591ZM70.875 49.9091C71.7235 49.9091 72.3826 49.5 72.8523 48.6818C73.322 47.8636 73.5568 46.697 73.5568 45.1818C73.5568 44.1742 73.4489 43.3163 73.233 42.608C73.0208 41.8996 72.714 41.3598 72.3125 40.9886C71.9148 40.6174 71.4356 40.4318 70.875 40.4318C70.0341 40.4318 69.3769 40.8466 68.9034 41.6761C68.4299 42.5019 68.1932 43.6705 68.1932 45.1818C68.1932 46.1894 68.2992 47.0455 68.5114 47.75C68.7235 48.4545 69.0284 48.9905 69.4261 49.358C69.8277 49.7254 70.3106 49.9091 70.875 49.9091ZM80.7159 51.1591C80.0492 51.1591 79.4489 51.0265 78.9148 50.7614C78.3807 50.4962 77.9527 50.1326 77.6307 49.6705C77.3087 49.2083 77.1326 48.6818 77.1023 48.0909H78.4659C78.5189 48.6174 78.7576 49.053 79.1818 49.3977C79.6098 49.7386 80.1212 49.9091 80.7159 49.9091C81.1932 49.9091 81.6174 49.7973 81.9886 49.5739C82.3636 49.3504 82.6572 49.0436 82.8693 48.6534C83.0852 48.2595 83.1932 47.8144 83.1932 47.3182C83.1932 46.8106 83.0814 46.358 82.858 45.9602C82.6383 45.5587 82.3352 45.2424 81.9489 45.0114C81.5625 44.7803 81.1212 44.6629 80.625 44.6591C80.2689 44.6553 79.9034 44.7102 79.5284 44.8239C79.1534 44.9337 78.8447 45.0758 78.6023 45.25L77.2841 45.0909L77.9886 39.3636H84.0341V40.6136H79.1705L78.7614 44.0455H78.8295C79.0682 43.8561 79.3674 43.6989 79.7273 43.5739C80.0871 43.4489 80.4621 43.3864 80.8523 43.3864C81.5644 43.3864 82.1989 43.5568 82.7557 43.8977C83.3163 44.2348 83.7557 44.697 84.0739 45.2841C84.3958 45.8712 84.5568 46.5417 84.5568 47.2955C84.5568 48.0379 84.3902 48.7008 84.0568 49.2841C83.7273 49.8636 83.2727 50.322 82.6932 50.6591C82.1136 50.9924 81.4545 51.1591 80.7159 51.1591ZM88.3991 49.4091L88.3082 50.0227C88.2438 50.4545 88.1454 50.9167 88.0128 51.4091C87.884 51.9015 87.7495 52.3655 87.6094 52.8011C87.4692 53.2367 87.3537 53.5833 87.2628 53.8409H86.2401C86.2893 53.5985 86.3537 53.2784 86.4332 52.8807C86.5128 52.483 86.5923 52.0379 86.6719 51.5455C86.7552 51.0568 86.8234 50.5568 86.8764 50.0455L86.9446 49.4091H88.3991ZM95.3608 51V49.9773L99.2017 45.7727C99.6525 45.2803 100.024 44.8523 100.315 44.4886C100.607 44.1212 100.823 43.7765 100.963 43.4545C101.107 43.1288 101.179 42.7879 101.179 42.4318C101.179 42.0227 101.08 41.6686 100.884 41.3693C100.69 41.0701 100.425 40.839 100.088 40.6761C99.7509 40.5133 99.3722 40.4318 98.9517 40.4318C98.5047 40.4318 98.1146 40.5246 97.7812 40.7102C97.4517 40.892 97.196 41.1477 97.0142 41.4773C96.8362 41.8068 96.7472 42.1932 96.7472 42.6364H95.4062C95.4062 41.9545 95.5634 41.3561 95.8778 40.8409C96.1922 40.3258 96.6203 39.9242 97.1619 39.6364C97.7074 39.3485 98.3191 39.2045 98.9972 39.2045C99.679 39.2045 100.283 39.3485 100.81 39.6364C101.336 39.9242 101.749 40.3125 102.048 40.8011C102.348 41.2898 102.497 41.8333 102.497 42.4318C102.497 42.8598 102.42 43.2784 102.264 43.6875C102.113 44.0928 101.848 44.5455 101.469 45.0455C101.094 45.5417 100.573 46.1477 99.9062 46.8636L97.2926 49.6591V49.75H102.702V51H95.3608ZM108.844 51.1591C107.988 51.1591 107.259 50.9261 106.656 50.4602C106.054 49.9905 105.594 49.3106 105.276 48.4205C104.957 47.5265 104.798 46.447 104.798 45.1818C104.798 43.9242 104.957 42.8504 105.276 41.9602C105.598 41.0663 106.06 40.3845 106.662 39.9148C107.268 39.4413 107.995 39.2045 108.844 39.2045C109.692 39.2045 110.418 39.4413 111.02 39.9148C111.626 40.3845 112.088 41.0663 112.406 41.9602C112.728 42.8504 112.889 43.9242 112.889 45.1818C112.889 46.447 112.73 47.5265 112.412 48.4205C112.094 49.3106 111.634 49.9905 111.031 50.4602C110.429 50.9261 109.7 51.1591 108.844 51.1591ZM108.844 49.9091C109.692 49.9091 110.351 49.5 110.821 48.6818C111.291 47.8636 111.526 46.697 111.526 45.1818C111.526 44.1742 111.418 43.3163 111.202 42.608C110.99 41.8996 110.683 41.3598 110.281 40.9886C109.884 40.6174 109.404 40.4318 108.844 40.4318C108.003 40.4318 107.346 40.8466 106.872 41.6761C106.399 42.5019 106.162 43.6705 106.162 45.1818C106.162 46.1894 106.268 47.0455 106.48 47.75C106.692 48.4545 106.997 48.9905 107.395 49.358C107.796 49.7254 108.279 49.9091 108.844 49.9091ZM118.685 51.1591C118.018 51.1591 117.418 51.0265 116.884 50.7614C116.349 50.4962 115.921 50.1326 115.599 49.6705C115.277 49.2083 115.101 48.6818 115.071 48.0909H116.435C116.488 48.6174 116.726 49.053 117.151 49.3977C117.579 49.7386 118.09 49.9091 118.685 49.9091C119.162 49.9091 119.586 49.7973 119.957 49.5739C120.332 49.3504 120.626 49.0436 120.838 48.6534C121.054 48.2595 121.162 47.8144 121.162 47.3182C121.162 46.8106 121.05 46.358 120.827 45.9602C120.607 45.5587 120.304 45.2424 119.918 45.0114C119.531 44.7803 119.09 44.6629 118.594 44.6591C118.238 44.6553 117.872 44.7102 117.497 44.8239C117.122 44.9337 116.813 45.0758 116.571 45.25L115.253 45.0909L115.957 39.3636H122.003V40.6136H117.139L116.73 44.0455H116.798C117.037 43.8561 117.336 43.6989 117.696 43.5739C118.056 43.4489 118.431 43.3864 118.821 43.3864C119.533 43.3864 120.168 43.5568 120.724 43.8977C121.285 44.2348 121.724 44.697 122.043 45.2841C122.365 45.8712 122.526 46.5417 122.526 47.2955C122.526 48.0379 122.359 48.7008 122.026 49.2841C121.696 49.8636 121.241 50.322 120.662 50.6591C120.082 50.9924 119.423 51.1591 118.685 51.1591ZM126.368 49.4091L126.277 50.0227C126.213 50.4545 126.114 50.9167 125.982 51.4091C125.853 51.9015 125.718 52.3655 125.578 52.8011C125.438 53.2367 125.322 53.5833 125.232 53.8409H124.209C124.258 53.5985 124.322 53.2784 124.402 52.8807C124.482 52.483 124.561 52.0379 124.641 51.5455C124.724 51.0568 124.792 50.5568 124.845 50.0455L124.913 49.4091H126.368ZM133.33 51V49.9773L137.17 45.7727C137.621 45.2803 137.992 44.8523 138.284 44.4886C138.576 44.1212 138.792 43.7765 138.932 43.4545C139.076 43.1288 139.148 42.7879 139.148 42.4318C139.148 42.0227 139.049 41.6686 138.852 41.3693C138.659 41.0701 138.394 40.839 138.057 40.6761C137.72 40.5133 137.341 40.4318 136.92 40.4318C136.473 40.4318 136.083 40.5246 135.75 40.7102C135.42 40.892 135.165 41.1477 134.983 41.4773C134.805 41.8068 134.716 42.1932 134.716 42.6364H133.375C133.375 41.9545 133.532 41.3561 133.847 40.8409C134.161 40.3258 134.589 39.9242 135.131 39.6364C135.676 39.3485 136.288 39.2045 136.966 39.2045C137.648 39.2045 138.252 39.3485 138.778 39.6364C139.305 39.9242 139.718 40.3125 140.017 40.8011C140.316 41.2898 140.466 41.8333 140.466 42.4318C140.466 42.8598 140.388 43.2784 140.233 43.6875C140.081 44.0928 139.816 44.5455 139.438 45.0455C139.062 45.5417 138.542 46.1477 137.875 46.8636L135.261 49.6591V49.75H140.67V51H133.33ZM146.812 51.1591C145.956 51.1591 145.227 50.9261 144.625 50.4602C144.023 49.9905 143.563 49.3106 143.244 48.4205C142.926 47.5265 142.767 46.447 142.767 45.1818C142.767 43.9242 142.926 42.8504 143.244 41.9602C143.566 41.0663 144.028 40.3845 144.631 39.9148C145.237 39.4413 145.964 39.2045 146.812 39.2045C147.661 39.2045 148.386 39.4413 148.989 39.9148C149.595 40.3845 150.057 41.0663 150.375 41.9602C150.697 42.8504 150.858 43.9242 150.858 45.1818C150.858 46.447 150.699 47.5265 150.381 48.4205C150.062 49.3106 149.602 49.9905 149 50.4602C148.398 50.9261 147.669 51.1591 146.812 51.1591ZM146.812 49.9091C147.661 49.9091 148.32 49.5 148.79 48.6818C149.259 47.8636 149.494 46.697 149.494 45.1818C149.494 44.1742 149.386 43.3163 149.17 42.608C148.958 41.8996 148.652 41.3598 148.25 40.9886C147.852 40.6174 147.373 40.4318 146.812 40.4318C145.972 40.4318 145.314 40.8466 144.841 41.6761C144.367 42.5019 144.131 43.6705 144.131 45.1818C144.131 46.1894 144.237 47.0455 144.449 47.75C144.661 48.4545 144.966 48.9905 145.364 49.358C145.765 49.7254 146.248 49.9091 146.812 49.9091ZM156.653 51.1591C155.987 51.1591 155.386 51.0265 154.852 50.7614C154.318 50.4962 153.89 50.1326 153.568 49.6705C153.246 49.2083 153.07 48.6818 153.04 48.0909H154.403C154.456 48.6174 154.695 49.053 155.119 49.3977C155.547 49.7386 156.059 49.9091 156.653 49.9091C157.131 49.9091 157.555 49.7973 157.926 49.5739C158.301 49.3504 158.595 49.0436 158.807 48.6534C159.023 48.2595 159.131 47.8144 159.131 47.3182C159.131 46.8106 159.019 46.358 158.795 45.9602C158.576 45.5587 158.273 45.2424 157.886 45.0114C157.5 44.7803 157.059 44.6629 156.562 44.6591C156.206 44.6553 155.841 44.7102 155.466 44.8239C155.091 44.9337 154.782 45.0758 154.54 45.25L153.222 45.0909L153.926 39.3636H159.972V40.6136H155.108L154.699 44.0455H154.767C155.006 43.8561 155.305 43.6989 155.665 43.5739C156.025 43.4489 156.4 43.3864 156.79 43.3864C157.502 43.3864 158.136 43.5568 158.693 43.8977C159.254 44.2348 159.693 44.697 160.011 45.2841C160.333 45.8712 160.494 46.5417 160.494 47.2955C160.494 48.0379 160.328 48.7008 159.994 49.2841C159.665 49.8636 159.21 50.322 158.631 50.6591C158.051 50.9924 157.392 51.1591 156.653 51.1591ZM164.337 49.4091L164.246 50.0227C164.181 50.4545 164.083 50.9167 163.95 51.4091C163.821 51.9015 163.687 52.3655 163.547 52.8011C163.407 53.2367 163.291 53.5833 163.2 53.8409H162.178C162.227 53.5985 162.291 53.2784 162.371 52.8807C162.45 52.483 162.53 52.0379 162.609 51.5455C162.693 51.0568 162.761 50.5568 162.814 50.0455L162.882 49.4091H164.337ZM175.389 39.3636V51H173.98V40.8409H173.912L171.071 42.7273V41.2955L173.98 39.3636H175.389ZM181.622 45.1818C181.622 46.6136 181.435 47.9318 181.06 49.1364C180.688 50.3371 180.156 51.4432 179.463 52.4545H178.281C178.554 52.0795 178.808 51.6174 179.043 51.0682C179.281 50.5227 179.49 49.9242 179.668 49.2727C179.846 48.6174 179.984 47.9413 180.082 47.2443C180.185 46.5436 180.236 45.8561 180.236 45.1818C180.236 44.2803 180.149 43.3655 179.974 42.4375C179.8 41.5095 179.565 40.6477 179.27 39.8523C178.974 39.0568 178.645 38.4091 178.281 37.9091H179.463C180.156 38.9205 180.688 40.0284 181.06 41.233C181.435 42.4337 181.622 43.75 181.622 45.1818Z" fill="black"/>
</svg>
