<svg width="200" height="60" viewBox="0 0 200 60" fill="none" xmlns="http://www.w3.org/2000/svg">
<path d="M0 8C0 3.58172 3.58172 0 8 0H192C196.418 0 200 3.58172 200 8V30H0V8Z" fill="black"/>
<path d="M0.5 8C0.5 3.85786 3.85786 0.5 8 0.5H192C196.142 0.5 199.5 3.85787 199.5 8V29.5H0.5V8Z" stroke="black" stroke-opacity="0.04"/>
<path d="M46.2273 21V12.2727H47.5227V13.5909H47.6136C47.7727 13.1591 48.0606 12.8087 48.4773 12.5398C48.8939 12.2708 49.3636 12.1364 49.8864 12.1364C49.9848 12.1364 50.108 12.1383 50.2557 12.142C50.4034 12.1458 50.5152 12.1515 50.5909 12.1591V13.5227C50.5455 13.5114 50.4413 13.4943 50.2784 13.4716C50.1193 13.4451 49.9508 13.4318 49.7727 13.4318C49.3485 13.4318 48.9697 13.5208 48.6364 13.6989C48.3068 13.8731 48.0455 14.1155 47.8523 14.4261C47.6629 14.733 47.5682 15.0833 47.5682 15.4773V21H46.2273ZM55.4375 24.4545C54.7898 24.4545 54.233 24.3712 53.767 24.2045C53.3011 24.0417 52.9129 23.8258 52.6023 23.5568C52.2955 23.2917 52.0511 23.0076 51.8693 22.7045L52.9375 21.9545C53.0587 22.1136 53.2121 22.2955 53.3977 22.5C53.5833 22.7083 53.8371 22.8883 54.1591 23.0398C54.4848 23.1951 54.911 23.2727 55.4375 23.2727C56.142 23.2727 56.7235 23.1023 57.1818 22.7614C57.6402 22.4205 57.8693 21.8864 57.8693 21.1591V19.3864H57.7557C57.6572 19.5455 57.517 19.7424 57.3352 19.9773C57.1572 20.2083 56.8996 20.4148 56.5625 20.5966C56.2292 20.7746 55.7784 20.8636 55.2102 20.8636C54.5057 20.8636 53.8731 20.697 53.3125 20.3636C52.7557 20.0303 52.3144 19.5455 51.9886 18.9091C51.6667 18.2727 51.5057 17.5 51.5057 16.5909C51.5057 15.697 51.6629 14.9186 51.9773 14.2557C52.2917 13.589 52.7292 13.0739 53.2898 12.7102C53.8504 12.3428 54.4981 12.1591 55.233 12.1591C55.8011 12.1591 56.2519 12.2538 56.5852 12.4432C56.9223 12.6288 57.1799 12.8409 57.358 13.0795C57.5398 13.3144 57.6799 13.5076 57.7784 13.6591H57.9148V12.2727H59.2102V21.25C59.2102 22 59.0398 22.6098 58.6989 23.0795C58.3617 23.553 57.9072 23.8996 57.3352 24.1193C56.767 24.3428 56.1345 24.4545 55.4375 24.4545ZM55.392 19.6591C55.9299 19.6591 56.3845 19.536 56.7557 19.2898C57.1269 19.0436 57.4091 18.6894 57.6023 18.2273C57.7955 17.7652 57.892 17.2121 57.892 16.5682C57.892 15.9394 57.7973 15.3845 57.608 14.9034C57.4186 14.4223 57.1383 14.0455 56.767 13.7727C56.3958 13.5 55.9375 13.3636 55.392 13.3636C54.8239 13.3636 54.3504 13.5076 53.9716 13.7955C53.5966 14.0833 53.3144 14.4697 53.125 14.9545C52.9394 15.4394 52.8466 15.9773 52.8466 16.5682C52.8466 17.1742 52.9413 17.7102 53.1307 18.1761C53.3239 18.6383 53.608 19.0019 53.983 19.267C54.3617 19.5284 54.8314 19.6591 55.392 19.6591ZM61.8466 21V9.36364H63.1875V13.6591H63.3011C63.3996 13.5076 63.536 13.3144 63.7102 13.0795C63.8883 12.8409 64.142 12.6288 64.4716 12.4432C64.8049 12.2538 65.2557 12.1591 65.8239 12.1591C66.5587 12.1591 67.2064 12.3428 67.767 12.7102C68.3277 13.0777 68.7652 13.5985 69.0795 14.2727C69.3939 14.947 69.5511 15.7424 69.5511 16.6591C69.5511 17.5833 69.3939 18.3845 69.0795 19.0625C68.7652 19.7367 68.3295 20.2595 67.7727 20.6307C67.2159 20.9981 66.5739 21.1818 65.8466 21.1818C65.286 21.1818 64.8371 21.089 64.5 20.9034C64.1629 20.714 63.9034 20.5 63.7216 20.2614C63.5398 20.0189 63.3996 19.8182 63.3011 19.6591H63.142V21H61.8466ZM63.1648 16.6364C63.1648 17.2955 63.2614 17.8769 63.4545 18.3807C63.6477 18.8807 63.9299 19.2727 64.3011 19.5568C64.6723 19.8371 65.1269 19.9773 65.6648 19.9773C66.2254 19.9773 66.6932 19.8295 67.0682 19.5341C67.447 19.2348 67.7311 18.8333 67.9205 18.3295C68.1136 17.822 68.2102 17.2576 68.2102 16.6364C68.2102 16.0227 68.1155 15.4697 67.9261 14.9773C67.7405 14.4811 67.4583 14.089 67.0795 13.8011C66.7045 13.5095 66.233 13.3636 65.6648 13.3636C65.1193 13.3636 64.661 13.5019 64.2898 13.7784C63.9186 14.0511 63.6383 14.4337 63.4489 14.9261C63.2595 15.4148 63.1648 15.9848 63.1648 16.6364ZM74.1705 21.2045C73.6174 21.2045 73.1155 21.1004 72.6648 20.892C72.214 20.6799 71.8561 20.375 71.5909 19.9773C71.3258 19.5758 71.1932 19.0909 71.1932 18.5227C71.1932 18.0227 71.2917 17.6174 71.4886 17.3068C71.6856 16.9924 71.9489 16.7462 72.2784 16.5682C72.608 16.3902 72.9716 16.2576 73.3693 16.1705C73.7708 16.0795 74.1742 16.0076 74.5795 15.9545C75.1098 15.8864 75.5398 15.8352 75.8693 15.8011C76.2027 15.7633 76.4451 15.7008 76.5966 15.6136C76.7519 15.5265 76.8295 15.375 76.8295 15.1591V15.1136C76.8295 14.553 76.6761 14.1174 76.3693 13.8068C76.0663 13.4962 75.6061 13.3409 74.9886 13.3409C74.3485 13.3409 73.8466 13.4811 73.483 13.7614C73.1193 14.0417 72.8636 14.3409 72.7159 14.6591L71.4432 14.2045C71.6705 13.6742 71.9735 13.2614 72.3523 12.9659C72.7348 12.6667 73.1515 12.4583 73.6023 12.3409C74.0568 12.2197 74.5038 12.1591 74.9432 12.1591C75.2235 12.1591 75.5455 12.1932 75.9091 12.2614C76.2765 12.3258 76.6307 12.4602 76.9716 12.6648C77.3163 12.8693 77.6023 13.178 77.8295 13.5909C78.0568 14.0038 78.1705 14.5568 78.1705 15.25V21H76.8295V19.8182H76.7614C76.6705 20.0076 76.5189 20.2102 76.3068 20.4261C76.0947 20.642 75.8125 20.8258 75.4602 20.9773C75.108 21.1288 74.678 21.2045 74.1705 21.2045ZM74.375 20C74.9053 20 75.3523 19.8958 75.7159 19.6875C76.0833 19.4792 76.3598 19.2102 76.5455 18.8807C76.7348 18.5511 76.8295 18.2045 76.8295 17.8409V16.6136C76.7727 16.6818 76.6477 16.7443 76.4545 16.8011C76.2652 16.8542 76.0455 16.9015 75.7955 16.9432C75.5492 16.9811 75.3087 17.0152 75.0739 17.0455C74.8428 17.072 74.6553 17.0947 74.5114 17.1136C74.1629 17.1591 73.8371 17.233 73.5341 17.3352C73.2348 17.4337 72.9924 17.5833 72.8068 17.7841C72.625 17.9811 72.5341 18.25 72.5341 18.5909C72.5341 19.0568 72.7064 19.4091 73.0511 19.6477C73.3996 19.8826 73.8409 20 74.375 20ZM81.0952 16.0909C81.0952 14.6591 81.2808 13.3428 81.652 12.142C82.027 10.9375 82.5611 9.82955 83.2543 8.81818H84.4361C84.1634 9.19318 83.9077 9.6553 83.669 10.2045C83.4342 10.75 83.2277 11.3504 83.0497 12.0057C82.8717 12.6572 82.7315 13.3314 82.6293 14.0284C82.5308 14.7254 82.4815 15.4129 82.4815 16.0909C82.4815 16.9924 82.5687 17.9072 82.7429 18.8352C82.9171 19.7633 83.152 20.625 83.4474 21.4205C83.7429 22.2159 84.0724 22.8636 84.4361 23.3636H83.2543C82.5611 22.3523 82.027 21.2462 81.652 20.0455C81.2808 18.8409 81.0952 17.5227 81.0952 16.0909ZM90.1875 21.1591C89.3314 21.1591 88.6023 20.9261 88 20.4602C87.3977 19.9905 86.9375 19.3106 86.6193 18.4205C86.3011 17.5265 86.142 16.447 86.142 15.1818C86.142 13.9242 86.3011 12.8504 86.6193 11.9602C86.9413 11.0663 87.4034 10.3845 88.0057 9.91477C88.6117 9.44129 89.339 9.20455 90.1875 9.20455C91.036 9.20455 91.7614 9.44129 92.3636 9.91477C92.9697 10.3845 93.4318 11.0663 93.75 11.9602C94.072 12.8504 94.233 13.9242 94.233 15.1818C94.233 16.447 94.0739 17.5265 93.7557 18.4205C93.4375 19.3106 92.9773 19.9905 92.375 20.4602C91.7727 20.9261 91.0436 21.1591 90.1875 21.1591ZM90.1875 19.9091C91.036 19.9091 91.6951 19.5 92.1648 18.6818C92.6345 17.8636 92.8693 16.697 92.8693 15.1818C92.8693 14.1742 92.7614 13.3163 92.5455 12.608C92.3333 11.8996 92.0265 11.3598 91.625 10.9886C91.2273 10.6174 90.7481 10.4318 90.1875 10.4318C89.3466 10.4318 88.6894 10.8466 88.2159 11.6761C87.7424 12.5019 87.5057 13.6705 87.5057 15.1818C87.5057 16.1894 87.6117 17.0455 87.8239 17.75C88.036 18.4545 88.3409 18.9905 88.7386 19.358C89.1402 19.7254 89.6231 19.9091 90.1875 19.9091ZM98.0085 19.4091L97.9176 20.0227C97.8532 20.4545 97.7547 20.9167 97.6222 21.4091C97.4934 21.9015 97.3589 22.3655 97.2188 22.8011C97.0786 23.2367 96.9631 23.5833 96.8722 23.8409H95.8494C95.8987 23.5985 95.9631 23.2784 96.0426 22.8807C96.1222 22.483 96.2017 22.0379 96.2812 21.5455C96.3646 21.0568 96.4328 20.5568 96.4858 20.0455L96.554 19.4091H98.0085ZM108.766 21.1591C107.91 21.1591 107.18 20.9261 106.578 20.4602C105.976 19.9905 105.516 19.3106 105.197 18.4205C104.879 17.5265 104.72 16.447 104.72 15.1818C104.72 13.9242 104.879 12.8504 105.197 11.9602C105.519 11.0663 105.982 10.3845 106.584 9.91477C107.19 9.44129 107.917 9.20455 108.766 9.20455C109.614 9.20455 110.339 9.44129 110.942 9.91477C111.548 10.3845 112.01 11.0663 112.328 11.9602C112.65 12.8504 112.811 13.9242 112.811 15.1818C112.811 16.447 112.652 17.5265 112.334 18.4205C112.016 19.3106 111.555 19.9905 110.953 20.4602C110.351 20.9261 109.622 21.1591 108.766 21.1591ZM108.766 19.9091C109.614 19.9091 110.273 19.5 110.743 18.6818C111.213 17.8636 111.447 16.697 111.447 15.1818C111.447 14.1742 111.339 13.3163 111.124 12.608C110.911 11.8996 110.605 11.3598 110.203 10.9886C109.805 10.6174 109.326 10.4318 108.766 10.4318C107.925 10.4318 107.268 10.8466 106.794 11.6761C106.321 12.5019 106.084 13.6705 106.084 15.1818C106.084 16.1894 106.19 17.0455 106.402 17.75C106.614 18.4545 106.919 18.9905 107.317 19.358C107.718 19.7254 108.201 19.9091 108.766 19.9091ZM116.587 19.4091L116.496 20.0227C116.431 20.4545 116.333 20.9167 116.2 21.4091C116.071 21.9015 115.937 22.3655 115.797 22.8011C115.657 23.2367 115.541 23.5833 115.45 23.8409H114.428C114.477 23.5985 114.541 23.2784 114.621 22.8807C114.7 22.483 114.78 22.0379 114.859 21.5455C114.943 21.0568 115.011 20.5568 115.064 20.0455L115.132 19.4091H116.587ZM127.344 21.1591C126.488 21.1591 125.759 20.9261 125.156 20.4602C124.554 19.9905 124.094 19.3106 123.776 18.4205C123.457 17.5265 123.298 16.447 123.298 15.1818C123.298 13.9242 123.457 12.8504 123.776 11.9602C124.098 11.0663 124.56 10.3845 125.162 9.91477C125.768 9.44129 126.495 9.20455 127.344 9.20455C128.192 9.20455 128.918 9.44129 129.52 9.91477C130.126 10.3845 130.588 11.0663 130.906 11.9602C131.228 12.8504 131.389 13.9242 131.389 15.1818C131.389 16.447 131.23 17.5265 130.912 18.4205C130.594 19.3106 130.134 19.9905 129.531 20.4602C128.929 20.9261 128.2 21.1591 127.344 21.1591ZM127.344 19.9091C128.192 19.9091 128.851 19.5 129.321 18.6818C129.791 17.8636 130.026 16.697 130.026 15.1818C130.026 14.1742 129.918 13.3163 129.702 12.608C129.49 11.8996 129.183 11.3598 128.781 10.9886C128.384 10.6174 127.904 10.4318 127.344 10.4318C126.503 10.4318 125.846 10.8466 125.372 11.6761C124.899 12.5019 124.662 13.6705 124.662 15.1818C124.662 16.1894 124.768 17.0455 124.98 17.75C125.192 18.4545 125.497 18.9905 125.895 19.358C126.296 19.7254 126.779 19.9091 127.344 19.9091ZM135.165 19.4091L135.074 20.0227C135.009 20.4545 134.911 20.9167 134.778 21.4091C134.65 21.9015 134.515 22.3655 134.375 22.8011C134.235 23.2367 134.119 23.5833 134.028 23.8409H133.006C133.055 23.5985 133.119 23.2784 133.199 22.8807C133.278 22.483 133.358 22.0379 133.438 21.5455C133.521 21.0568 133.589 20.5568 133.642 20.0455L133.71 19.4091H135.165ZM146.217 9.36364V21H144.808V10.8409H144.74L141.899 12.7273V11.2955L144.808 9.36364H146.217ZM152.45 15.1818C152.45 16.6136 152.263 17.9318 151.888 19.1364C151.517 20.3371 150.984 21.4432 150.291 22.4545H149.109C149.382 22.0795 149.636 21.6174 149.871 21.0682C150.109 20.5227 150.318 19.9242 150.496 19.2727C150.674 18.6174 150.812 17.9413 150.911 17.2443C151.013 16.5436 151.064 15.8561 151.064 15.1818C151.064 14.2803 150.977 13.3655 150.803 12.4375C150.628 11.5095 150.393 10.6477 150.098 9.85227C149.803 9.05682 149.473 8.40909 149.109 7.90909H150.291C150.984 8.92045 151.517 10.0284 151.888 11.233C152.263 12.4337 152.45 13.75 152.45 15.1818Z" fill="white"/>
<path d="M0 30H200V52C200 56.4183 196.418 60 192 60H8C3.58173 60 0 56.4183 0 52V30Z" fill="#18181C"/>
<path d="M0.5 30.5H199.5V52C199.5 56.1421 196.142 59.5 192 59.5H8C3.85787 59.5 0.5 56.1421 0.5 52V30.5Z" stroke="#EBEAEA" stroke-opacity="0.12"/>
<path d="M32.2273 51V42.2727H33.5227V43.5909H33.6136C33.7727 43.1591 34.0606 42.8087 34.4773 42.5398C34.8939 42.2708 35.3636 42.1364 35.8864 42.1364C35.9848 42.1364 36.108 42.1383 36.2557 42.142C36.4034 42.1458 36.5152 42.1515 36.5909 42.1591V43.5227C36.5455 43.5114 36.4413 43.4943 36.2784 43.4716C36.1193 43.4451 35.9508 43.4318 35.7727 43.4318C35.3485 43.4318 34.9697 43.5208 34.6364 43.6989C34.3068 43.8731 34.0455 44.1155 33.8523 44.4261C33.6629 44.733 33.5682 45.0833 33.5682 45.4773V51H32.2273ZM41.4375 54.4545C40.7898 54.4545 40.233 54.3712 39.767 54.2045C39.3011 54.0417 38.9129 53.8258 38.6023 53.5568C38.2955 53.2917 38.0511 53.0076 37.8693 52.7045L38.9375 51.9545C39.0587 52.1136 39.2121 52.2955 39.3977 52.5C39.5833 52.7083 39.8371 52.8883 40.1591 53.0398C40.4848 53.1951 40.911 53.2727 41.4375 53.2727C42.142 53.2727 42.7235 53.1023 43.1818 52.7614C43.6402 52.4205 43.8693 51.8864 43.8693 51.1591V49.3864H43.7557C43.6572 49.5455 43.517 49.7424 43.3352 49.9773C43.1572 50.2083 42.8996 50.4148 42.5625 50.5966C42.2292 50.7746 41.7784 50.8636 41.2102 50.8636C40.5057 50.8636 39.8731 50.697 39.3125 50.3636C38.7557 50.0303 38.3144 49.5455 37.9886 48.9091C37.6667 48.2727 37.5057 47.5 37.5057 46.5909C37.5057 45.697 37.6629 44.9186 37.9773 44.2557C38.2917 43.589 38.7292 43.0739 39.2898 42.7102C39.8504 42.3428 40.4981 42.1591 41.233 42.1591C41.8011 42.1591 42.2519 42.2538 42.5852 42.4432C42.9223 42.6288 43.1799 42.8409 43.358 43.0795C43.5398 43.3144 43.6799 43.5076 43.7784 43.6591H43.9148V42.2727H45.2102V51.25C45.2102 52 45.0398 52.6098 44.6989 53.0795C44.3617 53.553 43.9072 53.8996 43.3352 54.1193C42.767 54.3428 42.1345 54.4545 41.4375 54.4545ZM41.392 49.6591C41.9299 49.6591 42.3845 49.536 42.7557 49.2898C43.1269 49.0436 43.4091 48.6894 43.6023 48.2273C43.7955 47.7652 43.892 47.2121 43.892 46.5682C43.892 45.9394 43.7973 45.3845 43.608 44.9034C43.4186 44.4223 43.1383 44.0455 42.767 43.7727C42.3958 43.5 41.9375 43.3636 41.392 43.3636C40.8239 43.3636 40.3504 43.5076 39.9716 43.7955C39.5966 44.0833 39.3144 44.4697 39.125 44.9545C38.9394 45.4394 38.8466 45.9773 38.8466 46.5682C38.8466 47.1742 38.9413 47.7102 39.1307 48.1761C39.3239 48.6383 39.608 49.0019 39.983 49.267C40.3617 49.5284 40.8314 49.6591 41.392 49.6591ZM47.8466 51V39.3636H49.1875V43.6591H49.3011C49.3996 43.5076 49.536 43.3144 49.7102 43.0795C49.8883 42.8409 50.142 42.6288 50.4716 42.4432C50.8049 42.2538 51.2557 42.1591 51.8239 42.1591C52.5587 42.1591 53.2064 42.3428 53.767 42.7102C54.3277 43.0777 54.7652 43.5985 55.0795 44.2727C55.3939 44.947 55.5511 45.7424 55.5511 46.6591C55.5511 47.5833 55.3939 48.3845 55.0795 49.0625C54.7652 49.7367 54.3295 50.2595 53.7727 50.6307C53.2159 50.9981 52.5739 51.1818 51.8466 51.1818C51.286 51.1818 50.8371 51.089 50.5 50.9034C50.1629 50.714 49.9034 50.5 49.7216 50.2614C49.5398 50.0189 49.3996 49.8182 49.3011 49.6591H49.142V51H47.8466ZM49.1648 46.6364C49.1648 47.2955 49.2614 47.8769 49.4545 48.3807C49.6477 48.8807 49.9299 49.2727 50.3011 49.5568C50.6723 49.8371 51.1269 49.9773 51.6648 49.9773C52.2254 49.9773 52.6932 49.8295 53.0682 49.5341C53.447 49.2348 53.7311 48.8333 53.9205 48.3295C54.1136 47.822 54.2102 47.2576 54.2102 46.6364C54.2102 46.0227 54.1155 45.4697 53.9261 44.9773C53.7405 44.4811 53.4583 44.089 53.0795 43.8011C52.7045 43.5095 52.233 43.3636 51.6648 43.3636C51.1193 43.3636 50.661 43.5019 50.2898 43.7784C49.9186 44.0511 49.6383 44.4337 49.4489 44.9261C49.2595 45.4148 49.1648 45.9848 49.1648 46.6364ZM60.1705 51.2045C59.6174 51.2045 59.1155 51.1004 58.6648 50.892C58.214 50.6799 57.8561 50.375 57.5909 49.9773C57.3258 49.5758 57.1932 49.0909 57.1932 48.5227C57.1932 48.0227 57.2917 47.6174 57.4886 47.3068C57.6856 46.9924 57.9489 46.7462 58.2784 46.5682C58.608 46.3902 58.9716 46.2576 59.3693 46.1705C59.7708 46.0795 60.1742 46.0076 60.5795 45.9545C61.1098 45.8864 61.5398 45.8352 61.8693 45.8011C62.2027 45.7633 62.4451 45.7008 62.5966 45.6136C62.7519 45.5265 62.8295 45.375 62.8295 45.1591V45.1136C62.8295 44.553 62.6761 44.1174 62.3693 43.8068C62.0663 43.4962 61.6061 43.3409 60.9886 43.3409C60.3485 43.3409 59.8466 43.4811 59.483 43.7614C59.1193 44.0417 58.8636 44.3409 58.7159 44.6591L57.4432 44.2045C57.6705 43.6742 57.9735 43.2614 58.3523 42.9659C58.7348 42.6667 59.1515 42.4583 59.6023 42.3409C60.0568 42.2197 60.5038 42.1591 60.9432 42.1591C61.2235 42.1591 61.5455 42.1932 61.9091 42.2614C62.2765 42.3258 62.6307 42.4602 62.9716 42.6648C63.3163 42.8693 63.6023 43.178 63.8295 43.5909C64.0568 44.0038 64.1705 44.5568 64.1705 45.25V51H62.8295V49.8182H62.7614C62.6705 50.0076 62.5189 50.2102 62.3068 50.4261C62.0947 50.642 61.8125 50.8258 61.4602 50.9773C61.108 51.1288 60.678 51.2045 60.1705 51.2045ZM60.375 50C60.9053 50 61.3523 49.8958 61.7159 49.6875C62.0833 49.4792 62.3598 49.2102 62.5455 48.8807C62.7348 48.5511 62.8295 48.2045 62.8295 47.8409V46.6136C62.7727 46.6818 62.6477 46.7443 62.4545 46.8011C62.2652 46.8542 62.0455 46.9015 61.7955 46.9432C61.5492 46.9811 61.3087 47.0152 61.0739 47.0455C60.8428 47.072 60.6553 47.0947 60.5114 47.1136C60.1629 47.1591 59.8371 47.233 59.5341 47.3352C59.2348 47.4337 58.9924 47.5833 58.8068 47.7841C58.625 47.9811 58.5341 48.25 58.5341 48.5909C58.5341 49.0568 58.7064 49.4091 59.0511 49.6477C59.3996 49.8826 59.8409 50 60.375 50ZM67.0952 46.0909C67.0952 44.6591 67.2808 43.3428 67.652 42.142C68.027 40.9375 68.5611 39.8295 69.2543 38.8182H70.4361C70.1634 39.1932 69.9077 39.6553 69.669 40.2045C69.4342 40.75 69.2277 41.3504 69.0497 42.0057C68.8717 42.6572 68.7315 43.3314 68.6293 44.0284C68.5308 44.7254 68.4815 45.4129 68.4815 46.0909C68.4815 46.9924 68.5687 47.9072 68.7429 48.8352C68.9171 49.7633 69.152 50.625 69.4474 51.4205C69.7429 52.2159 70.0724 52.8636 70.4361 53.3636H69.2543C68.5611 52.3523 68.027 51.2462 67.652 50.0455C67.2808 48.8409 67.0952 47.5227 67.0952 46.0909ZM72.392 51V49.9773L76.233 45.7727C76.6837 45.2803 77.0549 44.8523 77.3466 44.4886C77.6383 44.1212 77.8542 43.7765 77.9943 43.4545C78.1383 43.1288 78.2102 42.7879 78.2102 42.4318C78.2102 42.0227 78.1117 41.6686 77.9148 41.3693C77.7216 41.0701 77.4564 40.839 77.1193 40.6761C76.7822 40.5133 76.4034 40.4318 75.983 40.4318C75.536 40.4318 75.1458 40.5246 74.8125 40.7102C74.483 40.892 74.2273 41.1477 74.0455 41.4773C73.8674 41.8068 73.7784 42.1932 73.7784 42.6364H72.4375C72.4375 41.9545 72.5947 41.3561 72.9091 40.8409C73.2235 40.3258 73.6515 39.9242 74.1932 39.6364C74.7386 39.3485 75.3504 39.2045 76.0284 39.2045C76.7102 39.2045 77.3144 39.3485 77.8409 39.6364C78.3674 39.9242 78.7803 40.3125 79.0795 40.8011C79.3788 41.2898 79.5284 41.8333 79.5284 42.4318C79.5284 42.8598 79.4508 43.2784 79.2955 43.6875C79.1439 44.0928 78.8788 44.5455 78.5 45.0455C78.125 45.5417 77.6042 46.1477 76.9375 46.8636L74.3239 49.6591V49.75H79.733V51H72.392ZM81.5568 48.6136V47.4545L86.6705 39.3636H87.5114V41.1591H86.9432L83.0795 47.2727V47.3636H89.9659V48.6136H81.5568ZM87.0341 51V48.2614V47.7216V39.3636H88.375V51H87.0341ZM93.571 49.4091L93.4801 50.0227C93.4157 50.4545 93.3172 50.9167 93.1847 51.4091C93.0559 51.9015 92.9214 52.3655 92.7812 52.8011C92.6411 53.2367 92.5256 53.5833 92.4347 53.8409H91.4119C91.4612 53.5985 91.5256 53.2784 91.6051 52.8807C91.6847 52.483 91.7642 52.0379 91.8438 51.5455C91.9271 51.0568 91.9953 50.5568 92.0483 50.0455L92.1165 49.4091H93.571ZM100.533 51V49.9773L104.374 45.7727C104.824 45.2803 105.196 44.8523 105.487 44.4886C105.779 44.1212 105.995 43.7765 106.135 43.4545C106.279 43.1288 106.351 42.7879 106.351 42.4318C106.351 42.0227 106.252 41.6686 106.055 41.3693C105.862 41.0701 105.597 40.839 105.26 40.6761C104.923 40.5133 104.544 40.4318 104.124 40.4318C103.677 40.4318 103.286 40.5246 102.953 40.7102C102.624 40.892 102.368 41.1477 102.186 41.4773C102.008 41.8068 101.919 42.1932 101.919 42.6364H100.578C100.578 41.9545 100.735 41.3561 101.05 40.8409C101.364 40.3258 101.792 39.9242 102.334 39.6364C102.879 39.3485 103.491 39.2045 104.169 39.2045C104.851 39.2045 105.455 39.3485 105.982 39.6364C106.508 39.9242 106.921 40.3125 107.22 40.8011C107.519 41.2898 107.669 41.8333 107.669 42.4318C107.669 42.8598 107.591 43.2784 107.436 43.6875C107.285 44.0928 107.019 44.5455 106.641 45.0455C106.266 45.5417 105.745 46.1477 105.078 46.8636L102.464 49.6591V49.75H107.874V51H100.533ZM109.697 48.6136V47.4545L114.811 39.3636H115.652V41.1591H115.084L111.22 47.2727V47.3636H118.107V48.6136H109.697ZM115.175 51V48.2614V47.7216V39.3636H116.516V51H115.175ZM121.712 49.4091L121.621 50.0227C121.556 50.4545 121.458 50.9167 121.325 51.4091C121.196 51.9015 121.062 52.3655 120.922 52.8011C120.782 53.2367 120.666 53.5833 120.575 53.8409H119.553C119.602 53.5985 119.666 53.2784 119.746 52.8807C119.825 52.483 119.905 52.0379 119.984 51.5455C120.068 51.0568 120.136 50.5568 120.189 50.0455L120.257 49.4091H121.712ZM128.673 51V49.9773L132.514 45.7727C132.965 45.2803 133.336 44.8523 133.628 44.4886C133.92 44.1212 134.135 43.7765 134.276 43.4545C134.42 43.1288 134.491 42.7879 134.491 42.4318C134.491 42.0227 134.393 41.6686 134.196 41.3693C134.003 41.0701 133.738 40.839 133.401 40.6761C133.063 40.5133 132.685 40.4318 132.264 40.4318C131.817 40.4318 131.427 40.5246 131.094 40.7102C130.764 40.892 130.509 41.1477 130.327 41.4773C130.149 41.8068 130.06 42.1932 130.06 42.6364H128.719C128.719 41.9545 128.876 41.3561 129.19 40.8409C129.505 40.3258 129.933 39.9242 130.474 39.6364C131.02 39.3485 131.632 39.2045 132.31 39.2045C132.991 39.2045 133.596 39.3485 134.122 39.6364C134.649 39.9242 135.062 40.3125 135.361 40.8011C135.66 41.2898 135.81 41.8333 135.81 42.4318C135.81 42.8598 135.732 43.2784 135.577 43.6875C135.425 44.0928 135.16 44.5455 134.781 45.0455C134.406 45.5417 133.885 46.1477 133.219 46.8636L130.605 49.6591V49.75H136.014V51H128.673ZM142.088 51.1591C141.308 51.1591 140.618 51.0208 140.02 50.7443C139.425 50.464 138.961 50.0795 138.628 49.5909C138.295 49.0985 138.13 48.5379 138.134 47.9091C138.13 47.4167 138.226 46.9621 138.423 46.5455C138.62 46.125 138.889 45.7746 139.23 45.4943C139.575 45.2102 139.959 45.0303 140.384 44.9545V44.8864C139.827 44.7424 139.384 44.4299 139.054 43.9489C138.724 43.464 138.562 42.9129 138.565 42.2955C138.562 41.7045 138.711 41.1761 139.014 40.7102C139.317 40.2443 139.734 39.8769 140.264 39.608C140.798 39.339 141.406 39.2045 142.088 39.2045C142.762 39.2045 143.365 39.339 143.895 39.608C144.425 39.8769 144.842 40.2443 145.145 40.7102C145.452 41.1761 145.607 41.7045 145.611 42.2955C145.607 42.9129 145.438 43.464 145.105 43.9489C144.776 44.4299 144.338 44.7424 143.793 44.8864V44.9545C144.213 45.0303 144.592 45.2102 144.929 45.4943C145.266 45.7746 145.535 46.125 145.736 46.5455C145.937 46.9621 146.039 47.4167 146.043 47.9091C146.039 48.5379 145.868 49.0985 145.531 49.5909C145.198 50.0795 144.734 50.464 144.139 50.7443C143.548 51.0208 142.865 51.1591 142.088 51.1591ZM142.088 49.9091C142.615 49.9091 143.069 49.8239 143.452 49.6534C143.834 49.483 144.13 49.2424 144.338 48.9318C144.546 48.6212 144.652 48.2576 144.656 47.8409C144.652 47.4015 144.539 47.0133 144.315 46.6761C144.092 46.339 143.787 46.0739 143.401 45.8807C143.018 45.6875 142.58 45.5909 142.088 45.5909C141.592 45.5909 141.149 45.6875 140.759 45.8807C140.372 46.0739 140.067 46.339 139.844 46.6761C139.624 47.0133 139.516 47.4015 139.52 47.8409C139.516 48.2576 139.616 48.6212 139.821 48.9318C140.029 49.2424 140.327 49.483 140.713 49.6534C141.099 49.8239 141.558 49.9091 142.088 49.9091ZM142.088 44.3864C142.505 44.3864 142.874 44.303 143.196 44.1364C143.522 43.9697 143.777 43.7367 143.963 43.4375C144.149 43.1383 144.243 42.7879 144.247 42.3864C144.243 41.9924 144.151 41.6496 143.969 41.358C143.787 41.0625 143.535 40.8352 143.213 40.6761C142.891 40.5133 142.516 40.4318 142.088 40.4318C141.652 40.4318 141.272 40.5133 140.946 40.6761C140.62 40.8352 140.368 41.0625 140.19 41.358C140.012 41.6496 139.925 41.9924 139.929 42.3864C139.925 42.7879 140.014 43.1383 140.196 43.4375C140.382 43.7367 140.637 43.9697 140.963 44.1364C141.289 44.303 141.664 44.3864 142.088 44.3864ZM149.884 49.4091L149.793 50.0227C149.728 50.4545 149.63 50.9167 149.497 51.4091C149.368 51.9015 149.234 52.3655 149.094 52.8011C148.954 53.2367 148.838 53.5833 148.747 53.8409H147.724C147.774 53.5985 147.838 53.2784 147.918 52.8807C147.997 52.483 148.077 52.0379 148.156 51.5455C148.24 51.0568 148.308 50.5568 148.361 50.0455L148.429 49.4091H149.884ZM160.936 39.3636V51H159.527V40.8409H159.459L156.618 42.7273V41.2955L159.527 39.3636H160.936ZM167.169 45.1818C167.169 46.6136 166.982 47.9318 166.607 49.1364C166.235 50.3371 165.703 51.4432 165.01 52.4545H163.828C164.101 52.0795 164.355 51.6174 164.589 51.0682C164.828 50.5227 165.036 49.9242 165.214 49.2727C165.393 48.6174 165.531 47.9413 165.629 47.2443C165.732 46.5436 165.783 45.8561 165.783 45.1818C165.783 44.2803 165.696 43.3655 165.521 42.4375C165.347 41.5095 165.112 40.6477 164.817 39.8523C164.521 39.0568 164.192 38.4091 163.828 37.9091H165.01C165.703 38.9205 166.235 40.0284 166.607 41.233C166.982 42.4337 167.169 43.75 167.169 45.1818Z" fill="white"/>
</svg>
