<svg width="200" height="60" viewBox="0 0 200 60" fill="none" xmlns="http://www.w3.org/2000/svg">
<path d="M0 8C0 3.58172 3.58172 0 8 0H192C196.418 0 200 3.58172 200 8V30H0V8Z" fill="#404044"/>
<path d="M0.5 8C0.5 3.85786 3.85786 0.5 8 0.5H192C196.142 0.5 199.5 3.85787 199.5 8V29.5H0.5V8Z" stroke="black" stroke-opacity="0.04"/>
<path d="M31.2273 21V12.2727H32.5227V13.5909H32.6136C32.7727 13.1591 33.0606 12.8087 33.4773 12.5398C33.8939 12.2708 34.3636 12.1364 34.8864 12.1364C34.9848 12.1364 35.108 12.1383 35.2557 12.142C35.4034 12.1458 35.5152 12.1515 35.5909 12.1591V13.5227C35.5455 13.5114 35.4413 13.4943 35.2784 13.4716C35.1193 13.4451 34.9508 13.4318 34.7727 13.4318C34.3485 13.4318 33.9697 13.5208 33.6364 13.6989C33.3068 13.8731 33.0455 14.1155 32.8523 14.4261C32.6629 14.733 32.5682 15.0833 32.5682 15.4773V21H31.2273ZM40.4375 24.4545C39.7898 24.4545 39.233 24.3712 38.767 24.2045C38.3011 24.0417 37.9129 23.8258 37.6023 23.5568C37.2955 23.2917 37.0511 23.0076 36.8693 22.7045L37.9375 21.9545C38.0587 22.1136 38.2121 22.2955 38.3977 22.5C38.5833 22.7083 38.8371 22.8883 39.1591 23.0398C39.4848 23.1951 39.911 23.2727 40.4375 23.2727C41.142 23.2727 41.7235 23.1023 42.1818 22.7614C42.6402 22.4205 42.8693 21.8864 42.8693 21.1591V19.3864H42.7557C42.6572 19.5455 42.517 19.7424 42.3352 19.9773C42.1572 20.2083 41.8996 20.4148 41.5625 20.5966C41.2292 20.7746 40.7784 20.8636 40.2102 20.8636C39.5057 20.8636 38.8731 20.697 38.3125 20.3636C37.7557 20.0303 37.3144 19.5455 36.9886 18.9091C36.6667 18.2727 36.5057 17.5 36.5057 16.5909C36.5057 15.697 36.6629 14.9186 36.9773 14.2557C37.2917 13.589 37.7292 13.0739 38.2898 12.7102C38.8504 12.3428 39.4981 12.1591 40.233 12.1591C40.8011 12.1591 41.2519 12.2538 41.5852 12.4432C41.9223 12.6288 42.1799 12.8409 42.358 13.0795C42.5398 13.3144 42.6799 13.5076 42.7784 13.6591H42.9148V12.2727H44.2102V21.25C44.2102 22 44.0398 22.6098 43.6989 23.0795C43.3617 23.553 42.9072 23.8996 42.3352 24.1193C41.767 24.3428 41.1345 24.4545 40.4375 24.4545ZM40.392 19.6591C40.9299 19.6591 41.3845 19.536 41.7557 19.2898C42.1269 19.0436 42.4091 18.6894 42.6023 18.2273C42.7955 17.7652 42.892 17.2121 42.892 16.5682C42.892 15.9394 42.7973 15.3845 42.608 14.9034C42.4186 14.4223 42.1383 14.0455 41.767 13.7727C41.3958 13.5 40.9375 13.3636 40.392 13.3636C39.8239 13.3636 39.3504 13.5076 38.9716 13.7955C38.5966 14.0833 38.3144 14.4697 38.125 14.9545C37.9394 15.4394 37.8466 15.9773 37.8466 16.5682C37.8466 17.1742 37.9413 17.7102 38.1307 18.1761C38.3239 18.6383 38.608 19.0019 38.983 19.267C39.3617 19.5284 39.8314 19.6591 40.392 19.6591ZM46.8466 21V9.36364H48.1875V13.6591H48.3011C48.3996 13.5076 48.536 13.3144 48.7102 13.0795C48.8883 12.8409 49.142 12.6288 49.4716 12.4432C49.8049 12.2538 50.2557 12.1591 50.8239 12.1591C51.5587 12.1591 52.2064 12.3428 52.767 12.7102C53.3277 13.0777 53.7652 13.5985 54.0795 14.2727C54.3939 14.947 54.5511 15.7424 54.5511 16.6591C54.5511 17.5833 54.3939 18.3845 54.0795 19.0625C53.7652 19.7367 53.3295 20.2595 52.7727 20.6307C52.2159 20.9981 51.5739 21.1818 50.8466 21.1818C50.286 21.1818 49.8371 21.089 49.5 20.9034C49.1629 20.714 48.9034 20.5 48.7216 20.2614C48.5398 20.0189 48.3996 19.8182 48.3011 19.6591H48.142V21H46.8466ZM48.1648 16.6364C48.1648 17.2955 48.2614 17.8769 48.4545 18.3807C48.6477 18.8807 48.9299 19.2727 49.3011 19.5568C49.6723 19.8371 50.1269 19.9773 50.6648 19.9773C51.2254 19.9773 51.6932 19.8295 52.0682 19.5341C52.447 19.2348 52.7311 18.8333 52.9205 18.3295C53.1136 17.822 53.2102 17.2576 53.2102 16.6364C53.2102 16.0227 53.1155 15.4697 52.9261 14.9773C52.7405 14.4811 52.4583 14.089 52.0795 13.8011C51.7045 13.5095 51.233 13.3636 50.6648 13.3636C50.1193 13.3636 49.661 13.5019 49.2898 13.7784C48.9186 14.0511 48.6383 14.4337 48.4489 14.9261C48.2595 15.4148 48.1648 15.9848 48.1648 16.6364ZM59.1705 21.2045C58.6174 21.2045 58.1155 21.1004 57.6648 20.892C57.214 20.6799 56.8561 20.375 56.5909 19.9773C56.3258 19.5758 56.1932 19.0909 56.1932 18.5227C56.1932 18.0227 56.2917 17.6174 56.4886 17.3068C56.6856 16.9924 56.9489 16.7462 57.2784 16.5682C57.608 16.3902 57.9716 16.2576 58.3693 16.1705C58.7708 16.0795 59.1742 16.0076 59.5795 15.9545C60.1098 15.8864 60.5398 15.8352 60.8693 15.8011C61.2027 15.7633 61.4451 15.7008 61.5966 15.6136C61.7519 15.5265 61.8295 15.375 61.8295 15.1591V15.1136C61.8295 14.553 61.6761 14.1174 61.3693 13.8068C61.0663 13.4962 60.6061 13.3409 59.9886 13.3409C59.3485 13.3409 58.8466 13.4811 58.483 13.7614C58.1193 14.0417 57.8636 14.3409 57.7159 14.6591L56.4432 14.2045C56.6705 13.6742 56.9735 13.2614 57.3523 12.9659C57.7348 12.6667 58.1515 12.4583 58.6023 12.3409C59.0568 12.2197 59.5038 12.1591 59.9432 12.1591C60.2235 12.1591 60.5455 12.1932 60.9091 12.2614C61.2765 12.3258 61.6307 12.4602 61.9716 12.6648C62.3163 12.8693 62.6023 13.178 62.8295 13.5909C63.0568 14.0038 63.1705 14.5568 63.1705 15.25V21H61.8295V19.8182H61.7614C61.6705 20.0076 61.5189 20.2102 61.3068 20.4261C61.0947 20.642 60.8125 20.8258 60.4602 20.9773C60.108 21.1288 59.678 21.2045 59.1705 21.2045ZM59.375 20C59.9053 20 60.3523 19.8958 60.7159 19.6875C61.0833 19.4792 61.3598 19.2102 61.5455 18.8807C61.7348 18.5511 61.8295 18.2045 61.8295 17.8409V16.6136C61.7727 16.6818 61.6477 16.7443 61.4545 16.8011C61.2652 16.8542 61.0455 16.9015 60.7955 16.9432C60.5492 16.9811 60.3087 17.0152 60.0739 17.0455C59.8428 17.072 59.6553 17.0947 59.5114 17.1136C59.1629 17.1591 58.8371 17.233 58.5341 17.3352C58.2348 17.4337 57.9924 17.5833 57.8068 17.7841C57.625 17.9811 57.5341 18.25 57.5341 18.5909C57.5341 19.0568 57.7064 19.4091 58.0511 19.6477C58.3996 19.8826 58.8409 20 59.375 20ZM66.0952 16.0909C66.0952 14.6591 66.2808 13.3428 66.652 12.142C67.027 10.9375 67.5611 9.82955 68.2543 8.81818H69.4361C69.1634 9.19318 68.9077 9.6553 68.669 10.2045C68.4342 10.75 68.2277 11.3504 68.0497 12.0057C67.8717 12.6572 67.7315 13.3314 67.6293 14.0284C67.5308 14.7254 67.4815 15.4129 67.4815 16.0909C67.4815 16.9924 67.5687 17.9072 67.7429 18.8352C67.9171 19.7633 68.152 20.625 68.4474 21.4205C68.7429 22.2159 69.0724 22.8636 69.4361 23.3636H68.2543C67.5611 22.3523 67.027 21.2462 66.652 20.0455C66.2808 18.8409 66.0952 17.5227 66.0952 16.0909ZM75.2557 21.1591C74.7784 21.1515 74.3011 21.0606 73.8239 20.8864C73.3466 20.7121 72.911 20.4186 72.517 20.0057C72.1231 19.589 71.8068 19.0265 71.5682 18.3182C71.3295 17.6061 71.2102 16.7121 71.2102 15.6364C71.2102 14.6061 71.3068 13.6932 71.5 12.8977C71.6932 12.0985 71.9735 11.4261 72.3409 10.8807C72.7083 10.3314 73.1515 9.91477 73.6705 9.63068C74.1932 9.34659 74.7822 9.20455 75.4375 9.20455C76.089 9.20455 76.6686 9.33523 77.1761 9.59659C77.6875 9.85417 78.1042 10.214 78.4261 10.6761C78.7481 11.1383 78.9564 11.6705 79.0511 12.2727H77.6648C77.536 11.75 77.286 11.3163 76.9148 10.9716C76.5436 10.6269 76.0511 10.4545 75.4375 10.4545C74.536 10.4545 73.8258 10.8466 73.3068 11.6307C72.7917 12.4148 72.5322 13.5152 72.5284 14.9318H72.6193C72.8314 14.6098 73.0833 14.3352 73.375 14.108C73.6705 13.8769 73.9962 13.6989 74.3523 13.5739C74.7083 13.4489 75.0852 13.3864 75.483 13.3864C76.1496 13.3864 76.7595 13.553 77.3125 13.8864C77.8655 14.2159 78.3087 14.6723 78.642 15.2557C78.9754 15.8352 79.142 16.5 79.142 17.25C79.142 17.9697 78.9811 18.6288 78.6591 19.2273C78.3371 19.822 77.8845 20.2955 77.3011 20.6477C76.7216 20.9962 76.0398 21.1667 75.2557 21.1591ZM75.2557 19.9091C75.733 19.9091 76.161 19.7898 76.5398 19.5511C76.9223 19.3125 77.2235 18.9924 77.4432 18.5909C77.6667 18.1894 77.7784 17.7424 77.7784 17.25C77.7784 16.7689 77.6705 16.3314 77.4545 15.9375C77.2424 15.5398 76.9489 15.2235 76.5739 14.9886C76.2027 14.7538 75.7784 14.6364 75.3011 14.6364C74.9413 14.6364 74.6061 14.7083 74.2955 14.8523C73.9848 14.9924 73.7121 15.1856 73.4773 15.4318C73.2462 15.678 73.0644 15.9602 72.9318 16.2784C72.7992 16.5928 72.733 16.9242 72.733 17.2727C72.733 17.7348 72.8409 18.1667 73.0568 18.5682C73.2765 18.9697 73.5758 19.2936 73.9545 19.5398C74.3371 19.786 74.7708 19.9091 75.2557 19.9091ZM81.1037 18.6136V17.4545L86.2173 9.36364H87.0582V11.1591H86.4901L82.6264 17.2727V17.3636H89.5128V18.6136H81.1037ZM86.581 21V18.2614V17.7216V9.36364H87.9219V21H86.581ZM93.1179 19.4091L93.027 20.0227C92.9626 20.4545 92.8641 20.9167 92.7315 21.4091C92.6027 21.9015 92.4683 22.3655 92.3281 22.8011C92.188 23.2367 92.0724 23.5833 91.9815 23.8409H90.9588C91.008 23.5985 91.0724 23.2784 91.152 22.8807C91.2315 22.483 91.3111 22.0379 91.3906 21.5455C91.474 21.0568 91.5421 20.5568 91.5952 20.0455L91.6634 19.4091H93.1179ZM103.943 21.1591C103.466 21.1515 102.989 21.0606 102.511 20.8864C102.034 20.7121 101.598 20.4186 101.205 20.0057C100.811 19.589 100.494 19.0265 100.256 18.3182C100.017 17.6061 99.8977 16.7121 99.8977 15.6364C99.8977 14.6061 99.9943 13.6932 100.188 12.8977C100.381 12.0985 100.661 11.4261 101.028 10.8807C101.396 10.3314 101.839 9.91477 102.358 9.63068C102.881 9.34659 103.47 9.20455 104.125 9.20455C104.777 9.20455 105.356 9.33523 105.864 9.59659C106.375 9.85417 106.792 10.214 107.114 10.6761C107.436 11.1383 107.644 11.6705 107.739 12.2727H106.352C106.223 11.75 105.973 11.3163 105.602 10.9716C105.231 10.6269 104.739 10.4545 104.125 10.4545C103.223 10.4545 102.513 10.8466 101.994 11.6307C101.479 12.4148 101.22 13.5152 101.216 14.9318H101.307C101.519 14.6098 101.771 14.3352 102.062 14.108C102.358 13.8769 102.684 13.6989 103.04 13.5739C103.396 13.4489 103.773 13.3864 104.17 13.3864C104.837 13.3864 105.447 13.553 106 13.8864C106.553 14.2159 106.996 14.6723 107.33 15.2557C107.663 15.8352 107.83 16.5 107.83 17.25C107.83 17.9697 107.669 18.6288 107.347 19.2273C107.025 19.822 106.572 20.2955 105.989 20.6477C105.409 20.9962 104.727 21.1667 103.943 21.1591ZM103.943 19.9091C104.42 19.9091 104.848 19.7898 105.227 19.5511C105.61 19.3125 105.911 18.9924 106.131 18.5909C106.354 18.1894 106.466 17.7424 106.466 17.25C106.466 16.7689 106.358 16.3314 106.142 15.9375C105.93 15.5398 105.636 15.2235 105.261 14.9886C104.89 14.7538 104.466 14.6364 103.989 14.6364C103.629 14.6364 103.294 14.7083 102.983 14.8523C102.672 14.9924 102.4 15.1856 102.165 15.4318C101.934 15.678 101.752 15.9602 101.619 16.2784C101.487 16.5928 101.42 16.9242 101.42 17.2727C101.42 17.7348 101.528 18.1667 101.744 18.5682C101.964 18.9697 102.263 19.2936 102.642 19.5398C103.025 19.786 103.458 19.9091 103.943 19.9091ZM109.791 18.6136V17.4545L114.905 9.36364H115.746V11.1591H115.178L111.314 17.2727V17.3636H118.2V18.6136H109.791ZM115.268 21V18.2614V17.7216V9.36364H116.609V21H115.268ZM121.805 19.4091L121.714 20.0227C121.65 20.4545 121.552 20.9167 121.419 21.4091C121.29 21.9015 121.156 22.3655 121.016 22.8011C120.875 23.2367 120.76 23.5833 120.669 23.8409H119.646C119.696 23.5985 119.76 23.2784 119.839 22.8807C119.919 22.483 119.999 22.0379 120.078 21.5455C120.161 21.0568 120.23 20.5568 120.283 20.0455L120.351 19.4091H121.805ZM132.631 21.1591C132.153 21.1515 131.676 21.0606 131.199 20.8864C130.722 20.7121 130.286 20.4186 129.892 20.0057C129.498 19.589 129.182 19.0265 128.943 18.3182C128.705 17.6061 128.585 16.7121 128.585 15.6364C128.585 14.6061 128.682 13.6932 128.875 12.8977C129.068 12.0985 129.348 11.4261 129.716 10.8807C130.083 10.3314 130.527 9.91477 131.045 9.63068C131.568 9.34659 132.157 9.20455 132.812 9.20455C133.464 9.20455 134.044 9.33523 134.551 9.59659C135.063 9.85417 135.479 10.214 135.801 10.6761C136.123 11.1383 136.331 11.6705 136.426 12.2727H135.04C134.911 11.75 134.661 11.3163 134.29 10.9716C133.919 10.6269 133.426 10.4545 132.812 10.4545C131.911 10.4545 131.201 10.8466 130.682 11.6307C130.167 12.4148 129.907 13.5152 129.903 14.9318H129.994C130.206 14.6098 130.458 14.3352 130.75 14.108C131.045 13.8769 131.371 13.6989 131.727 13.5739C132.083 13.4489 132.46 13.3864 132.858 13.3864C133.525 13.3864 134.134 13.553 134.688 13.8864C135.241 14.2159 135.684 14.6723 136.017 15.2557C136.35 15.8352 136.517 16.5 136.517 17.25C136.517 17.9697 136.356 18.6288 136.034 19.2273C135.712 19.822 135.259 20.2955 134.676 20.6477C134.097 20.9962 133.415 21.1667 132.631 21.1591ZM132.631 19.9091C133.108 19.9091 133.536 19.7898 133.915 19.5511C134.297 19.3125 134.598 18.9924 134.818 18.5909C135.042 18.1894 135.153 17.7424 135.153 17.25C135.153 16.7689 135.045 16.3314 134.83 15.9375C134.617 15.5398 134.324 15.2235 133.949 14.9886C133.578 14.7538 133.153 14.6364 132.676 14.6364C132.316 14.6364 131.981 14.7083 131.67 14.8523C131.36 14.9924 131.087 15.1856 130.852 15.4318C130.621 15.678 130.439 15.9602 130.307 16.2784C130.174 16.5928 130.108 16.9242 130.108 17.2727C130.108 17.7348 130.216 18.1667 130.432 18.5682C130.652 18.9697 130.951 19.2936 131.33 19.5398C131.712 19.786 132.146 19.9091 132.631 19.9091ZM142.479 21.1591C141.698 21.1591 141.009 21.0208 140.411 20.7443C139.816 20.464 139.352 20.0795 139.018 19.5909C138.685 19.0985 138.52 18.5379 138.524 17.9091C138.52 17.4167 138.617 16.9621 138.814 16.5455C139.011 16.125 139.28 15.7746 139.621 15.4943C139.965 15.2102 140.35 15.0303 140.774 14.9545V14.8864C140.217 14.7424 139.774 14.4299 139.445 13.9489C139.115 13.464 138.952 12.9129 138.956 12.2955C138.952 11.7045 139.102 11.1761 139.405 10.7102C139.708 10.2443 140.125 9.87689 140.655 9.60795C141.189 9.33901 141.797 9.20455 142.479 9.20455C143.153 9.20455 143.755 9.33901 144.286 9.60795C144.816 9.87689 145.232 10.2443 145.536 10.7102C145.842 11.1761 145.998 11.7045 146.001 12.2955C145.998 12.9129 145.829 13.464 145.496 13.9489C145.166 14.4299 144.729 14.7424 144.183 14.8864V14.9545C144.604 15.0303 144.982 15.2102 145.32 15.4943C145.657 15.7746 145.926 16.125 146.126 16.5455C146.327 16.9621 146.429 17.4167 146.433 17.9091C146.429 18.5379 146.259 19.0985 145.922 19.5909C145.589 20.0795 145.125 20.464 144.53 20.7443C143.939 21.0208 143.255 21.1591 142.479 21.1591ZM142.479 19.9091C143.005 19.9091 143.46 19.8239 143.842 19.6534C144.225 19.483 144.52 19.2424 144.729 18.9318C144.937 18.6212 145.043 18.2576 145.047 17.8409C145.043 17.4015 144.929 17.0133 144.706 16.6761C144.482 16.339 144.178 16.0739 143.791 15.8807C143.409 15.6875 142.971 15.5909 142.479 15.5909C141.982 15.5909 141.539 15.6875 141.149 15.8807C140.763 16.0739 140.458 16.339 140.234 16.6761C140.015 17.0133 139.907 17.4015 139.911 17.8409C139.907 18.2576 140.007 18.6212 140.212 18.9318C140.42 19.2424 140.717 19.483 141.104 19.6534C141.49 19.8239 141.948 19.9091 142.479 19.9091ZM142.479 14.3864C142.895 14.3864 143.265 14.303 143.587 14.1364C143.912 13.9697 144.168 13.7367 144.354 13.4375C144.539 13.1383 144.634 12.7879 144.638 12.3864C144.634 11.9924 144.541 11.6496 144.359 11.358C144.178 11.0625 143.926 10.8352 143.604 10.6761C143.282 10.5133 142.907 10.4318 142.479 10.4318C142.043 10.4318 141.662 10.5133 141.337 10.6761C141.011 10.8352 140.759 11.0625 140.581 11.358C140.403 11.6496 140.316 11.9924 140.32 12.3864C140.316 12.7879 140.405 13.1383 140.587 13.4375C140.772 13.7367 141.028 13.9697 141.354 14.1364C141.679 14.303 142.054 14.3864 142.479 14.3864ZM150.274 19.4091L150.183 20.0227C150.119 20.4545 150.02 20.9167 149.888 21.4091C149.759 21.9015 149.625 22.3655 149.484 22.8011C149.344 23.2367 149.229 23.5833 149.138 23.8409H148.115C148.164 23.5985 148.229 23.2784 148.308 22.8807C148.388 22.483 148.467 22.0379 148.547 21.5455C148.63 21.0568 148.698 20.5568 148.751 20.0455L148.82 19.4091H150.274ZM161.327 9.36364V21H159.918V10.8409H159.849L157.009 12.7273V11.2955L159.918 9.36364H161.327ZM167.56 15.1818C167.56 16.6136 167.372 17.9318 166.997 19.1364C166.626 20.3371 166.094 21.4432 165.401 22.4545H164.219C164.491 22.0795 164.745 21.6174 164.98 21.0682C165.219 20.5227 165.427 19.9242 165.605 19.2727C165.783 18.6174 165.921 17.9413 166.02 17.2443C166.122 16.5436 166.173 15.8561 166.173 15.1818C166.173 14.2803 166.086 13.3655 165.912 12.4375C165.738 11.5095 165.503 10.6477 165.207 9.85227C164.912 9.05682 164.582 8.40909 164.219 7.90909H165.401C166.094 8.92045 166.626 10.0284 166.997 11.233C167.372 12.4337 167.56 13.75 167.56 15.1818Z" fill="white"/>
<path d="M0 30H200V52C200 56.4183 196.418 60 192 60H8C3.58173 60 0 56.4183 0 52V30Z" fill="white" fill-opacity="0.7"/>
<path d="M0.5 30.5H199.5V52C199.5 56.1421 196.142 59.5 192 59.5H8C3.85787 59.5 0.5 56.1421 0.5 52V30.5Z" stroke="#EBEAEA" stroke-opacity="0.12"/>
<path d="M10.2273 51V42.2727H11.5227V43.5909H11.6136C11.7727 43.1591 12.0606 42.8087 12.4773 42.5398C12.8939 42.2708 13.3636 42.1364 13.8864 42.1364C13.9848 42.1364 14.108 42.1383 14.2557 42.142C14.4034 42.1458 14.5152 42.1515 14.5909 42.1591V43.5227C14.5455 43.5114 14.4413 43.4943 14.2784 43.4716C14.1193 43.4451 13.9508 43.4318 13.7727 43.4318C13.3485 43.4318 12.9697 43.5208 12.6364 43.6989C12.3068 43.8731 12.0455 44.1155 11.8523 44.4261C11.6629 44.733 11.5682 45.0833 11.5682 45.4773V51H10.2273ZM19.4375 54.4545C18.7898 54.4545 18.233 54.3712 17.767 54.2045C17.3011 54.0417 16.9129 53.8258 16.6023 53.5568C16.2955 53.2917 16.0511 53.0076 15.8693 52.7045L16.9375 51.9545C17.0587 52.1136 17.2121 52.2955 17.3977 52.5C17.5833 52.7083 17.8371 52.8883 18.1591 53.0398C18.4848 53.1951 18.911 53.2727 19.4375 53.2727C20.142 53.2727 20.7235 53.1023 21.1818 52.7614C21.6402 52.4205 21.8693 51.8864 21.8693 51.1591V49.3864H21.7557C21.6572 49.5455 21.517 49.7424 21.3352 49.9773C21.1572 50.2083 20.8996 50.4148 20.5625 50.5966C20.2292 50.7746 19.7784 50.8636 19.2102 50.8636C18.5057 50.8636 17.8731 50.697 17.3125 50.3636C16.7557 50.0303 16.3144 49.5455 15.9886 48.9091C15.6667 48.2727 15.5057 47.5 15.5057 46.5909C15.5057 45.697 15.6629 44.9186 15.9773 44.2557C16.2917 43.589 16.7292 43.0739 17.2898 42.7102C17.8504 42.3428 18.4981 42.1591 19.233 42.1591C19.8011 42.1591 20.2519 42.2538 20.5852 42.4432C20.9223 42.6288 21.1799 42.8409 21.358 43.0795C21.5398 43.3144 21.6799 43.5076 21.7784 43.6591H21.9148V42.2727H23.2102V51.25C23.2102 52 23.0398 52.6098 22.6989 53.0795C22.3617 53.553 21.9072 53.8996 21.3352 54.1193C20.767 54.3428 20.1345 54.4545 19.4375 54.4545ZM19.392 49.6591C19.9299 49.6591 20.3845 49.536 20.7557 49.2898C21.1269 49.0436 21.4091 48.6894 21.6023 48.2273C21.7955 47.7652 21.892 47.2121 21.892 46.5682C21.892 45.9394 21.7973 45.3845 21.608 44.9034C21.4186 44.4223 21.1383 44.0455 20.767 43.7727C20.3958 43.5 19.9375 43.3636 19.392 43.3636C18.8239 43.3636 18.3504 43.5076 17.9716 43.7955C17.5966 44.0833 17.3144 44.4697 17.125 44.9545C16.9394 45.4394 16.8466 45.9773 16.8466 46.5682C16.8466 47.1742 16.9413 47.7102 17.1307 48.1761C17.3239 48.6383 17.608 49.0019 17.983 49.267C18.3617 49.5284 18.8314 49.6591 19.392 49.6591ZM25.8466 51V39.3636H27.1875V43.6591H27.3011C27.3996 43.5076 27.536 43.3144 27.7102 43.0795C27.8883 42.8409 28.142 42.6288 28.4716 42.4432C28.8049 42.2538 29.2557 42.1591 29.8239 42.1591C30.5587 42.1591 31.2064 42.3428 31.767 42.7102C32.3277 43.0777 32.7652 43.5985 33.0795 44.2727C33.3939 44.947 33.5511 45.7424 33.5511 46.6591C33.5511 47.5833 33.3939 48.3845 33.0795 49.0625C32.7652 49.7367 32.3295 50.2595 31.7727 50.6307C31.2159 50.9981 30.5739 51.1818 29.8466 51.1818C29.286 51.1818 28.8371 51.089 28.5 50.9034C28.1629 50.714 27.9034 50.5 27.7216 50.2614C27.5398 50.0189 27.3996 49.8182 27.3011 49.6591H27.142V51H25.8466ZM27.1648 46.6364C27.1648 47.2955 27.2614 47.8769 27.4545 48.3807C27.6477 48.8807 27.9299 49.2727 28.3011 49.5568C28.6723 49.8371 29.1269 49.9773 29.6648 49.9773C30.2254 49.9773 30.6932 49.8295 31.0682 49.5341C31.447 49.2348 31.7311 48.8333 31.9205 48.3295C32.1136 47.822 32.2102 47.2576 32.2102 46.6364C32.2102 46.0227 32.1155 45.4697 31.9261 44.9773C31.7405 44.4811 31.4583 44.089 31.0795 43.8011C30.7045 43.5095 30.233 43.3636 29.6648 43.3636C29.1193 43.3636 28.661 43.5019 28.2898 43.7784C27.9186 44.0511 27.6383 44.4337 27.4489 44.9261C27.2595 45.4148 27.1648 45.9848 27.1648 46.6364ZM38.1705 51.2045C37.6174 51.2045 37.1155 51.1004 36.6648 50.892C36.214 50.6799 35.8561 50.375 35.5909 49.9773C35.3258 49.5758 35.1932 49.0909 35.1932 48.5227C35.1932 48.0227 35.2917 47.6174 35.4886 47.3068C35.6856 46.9924 35.9489 46.7462 36.2784 46.5682C36.608 46.3902 36.9716 46.2576 37.3693 46.1705C37.7708 46.0795 38.1742 46.0076 38.5795 45.9545C39.1098 45.8864 39.5398 45.8352 39.8693 45.8011C40.2027 45.7633 40.4451 45.7008 40.5966 45.6136C40.7519 45.5265 40.8295 45.375 40.8295 45.1591V45.1136C40.8295 44.553 40.6761 44.1174 40.3693 43.8068C40.0663 43.4962 39.6061 43.3409 38.9886 43.3409C38.3485 43.3409 37.8466 43.4811 37.483 43.7614C37.1193 44.0417 36.8636 44.3409 36.7159 44.6591L35.4432 44.2045C35.6705 43.6742 35.9735 43.2614 36.3523 42.9659C36.7348 42.6667 37.1515 42.4583 37.6023 42.3409C38.0568 42.2197 38.5038 42.1591 38.9432 42.1591C39.2235 42.1591 39.5455 42.1932 39.9091 42.2614C40.2765 42.3258 40.6307 42.4602 40.9716 42.6648C41.3163 42.8693 41.6023 43.178 41.8295 43.5909C42.0568 44.0038 42.1705 44.5568 42.1705 45.25V51H40.8295V49.8182H40.7614C40.6705 50.0076 40.5189 50.2102 40.3068 50.4261C40.0947 50.642 39.8125 50.8258 39.4602 50.9773C39.108 51.1288 38.678 51.2045 38.1705 51.2045ZM38.375 50C38.9053 50 39.3523 49.8958 39.7159 49.6875C40.0833 49.4792 40.3598 49.2102 40.5455 48.8807C40.7348 48.5511 40.8295 48.2045 40.8295 47.8409V46.6136C40.7727 46.6818 40.6477 46.7443 40.4545 46.8011C40.2652 46.8542 40.0455 46.9015 39.7955 46.9432C39.5492 46.9811 39.3087 47.0152 39.0739 47.0455C38.8428 47.072 38.6553 47.0947 38.5114 47.1136C38.1629 47.1591 37.8371 47.233 37.5341 47.3352C37.2348 47.4337 36.9924 47.5833 36.8068 47.7841C36.625 47.9811 36.5341 48.25 36.5341 48.5909C36.5341 49.0568 36.7064 49.4091 37.0511 49.6477C37.3996 49.8826 37.8409 50 38.375 50ZM45.0952 46.0909C45.0952 44.6591 45.2808 43.3428 45.652 42.142C46.027 40.9375 46.5611 39.8295 47.2543 38.8182H48.4361C48.1634 39.1932 47.9077 39.6553 47.669 40.2045C47.4342 40.75 47.2277 41.3504 47.0497 42.0057C46.8717 42.6572 46.7315 43.3314 46.6293 44.0284C46.5308 44.7254 46.4815 45.4129 46.4815 46.0909C46.4815 46.9924 46.5687 47.9072 46.7429 48.8352C46.9171 49.7633 47.152 50.625 47.4474 51.4205C47.7429 52.2159 48.0724 52.8636 48.4361 53.3636H47.2543C46.5611 52.3523 46.027 51.2462 45.652 50.0455C45.2808 48.8409 45.0952 47.5227 45.0952 46.0909ZM50.392 51V49.9773L54.233 45.7727C54.6837 45.2803 55.0549 44.8523 55.3466 44.4886C55.6383 44.1212 55.8542 43.7765 55.9943 43.4545C56.1383 43.1288 56.2102 42.7879 56.2102 42.4318C56.2102 42.0227 56.1117 41.6686 55.9148 41.3693C55.7216 41.0701 55.4564 40.839 55.1193 40.6761C54.7822 40.5133 54.4034 40.4318 53.983 40.4318C53.536 40.4318 53.1458 40.5246 52.8125 40.7102C52.483 40.892 52.2273 41.1477 52.0455 41.4773C51.8674 41.8068 51.7784 42.1932 51.7784 42.6364H50.4375C50.4375 41.9545 50.5947 41.3561 50.9091 40.8409C51.2235 40.3258 51.6515 39.9242 52.1932 39.6364C52.7386 39.3485 53.3504 39.2045 54.0284 39.2045C54.7102 39.2045 55.3144 39.3485 55.8409 39.6364C56.3674 39.9242 56.7803 40.3125 57.0795 40.8011C57.3788 41.2898 57.5284 41.8333 57.5284 42.4318C57.5284 42.8598 57.4508 43.2784 57.2955 43.6875C57.1439 44.0928 56.8788 44.5455 56.5 45.0455C56.125 45.5417 55.6042 46.1477 54.9375 46.8636L52.3239 49.6591V49.75H57.733V51H50.392ZM63.7159 51.1591C63.0492 51.1591 62.4489 51.0265 61.9148 50.7614C61.3807 50.4962 60.9527 50.1326 60.6307 49.6705C60.3087 49.2083 60.1326 48.6818 60.1023 48.0909H61.4659C61.5189 48.6174 61.7576 49.053 62.1818 49.3977C62.6098 49.7386 63.1212 49.9091 63.7159 49.9091C64.1932 49.9091 64.6174 49.7973 64.9886 49.5739C65.3636 49.3504 65.6572 49.0436 65.8693 48.6534C66.0852 48.2595 66.1932 47.8144 66.1932 47.3182C66.1932 46.8106 66.0814 46.358 65.858 45.9602C65.6383 45.5587 65.3352 45.2424 64.9489 45.0114C64.5625 44.7803 64.1212 44.6629 63.625 44.6591C63.2689 44.6553 62.9034 44.7102 62.5284 44.8239C62.1534 44.9337 61.8447 45.0758 61.6023 45.25L60.2841 45.0909L60.9886 39.3636H67.0341V40.6136H62.1705L61.7614 44.0455H61.8295C62.0682 43.8561 62.3674 43.6989 62.7273 43.5739C63.0871 43.4489 63.4621 43.3864 63.8523 43.3864C64.5644 43.3864 65.1989 43.5568 65.7557 43.8977C66.3163 44.2348 66.7557 44.697 67.0739 45.2841C67.3958 45.8712 67.5568 46.5417 67.5568 47.2955C67.5568 48.0379 67.3902 48.7008 67.0568 49.2841C66.7273 49.8636 66.2727 50.322 65.6932 50.6591C65.1136 50.9924 64.4545 51.1591 63.7159 51.1591ZM73.4503 51.1591C72.7836 51.1591 72.1832 51.0265 71.6491 50.7614C71.1151 50.4962 70.687 50.1326 70.3651 49.6705C70.0431 49.2083 69.867 48.6818 69.8366 48.0909H71.2003C71.2533 48.6174 71.492 49.053 71.9162 49.3977C72.3442 49.7386 72.8556 49.9091 73.4503 49.9091C73.9276 49.9091 74.3518 49.7973 74.723 49.5739C75.098 49.3504 75.3916 49.0436 75.6037 48.6534C75.8196 48.2595 75.9276 47.8144 75.9276 47.3182C75.9276 46.8106 75.8158 46.358 75.5923 45.9602C75.3726 45.5587 75.0696 45.2424 74.6832 45.0114C74.2969 44.7803 73.8556 44.6629 73.3594 44.6591C73.0033 44.6553 72.6378 44.7102 72.2628 44.8239C71.8878 44.9337 71.5791 45.0758 71.3366 45.25L70.0185 45.0909L70.723 39.3636H76.7685V40.6136H71.9048L71.4957 44.0455H71.5639C71.8026 43.8561 72.1018 43.6989 72.4616 43.5739C72.8215 43.4489 73.1965 43.3864 73.5866 43.3864C74.2988 43.3864 74.9332 43.5568 75.4901 43.8977C76.0507 44.2348 76.4901 44.697 76.8082 45.2841C77.1302 45.8712 77.2912 46.5417 77.2912 47.2955C77.2912 48.0379 77.1245 48.7008 76.7912 49.2841C76.4616 49.8636 76.0071 50.322 75.4276 50.6591C74.848 50.9924 74.1889 51.1591 73.4503 51.1591ZM81.1335 49.4091L81.0426 50.0227C80.9782 50.4545 80.8797 50.9167 80.7472 51.4091C80.6184 51.9015 80.4839 52.3655 80.3438 52.8011C80.2036 53.2367 80.0881 53.5833 79.9972 53.8409H78.9744C79.0237 53.5985 79.0881 53.2784 79.1676 52.8807C79.2472 52.483 79.3267 52.0379 79.4062 51.5455C79.4896 51.0568 79.5578 50.5568 79.6108 50.0455L79.679 49.4091H81.1335ZM88.0952 51V49.9773L91.9361 45.7727C92.3868 45.2803 92.758 44.8523 93.0497 44.4886C93.3414 44.1212 93.5573 43.7765 93.6974 43.4545C93.8414 43.1288 93.9134 42.7879 93.9134 42.4318C93.9134 42.0227 93.8149 41.6686 93.6179 41.3693C93.4247 41.0701 93.1596 40.839 92.8224 40.6761C92.4853 40.5133 92.1065 40.4318 91.6861 40.4318C91.2391 40.4318 90.849 40.5246 90.5156 40.7102C90.1861 40.892 89.9304 41.1477 89.7486 41.4773C89.5705 41.8068 89.4815 42.1932 89.4815 42.6364H88.1406C88.1406 41.9545 88.2978 41.3561 88.6122 40.8409C88.9266 40.3258 89.3546 39.9242 89.8963 39.6364C90.4418 39.3485 91.0535 39.2045 91.7315 39.2045C92.4134 39.2045 93.0175 39.3485 93.544 39.6364C94.0705 39.9242 94.4834 40.3125 94.7827 40.8011C95.0819 41.2898 95.2315 41.8333 95.2315 42.4318C95.2315 42.8598 95.1539 43.2784 94.9986 43.6875C94.8471 44.0928 94.5819 44.5455 94.2031 45.0455C93.8281 45.5417 93.3073 46.1477 92.6406 46.8636L90.027 49.6591V49.75H95.4361V51H88.0952ZM101.419 51.1591C100.752 51.1591 100.152 51.0265 99.6179 50.7614C99.0838 50.4962 98.6558 50.1326 98.3338 49.6705C98.0118 49.2083 97.8357 48.6818 97.8054 48.0909H99.169C99.2221 48.6174 99.4607 49.053 99.8849 49.3977C100.313 49.7386 100.824 49.9091 101.419 49.9091C101.896 49.9091 102.321 49.7973 102.692 49.5739C103.067 49.3504 103.36 49.0436 103.572 48.6534C103.788 48.2595 103.896 47.8144 103.896 47.3182C103.896 46.8106 103.785 46.358 103.561 45.9602C103.341 45.5587 103.038 45.2424 102.652 45.0114C102.266 44.7803 101.824 44.6629 101.328 44.6591C100.972 44.6553 100.607 44.7102 100.232 44.8239C99.8565 44.9337 99.5478 45.0758 99.3054 45.25L97.9872 45.0909L98.6918 39.3636H104.737V40.6136H99.8736L99.4645 44.0455H99.5327C99.7713 43.8561 100.071 43.6989 100.43 43.5739C100.79 43.4489 101.165 43.3864 101.555 43.3864C102.268 43.3864 102.902 43.5568 103.459 43.8977C104.019 44.2348 104.459 44.697 104.777 45.2841C105.099 45.8712 105.26 46.5417 105.26 47.2955C105.26 48.0379 105.093 48.7008 104.76 49.2841C104.43 49.8636 103.976 50.322 103.396 50.6591C102.817 50.9924 102.158 51.1591 101.419 51.1591ZM111.153 51.1591C110.487 51.1591 109.886 51.0265 109.352 50.7614C108.818 50.4962 108.39 50.1326 108.068 49.6705C107.746 49.2083 107.57 48.6818 107.54 48.0909H108.903C108.956 48.6174 109.195 49.053 109.619 49.3977C110.047 49.7386 110.559 49.9091 111.153 49.9091C111.631 49.9091 112.055 49.7973 112.426 49.5739C112.801 49.3504 113.095 49.0436 113.307 48.6534C113.523 48.2595 113.631 47.8144 113.631 47.3182C113.631 46.8106 113.519 46.358 113.295 45.9602C113.076 45.5587 112.773 45.2424 112.386 45.0114C112 44.7803 111.559 44.6629 111.062 44.6591C110.706 44.6553 110.341 44.7102 109.966 44.8239C109.591 44.9337 109.282 45.0758 109.04 45.25L107.722 45.0909L108.426 39.3636H114.472V40.6136H109.608L109.199 44.0455H109.267C109.506 43.8561 109.805 43.6989 110.165 43.5739C110.525 43.4489 110.9 43.3864 111.29 43.3864C112.002 43.3864 112.636 43.5568 113.193 43.8977C113.754 44.2348 114.193 44.697 114.511 45.2841C114.833 45.8712 114.994 46.5417 114.994 47.2955C114.994 48.0379 114.828 48.7008 114.494 49.2841C114.165 49.8636 113.71 50.322 113.131 50.6591C112.551 50.9924 111.892 51.1591 111.153 51.1591ZM118.837 49.4091L118.746 50.0227C118.681 50.4545 118.583 50.9167 118.45 51.4091C118.321 51.9015 118.187 52.3655 118.047 52.8011C117.907 53.2367 117.791 53.5833 117.7 53.8409H116.678C116.727 53.5985 116.791 53.2784 116.871 52.8807C116.95 52.483 117.03 52.0379 117.109 51.5455C117.193 51.0568 117.261 50.5568 117.314 50.0455L117.382 49.4091H118.837ZM125.798 51V49.9773L129.639 45.7727C130.09 45.2803 130.461 44.8523 130.753 44.4886C131.045 44.1212 131.26 43.7765 131.401 43.4545C131.545 43.1288 131.616 42.7879 131.616 42.4318C131.616 42.0227 131.518 41.6686 131.321 41.3693C131.128 41.0701 130.863 40.839 130.526 40.6761C130.188 40.5133 129.81 40.4318 129.389 40.4318C128.942 40.4318 128.552 40.5246 128.219 40.7102C127.889 40.892 127.634 41.1477 127.452 41.4773C127.274 41.8068 127.185 42.1932 127.185 42.6364H125.844C125.844 41.9545 126.001 41.3561 126.315 40.8409C126.63 40.3258 127.058 39.9242 127.599 39.6364C128.145 39.3485 128.757 39.2045 129.435 39.2045C130.116 39.2045 130.721 39.3485 131.247 39.6364C131.774 39.9242 132.187 40.3125 132.486 40.8011C132.785 41.2898 132.935 41.8333 132.935 42.4318C132.935 42.8598 132.857 43.2784 132.702 43.6875C132.55 44.0928 132.285 44.5455 131.906 45.0455C131.531 45.5417 131.01 46.1477 130.344 46.8636L127.73 49.6591V49.75H133.139V51H125.798ZM139.122 51.1591C138.455 51.1591 137.855 51.0265 137.321 50.7614C136.787 50.4962 136.359 50.1326 136.037 49.6705C135.715 49.2083 135.539 48.6818 135.509 48.0909H136.872C136.925 48.6174 137.164 49.053 137.588 49.3977C138.016 49.7386 138.527 49.9091 139.122 49.9091C139.599 49.9091 140.024 49.7973 140.395 49.5739C140.77 49.3504 141.063 49.0436 141.276 48.6534C141.491 48.2595 141.599 47.8144 141.599 47.3182C141.599 46.8106 141.488 46.358 141.264 45.9602C141.045 45.5587 140.741 45.2424 140.355 45.0114C139.969 44.7803 139.527 44.6629 139.031 44.6591C138.675 44.6553 138.31 44.7102 137.935 44.8239C137.56 44.9337 137.251 45.0758 137.009 45.25L135.69 45.0909L136.395 39.3636H142.44V40.6136H137.577L137.168 44.0455H137.236C137.474 43.8561 137.774 43.6989 138.134 43.5739C138.493 43.4489 138.868 43.3864 139.259 43.3864C139.971 43.3864 140.605 43.5568 141.162 43.8977C141.723 44.2348 142.162 44.697 142.48 45.2841C142.802 45.8712 142.963 46.5417 142.963 47.2955C142.963 48.0379 142.796 48.7008 142.463 49.2841C142.134 49.8636 141.679 50.322 141.099 50.6591C140.52 50.9924 139.861 51.1591 139.122 51.1591ZM148.857 51.1591C148.19 51.1591 147.589 51.0265 147.055 50.7614C146.521 50.4962 146.093 50.1326 145.771 49.6705C145.449 49.2083 145.273 48.6818 145.243 48.0909H146.607C146.66 48.6174 146.898 49.053 147.322 49.3977C147.75 49.7386 148.262 49.9091 148.857 49.9091C149.334 49.9091 149.758 49.7973 150.129 49.5739C150.504 49.3504 150.798 49.0436 151.01 48.6534C151.226 48.2595 151.334 47.8144 151.334 47.3182C151.334 46.8106 151.222 46.358 150.999 45.9602C150.779 45.5587 150.476 45.2424 150.089 45.0114C149.703 44.7803 149.262 44.6629 148.766 44.6591C148.41 44.6553 148.044 44.7102 147.669 44.8239C147.294 44.9337 146.985 45.0758 146.743 45.25L145.425 45.0909L146.129 39.3636H152.175V40.6136H147.311L146.902 44.0455H146.97C147.209 43.8561 147.508 43.6989 147.868 43.5739C148.228 43.4489 148.603 43.3864 148.993 43.3864C149.705 43.3864 150.339 43.5568 150.896 43.8977C151.457 44.2348 151.896 44.697 152.214 45.2841C152.536 45.8712 152.697 46.5417 152.697 47.2955C152.697 48.0379 152.531 48.7008 152.197 49.2841C151.868 49.8636 151.413 50.322 150.834 50.6591C150.254 50.9924 149.595 51.1591 148.857 51.1591ZM156.54 49.4091L156.449 50.0227C156.384 50.4545 156.286 50.9167 156.153 51.4091C156.025 51.9015 155.89 52.3655 155.75 52.8011C155.61 53.2367 155.494 53.5833 155.403 53.8409H154.381C154.43 53.5985 154.494 53.2784 154.574 52.8807C154.653 52.483 154.733 52.0379 154.812 51.5455C154.896 51.0568 154.964 50.5568 155.017 50.0455L155.085 49.4091H156.54ZM167.297 51.1591C166.441 51.1591 165.712 50.9261 165.109 50.4602C164.507 49.9905 164.047 49.3106 163.729 48.4205C163.411 47.5265 163.251 46.447 163.251 45.1818C163.251 43.9242 163.411 42.8504 163.729 41.9602C164.051 41.0663 164.513 40.3845 165.115 39.9148C165.721 39.4413 166.448 39.2045 167.297 39.2045C168.145 39.2045 168.871 39.4413 169.473 39.9148C170.079 40.3845 170.541 41.0663 170.859 41.9602C171.181 42.8504 171.342 43.9242 171.342 45.1818C171.342 46.447 171.183 47.5265 170.865 48.4205C170.547 49.3106 170.087 49.9905 169.484 50.4602C168.882 50.9261 168.153 51.1591 167.297 51.1591ZM167.297 49.9091C168.145 49.9091 168.804 49.5 169.274 48.6818C169.744 47.8636 169.979 46.697 169.979 45.1818C169.979 44.1742 169.871 43.3163 169.655 42.608C169.443 41.8996 169.136 41.3598 168.734 40.9886C168.337 40.6174 167.857 40.4318 167.297 40.4318C166.456 40.4318 165.799 40.8466 165.325 41.6761C164.852 42.5019 164.615 43.6705 164.615 45.1818C164.615 46.1894 164.721 47.0455 164.933 47.75C165.145 48.4545 165.45 48.9905 165.848 49.358C166.25 49.7254 166.732 49.9091 167.297 49.9091ZM174.095 51.0909C173.815 51.0909 173.574 50.9905 173.374 50.7898C173.173 50.589 173.072 50.3485 173.072 50.0682C173.072 49.7879 173.173 49.5473 173.374 49.3466C173.574 49.1458 173.815 49.0455 174.095 49.0455C174.375 49.0455 174.616 49.1458 174.817 49.3466C175.018 49.5473 175.118 49.7879 175.118 50.0682C175.118 50.2538 175.071 50.4242 174.976 50.5795C174.885 50.7348 174.762 50.8598 174.607 50.9545C174.455 51.0455 174.285 51.0909 174.095 51.0909ZM177.631 51L182.835 40.7045V40.6136H176.835V39.3636H184.29V40.6818L179.108 51H177.631ZM189.294 45.1818C189.294 46.6136 189.107 47.9318 188.732 49.1364C188.36 50.3371 187.828 51.4432 187.135 52.4545H185.953C186.226 52.0795 186.48 51.6174 186.714 51.0682C186.953 50.5227 187.161 49.9242 187.339 49.2727C187.518 48.6174 187.656 47.9413 187.754 47.2443C187.857 46.5436 187.908 45.8561 187.908 45.1818C187.908 44.2803 187.821 43.3655 187.646 42.4375C187.472 41.5095 187.237 40.6477 186.942 39.8523C186.646 39.0568 186.317 38.4091 185.953 37.9091H187.135C187.828 38.9205 188.36 40.0284 188.732 41.233C189.107 42.4337 189.294 43.75 189.294 45.1818Z" fill="black"/>
</svg>
