<svg width="200" height="60" viewBox="0 0 200 60" fill="none" xmlns="http://www.w3.org/2000/svg">
<path d="M0 8C0 3.58172 3.58172 0 8 0H192C196.418 0 200 3.58172 200 8V30H0V8Z" fill="#F7FF19"/>
<path d="M0.5 8C0.5 3.85786 3.85786 0.5 8 0.5H192C196.142 0.5 199.5 3.85787 199.5 8V29.5H0.5V8Z" stroke="black" stroke-opacity="0.04"/>
<path d="M23.7273 21V12.2727H25.0227V13.5909H25.1136C25.2727 13.1591 25.5606 12.8087 25.9773 12.5398C26.3939 12.2708 26.8636 12.1364 27.3864 12.1364C27.4848 12.1364 27.608 12.1383 27.7557 12.142C27.9034 12.1458 28.0152 12.1515 28.0909 12.1591V13.5227C28.0455 13.5114 27.9413 13.4943 27.7784 13.4716C27.6193 13.4451 27.4508 13.4318 27.2727 13.4318C26.8485 13.4318 26.4697 13.5208 26.1364 13.6989C25.8068 13.8731 25.5455 14.1155 25.3523 14.4261C25.1629 14.733 25.0682 15.0833 25.0682 15.4773V21H23.7273ZM32.9375 24.4545C32.2898 24.4545 31.733 24.3712 31.267 24.2045C30.8011 24.0417 30.4129 23.8258 30.1023 23.5568C29.7955 23.2917 29.5511 23.0076 29.3693 22.7045L30.4375 21.9545C30.5587 22.1136 30.7121 22.2955 30.8977 22.5C31.0833 22.7083 31.3371 22.8883 31.6591 23.0398C31.9848 23.1951 32.411 23.2727 32.9375 23.2727C33.642 23.2727 34.2235 23.1023 34.6818 22.7614C35.1402 22.4205 35.3693 21.8864 35.3693 21.1591V19.3864H35.2557C35.1572 19.5455 35.017 19.7424 34.8352 19.9773C34.6572 20.2083 34.3996 20.4148 34.0625 20.5966C33.7292 20.7746 33.2784 20.8636 32.7102 20.8636C32.0057 20.8636 31.3731 20.697 30.8125 20.3636C30.2557 20.0303 29.8144 19.5455 29.4886 18.9091C29.1667 18.2727 29.0057 17.5 29.0057 16.5909C29.0057 15.697 29.1629 14.9186 29.4773 14.2557C29.7917 13.589 30.2292 13.0739 30.7898 12.7102C31.3504 12.3428 31.9981 12.1591 32.733 12.1591C33.3011 12.1591 33.7519 12.2538 34.0852 12.4432C34.4223 12.6288 34.6799 12.8409 34.858 13.0795C35.0398 13.3144 35.1799 13.5076 35.2784 13.6591H35.4148V12.2727H36.7102V21.25C36.7102 22 36.5398 22.6098 36.1989 23.0795C35.8617 23.553 35.4072 23.8996 34.8352 24.1193C34.267 24.3428 33.6345 24.4545 32.9375 24.4545ZM32.892 19.6591C33.4299 19.6591 33.8845 19.536 34.2557 19.2898C34.6269 19.0436 34.9091 18.6894 35.1023 18.2273C35.2955 17.7652 35.392 17.2121 35.392 16.5682C35.392 15.9394 35.2973 15.3845 35.108 14.9034C34.9186 14.4223 34.6383 14.0455 34.267 13.7727C33.8958 13.5 33.4375 13.3636 32.892 13.3636C32.3239 13.3636 31.8504 13.5076 31.4716 13.7955C31.0966 14.0833 30.8144 14.4697 30.625 14.9545C30.4394 15.4394 30.3466 15.9773 30.3466 16.5682C30.3466 17.1742 30.4413 17.7102 30.6307 18.1761C30.8239 18.6383 31.108 19.0019 31.483 19.267C31.8617 19.5284 32.3314 19.6591 32.892 19.6591ZM39.3466 21V9.36364H40.6875V13.6591H40.8011C40.8996 13.5076 41.036 13.3144 41.2102 13.0795C41.3883 12.8409 41.642 12.6288 41.9716 12.4432C42.3049 12.2538 42.7557 12.1591 43.3239 12.1591C44.0587 12.1591 44.7064 12.3428 45.267 12.7102C45.8277 13.0777 46.2652 13.5985 46.5795 14.2727C46.8939 14.947 47.0511 15.7424 47.0511 16.6591C47.0511 17.5833 46.8939 18.3845 46.5795 19.0625C46.2652 19.7367 45.8295 20.2595 45.2727 20.6307C44.7159 20.9981 44.0739 21.1818 43.3466 21.1818C42.786 21.1818 42.3371 21.089 42 20.9034C41.6629 20.714 41.4034 20.5 41.2216 20.2614C41.0398 20.0189 40.8996 19.8182 40.8011 19.6591H40.642V21H39.3466ZM40.6648 16.6364C40.6648 17.2955 40.7614 17.8769 40.9545 18.3807C41.1477 18.8807 41.4299 19.2727 41.8011 19.5568C42.1723 19.8371 42.6269 19.9773 43.1648 19.9773C43.7254 19.9773 44.1932 19.8295 44.5682 19.5341C44.947 19.2348 45.2311 18.8333 45.4205 18.3295C45.6136 17.822 45.7102 17.2576 45.7102 16.6364C45.7102 16.0227 45.6155 15.4697 45.4261 14.9773C45.2405 14.4811 44.9583 14.089 44.5795 13.8011C44.2045 13.5095 43.733 13.3636 43.1648 13.3636C42.6193 13.3636 42.161 13.5019 41.7898 13.7784C41.4186 14.0511 41.1383 14.4337 40.9489 14.9261C40.7595 15.4148 40.6648 15.9848 40.6648 16.6364ZM51.6705 21.2045C51.1174 21.2045 50.6155 21.1004 50.1648 20.892C49.714 20.6799 49.3561 20.375 49.0909 19.9773C48.8258 19.5758 48.6932 19.0909 48.6932 18.5227C48.6932 18.0227 48.7917 17.6174 48.9886 17.3068C49.1856 16.9924 49.4489 16.7462 49.7784 16.5682C50.108 16.3902 50.4716 16.2576 50.8693 16.1705C51.2708 16.0795 51.6742 16.0076 52.0795 15.9545C52.6098 15.8864 53.0398 15.8352 53.3693 15.8011C53.7027 15.7633 53.9451 15.7008 54.0966 15.6136C54.2519 15.5265 54.3295 15.375 54.3295 15.1591V15.1136C54.3295 14.553 54.1761 14.1174 53.8693 13.8068C53.5663 13.4962 53.1061 13.3409 52.4886 13.3409C51.8485 13.3409 51.3466 13.4811 50.983 13.7614C50.6193 14.0417 50.3636 14.3409 50.2159 14.6591L48.9432 14.2045C49.1705 13.6742 49.4735 13.2614 49.8523 12.9659C50.2348 12.6667 50.6515 12.4583 51.1023 12.3409C51.5568 12.2197 52.0038 12.1591 52.4432 12.1591C52.7235 12.1591 53.0455 12.1932 53.4091 12.2614C53.7765 12.3258 54.1307 12.4602 54.4716 12.6648C54.8163 12.8693 55.1023 13.178 55.3295 13.5909C55.5568 14.0038 55.6705 14.5568 55.6705 15.25V21H54.3295V19.8182H54.2614C54.1705 20.0076 54.0189 20.2102 53.8068 20.4261C53.5947 20.642 53.3125 20.8258 52.9602 20.9773C52.608 21.1288 52.178 21.2045 51.6705 21.2045ZM51.875 20C52.4053 20 52.8523 19.8958 53.2159 19.6875C53.5833 19.4792 53.8598 19.2102 54.0455 18.8807C54.2348 18.5511 54.3295 18.2045 54.3295 17.8409V16.6136C54.2727 16.6818 54.1477 16.7443 53.9545 16.8011C53.7652 16.8542 53.5455 16.9015 53.2955 16.9432C53.0492 16.9811 52.8087 17.0152 52.5739 17.0455C52.3428 17.072 52.1553 17.0947 52.0114 17.1136C51.6629 17.1591 51.3371 17.233 51.0341 17.3352C50.7348 17.4337 50.4924 17.5833 50.3068 17.7841C50.125 17.9811 50.0341 18.25 50.0341 18.5909C50.0341 19.0568 50.2064 19.4091 50.5511 19.6477C50.8996 19.8826 51.3409 20 51.875 20ZM58.5952 16.0909C58.5952 14.6591 58.7808 13.3428 59.152 12.142C59.527 10.9375 60.0611 9.82955 60.7543 8.81818H61.9361C61.6634 9.19318 61.4077 9.6553 61.169 10.2045C60.9342 10.75 60.7277 11.3504 60.5497 12.0057C60.3717 12.6572 60.2315 13.3314 60.1293 14.0284C60.0308 14.7254 59.9815 15.4129 59.9815 16.0909C59.9815 16.9924 60.0687 17.9072 60.2429 18.8352C60.4171 19.7633 60.652 20.625 60.9474 21.4205C61.2429 22.2159 61.5724 22.8636 61.9361 23.3636H60.7543C60.0611 22.3523 59.527 21.2462 59.152 20.0455C58.7808 18.8409 58.5952 17.5227 58.5952 16.0909ZM63.892 21V19.9773L67.733 15.7727C68.1837 15.2803 68.5549 14.8523 68.8466 14.4886C69.1383 14.1212 69.3542 13.7765 69.4943 13.4545C69.6383 13.1288 69.7102 12.7879 69.7102 12.4318C69.7102 12.0227 69.6117 11.6686 69.4148 11.3693C69.2216 11.0701 68.9564 10.839 68.6193 10.6761C68.2822 10.5133 67.9034 10.4318 67.483 10.4318C67.036 10.4318 66.6458 10.5246 66.3125 10.7102C65.983 10.892 65.7273 11.1477 65.5455 11.4773C65.3674 11.8068 65.2784 12.1932 65.2784 12.6364H63.9375C63.9375 11.9545 64.0947 11.3561 64.4091 10.8409C64.7235 10.3258 65.1515 9.92424 65.6932 9.63636C66.2386 9.34848 66.8504 9.20455 67.5284 9.20455C68.2102 9.20455 68.8144 9.34848 69.3409 9.63636C69.8674 9.92424 70.2803 10.3125 70.5795 10.8011C70.8788 11.2898 71.0284 11.8333 71.0284 12.4318C71.0284 12.8598 70.9508 13.2784 70.7955 13.6875C70.6439 14.0928 70.3788 14.5455 70 15.0455C69.625 15.5417 69.1042 16.1477 68.4375 16.8636L65.8239 19.6591V19.75H71.233V21H63.892ZM73.0568 18.6136V17.4545L78.1705 9.36364H79.0114V11.1591H78.4432L74.5795 17.2727V17.3636H81.4659V18.6136H73.0568ZM78.5341 21V18.2614V17.7216V9.36364H79.875V21H78.5341ZM83.9588 21L89.1634 10.7045V10.6136H83.1634V9.36364H90.6179V10.6818L85.4361 21H83.9588ZM92.7585 19.4091L92.6676 20.0227C92.6032 20.4545 92.5047 20.9167 92.3722 21.4091C92.2434 21.9015 92.1089 22.3655 91.9688 22.8011C91.8286 23.2367 91.7131 23.5833 91.6222 23.8409H90.5994C90.6487 23.5985 90.7131 23.2784 90.7926 22.8807C90.8722 22.483 90.9517 22.0379 91.0312 21.5455C91.1146 21.0568 91.1828 20.5568 91.2358 20.0455L91.304 19.4091H92.7585ZM99.7202 21V19.9773L103.561 15.7727C104.012 15.2803 104.383 14.8523 104.675 14.4886C104.966 14.1212 105.182 13.7765 105.322 13.4545C105.466 13.1288 105.538 12.7879 105.538 12.4318C105.538 12.0227 105.44 11.6686 105.243 11.3693C105.05 11.0701 104.785 10.839 104.447 10.6761C104.11 10.5133 103.732 10.4318 103.311 10.4318C102.864 10.4318 102.474 10.5246 102.141 10.7102C101.811 10.892 101.555 11.1477 101.374 11.4773C101.196 11.8068 101.107 12.1932 101.107 12.6364H99.7656C99.7656 11.9545 99.9228 11.3561 100.237 10.8409C100.552 10.3258 100.98 9.92424 101.521 9.63636C102.067 9.34848 102.679 9.20455 103.357 9.20455C104.038 9.20455 104.643 9.34848 105.169 9.63636C105.696 9.92424 106.108 10.3125 106.408 10.8011C106.707 11.2898 106.857 11.8333 106.857 12.4318C106.857 12.8598 106.779 13.2784 106.624 13.6875C106.472 14.0928 106.207 14.5455 105.828 15.0455C105.453 15.5417 104.932 16.1477 104.266 16.8636L101.652 19.6591V19.75H107.061V21H99.7202ZM113.044 21.1591C112.377 21.1591 111.777 21.0265 111.243 20.7614C110.709 20.4962 110.281 20.1326 109.959 19.6705C109.637 19.2083 109.461 18.6818 109.43 18.0909H110.794C110.847 18.6174 111.086 19.053 111.51 19.3977C111.938 19.7386 112.449 19.9091 113.044 19.9091C113.521 19.9091 113.946 19.7973 114.317 19.5739C114.692 19.3504 114.985 19.0436 115.197 18.6534C115.413 18.2595 115.521 17.8144 115.521 17.3182C115.521 16.8106 115.41 16.358 115.186 15.9602C114.966 15.5587 114.663 15.2424 114.277 15.0114C113.891 14.7803 113.449 14.6629 112.953 14.6591C112.597 14.6553 112.232 14.7102 111.857 14.8239C111.482 14.9337 111.173 15.0758 110.93 15.25L109.612 15.0909L110.317 9.36364H116.362V10.6136H111.499L111.089 14.0455H111.158C111.396 13.8561 111.696 13.6989 112.055 13.5739C112.415 13.4489 112.79 13.3864 113.18 13.3864C113.893 13.3864 114.527 13.5568 115.084 13.8977C115.644 14.2348 116.084 14.697 116.402 15.2841C116.724 15.8712 116.885 16.5417 116.885 17.2955C116.885 18.0379 116.718 18.7008 116.385 19.2841C116.055 19.8636 115.601 20.322 115.021 20.6591C114.442 20.9924 113.783 21.1591 113.044 21.1591ZM122.778 21.1591C122.112 21.1591 121.511 21.0265 120.977 20.7614C120.443 20.4962 120.015 20.1326 119.693 19.6705C119.371 19.2083 119.195 18.6818 119.165 18.0909H120.528C120.581 18.6174 120.82 19.053 121.244 19.3977C121.672 19.7386 122.184 19.9091 122.778 19.9091C123.256 19.9091 123.68 19.7973 124.051 19.5739C124.426 19.3504 124.72 19.0436 124.932 18.6534C125.148 18.2595 125.256 17.8144 125.256 17.3182C125.256 16.8106 125.144 16.358 124.92 15.9602C124.701 15.5587 124.398 15.2424 124.011 15.0114C123.625 14.7803 123.184 14.6629 122.688 14.6591C122.331 14.6553 121.966 14.7102 121.591 14.8239C121.216 14.9337 120.907 15.0758 120.665 15.25L119.347 15.0909L120.051 9.36364H126.097V10.6136H121.233L120.824 14.0455H120.892C121.131 13.8561 121.43 13.6989 121.79 13.5739C122.15 13.4489 122.525 13.3864 122.915 13.3864C123.627 13.3864 124.261 13.5568 124.818 13.8977C125.379 14.2348 125.818 14.697 126.136 15.2841C126.458 15.8712 126.619 16.5417 126.619 17.2955C126.619 18.0379 126.453 18.7008 126.119 19.2841C125.79 19.8636 125.335 20.322 124.756 20.6591C124.176 20.9924 123.517 21.1591 122.778 21.1591ZM130.462 19.4091L130.371 20.0227C130.306 20.4545 130.208 20.9167 130.075 21.4091C129.946 21.9015 129.812 22.3655 129.672 22.8011C129.532 23.2367 129.416 23.5833 129.325 23.8409H128.303C128.352 23.5985 128.416 23.2784 128.496 22.8807C128.575 22.483 128.655 22.0379 128.734 21.5455C128.818 21.0568 128.886 20.5568 128.939 20.0455L129.007 19.4091H130.462ZM137.423 21V19.9773L141.264 15.7727C141.715 15.2803 142.086 14.8523 142.378 14.4886C142.67 14.1212 142.885 13.7765 143.026 13.4545C143.17 13.1288 143.241 12.7879 143.241 12.4318C143.241 12.0227 143.143 11.6686 142.946 11.3693C142.753 11.0701 142.488 10.839 142.151 10.6761C141.813 10.5133 141.435 10.4318 141.014 10.4318C140.567 10.4318 140.177 10.5246 139.844 10.7102C139.514 10.892 139.259 11.1477 139.077 11.4773C138.899 11.8068 138.81 12.1932 138.81 12.6364H137.469C137.469 11.9545 137.626 11.3561 137.94 10.8409C138.255 10.3258 138.683 9.92424 139.224 9.63636C139.77 9.34848 140.382 9.20455 141.06 9.20455C141.741 9.20455 142.346 9.34848 142.872 9.63636C143.399 9.92424 143.812 10.3125 144.111 10.8011C144.41 11.2898 144.56 11.8333 144.56 12.4318C144.56 12.8598 144.482 13.2784 144.327 13.6875C144.175 14.0928 143.91 14.5455 143.531 15.0455C143.156 15.5417 142.635 16.1477 141.969 16.8636L139.355 19.6591V19.75H144.764V21H137.423ZM150.747 21.1591C150.08 21.1591 149.48 21.0265 148.946 20.7614C148.412 20.4962 147.984 20.1326 147.662 19.6705C147.34 19.2083 147.164 18.6818 147.134 18.0909H148.497C148.55 18.6174 148.789 19.053 149.213 19.3977C149.641 19.7386 150.152 19.9091 150.747 19.9091C151.224 19.9091 151.649 19.7973 152.02 19.5739C152.395 19.3504 152.688 19.0436 152.901 18.6534C153.116 18.2595 153.224 17.8144 153.224 17.3182C153.224 16.8106 153.113 16.358 152.889 15.9602C152.67 15.5587 152.366 15.2424 151.98 15.0114C151.594 14.7803 151.152 14.6629 150.656 14.6591C150.3 14.6553 149.935 14.7102 149.56 14.8239C149.185 14.9337 148.876 15.0758 148.634 15.25L147.315 15.0909L148.02 9.36364H154.065V10.6136H149.202L148.793 14.0455H148.861C149.099 13.8561 149.399 13.6989 149.759 13.5739C150.118 13.4489 150.493 13.3864 150.884 13.3864C151.596 13.3864 152.23 13.5568 152.787 13.8977C153.348 14.2348 153.787 14.697 154.105 15.2841C154.427 15.8712 154.588 16.5417 154.588 17.2955C154.588 18.0379 154.421 18.7008 154.088 19.2841C153.759 19.8636 153.304 20.322 152.724 20.6591C152.145 20.9924 151.486 21.1591 150.747 21.1591ZM158.43 19.4091L158.339 20.0227C158.275 20.4545 158.177 20.9167 158.044 21.4091C157.915 21.9015 157.781 22.3655 157.641 22.8011C157.5 23.2367 157.385 23.5833 157.294 23.8409H156.271C156.321 23.5985 156.385 23.2784 156.464 22.8807C156.544 22.483 156.624 22.0379 156.703 21.5455C156.786 21.0568 156.855 20.5568 156.908 20.0455L156.976 19.4091H158.43ZM169.483 9.36364V21H168.074V10.8409H168.006L165.165 12.7273V11.2955L168.074 9.36364H169.483ZM175.716 15.1818C175.716 16.6136 175.528 17.9318 175.153 19.1364C174.782 20.3371 174.25 21.4432 173.557 22.4545H172.375C172.648 22.0795 172.902 21.6174 173.136 21.0682C173.375 20.5227 173.583 19.9242 173.761 19.2727C173.939 18.6174 174.078 17.9413 174.176 17.2443C174.278 16.5436 174.33 15.8561 174.33 15.1818C174.33 14.2803 174.242 13.3655 174.068 12.4375C173.894 11.5095 173.659 10.6477 173.364 9.85227C173.068 9.05682 172.739 8.40909 172.375 7.90909H173.557C174.25 8.92045 174.782 10.0284 175.153 11.233C175.528 12.4337 175.716 13.75 175.716 15.1818Z" fill="black"/>
<path d="M0 30H200V52C200 56.4183 196.418 60 192 60H8C3.58173 60 0 56.4183 0 52V30Z" fill="#D9DF35"/>
<path d="M0.5 30.5H199.5V52C199.5 56.1421 196.142 59.5 192 59.5H8C3.85787 59.5 0.5 56.1421 0.5 52V30.5Z" stroke="black" stroke-opacity="0.04"/>
<path d="M24.2273 51V42.2727H25.5227V43.5909H25.6136C25.7727 43.1591 26.0606 42.8087 26.4773 42.5398C26.8939 42.2708 27.3636 42.1364 27.8864 42.1364C27.9848 42.1364 28.108 42.1383 28.2557 42.142C28.4034 42.1458 28.5152 42.1515 28.5909 42.1591V43.5227C28.5455 43.5114 28.4413 43.4943 28.2784 43.4716C28.1193 43.4451 27.9508 43.4318 27.7727 43.4318C27.3485 43.4318 26.9697 43.5208 26.6364 43.6989C26.3068 43.8731 26.0455 44.1155 25.8523 44.4261C25.6629 44.733 25.5682 45.0833 25.5682 45.4773V51H24.2273ZM33.4375 54.4545C32.7898 54.4545 32.233 54.3712 31.767 54.2045C31.3011 54.0417 30.9129 53.8258 30.6023 53.5568C30.2955 53.2917 30.0511 53.0076 29.8693 52.7045L30.9375 51.9545C31.0587 52.1136 31.2121 52.2955 31.3977 52.5C31.5833 52.7083 31.8371 52.8883 32.1591 53.0398C32.4848 53.1951 32.911 53.2727 33.4375 53.2727C34.142 53.2727 34.7235 53.1023 35.1818 52.7614C35.6402 52.4205 35.8693 51.8864 35.8693 51.1591V49.3864H35.7557C35.6572 49.5455 35.517 49.7424 35.3352 49.9773C35.1572 50.2083 34.8996 50.4148 34.5625 50.5966C34.2292 50.7746 33.7784 50.8636 33.2102 50.8636C32.5057 50.8636 31.8731 50.697 31.3125 50.3636C30.7557 50.0303 30.3144 49.5455 29.9886 48.9091C29.6667 48.2727 29.5057 47.5 29.5057 46.5909C29.5057 45.697 29.6629 44.9186 29.9773 44.2557C30.2917 43.589 30.7292 43.0739 31.2898 42.7102C31.8504 42.3428 32.4981 42.1591 33.233 42.1591C33.8011 42.1591 34.2519 42.2538 34.5852 42.4432C34.9223 42.6288 35.1799 42.8409 35.358 43.0795C35.5398 43.3144 35.6799 43.5076 35.7784 43.6591H35.9148V42.2727H37.2102V51.25C37.2102 52 37.0398 52.6098 36.6989 53.0795C36.3617 53.553 35.9072 53.8996 35.3352 54.1193C34.767 54.3428 34.1345 54.4545 33.4375 54.4545ZM33.392 49.6591C33.9299 49.6591 34.3845 49.536 34.7557 49.2898C35.1269 49.0436 35.4091 48.6894 35.6023 48.2273C35.7955 47.7652 35.892 47.2121 35.892 46.5682C35.892 45.9394 35.7973 45.3845 35.608 44.9034C35.4186 44.4223 35.1383 44.0455 34.767 43.7727C34.3958 43.5 33.9375 43.3636 33.392 43.3636C32.8239 43.3636 32.3504 43.5076 31.9716 43.7955C31.5966 44.0833 31.3144 44.4697 31.125 44.9545C30.9394 45.4394 30.8466 45.9773 30.8466 46.5682C30.8466 47.1742 30.9413 47.7102 31.1307 48.1761C31.3239 48.6383 31.608 49.0019 31.983 49.267C32.3617 49.5284 32.8314 49.6591 33.392 49.6591ZM39.8466 51V39.3636H41.1875V43.6591H41.3011C41.3996 43.5076 41.536 43.3144 41.7102 43.0795C41.8883 42.8409 42.142 42.6288 42.4716 42.4432C42.8049 42.2538 43.2557 42.1591 43.8239 42.1591C44.5587 42.1591 45.2064 42.3428 45.767 42.7102C46.3277 43.0777 46.7652 43.5985 47.0795 44.2727C47.3939 44.947 47.5511 45.7424 47.5511 46.6591C47.5511 47.5833 47.3939 48.3845 47.0795 49.0625C46.7652 49.7367 46.3295 50.2595 45.7727 50.6307C45.2159 50.9981 44.5739 51.1818 43.8466 51.1818C43.286 51.1818 42.8371 51.089 42.5 50.9034C42.1629 50.714 41.9034 50.5 41.7216 50.2614C41.5398 50.0189 41.3996 49.8182 41.3011 49.6591H41.142V51H39.8466ZM41.1648 46.6364C41.1648 47.2955 41.2614 47.8769 41.4545 48.3807C41.6477 48.8807 41.9299 49.2727 42.3011 49.5568C42.6723 49.8371 43.1269 49.9773 43.6648 49.9773C44.2254 49.9773 44.6932 49.8295 45.0682 49.5341C45.447 49.2348 45.7311 48.8333 45.9205 48.3295C46.1136 47.822 46.2102 47.2576 46.2102 46.6364C46.2102 46.0227 46.1155 45.4697 45.9261 44.9773C45.7405 44.4811 45.4583 44.089 45.0795 43.8011C44.7045 43.5095 44.233 43.3636 43.6648 43.3636C43.1193 43.3636 42.661 43.5019 42.2898 43.7784C41.9186 44.0511 41.6383 44.4337 41.4489 44.9261C41.2595 45.4148 41.1648 45.9848 41.1648 46.6364ZM52.1705 51.2045C51.6174 51.2045 51.1155 51.1004 50.6648 50.892C50.214 50.6799 49.8561 50.375 49.5909 49.9773C49.3258 49.5758 49.1932 49.0909 49.1932 48.5227C49.1932 48.0227 49.2917 47.6174 49.4886 47.3068C49.6856 46.9924 49.9489 46.7462 50.2784 46.5682C50.608 46.3902 50.9716 46.2576 51.3693 46.1705C51.7708 46.0795 52.1742 46.0076 52.5795 45.9545C53.1098 45.8864 53.5398 45.8352 53.8693 45.8011C54.2027 45.7633 54.4451 45.7008 54.5966 45.6136C54.7519 45.5265 54.8295 45.375 54.8295 45.1591V45.1136C54.8295 44.553 54.6761 44.1174 54.3693 43.8068C54.0663 43.4962 53.6061 43.3409 52.9886 43.3409C52.3485 43.3409 51.8466 43.4811 51.483 43.7614C51.1193 44.0417 50.8636 44.3409 50.7159 44.6591L49.4432 44.2045C49.6705 43.6742 49.9735 43.2614 50.3523 42.9659C50.7348 42.6667 51.1515 42.4583 51.6023 42.3409C52.0568 42.2197 52.5038 42.1591 52.9432 42.1591C53.2235 42.1591 53.5455 42.1932 53.9091 42.2614C54.2765 42.3258 54.6307 42.4602 54.9716 42.6648C55.3163 42.8693 55.6023 43.178 55.8295 43.5909C56.0568 44.0038 56.1705 44.5568 56.1705 45.25V51H54.8295V49.8182H54.7614C54.6705 50.0076 54.5189 50.2102 54.3068 50.4261C54.0947 50.642 53.8125 50.8258 53.4602 50.9773C53.108 51.1288 52.678 51.2045 52.1705 51.2045ZM52.375 50C52.9053 50 53.3523 49.8958 53.7159 49.6875C54.0833 49.4792 54.3598 49.2102 54.5455 48.8807C54.7348 48.5511 54.8295 48.2045 54.8295 47.8409V46.6136C54.7727 46.6818 54.6477 46.7443 54.4545 46.8011C54.2652 46.8542 54.0455 46.9015 53.7955 46.9432C53.5492 46.9811 53.3087 47.0152 53.0739 47.0455C52.8428 47.072 52.6553 47.0947 52.5114 47.1136C52.1629 47.1591 51.8371 47.233 51.5341 47.3352C51.2348 47.4337 50.9924 47.5833 50.8068 47.7841C50.625 47.9811 50.5341 48.25 50.5341 48.5909C50.5341 49.0568 50.7064 49.4091 51.0511 49.6477C51.3996 49.8826 51.8409 50 52.375 50ZM59.0952 46.0909C59.0952 44.6591 59.2808 43.3428 59.652 42.142C60.027 40.9375 60.5611 39.8295 61.2543 38.8182H62.4361C62.1634 39.1932 61.9077 39.6553 61.669 40.2045C61.4342 40.75 61.2277 41.3504 61.0497 42.0057C60.8717 42.6572 60.7315 43.3314 60.6293 44.0284C60.5308 44.7254 60.4815 45.4129 60.4815 46.0909C60.4815 46.9924 60.5687 47.9072 60.7429 48.8352C60.9171 49.7633 61.152 50.625 61.4474 51.4205C61.7429 52.2159 62.0724 52.8636 62.4361 53.3636H61.2543C60.5611 52.3523 60.027 51.2462 59.652 50.0455C59.2808 48.8409 59.0952 47.5227 59.0952 46.0909ZM64.392 51V49.9773L68.233 45.7727C68.6837 45.2803 69.0549 44.8523 69.3466 44.4886C69.6383 44.1212 69.8542 43.7765 69.9943 43.4545C70.1383 43.1288 70.2102 42.7879 70.2102 42.4318C70.2102 42.0227 70.1117 41.6686 69.9148 41.3693C69.7216 41.0701 69.4564 40.839 69.1193 40.6761C68.7822 40.5133 68.4034 40.4318 67.983 40.4318C67.536 40.4318 67.1458 40.5246 66.8125 40.7102C66.483 40.892 66.2273 41.1477 66.0455 41.4773C65.8674 41.8068 65.7784 42.1932 65.7784 42.6364H64.4375C64.4375 41.9545 64.5947 41.3561 64.9091 40.8409C65.2235 40.3258 65.6515 39.9242 66.1932 39.6364C66.7386 39.3485 67.3504 39.2045 68.0284 39.2045C68.7102 39.2045 69.3144 39.3485 69.8409 39.6364C70.3674 39.9242 70.7803 40.3125 71.0795 40.8011C71.3788 41.2898 71.5284 41.8333 71.5284 42.4318C71.5284 42.8598 71.4508 43.2784 71.2955 43.6875C71.1439 44.0928 70.8788 44.5455 70.5 45.0455C70.125 45.5417 69.6042 46.1477 68.9375 46.8636L66.3239 49.6591V49.75H71.733V51H64.392ZM78.1705 39.3636V51H76.7614V40.8409H76.6932L73.8523 42.7273V41.2955L76.7614 39.3636H78.1705ZM81.8807 51L87.0852 40.7045V40.6136H81.0852V39.3636H88.5398V40.6818L83.358 51H81.8807ZM90.6804 49.4091L90.5895 50.0227C90.5251 50.4545 90.4266 50.9167 90.294 51.4091C90.1652 51.9015 90.0308 52.3655 89.8906 52.8011C89.7505 53.2367 89.6349 53.5833 89.544 53.8409H88.5213C88.5705 53.5985 88.6349 53.2784 88.7145 52.8807C88.794 52.483 88.8736 52.0379 88.9531 51.5455C89.0365 51.0568 89.1046 50.5568 89.1577 50.0455L89.2259 49.4091H90.6804ZM97.642 51V49.9773L101.483 45.7727C101.934 45.2803 102.305 44.8523 102.597 44.4886C102.888 44.1212 103.104 43.7765 103.244 43.4545C103.388 43.1288 103.46 42.7879 103.46 42.4318C103.46 42.0227 103.362 41.6686 103.165 41.3693C102.972 41.0701 102.706 40.839 102.369 40.6761C102.032 40.5133 101.653 40.4318 101.233 40.4318C100.786 40.4318 100.396 40.5246 100.062 40.7102C99.733 40.892 99.4773 41.1477 99.2955 41.4773C99.1174 41.8068 99.0284 42.1932 99.0284 42.6364H97.6875C97.6875 41.9545 97.8447 41.3561 98.1591 40.8409C98.4735 40.3258 98.9015 39.9242 99.4432 39.6364C99.9886 39.3485 100.6 39.2045 101.278 39.2045C101.96 39.2045 102.564 39.3485 103.091 39.6364C103.617 39.9242 104.03 40.3125 104.33 40.8011C104.629 41.2898 104.778 41.8333 104.778 42.4318C104.778 42.8598 104.701 43.2784 104.545 43.6875C104.394 44.0928 104.129 44.5455 103.75 45.0455C103.375 45.5417 102.854 46.1477 102.188 46.8636L99.5739 49.6591V49.75H104.983V51H97.642ZM107.33 51V49.9773L111.17 45.7727C111.621 45.2803 111.992 44.8523 112.284 44.4886C112.576 44.1212 112.792 43.7765 112.932 43.4545C113.076 43.1288 113.148 42.7879 113.148 42.4318C113.148 42.0227 113.049 41.6686 112.852 41.3693C112.659 41.0701 112.394 40.839 112.057 40.6761C111.72 40.5133 111.341 40.4318 110.92 40.4318C110.473 40.4318 110.083 40.5246 109.75 40.7102C109.42 40.892 109.165 41.1477 108.983 41.4773C108.805 41.8068 108.716 42.1932 108.716 42.6364H107.375C107.375 41.9545 107.532 41.3561 107.847 40.8409C108.161 40.3258 108.589 39.9242 109.131 39.6364C109.676 39.3485 110.288 39.2045 110.966 39.2045C111.648 39.2045 112.252 39.3485 112.778 39.6364C113.305 39.9242 113.718 40.3125 114.017 40.8011C114.316 41.2898 114.466 41.8333 114.466 42.4318C114.466 42.8598 114.388 43.2784 114.233 43.6875C114.081 44.0928 113.816 44.5455 113.438 45.0455C113.062 45.5417 112.542 46.1477 111.875 46.8636L109.261 49.6591V49.75H114.67V51H107.33ZM120.949 51.1591C120.199 51.1591 119.53 51.0303 118.943 50.7727C118.36 50.5152 117.896 50.1572 117.551 49.6989C117.21 49.2367 117.025 48.7008 116.994 48.0909H118.426C118.456 48.4659 118.585 48.7898 118.812 49.0625C119.04 49.3314 119.337 49.5398 119.705 49.6875C120.072 49.8352 120.479 49.9091 120.926 49.9091C121.426 49.9091 121.869 49.822 122.256 49.6477C122.642 49.4735 122.945 49.2311 123.165 48.9205C123.384 48.6098 123.494 48.25 123.494 47.8409C123.494 47.4129 123.388 47.036 123.176 46.7102C122.964 46.3807 122.653 46.1231 122.244 45.9375C121.835 45.7519 121.335 45.6591 120.744 45.6591H119.812V44.4091H120.744C121.206 44.4091 121.612 44.3258 121.96 44.1591C122.313 43.9924 122.587 43.7576 122.784 43.4545C122.985 43.1515 123.085 42.7955 123.085 42.3864C123.085 41.9924 122.998 41.6496 122.824 41.358C122.65 41.0663 122.403 40.839 122.085 40.6761C121.771 40.5133 121.4 40.4318 120.972 40.4318C120.57 40.4318 120.191 40.5057 119.835 40.6534C119.483 40.7973 119.195 41.0076 118.972 41.2841C118.748 41.5568 118.627 41.8864 118.608 42.2727H117.244C117.267 41.6629 117.451 41.1288 117.795 40.6705C118.14 40.2083 118.591 39.8485 119.148 39.5909C119.708 39.3333 120.324 39.2045 120.994 39.2045C121.714 39.2045 122.331 39.3504 122.847 39.642C123.362 39.9299 123.758 40.3106 124.034 40.7841C124.311 41.2576 124.449 41.7689 124.449 42.3182C124.449 42.9735 124.277 43.5322 123.932 43.9943C123.591 44.4564 123.127 44.7765 122.54 44.9545V45.0455C123.275 45.1667 123.848 45.4792 124.261 45.983C124.674 46.483 124.881 47.1023 124.881 47.8409C124.881 48.4735 124.708 49.0417 124.364 49.5455C124.023 50.0455 123.557 50.4394 122.966 50.7273C122.375 51.0152 121.703 51.1591 120.949 51.1591ZM128.868 49.4091L128.777 50.0227C128.713 50.4545 128.614 50.9167 128.482 51.4091C128.353 51.9015 128.218 52.3655 128.078 52.8011C127.938 53.2367 127.822 53.5833 127.732 53.8409H126.709C126.758 53.5985 126.822 53.2784 126.902 52.8807C126.982 52.483 127.061 52.0379 127.141 51.5455C127.224 51.0568 127.292 50.5568 127.345 50.0455L127.413 49.4091H128.868ZM139.466 51.1591C138.799 51.1591 138.199 51.0265 137.665 50.7614C137.131 50.4962 136.703 50.1326 136.381 49.6705C136.059 49.2083 135.883 48.6818 135.852 48.0909H137.216C137.269 48.6174 137.508 49.053 137.932 49.3977C138.36 49.7386 138.871 49.9091 139.466 49.9091C139.943 49.9091 140.367 49.7973 140.739 49.5739C141.114 49.3504 141.407 49.0436 141.619 48.6534C141.835 48.2595 141.943 47.8144 141.943 47.3182C141.943 46.8106 141.831 46.358 141.608 45.9602C141.388 45.5587 141.085 45.2424 140.699 45.0114C140.313 44.7803 139.871 44.6629 139.375 44.6591C139.019 44.6553 138.653 44.7102 138.278 44.8239C137.903 44.9337 137.595 45.0758 137.352 45.25L136.034 45.0909L136.739 39.3636H142.784V40.6136H137.92L137.511 44.0455H137.58C137.818 43.8561 138.117 43.6989 138.477 43.5739C138.837 43.4489 139.212 43.3864 139.602 43.3864C140.314 43.3864 140.949 43.5568 141.506 43.8977C142.066 44.2348 142.506 44.697 142.824 45.2841C143.146 45.8712 143.307 46.5417 143.307 47.2955C143.307 48.0379 143.14 48.7008 142.807 49.2841C142.477 49.8636 142.023 50.322 141.443 50.6591C140.864 50.9924 140.205 51.1591 139.466 51.1591ZM149.496 51.1591C148.746 51.1591 148.077 51.0303 147.49 50.7727C146.907 50.5152 146.443 50.1572 146.098 49.6989C145.757 49.2367 145.571 48.7008 145.541 48.0909H146.973C147.003 48.4659 147.132 48.7898 147.359 49.0625C147.587 49.3314 147.884 49.5398 148.251 49.6875C148.619 49.8352 149.026 49.9091 149.473 49.9091C149.973 49.9091 150.416 49.822 150.803 49.6477C151.189 49.4735 151.492 49.2311 151.712 48.9205C151.931 48.6098 152.041 48.25 152.041 47.8409C152.041 47.4129 151.935 47.036 151.723 46.7102C151.511 46.3807 151.2 46.1231 150.791 45.9375C150.382 45.7519 149.882 45.6591 149.291 45.6591H148.359V44.4091H149.291C149.753 44.4091 150.159 44.3258 150.507 44.1591C150.859 43.9924 151.134 43.7576 151.331 43.4545C151.532 43.1515 151.632 42.7955 151.632 42.3864C151.632 41.9924 151.545 41.6496 151.371 41.358C151.196 41.0663 150.95 40.839 150.632 40.6761C150.318 40.5133 149.946 40.4318 149.518 40.4318C149.117 40.4318 148.738 40.5057 148.382 40.6534C148.03 40.7973 147.742 41.0076 147.518 41.2841C147.295 41.5568 147.174 41.8864 147.155 42.2727H145.791C145.814 41.6629 145.998 41.1288 146.342 40.6705C146.687 40.2083 147.138 39.8485 147.695 39.5909C148.255 39.3333 148.871 39.2045 149.541 39.2045C150.261 39.2045 150.878 39.3504 151.393 39.642C151.909 39.9299 152.304 40.3106 152.581 40.7841C152.857 41.2576 152.996 41.7689 152.996 42.3182C152.996 42.9735 152.823 43.5322 152.479 43.9943C152.138 44.4564 151.674 44.7765 151.087 44.9545V45.0455C151.821 45.1667 152.395 45.4792 152.808 45.983C153.221 46.483 153.428 47.1023 153.428 47.8409C153.428 48.4735 153.255 49.0417 152.911 49.5455C152.57 50.0455 152.104 50.4394 151.513 50.7273C150.922 51.0152 150.25 51.1591 149.496 51.1591ZM157.415 49.4091L157.324 50.0227C157.259 50.4545 157.161 50.9167 157.028 51.4091C156.9 51.9015 156.765 52.3655 156.625 52.8011C156.485 53.2367 156.369 53.5833 156.278 53.8409H155.256C155.305 53.5985 155.369 53.2784 155.449 52.8807C155.528 52.483 155.608 52.0379 155.688 51.5455C155.771 51.0568 155.839 50.5568 155.892 50.0455L155.96 49.4091H157.415ZM168.467 39.3636V51H167.058V40.8409H166.99L164.149 42.7273V41.2955L167.058 39.3636H168.467ZM174.7 45.1818C174.7 46.6136 174.513 47.9318 174.138 49.1364C173.767 50.3371 173.234 51.4432 172.541 52.4545H171.359C171.632 52.0795 171.886 51.6174 172.121 51.0682C172.359 50.5227 172.568 49.9242 172.746 49.2727C172.924 48.6174 173.062 47.9413 173.161 47.2443C173.263 46.5436 173.314 45.8561 173.314 45.1818C173.314 44.2803 173.227 43.3655 173.053 42.4375C172.878 41.5095 172.643 40.6477 172.348 39.8523C172.053 39.0568 171.723 38.4091 171.359 37.9091H172.541C173.234 38.9205 173.767 40.0284 174.138 41.233C174.513 42.4337 174.7 43.75 174.7 45.1818Z" fill="black"/>
</svg>
