<svg width="81" height="23" viewBox="0 0 81 23" fill="none" xmlns="http://www.w3.org/2000/svg">
<path d="M0 11.2425C0 17.4271 0.01537 22.485 0.0358634 22.485C0.0666034 22.485 4.24213 21.7151 4.75446 21.6131L5.02087 21.5621V17.4322V13.3075H6.60911H8.19734V12.5529C8.19734 12.1399 8.21271 11.0641 8.23321 10.1565L8.26395 8.51474H6.64497H5.02087V6.70473V4.89472H6.89089C7.92068 4.89472 8.76091 4.88452 8.76091 4.86922C8.76091 4.81314 9.17078 0.45891 9.1964 0.23967L9.22714 3.43323e-05H4.61101H0V11.2425Z" fill="white"/>
<path d="M76.6348 0.657782L72.5464 0.994289V11.1508V21.3072L72.7155 21.3327C72.864 21.3582 80.7796 21.9293 80.9384 21.9242C80.9845 21.9242 80.9999 21.3837 80.9999 19.4003V16.8765H79.258H77.516V15.041V13.2055H79.0018H80.4876V11.0131V8.82069H78.9506H77.4136V7.36758V5.91447L77.5314 5.89407C77.5929 5.87878 78.1155 5.85838 78.6944 5.83799C79.2733 5.82269 80.0265 5.7972 80.3748 5.7768L80.9999 5.74621V3.02864V0.305975L80.8616 0.311073C80.7796 0.316172 78.8788 0.469131 76.6348 0.657782Z" fill="white"/>
<path d="M50.3881 1.36139C50.4393 1.87125 51.0234 9.55489 51.0131 9.56508C51.008 9.57528 50.2549 7.73468 49.3378 5.47598C48.4258 3.21729 47.6573 1.34609 47.6368 1.3104C47.6061 1.25432 46.1921 1.51435 43.8712 2.00382L43.6509 2.04971V10.8142V19.5788H45.9308H48.2107L48.185 19.2117C48.1338 18.5285 47.9442 12.8792 47.9647 12.6549C47.9801 12.456 48.1338 12.8027 49.5888 16.3004C50.47 18.4265 51.2181 20.1855 51.2385 20.2161C51.2693 20.2467 51.9814 20.2008 53.1905 20.0988C54.2408 20.0071 55.1015 19.9255 55.1015 19.9204C55.1067 19.9153 55.0811 16.2392 55.0452 11.7524C55.0093 7.2656 54.9786 3.02864 54.9786 2.33013L54.9735 1.07077H52.668H50.3573L50.3881 1.36139Z" fill="white"/>
<path d="M14.3198 1.3818C11.256 1.58575 9.57045 3.67109 9.03762 7.90295C8.93003 8.77991 8.88392 11.7575 8.96077 12.7976C9.21694 16.1729 10.134 18.3653 11.7632 19.4819C12.6393 20.0785 13.956 20.3997 15.2574 20.3232C16.738 20.2416 17.7473 19.8235 18.6541 18.9211C19.397 18.1818 19.8018 17.4884 20.1911 16.3055C20.7342 14.6535 20.9801 12.1858 20.8572 9.61609C20.7188 6.74046 20.2833 4.95084 19.3868 3.57931C18.5312 2.27407 17.1786 1.49397 15.6006 1.3971C15.3496 1.3818 15.0832 1.36651 15.0114 1.35631C14.9397 1.35121 14.6323 1.36141 14.3198 1.3818ZM15.0422 5.38933C15.4162 5.79212 15.575 7.39819 15.575 10.8347C15.575 15.0665 15.3086 16.8255 14.7245 16.4483C14.4735 16.28 14.2839 15.4591 14.1917 14.0978C14.1251 13.1036 14.1251 8.55048 14.1917 7.59703C14.289 6.25099 14.4632 5.50659 14.7245 5.32814C14.868 5.22617 14.8936 5.23127 15.0422 5.38933Z" fill="white"/>
<path d="M21.5181 10.6511V19.9357H23.8697H26.2162L26.2469 19.2881C26.2674 18.9261 26.3084 17.7534 26.3391 16.6725C26.3699 15.5916 26.4109 14.6433 26.4313 14.5668C26.457 14.4597 26.6773 15.148 27.3536 17.473C27.8454 19.1505 28.2604 20.5424 28.2809 20.5628C28.3219 20.6087 33.1276 20.2314 33.1788 20.1804C33.1942 20.16 32.6613 18.4927 31.9953 16.4635L30.7862 12.7823L31.0424 12.5579C31.8928 11.8186 32.5947 10.391 32.7945 8.97871C32.8816 8.36177 32.8253 6.83218 32.6921 6.26624C32.1797 4.04833 30.8221 2.325 29.0904 1.68257C28.3372 1.40724 28.3987 1.41234 24.838 1.39195L21.5181 1.37155V10.6511ZM26.8002 5.76657C27.164 5.94502 27.4611 6.4039 27.62 7.03613C27.7276 7.45931 27.7122 8.80025 27.5943 9.22854C27.374 10.0341 26.9847 10.5032 26.4006 10.6816L26.2828 10.7122V8.16292V5.60851L26.4518 5.6442C26.5389 5.6595 26.6978 5.71558 26.8002 5.76657Z" fill="white"/>
<path d="M32.9431 3.79855V6.16942H34.2496H35.556V13.0016V19.8337H38.0152H40.4744V13.4095V6.9852H41.8065H43.1386V4.61433V2.24347L43.0258 2.22308C42.9183 2.19758 33.148 1.42259 33.0097 1.42769C32.9585 1.42769 32.9431 1.93755 32.9431 3.79855Z" fill="white"/>
<path d="M56.0493 11.1915V20.4456H58.5854H61.1214V11.1915V1.93754H58.5854H56.0493V11.1915Z" fill="white"/>
<path d="M66.9109 2.57994C64.134 2.7278 61.8234 2.85017 61.7773 2.85017C61.6902 2.85527 61.6851 3.00313 61.6851 5.25163V7.64798H62.9915H64.298V14.3527V21.0574H66.7828H69.2676V14.0723V7.08713H70.6509H72.0342V4.69078C72.0342 3.37023 72.0188 2.29952 71.9983 2.29952C71.9727 2.30462 69.6877 2.42698 66.9109 2.57994Z" fill="white"/>
</svg>
