<svg width="256" height="35" viewBox="0 0 256 35" fill="none" xmlns="http://www.w3.org/2000/svg">
<path d="M46.0623 8.13841H35.654V13.2318H46.0623V18.5467H35.654L30.4498 23.7509V28.955L35.654 34.1592H51.2664V13.3426L46.0623 8.13841ZM46.0623 28.955H35.654V23.7509H46.0623V28.955Z" fill="white"/>
<path d="M250.796 8.13841H240.388V13.2318H250.796V18.5467H240.388L235.183 23.7509V28.955L240.388 34.1592H256V13.3426L250.796 8.13841ZM250.796 28.955H240.388V23.7509H250.796V28.955Z" fill="white"/>
<path d="M116.54 23.7509L121.744 18.5467V13.3426L116.54 8.13841H106.131L100.927 13.3426V18.5467V23.7509V28.955L106.131 34.1592H116.54V28.955H106.131V23.7509H116.54ZM106.131 13.3426H116.54V18.5467H106.131V13.3426Z" fill="white"/>
<path d="M20.8166 8.13841H15.6125L13.0104 10.7405L10.4083 8.13841H0V34.1592H5.20415V13.3426H10.4083V34.1592H10.519H15.4464H15.6125V13.3426H20.8166V34.1592H26.0208V13.3426L20.8166 8.13841Z" fill="white"/>
<path d="M62.9481 28.955V13.3426H70.8651V8.1384H62.9481V2.93425H57.744V8.1384H55.1419V13.3426H57.744V28.955L62.9481 34.1592H70.7543V28.955H62.9481Z" fill="white"/>
<path d="M91.2941 8.1384H80.9411V2.93425H75.737V34.1592H80.9411V13.3426H91.2941V34.1592H96.4982V13.3426L91.2941 8.1384Z" fill="white"/>
<path d="M141.343 8.13841V28.955H130.99V8.13841H125.785V28.955L130.99 34.1592H146.547V8.13841H141.343Z" fill="white"/>
<path d="M185.633 28.955V13.3426L180.429 8.13841H175.225V13.3426H180.429V28.955H175.114V34.1592H190.837V28.955H185.633Z" fill="white"/>
<path d="M185.744 0H180.208V5.53633H185.744V0Z" fill="white"/>
<path d="M201.135 28.955V8.1384L195.931 2.93425H190.727V8.1384H195.931V28.955L201.135 34.1592H206.339V28.955H201.135Z" fill="white"/>
<path d="M225.55 8.13841V23.7509L220.346 28.955L215.142 23.7509V8.13841H209.938V26.3529L217.744 34.1592H222.948L230.754 26.3529V8.13841H225.55Z" fill="white"/>
<path d="M166.035 18.5467H163.266H157.841H155.682V13.3426H168.637V8.13841H155.682L150.478 13.3426V18.5467L155.682 23.7509H157.841H163.266H166.035V28.955H153.08V34.1592H166.035L171.239 28.955V23.7509L166.035 18.5467Z" fill="white"/>
</svg>
