<svg width="24" height="24" viewBox="0 0 24 24" fill="none" xmlns="http://www.w3.org/2000/svg">
<mask id="mask0_1046_253" style="mask-type:alpha" maskUnits="userSpaceOnUse" x="0" y="0" width="24" height="24">
<rect width="24" height="24" fill="#D9D9D9"/>
</mask>
<g mask="url(#mask0_1046_253)">
<path d="M10.5498 15.7L16.7498 9.50005L16.2498 9.00005L10.5498 14.7L7.6998 11.85L7.1998 12.35L10.5498 15.7ZM12.0041 20.7C10.8012 20.7 9.67014 20.4718 8.61081 20.0153C7.55147 19.5588 6.63005 18.9392 5.84655 18.1565C5.06289 17.3739 4.44255 16.4536 3.98555 15.3958C3.52839 14.3378 3.2998 13.2073 3.2998 12.0043C3.2998 10.8015 3.52805 9.67038 3.98455 8.61105C4.44105 7.55172 5.06064 6.6303 5.8433 5.8468C6.62597 5.06313 7.54622 4.4428 8.60405 3.9858C9.66205 3.52863 10.7926 3.30005 11.9956 3.30005C13.1984 3.30005 14.3295 3.5283 15.3888 3.9848C16.4481 4.4413 17.3696 5.06088 18.1531 5.84355C18.9367 6.62622 19.5571 7.54647 20.0141 8.6043C20.4712 9.6623 20.6998 10.7928 20.6998 11.9958C20.6998 13.1986 20.4716 14.3297 20.0151 15.389C19.5586 16.4484 18.939 17.3698 18.1563 18.1533C17.3736 18.937 16.4534 19.5573 15.3956 20.0143C14.3376 20.4715 13.2071 20.7 12.0041 20.7ZM11.9998 20C14.2331 20 16.1248 19.225 17.6748 17.675C19.2248 16.125 19.9998 14.2334 19.9998 12C19.9998 9.76672 19.2248 7.87505 17.6748 6.32505C16.1248 4.77505 14.2331 4.00005 11.9998 4.00005C9.76647 4.00005 7.8748 4.77505 6.3248 6.32505C4.7748 7.87505 3.9998 9.76672 3.9998 12C3.9998 14.2334 4.7748 16.125 6.3248 17.675C7.8748 19.225 9.76647 20 11.9998 20Z" fill="#1B1464"/>
</g>
</svg>
