<svg width="28" height="32" viewBox="0 0 28 32" fill="none" xmlns="http://www.w3.org/2000/svg">
<g clip-path="url(#clip0_231_268)">
<path d="M0 0.236419C9.32678 0.2356 18.6527 0.234782 27.9795 0.236419C27.4662 6.037 26.9611 11.8376 26.4264 17.6365C26.1088 21.3428 25.7813 25.0492 25.4358 28.753C23.4455 29.2803 21.4749 29.8812 19.4854 30.4109C17.658 30.9472 15.8159 31.4327 13.9877 31.9648H13.9337C12.1939 31.4474 10.437 30.9922 8.69719 30.4748C6.64386 29.9213 4.60854 29.304 2.55439 28.753C2.28667 25.9768 2.04515 23.1989 1.8069 20.421C1.35743 15.2885 0.868655 10.1592 0.436374 5.02589C0.28655 3.48098 0.179298 1.93116 0 0.389519V0.236419ZM14.0336 2.52472C14.0139 3.63899 14.0483 4.75408 14.0139 5.86753C10.8144 5.85607 7.61404 5.86507 4.4145 5.86835C4.46936 6.94987 4.61427 8.02402 4.76328 9.09653C7.74012 9.20706 10.7211 9.09244 13.6979 9.18168C11.0936 10.35 8.45731 11.4503 5.84152 12.5941C5.61719 12.694 5.37731 12.7693 5.17672 12.915C5.19883 14.103 5.39041 15.2844 5.47474 16.4699C7.0614 16.4641 8.64725 16.4388 10.2339 16.4363C11.5054 16.4298 12.7777 16.4551 14.0491 16.4273C13.9885 18.3807 14.068 20.3366 14.0082 22.2901C13.1526 22.1632 12.3077 21.9724 11.4554 21.821C10.7833 21.6744 10.0947 21.5983 9.4324 21.4059C9.33825 20.4685 9.27275 19.5278 9.18924 18.5895C8.99766 18.5306 8.79462 18.5363 8.59649 18.533C7.63532 18.5388 6.67333 18.5297 5.71135 18.5445C5.8055 20.3481 5.9676 22.1493 6.24351 23.9357C7.19158 24.183 8.14129 24.4253 9.08772 24.6832C10.5377 25.0778 12.0056 25.4061 13.458 25.7942C13.6308 25.831 13.8051 25.8949 13.9844 25.8802C14.0811 27.0665 14.0065 28.2602 14.0246 29.4497C14.3594 29.3957 14.6885 29.313 15.0119 29.2131C17.7612 28.4665 20.5071 27.7059 23.2547 26.9519C23.3915 25.8712 23.4553 24.7831 23.5634 23.6999C23.8491 20.4071 24.1373 17.1142 24.437 13.8221C24.7882 10.0561 25.0919 6.28589 25.4456 2.51981C21.6411 2.52309 17.8373 2.51244 14.0336 2.52472Z" fill="#0170BA"/>
<path d="M14.0335 2.52477C17.8372 2.51249 21.641 2.52313 25.4455 2.51986C25.0919 6.28594 24.7881 10.0561 24.4369 13.8222C24.1372 17.1142 23.8491 20.4071 23.5633 23.7C23.4553 24.7831 23.3914 25.8712 23.2547 26.9519C20.5071 27.7059 17.7611 28.4665 15.0119 29.2132C14.6885 29.3131 14.3593 29.3958 14.0245 29.4498C14.0065 28.2602 14.081 27.0665 13.9844 25.8802C14.0089 25.8753 14.0589 25.8655 14.0834 25.8606C16.6403 25.2187 19.1799 24.5121 21.731 23.8473C22.0536 20.2286 22.4114 16.6116 22.6382 12.9855C20.4686 12.9969 18.2982 12.9904 16.1286 12.9994C15.8126 13.001 15.4965 12.9994 15.1822 12.9765C16.3496 12.3755 17.5777 11.899 18.7763 11.3628C19.9266 10.8413 21.0908 10.3525 22.2452 9.84079C22.4679 9.73845 22.7053 9.65331 22.901 9.50103C22.9779 9.21857 22.9739 8.92302 23.0041 8.63401C23.0705 7.71705 23.1884 6.805 23.2326 5.88723C20.1599 5.86266 17.0873 5.88395 14.0138 5.86758C14.0482 4.75413 14.0138 3.63904 14.0335 2.52477Z" fill="#0170BA"/>
<path d="M14.049 16.4274C15.5325 16.402 17.0168 16.4421 18.5012 16.4323C18.4185 17.9494 18.2924 19.464 18.2138 20.9811C17.3042 21.2783 16.3807 21.5296 15.4637 21.8047C14.975 21.9537 14.4731 22.0716 14.0081 22.2902C14.0678 20.3367 13.9884 18.3808 14.049 16.4274Z" fill="#0170BA"/>
<path d="M4.41455 5.8684C7.61408 5.86513 10.8144 5.85612 14.014 5.86758C14.0557 9.38805 14.0033 12.9085 14.0492 16.4273C12.7777 16.4552 11.5054 16.4298 10.234 16.4364C8.6473 16.4388 7.06145 16.4642 5.47479 16.4699C5.39046 15.2844 5.19888 14.103 5.17677 12.9151C5.37736 12.7693 5.61724 12.694 5.84157 12.5941C8.45736 11.4504 11.0936 10.35 13.6979 9.18173C10.7211 9.09249 7.74016 9.20711 4.76332 9.09659C4.61432 8.02407 4.4694 6.94992 4.41455 5.8684Z" fill="white"/>
<path d="M5.71143 18.5445C6.67341 18.5298 7.6354 18.5388 8.59657 18.5331C8.7947 18.5364 8.99774 18.5306 9.18932 18.5896C9.27283 19.5278 9.33833 20.4685 9.43248 21.4059C10.0948 21.5983 10.7834 21.6745 11.4555 21.821C12.3078 21.9725 13.1527 22.1633 14.0083 22.2902C14.0901 23.4789 13.9469 24.6759 14.0836 25.8606C14.059 25.8655 14.0091 25.8753 13.9845 25.8802C13.8052 25.895 13.6308 25.8311 13.4581 25.7943C12.0057 25.4062 10.5377 25.0779 9.0878 24.6833C8.14137 24.4254 7.19166 24.183 6.24359 23.9358C5.96768 22.1493 5.80558 20.3482 5.71143 18.5445Z" fill="white"/>
<path d="M14.0138 5.86768C17.0872 5.88405 20.1599 5.86276 23.2325 5.88732C23.1883 6.8051 23.0704 7.71715 23.0041 8.63411C22.9738 8.92311 22.9779 9.21867 22.9009 9.50113C22.7052 9.65341 22.4678 9.73855 22.2451 9.84089C21.0907 10.3526 19.9265 10.8414 18.7762 11.3629C17.5776 11.8991 16.3496 12.3756 15.1821 12.9766C15.4965 12.9995 15.8125 13.0011 16.1285 12.9995C18.2981 12.9905 20.4685 12.997 22.6381 12.9856C22.4113 16.6117 22.0536 20.2287 21.731 23.8474C19.1799 24.5122 16.6402 25.2188 14.0834 25.8607C13.9467 24.676 14.0899 23.479 14.0081 22.2902C14.4731 22.0717 14.975 21.9538 15.4637 21.8048C16.3807 21.5297 17.3042 21.2783 18.2138 20.9811C18.2924 19.4641 18.4185 17.9494 18.5012 16.4324C17.0168 16.4422 15.5325 16.4021 14.049 16.4274C14.0031 12.9086 14.0555 9.38814 14.0138 5.86768Z" fill="white"/>
</g>
<defs>
<clipPath id="clip0_231_268">
<rect width="28" height="32" fill="white"/>
</clipPath>
</defs>
</svg>
