<svg width="29" height="32" viewBox="0 0 29 32" fill="none" xmlns="http://www.w3.org/2000/svg">
<g clip-path="url(#clip0_231_273)">
<path d="M25.6053 28.7994L14.069 32L2.56363 28.8022L0 0.0189209H28.1718" fill="#E44D26"/>
<path d="M25.6026 2.37073H14.0859V29.5523L23.408 26.9664" fill="#E44D26"/>
<path d="M22.9094 5.90125H14.0747V9.43183H22.5939M22.2755 13.047H14.0747V25.8919L21.3064 23.8841M14.0747 16.5776H18.4216L18.0131 21.1572L14.0747 22.2203" fill="white"/>
<path d="M6.19195 16.5776H14.0829V13.047H9.4148L9.09365 9.43183H14.0829V5.90125H5.23975M6.84272 23.8869L14.0744 25.8919L14.0857 25.8891V22.2175L14.0744 22.2203L10.1416 21.16L9.89091 18.3429H6.34971" fill="white"/>
</g>
<defs>
<clipPath id="clip0_231_273">
<rect width="28.1718" height="32" fill="white"/>
</clipPath>
</defs>
</svg>
