<?xml version="1.0" encoding="utf-8"?>
<!-- Generator: Adobe Illustrator 24.1.1, SVG Export Plug-In . SVG Version: 6.00 Build 0)  -->
<svg version="1.1" id="Camada_1" xmlns="http://www.w3.org/2000/svg" xmlns:xlink="http://www.w3.org/1999/xlink" x="0px" y="0px"
	 viewBox="0 0 42 42" style="enable-background:new 0 0 42 42;" xml:space="preserve">
<path d="M32.3,14.9c-0.3,0-0.5,0.2-0.5,0.5v15.7L10,9.3c-0.2-0.2-0.5-0.2-0.7,0s-0.2,0.5,0,0.7l21.8,21.8H15.4
	c-0.3,0-0.5,0.2-0.5,0.5c0,0.3,0.2,0.5,0.5,0.5l16.9,0c0.1,0,0.1,0,0.2,0c0.1,0,0.2-0.1,0.3-0.3c0-0.1,0-0.1,0-0.2l0-16.9
	C32.8,15.1,32.6,14.9,32.3,14.9z"/>
</svg>
