<?xml version="1.0" encoding="utf-8"?>
<!-- Generator: Adobe Illustrator 24.1.1, SVG Export Plug-In . SVG Version: 6.00 Build 0)  -->
<svg version="1.1" id="Camada_1" xmlns="http://www.w3.org/2000/svg" xmlns:xlink="http://www.w3.org/1999/xlink" x="0px" y="0px"
	 viewBox="0 0 42 42" style="enable-background:new 0 0 42 42;" xml:space="preserve">
<style type="text/css">
	.st0{fill:#1E1E1E;}
</style>
<path class="st0" d="M33.3,24.7c-0.2-0.2-0.5-0.2-0.7,0L21.5,35.8V5c0-0.3-0.2-0.5-0.5-0.5S20.5,4.7,20.5,5v30.8L9.4,24.7
	c-0.2-0.2-0.5-0.2-0.7,0c-0.2,0.2-0.2,0.5,0,0.7l12,11.9c0,0.1,0.1,0.1,0.2,0.1c0.1,0.1,0.3,0.1,0.4,0c0.1,0,0.1-0.1,0.2-0.1
	l11.9-11.9C33.5,25.2,33.5,24.9,33.3,24.7z"/>
</svg>
