<svg width="33" height="32" viewBox="0 0 33 32" fill="none" xmlns="http://www.w3.org/2000/svg">
<g clip-path="url(#clip0_231_278)">
<path d="M32.1719 0H0.171875V32H32.1719V0Z" fill="#F7DF1E"/>
<path d="M21.6679 25.0001C22.3125 26.0525 23.1511 26.8261 24.6342 26.8261C25.8802 26.8261 26.6761 26.2034 26.6761 25.3429C26.6761 24.3118 25.8584 23.9466 24.4869 23.3468L23.7352 23.0242C21.5653 22.0998 20.1238 20.9417 20.1238 18.4934C20.1238 16.2382 21.8421 14.5214 24.5276 14.5214C26.4394 14.5214 27.8139 15.1868 28.8044 16.929L26.4628 18.4325C25.9472 17.508 25.3911 17.1438 24.5276 17.1438C23.6468 17.1438 23.0886 17.7026 23.0886 18.4325C23.0886 19.3346 23.6473 19.6998 24.9375 20.2585L25.6892 20.5805C28.2441 21.6762 29.6867 22.7931 29.6867 25.3043C29.6867 28.0116 27.5599 29.4948 24.7038 29.4948C21.9112 29.4948 20.107 28.164 19.2242 26.4198L21.6679 25.0001ZM11.0454 25.2607C11.5178 26.0988 11.9475 26.8073 12.9806 26.8073C13.9686 26.8073 14.5918 26.4208 14.5918 24.9178V14.693H17.5988V24.9584C17.5988 28.0721 15.7733 29.4892 13.1086 29.4892C10.701 29.4892 9.30674 28.2433 8.59766 26.7426L11.0454 25.2607Z" fill="black"/>
</g>
<defs>
<clipPath id="clip0_231_278">
<rect width="32" height="32" fill="white" transform="translate(0.171875)"/>
</clipPath>
</defs>
</svg>
