<svg width="24" height="24" viewBox="0 0 24 24" fill="none" xmlns="http://www.w3.org/2000/svg">
<mask id="mask0_1054_278" style="mask-type:alpha" maskUnits="userSpaceOnUse" x="0" y="0" width="24" height="24">
<rect width="24" height="24" fill="#D9D9D9"/>
</mask>
<g mask="url(#mask0_1054_278)">
<path d="M10.5498 15.2L16.7498 9.00005L16.2498 8.50005L10.5498 14.2L7.6998 11.35L7.1998 11.85L10.5498 15.2ZM5.7998 19.7C5.38314 19.7 5.02897 19.5542 4.7373 19.2625C4.44564 18.9709 4.2998 18.6167 4.2998 18.2V5.80005C4.2998 5.38338 4.44564 5.02922 4.7373 4.73755C5.02897 4.44588 5.38314 4.30005 5.7998 4.30005H10.6498C10.4665 3.81672 10.5165 3.36255 10.7998 2.93755C11.0831 2.51255 11.4831 2.30005 11.9998 2.30005C12.5331 2.30005 12.9415 2.51255 13.2248 2.93755C13.5081 3.36255 13.5498 3.81672 13.3498 4.30005H18.1998C18.6165 4.30005 18.9706 4.44588 19.2623 4.73755C19.554 5.02922 19.6998 5.38338 19.6998 5.80005V18.2C19.6998 18.6167 19.554 18.9709 19.2623 19.2625C18.9706 19.5542 18.6165 19.7 18.1998 19.7H5.7998ZM5.7998 19H18.1998C18.3998 19 18.5831 18.9167 18.7498 18.75C18.9165 18.5834 18.9998 18.4 18.9998 18.2V5.80005C18.9998 5.60005 18.9165 5.41672 18.7498 5.25005C18.5831 5.08338 18.3998 5.00005 18.1998 5.00005H5.7998C5.5998 5.00005 5.41647 5.08338 5.2498 5.25005C5.08314 5.41672 4.9998 5.60005 4.9998 5.80005V18.2C4.9998 18.4 5.08314 18.5834 5.2498 18.75C5.41647 18.9167 5.5998 19 5.7998 19ZM11.9998 4.50005C12.2165 4.50005 12.3956 4.42922 12.5373 4.28755C12.679 4.14588 12.7498 3.96672 12.7498 3.75005C12.7498 3.53338 12.679 3.35422 12.5373 3.21255C12.3956 3.07088 12.2165 3.00005 11.9998 3.00005C11.7831 3.00005 11.604 3.07088 11.4623 3.21255C11.3206 3.35422 11.2498 3.53338 11.2498 3.75005C11.2498 3.96672 11.3206 4.14588 11.4623 4.28755C11.604 4.42922 11.7831 4.50005 11.9998 4.50005Z" fill="#1B1464"/>
</g>
</svg>
