<?xml version="1.0" encoding="utf-8"?>
<!-- Generator: Adobe Illustrator 24.1.1, SVG Export Plug-In . SVG Version: 6.00 Build 0)  -->
<svg version="1.1" id="Camada_1" xmlns="http://www.w3.org/2000/svg" xmlns:xlink="http://www.w3.org/1999/xlink" x="0px" y="0px"
	 viewBox="0 0 24 24" style="enable-background:new 0 0 24 24;" xml:space="preserve">
<style type="text/css">
	.st0{fill:#D9D9D9;filter:url(#Adobe_OpacityMaskFilter);}
	.st1{mask:url(#mask0_1046_243_1_);}
	.st2{fill:#1E1E1E;}
</style>
<defs>
	<filter id="Adobe_OpacityMaskFilter" filterUnits="userSpaceOnUse" x="4.3" y="4.3" width="15.4" height="15.4">
		<feColorMatrix  type="matrix" values="1 0 0 0 0  0 1 0 0 0  0 0 1 0 0  0 0 0 1 0"/>
	</filter>
</defs>
<mask maskUnits="userSpaceOnUse" x="4.3" y="4.3" width="15.4" height="15.4" id="mask0_1046_243_1_">
	<rect class="st0" width="24" height="24"/>
</mask>
<g class="st1">
	<path class="st2" d="M5.8,19.7c-0.4,0-0.8-0.1-1.1-0.4c-0.3-0.3-0.4-0.6-0.4-1.1V5.8c0-0.4,0.1-0.8,0.4-1.1C5,4.4,5.4,4.3,5.8,4.3
		h12.4c0.4,0,0.8,0.1,1.1,0.4c0.3,0.3,0.4,0.6,0.4,1.1v12.4c0,0.4-0.1,0.8-0.4,1.1c-0.3,0.3-0.6,0.4-1.1,0.4H5.8z M5.8,19h12.4
		c0.2,0,0.4-0.1,0.5-0.3c0.2-0.2,0.3-0.4,0.3-0.5V5.8c0-0.2-0.1-0.4-0.3-0.5S18.4,5,18.2,5H5.8C5.6,5,5.4,5.1,5.2,5.3
		C5.1,5.4,5,5.6,5,5.8v12.4c0,0.2,0.1,0.4,0.3,0.5C5.4,18.9,5.6,19,5.8,19z"/>
	<path class="st2" d="M9.2,15.5L8.7,15l2.8-2.8L8.7,9.3l0.5-0.5l2.8,2.8l2.8-2.8l0.5,0.5l-2.8,2.8l2.8,2.8l-0.5,0.5L12,12.6
		L9.2,15.5z"/>
</g>
</svg>
