<svg width="24" height="24" viewBox="0 0 24 24" fill="none" xmlns="http://www.w3.org/2000/svg">
<mask id="mask0_1046_243" style="mask-type:alpha" maskUnits="userSpaceOnUse" x="0" y="0" width="24" height="24">
<rect width="24" height="24" fill="#D9D9D9"/>
</mask>
<g mask="url(#mask0_1046_243)">
<path d="M5.7998 19.7C5.36647 19.7 5.00814 19.5584 4.7248 19.275C4.44147 18.9917 4.2998 18.6334 4.2998 18.2L4.2998 5.80005C4.2998 5.36672 4.44147 5.00838 4.7248 4.72505C5.00814 4.44172 5.36647 4.30005 5.7998 4.30005L18.1998 4.30005C18.6331 4.30005 18.9915 4.44172 19.2748 4.72505C19.5581 5.00838 19.6998 5.36672 19.6998 5.80005V18.2C19.6998 18.6334 19.5581 18.9917 19.2748 19.275C18.9915 19.5584 18.6331 19.7 18.1998 19.7H5.7998ZM5.7998 19H18.1998C18.3998 19 18.5831 18.9167 18.7498 18.75C18.9165 18.5834 18.9998 18.4 18.9998 18.2V5.80005C18.9998 5.60005 18.9165 5.41672 18.7498 5.25005C18.5831 5.08338 18.3998 5.00005 18.1998 5.00005L5.7998 5.00005C5.5998 5.00005 5.41647 5.08338 5.2498 5.25005C5.08314 5.41672 4.9998 5.60005 4.9998 5.80005L4.9998 18.2C4.9998 18.4 5.08314 18.5834 5.2498 18.75C5.41647 18.9167 5.5998 19 5.7998 19Z" fill="#1B1464"/>
<path d="M9.17157 15.4752L8.6766 14.9803L11.505 12.1518L8.6766 9.3234L9.17157 8.82843L12 11.6569L14.8284 8.82843L15.3234 9.3234L12.495 12.1518L15.3234 14.9803L14.8284 15.4752L12 12.6468L9.17157 15.4752Z" fill="#1B1464"/>
</g>
</svg>
