<svg width="100" height="70" viewBox="0 0 100 70" fill="none" xmlns="http://www.w3.org/2000/svg">
<path d="M0 8.39844C0 3.98016 3.58172 0.398438 8 0.398438H92C96.4183 0.398438 100 3.98016 100 8.39844V23.3984H0V8.39844Z" fill="#216712"/>
<path d="M0.5 8.39844C0.5 4.2563 3.85786 0.898438 8 0.898438H92C96.1421 0.898438 99.5 4.2563 99.5 8.39844V22.8984H0.5V8.39844Z" stroke="black" stroke-opacity="0.04"/>
<path d="M30.1761 16.3984L31.608 7.67116H32.4602L31.0284 16.3984H30.1761ZM26.2045 13.978L26.3409 13.1257H32.8523L32.7159 13.978H26.2045ZM27.108 16.3984L28.5398 7.67116H29.392L27.9602 16.3984H27.108ZM26.7159 10.9439L26.8523 10.0916H33.3636L33.2273 10.9439H26.7159ZM34.4737 16.3984V15.6314L37.3544 12.478C37.6925 12.1087 37.9709 11.7876 38.1896 11.5149C38.4084 11.2393 38.5703 10.9808 38.6754 10.7393C38.7834 10.495 38.8374 10.2393 38.8374 9.9723C38.8374 9.66548 38.7635 9.39986 38.6158 9.17543C38.4709 8.95099 38.272 8.7777 38.0192 8.65554C37.7663 8.53338 37.4822 8.4723 37.1669 8.4723C36.8317 8.4723 36.5391 8.5419 36.2891 8.68111C36.0419 8.81747 35.8501 9.00923 35.7138 9.25639C35.5803 9.50355 35.5135 9.79332 35.5135 10.1257H34.5078C34.5078 9.61435 34.6257 9.16548 34.8615 8.77912C35.0973 8.39276 35.4183 8.09162 35.8246 7.87571C36.2337 7.6598 36.6925 7.55185 37.201 7.55185C37.7124 7.55185 38.1655 7.6598 38.5604 7.87571C38.9553 8.09162 39.2649 8.38281 39.4893 8.74929C39.7138 9.11577 39.826 9.52344 39.826 9.9723C39.826 10.2933 39.7678 10.6072 39.6513 10.9141C39.5376 11.218 39.3388 11.5575 39.0547 11.9325C38.7734 12.3047 38.3828 12.7592 37.8828 13.2962L35.9226 15.3928V15.4609H39.9794V16.3984H34.4737ZM44.8075 7.67116V16.3984H43.7507V8.77912H43.6996L41.5689 10.1939V9.12003L43.7507 7.67116H44.8075ZM50.2152 16.5178C49.8572 16.5121 49.4993 16.4439 49.1413 16.3132C48.7834 16.1825 48.4567 15.9624 48.1612 15.6527C47.8658 15.3402 47.6286 14.9183 47.4496 14.3871C47.2706 13.853 47.1811 13.1825 47.1811 12.3757C47.1811 11.603 47.2536 10.9183 47.3984 10.3217C47.5433 9.7223 47.7536 9.21804 48.0291 8.80895C48.3047 8.39702 48.6371 8.08452 49.0263 7.87145C49.4183 7.65838 49.8601 7.55185 50.3516 7.55185C50.8402 7.55185 51.2749 7.64986 51.6555 7.84588C52.0391 8.03906 52.3516 8.30895 52.593 8.65554C52.8345 9.00213 52.9908 9.40128 53.0618 9.85298H52.022C51.9254 9.46094 51.7379 9.13565 51.4595 8.87713C51.1811 8.61861 50.8118 8.48935 50.3516 8.48935C49.6754 8.48935 49.1428 8.78338 48.7536 9.37145C48.3672 9.95952 48.1726 10.7848 48.1697 11.8473H48.2379C48.397 11.6058 48.5859 11.3999 48.8047 11.2294C49.0263 11.0561 49.2706 10.9226 49.5376 10.8288C49.8047 10.7351 50.0874 10.6882 50.3857 10.6882C50.8857 10.6882 51.343 10.8132 51.7578 11.0632C52.1726 11.3104 52.505 11.6527 52.755 12.0902C53.005 12.5249 53.13 13.0234 53.13 13.5859C53.13 14.1257 53.0092 14.62 52.7678 15.0689C52.5263 15.5149 52.1868 15.87 51.7493 16.1342C51.3146 16.3956 50.8033 16.5234 50.2152 16.5178ZM50.2152 15.5803C50.5732 15.5803 50.8942 15.4908 51.1783 15.3118C51.4652 15.1328 51.6911 14.8928 51.8558 14.5916C52.0234 14.2905 52.1072 13.9553 52.1072 13.5859C52.1072 13.2251 52.0263 12.897 51.8643 12.6016C51.7053 12.3033 51.4851 12.0661 51.2038 11.8899C50.9254 11.7138 50.6072 11.6257 50.2493 11.6257C49.9794 11.6257 49.728 11.6797 49.495 11.7876C49.2621 11.8928 49.0575 12.0376 48.8814 12.2223C48.7081 12.407 48.5717 12.6186 48.4723 12.8572C48.3729 13.093 48.3232 13.3416 48.3232 13.603C48.3232 13.9496 48.4041 14.2734 48.5661 14.5746C48.7308 14.8757 48.9553 15.1186 49.2393 15.3033C49.5263 15.4879 49.8516 15.5803 50.2152 15.5803ZM55.0785 16.3984L58.9819 8.67685V8.60866H54.4819V7.67116H60.0728V8.6598L56.1864 16.3984H55.0785ZM64.7294 7.67116V16.3984H63.6726V8.77912H63.6214L61.4908 10.1939V9.12003L63.6726 7.67116H64.7294ZM67.2393 16.3984V15.6314L70.12 12.478C70.4581 12.1087 70.7365 11.7876 70.9553 11.5149C71.174 11.2393 71.3359 10.9808 71.4411 10.7393C71.549 10.495 71.603 10.2393 71.603 9.9723C71.603 9.66548 71.5291 9.39986 71.3814 9.17543C71.2365 8.95099 71.0376 8.7777 70.7848 8.65554C70.532 8.53338 70.2479 8.4723 69.9325 8.4723C69.5973 8.4723 69.3047 8.5419 69.0547 8.68111C68.8075 8.81747 68.6158 9.00923 68.4794 9.25639C68.3459 9.50355 68.2791 9.79332 68.2791 10.1257H67.2734C67.2734 9.61435 67.3913 9.16548 67.6271 8.77912C67.8629 8.39276 68.1839 8.09162 68.5902 7.87571C68.9993 7.6598 69.4581 7.55185 69.9666 7.55185C70.478 7.55185 70.9311 7.6598 71.326 7.87571C71.7209 8.09162 72.0305 8.38281 72.255 8.74929C72.4794 9.11577 72.5916 9.52344 72.5916 9.9723C72.5916 10.2933 72.5334 10.6072 72.4169 10.9141C72.3033 11.218 72.1044 11.5575 71.8203 11.9325C71.5391 12.3047 71.1484 12.7592 70.6484 13.2962L68.6882 15.3928V15.4609H72.745V16.3984H67.2393Z" fill="white"/>
<rect y="23.3984" width="100" height="23" fill="#5AAC48"/>
<rect x="0.5" y="23.8984" width="99" height="22" stroke="black" stroke-opacity="0.04"/>
<path d="M26.6761 39.3984L28.108 30.6712H28.9602L27.5284 39.3984H26.6761ZM22.7045 36.978L22.8409 36.1257H29.3523L29.2159 36.978H22.7045ZM23.608 39.3984L25.0398 30.6712H25.892L24.4602 39.3984H23.608ZM23.2159 33.9439L23.3523 33.0916H29.8636L29.7273 33.9439H23.2159ZM33.701 39.5178C33.201 39.5178 32.7507 39.4183 32.3501 39.2195C31.9496 39.0206 31.6286 38.7479 31.3871 38.4013C31.1456 38.0547 31.0135 37.6598 30.9908 37.2166H32.0135C32.0533 37.6115 32.2322 37.9382 32.5504 38.1967C32.8714 38.4524 33.255 38.5803 33.701 38.5803C34.0589 38.5803 34.3771 38.4964 34.6555 38.3288C34.9368 38.1612 35.157 37.9311 35.3161 37.6385C35.478 37.343 35.5589 37.0092 35.5589 36.6371C35.5589 36.2564 35.4751 35.9169 35.3075 35.6186C35.1428 35.3175 34.9155 35.0803 34.6257 34.907C34.3359 34.7337 34.005 34.6456 33.6328 34.6428C33.3658 34.6399 33.0916 34.6811 32.8104 34.7663C32.5291 34.8487 32.2976 34.9553 32.1158 35.0859L31.1271 34.9666L31.6555 30.6712H36.1896V31.6087H32.5419L32.2351 34.1825H32.2862C32.4652 34.0405 32.6896 33.9226 32.9595 33.8288C33.2294 33.7351 33.5107 33.6882 33.8033 33.6882C34.3374 33.6882 34.8132 33.8161 35.2308 34.0717C35.6513 34.3246 35.9808 34.6712 36.2195 35.1115C36.4609 35.5518 36.5817 36.0547 36.5817 36.62C36.5817 37.1768 36.4567 37.674 36.2067 38.1115C35.9595 38.5462 35.6186 38.8899 35.1839 39.1428C34.7493 39.3928 34.255 39.5178 33.701 39.5178ZM38.7859 39.3984H37.6779L40.8825 30.6712H41.9734L45.1779 39.3984H44.07L41.462 32.0518H41.3938L38.7859 39.3984ZM39.195 35.9893H43.6609V36.9268H39.195V35.9893ZM46.8952 39.3984H45.7873L48.9918 30.6712H50.0827L53.2873 39.3984H52.1793L49.5714 32.0518H49.5032L46.8952 39.3984ZM47.3043 35.9893H51.7702V36.9268H47.3043V35.9893ZM61.2592 33.3984H60.2024C60.1399 33.0945 60.0305 32.8274 59.8743 32.5973C59.7209 32.3672 59.5334 32.174 59.3118 32.0178C59.093 31.8587 58.8501 31.7393 58.5831 31.6598C58.3161 31.5803 58.0376 31.5405 57.7479 31.5405C57.2195 31.5405 56.7408 31.674 56.3118 31.9411C55.8857 32.2081 55.5462 32.6016 55.2933 33.1214C55.0433 33.6413 54.9183 34.2791 54.9183 35.0348C54.9183 35.7905 55.0433 36.4283 55.2933 36.9482C55.5462 37.468 55.8857 37.8615 56.3118 38.1286C56.7408 38.3956 57.2195 38.5291 57.7479 38.5291C58.0376 38.5291 58.3161 38.4893 58.5831 38.4098C58.8501 38.3303 59.093 38.2124 59.3118 38.0561C59.5334 37.897 59.7209 37.7024 59.8743 37.4723C60.0305 37.2393 60.1399 36.9723 60.2024 36.6712H61.2592C61.1797 37.1172 61.0348 37.5163 60.8246 37.8686C60.6143 38.2209 60.353 38.5206 60.0405 38.7678C59.728 39.0121 59.3771 39.1982 58.9879 39.326C58.6016 39.4538 58.1882 39.5178 57.7479 39.5178C57.0036 39.5178 56.3416 39.3359 55.7621 38.9723C55.1825 38.6087 54.7266 38.0916 54.3942 37.4212C54.0618 36.7507 53.8956 35.9553 53.8956 35.0348C53.8956 34.1143 54.0618 33.3189 54.3942 32.6484C54.7266 31.978 55.1825 31.4609 55.7621 31.0973C56.3416 30.7337 57.0036 30.5518 57.7479 30.5518C58.1882 30.5518 58.6016 30.6158 58.9879 30.7436C59.3771 30.8714 59.728 31.0589 60.0405 31.3061C60.353 31.5504 60.6143 31.8487 60.8246 32.201C61.0348 32.5504 61.1797 32.9496 61.2592 33.3984ZM62.609 37.6087V36.7393L66.4442 30.6712H67.0749V32.0178H66.6488L63.7511 36.603V36.6712H68.9158V37.6087H62.609ZM66.717 39.3984V37.3445V36.9396V30.6712H67.7227V39.3984H66.717ZM73.3082 39.5178C72.723 39.5178 72.206 39.4141 71.7571 39.2067C71.3111 38.9964 70.9631 38.7081 70.7131 38.3416C70.4631 37.9723 70.3395 37.5518 70.3423 37.0803C70.3395 36.7109 70.4119 36.37 70.5597 36.0575C70.7074 35.7422 70.9091 35.4794 71.1648 35.2692C71.4233 35.0561 71.7116 34.9212 72.0298 34.8643V34.8132C71.6122 34.7053 71.2798 34.4709 71.0327 34.1101C70.7855 33.7464 70.6634 33.3331 70.6662 32.87C70.6634 32.4268 70.7756 32.0305 71.0028 31.6811C71.2301 31.3317 71.5426 31.0561 71.9403 30.8544C72.3409 30.6527 72.7969 30.5518 73.3082 30.5518C73.8139 30.5518 74.2656 30.6527 74.6634 30.8544C75.0611 31.0561 75.3736 31.3317 75.6009 31.6811C75.831 32.0305 75.9474 32.4268 75.9503 32.87C75.9474 33.3331 75.821 33.7464 75.571 34.1101C75.3239 34.4709 74.9957 34.7053 74.5866 34.8132V34.8643C74.902 34.9212 75.1861 35.0561 75.4389 35.2692C75.6918 35.4794 75.8935 35.7422 76.044 36.0575C76.1946 36.37 76.2713 36.7109 76.2741 37.0803C76.2713 37.5518 76.1435 37.9723 75.8906 38.3416C75.6406 38.7081 75.2926 38.9964 74.8466 39.2067C74.4034 39.4141 73.8906 39.5178 73.3082 39.5178ZM73.3082 38.5803C73.7031 38.5803 74.044 38.5163 74.331 38.3885C74.6179 38.2607 74.8395 38.0803 74.9957 37.8473C75.152 37.6143 75.2315 37.3416 75.2344 37.0291C75.2315 36.6996 75.1463 36.4084 74.9787 36.1555C74.8111 35.9027 74.5824 35.7038 74.2926 35.5589C74.0057 35.4141 73.6776 35.3416 73.3082 35.3416C72.9361 35.3416 72.6037 35.4141 72.3111 35.5589C72.0213 35.7038 71.7926 35.9027 71.625 36.1555C71.4602 36.4084 71.3793 36.6996 71.3821 37.0291C71.3793 37.3416 71.4545 37.6143 71.608 37.8473C71.7642 38.0803 71.9872 38.2607 72.277 38.3885C72.5668 38.5163 72.9105 38.5803 73.3082 38.5803ZM73.3082 34.4382C73.6207 34.4382 73.8977 34.3757 74.1392 34.2507C74.3835 34.1257 74.5753 33.951 74.7145 33.7266C74.8537 33.5021 74.9247 33.2393 74.9276 32.9382C74.9247 32.6428 74.8551 32.3857 74.7188 32.1669C74.5824 31.9453 74.3935 31.7749 74.152 31.6555C73.9105 31.5334 73.6293 31.4723 73.3082 31.4723C72.9815 31.4723 72.696 31.5334 72.4517 31.6555C72.2074 31.7749 72.0185 31.9453 71.8849 32.1669C71.7514 32.3857 71.6861 32.6428 71.6889 32.9382C71.6861 33.2393 71.7528 33.5021 71.8892 33.7266C72.0284 33.951 72.2202 34.1257 72.4645 34.2507C72.7088 34.3757 72.9901 34.4382 73.3082 34.4382Z" fill="white"/>
<path d="M0 46.3984H100V61.3984C100 65.8167 96.4183 69.3984 92 69.3984H8C3.58172 69.3984 0 65.8167 0 61.3984V46.3984Z" fill="#D6F3D0"/>
<path d="M0.5 46.8984H99.5V61.3984C99.5 65.5406 96.1421 68.8984 92 68.8984H8C3.85786 68.8984 0.5 65.5406 0.5 61.3984V46.8984Z" stroke="black" stroke-opacity="0.04"/>
<path d="M26.6761 62.3984L28.108 53.6712H28.9602L27.5284 62.3984H26.6761ZM22.7045 59.978L22.8409 59.1257H29.3523L29.2159 59.978H22.7045ZM23.608 62.3984L25.0398 53.6712H25.892L24.4602 62.3984H23.608ZM23.2159 56.9439L23.3523 56.0916H29.8636L29.7273 56.9439H23.2159ZM33.8203 62.3984H31.1271V53.6712H33.9396C34.7862 53.6712 35.5107 53.8459 36.1129 54.1953C36.7152 54.5419 37.1768 55.0405 37.4979 55.6911C37.8189 56.3388 37.9794 57.1143 37.9794 58.0178C37.9794 58.9268 37.8175 59.7095 37.4936 60.3658C37.1697 61.0192 36.6982 61.522 36.0788 61.8743C35.4595 62.2237 34.7067 62.3984 33.8203 62.3984ZM32.1839 61.4609H33.7521C34.4737 61.4609 35.0717 61.3217 35.5462 61.0433C36.0206 60.7649 36.3743 60.3686 36.6072 59.8544C36.8402 59.3402 36.9567 58.728 36.9567 58.0178C36.9567 57.3132 36.8416 56.7067 36.6115 56.1982C36.3814 55.6868 36.0376 55.2947 35.5803 55.022C35.1229 54.7464 34.5533 54.6087 33.8714 54.6087H32.1839V61.4609ZM42.4964 62.5178C42.1385 62.5121 41.7805 62.4439 41.4226 62.3132C41.0646 62.1825 40.7379 61.9624 40.4425 61.6527C40.147 61.3402 39.9098 60.9183 39.7308 60.3871C39.5518 59.853 39.4624 59.1825 39.4624 58.3757C39.4624 57.603 39.5348 56.9183 39.6797 56.3217C39.8246 55.7223 40.0348 55.218 40.3104 54.8089C40.5859 54.397 40.9183 54.0845 41.3075 53.8714C41.6996 53.6584 42.1413 53.5518 42.6328 53.5518C43.1214 53.5518 43.5561 53.6499 43.9368 53.8459C44.3203 54.0391 44.6328 54.3089 44.8743 54.6555C45.1158 55.0021 45.272 55.4013 45.343 55.853H44.3033C44.2067 55.4609 44.0192 55.1357 43.7408 54.8771C43.4624 54.6186 43.093 54.4893 42.6328 54.4893C41.9567 54.4893 41.424 54.7834 41.0348 55.3714C40.6484 55.9595 40.4538 56.7848 40.451 57.8473H40.5192C40.6783 57.6058 40.8672 57.3999 41.0859 57.2294C41.3075 57.0561 41.5518 56.9226 41.8189 56.8288C42.0859 56.7351 42.3686 56.6882 42.6669 56.6882C43.1669 56.6882 43.6243 56.8132 44.0391 57.0632C44.4538 57.3104 44.7862 57.6527 45.0362 58.0902C45.2862 58.5249 45.4112 59.0234 45.4112 59.5859C45.4112 60.1257 45.2905 60.62 45.049 61.0689C44.8075 61.5149 44.468 61.87 44.0305 62.1342C43.5959 62.3956 43.0845 62.5234 42.4964 62.5178ZM42.4964 61.5803C42.8544 61.5803 43.1754 61.4908 43.4595 61.3118C43.7464 61.1328 43.9723 60.8928 44.1371 60.5916C44.3047 60.2905 44.3885 59.9553 44.3885 59.5859C44.3885 59.2251 44.3075 58.897 44.1456 58.6016C43.9865 58.3033 43.7663 58.0661 43.4851 57.8899C43.2067 57.7138 42.8885 57.6257 42.5305 57.6257C42.2607 57.6257 42.0092 57.6797 41.7763 57.7876C41.5433 57.8928 41.3388 58.0376 41.1626 58.2223C40.9893 58.407 40.853 58.6186 40.7536 58.8572C40.6541 59.093 40.6044 59.3416 40.6044 59.603C40.6044 59.9496 40.6854 60.2734 40.8473 60.5746C41.0121 60.8757 41.2365 61.1186 41.5206 61.3033C41.8075 61.4879 42.1328 61.5803 42.4964 61.5803ZM47.2404 62.3984V53.6712H52.4734V54.6087H48.2972V57.5575H52.0813V58.495H48.2972V62.3984H47.2404ZM57.0788 62.5178C56.5163 62.5178 56.0149 62.4212 55.5746 62.228C55.1371 62.0348 54.7891 61.7663 54.5305 61.4226C54.2749 61.076 54.1357 60.674 54.1129 60.2166H55.1868C55.2095 60.4979 55.3061 60.7408 55.4766 60.9453C55.647 61.147 55.87 61.3033 56.1456 61.4141C56.4212 61.5249 56.7266 61.5803 57.0618 61.5803C57.4368 61.5803 57.7692 61.5149 58.0589 61.3842C58.3487 61.2536 58.576 61.0717 58.7408 60.8388C58.9055 60.6058 58.9879 60.3359 58.9879 60.0291C58.9879 59.7081 58.9084 59.4254 58.7493 59.1811C58.5902 58.9339 58.3572 58.7408 58.0504 58.6016C57.7436 58.4624 57.3686 58.3928 56.9254 58.3928H56.2266V57.4553H56.9254C57.272 57.4553 57.576 57.3928 57.8374 57.2678C58.1016 57.1428 58.3075 56.9666 58.4553 56.7393C58.6058 56.5121 58.6811 56.245 58.6811 55.9382C58.6811 55.6428 58.6158 55.3857 58.4851 55.1669C58.3544 54.9482 58.1697 54.7777 57.9311 54.6555C57.6953 54.5334 57.4169 54.4723 57.0959 54.4723C56.7947 54.4723 56.5107 54.5277 56.2436 54.6385C55.9794 54.7464 55.7635 54.9041 55.5959 55.1115C55.4283 55.3161 55.3374 55.5632 55.3232 55.853H54.3004C54.3175 55.3956 54.4553 54.995 54.7138 54.6513C54.9723 54.3047 55.3104 54.0348 55.728 53.8416C56.1484 53.6484 56.6101 53.5518 57.1129 53.5518C57.6527 53.5518 58.1158 53.6612 58.5021 53.88C58.8885 54.0959 59.1854 54.3814 59.3928 54.7365C59.6001 55.0916 59.7038 55.4751 59.7038 55.8871C59.7038 56.3786 59.5746 56.7976 59.3161 57.1442C59.0604 57.4908 58.7124 57.7308 58.272 57.8643V57.9325C58.8232 58.0234 59.2536 58.2578 59.5632 58.6357C59.8729 59.0107 60.0277 59.4751 60.0277 60.0291C60.0277 60.5036 59.8984 60.9297 59.6399 61.3075C59.3842 61.6825 59.0348 61.978 58.5916 62.1939C58.1484 62.4098 57.6442 62.5178 57.0788 62.5178ZM64.6172 62.3984H61.924V53.6712H64.7365C65.5831 53.6712 66.3075 53.8459 66.9098 54.1953C67.5121 54.5419 67.9737 55.0405 68.2947 55.6911C68.6158 56.3388 68.7763 57.1143 68.7763 58.0178C68.7763 58.9268 68.6143 59.7095 68.2905 60.3658C67.9666 61.0192 67.495 61.522 66.8757 61.8743C66.2564 62.2237 65.5036 62.3984 64.6172 62.3984ZM62.9808 61.4609H64.549C65.2706 61.4609 65.8686 61.3217 66.343 61.0433C66.8175 60.7649 67.1712 60.3686 67.4041 59.8544C67.6371 59.3402 67.7536 58.728 67.7536 58.0178C67.7536 57.3132 67.6385 56.7067 67.4084 56.1982C67.1783 55.6868 66.8345 55.2947 66.3771 55.022C65.9197 54.7464 65.3501 54.6087 64.6683 54.6087H62.9808V61.4609ZM73.2422 62.5178C72.6001 62.5178 72.0533 62.343 71.6016 61.9936C71.1499 61.6413 70.8047 61.1314 70.5661 60.4638C70.3274 59.7933 70.2081 58.9837 70.2081 58.0348C70.2081 57.0916 70.3274 56.2862 70.5661 55.6186C70.8075 54.9482 71.1541 54.4368 71.6058 54.0845C72.0604 53.7294 72.6058 53.5518 73.2422 53.5518C73.8786 53.5518 74.4226 53.7294 74.8743 54.0845C75.3288 54.4368 75.6754 54.9482 75.9141 55.6186C76.1555 56.2862 76.2763 57.0916 76.2763 58.0348C76.2763 58.9837 76.157 59.7933 75.9183 60.4638C75.6797 61.1314 75.3345 61.6413 74.8828 61.9936C74.4311 62.343 73.8842 62.5178 73.2422 62.5178ZM73.2422 61.5803C73.8786 61.5803 74.3729 61.2734 74.7251 60.6598C75.0774 60.0462 75.2536 59.1712 75.2536 58.0348C75.2536 57.2791 75.1726 56.6357 75.0107 56.1044C74.8516 55.5732 74.6214 55.1683 74.3203 54.8899C74.022 54.6115 73.6626 54.4723 73.2422 54.4723C72.6115 54.4723 72.1186 54.7834 71.7635 55.4055C71.4084 56.0249 71.2308 56.9013 71.2308 58.0348C71.2308 58.7905 71.3104 59.4325 71.4695 59.9609C71.6286 60.4893 71.8572 60.8913 72.1555 61.1669C72.4567 61.4425 72.8189 61.5803 73.2422 61.5803Z" fill="#161C0F"/>
</svg>
