<svg width="100" height="70" viewBox="0 0 100 70" fill="none" xmlns="http://www.w3.org/2000/svg">
<path d="M0 8.39844C0 3.98016 3.58172 0.398438 8 0.398438H92C96.4183 0.398438 100 3.98016 100 8.39844V23.3984H0V8.39844Z" fill="#660808"/>
<path d="M0.5 8.39844C0.5 4.2563 3.85786 0.898438 8 0.898438H92C96.1421 0.898438 99.5 4.2563 99.5 8.39844V22.8984H0.5V8.39844Z" stroke="black" stroke-opacity="0.04"/>
<path d="M27.6761 16.3984L29.108 7.67116H29.9602L28.5284 16.3984H27.6761ZM23.7045 13.978L23.8409 13.1257H30.3523L30.2159 13.978H23.7045ZM24.608 16.3984L26.0398 7.67116H26.892L25.4602 16.3984H24.608ZM24.2159 10.9439L24.3523 10.0916H30.8636L30.7273 10.9439H24.2159ZM34.8714 16.5178C34.5135 16.5121 34.1555 16.4439 33.7976 16.3132C33.4396 16.1825 33.1129 15.9624 32.8175 15.6527C32.522 15.3402 32.2848 14.9183 32.1058 14.3871C31.9268 13.853 31.8374 13.1825 31.8374 12.3757C31.8374 11.603 31.9098 10.9183 32.0547 10.3217C32.1996 9.7223 32.4098 9.21804 32.6854 8.80895C32.9609 8.39702 33.2933 8.08452 33.6825 7.87145C34.0746 7.65838 34.5163 7.55185 35.0078 7.55185C35.4964 7.55185 35.9311 7.64986 36.3118 7.84588C36.6953 8.03906 37.0078 8.30895 37.2493 8.65554C37.4908 9.00213 37.647 9.40128 37.718 9.85298H36.6783C36.5817 9.46094 36.3942 9.13565 36.1158 8.87713C35.8374 8.61861 35.468 8.48935 35.0078 8.48935C34.3317 8.48935 33.799 8.78338 33.4098 9.37145C33.0234 9.95952 32.8288 10.7848 32.826 11.8473H32.8942C33.0533 11.6058 33.2422 11.3999 33.4609 11.2294C33.6825 11.0561 33.9268 10.9226 34.1939 10.8288C34.4609 10.7351 34.7436 10.6882 35.0419 10.6882C35.5419 10.6882 35.9993 10.8132 36.4141 11.0632C36.8288 11.3104 37.1612 11.6527 37.4112 12.0902C37.6612 12.5249 37.7862 13.0234 37.7862 13.5859C37.7862 14.1257 37.6655 14.62 37.424 15.0689C37.1825 15.5149 36.843 15.87 36.4055 16.1342C35.9709 16.3956 35.4595 16.5234 34.8714 16.5178ZM34.8714 15.5803C35.2294 15.5803 35.5504 15.4908 35.8345 15.3118C36.1214 15.1328 36.3473 14.8928 36.5121 14.5916C36.6797 14.2905 36.7635 13.9553 36.7635 13.5859C36.7635 13.2251 36.6825 12.897 36.5206 12.6016C36.3615 12.3033 36.1413 12.0661 35.8601 11.8899C35.5817 11.7138 35.2635 11.6257 34.9055 11.6257C34.6357 11.6257 34.3842 11.6797 34.1513 11.7876C33.9183 11.8928 33.7138 12.0376 33.5376 12.2223C33.3643 12.407 33.228 12.6186 33.1286 12.8572C33.0291 13.093 32.9794 13.3416 32.9794 13.603C32.9794 13.9496 33.0604 14.2734 33.2223 14.5746C33.3871 14.8757 33.6115 15.1186 33.8956 15.3033C34.1825 15.4879 34.5078 15.5803 34.8714 15.5803ZM42.3597 16.5178C42.0018 16.5121 41.6438 16.4439 41.2859 16.3132C40.9279 16.1825 40.6012 15.9624 40.3058 15.6527C40.0103 15.3402 39.7731 14.9183 39.5941 14.3871C39.4151 13.853 39.3256 13.1825 39.3256 12.3757C39.3256 11.603 39.3981 10.9183 39.543 10.3217C39.6879 9.7223 39.8981 9.21804 40.1737 8.80895C40.4492 8.39702 40.7816 8.08452 41.1708 7.87145C41.5629 7.65838 42.0046 7.55185 42.4961 7.55185C42.9847 7.55185 43.4194 7.64986 43.8001 7.84588C44.1836 8.03906 44.4961 8.30895 44.7376 8.65554C44.979 9.00213 45.1353 9.40128 45.2063 9.85298H44.1665C44.07 9.46094 43.8825 9.13565 43.604 8.87713C43.3256 8.61861 42.9563 8.48935 42.4961 8.48935C41.82 8.48935 41.2873 8.78338 40.8981 9.37145C40.5117 9.95952 40.3171 10.7848 40.3143 11.8473H40.3825C40.5415 11.6058 40.7305 11.3999 40.9492 11.2294C41.1708 11.0561 41.4151 10.9226 41.6822 10.8288C41.9492 10.7351 42.2319 10.6882 42.5302 10.6882C43.0302 10.6882 43.4876 10.8132 43.9023 11.0632C44.3171 11.3104 44.6495 11.6527 44.8995 12.0902C45.1495 12.5249 45.2745 13.0234 45.2745 13.5859C45.2745 14.1257 45.1538 14.62 44.9123 15.0689C44.6708 15.5149 44.3313 15.87 43.8938 16.1342C43.4592 16.3956 42.9478 16.5234 42.3597 16.5178ZM42.3597 15.5803C42.7177 15.5803 43.0387 15.4908 43.3228 15.3118C43.6097 15.1328 43.8356 14.8928 44.0004 14.5916C44.168 14.2905 44.2518 13.9553 44.2518 13.5859C44.2518 13.2251 44.1708 12.897 44.0089 12.6016C43.8498 12.3033 43.6296 12.0661 43.3484 11.8899C43.07 11.7138 42.7518 11.6257 42.3938 11.6257C42.1239 11.6257 41.8725 11.6797 41.6396 11.7876C41.4066 11.8928 41.2021 12.0376 41.0259 12.2223C40.8526 12.407 40.7163 12.6186 40.6168 12.8572C40.5174 13.093 40.4677 13.3416 40.4677 13.603C40.4677 13.9496 40.5487 14.2734 40.7106 14.5746C40.8754 14.8757 41.0998 15.1186 41.3839 15.3033C41.6708 15.4879 41.9961 15.5803 42.3597 15.5803ZM49.7969 16.5178C49.1548 16.5178 48.608 16.343 48.1562 15.9936C47.7045 15.6413 47.3594 15.1314 47.1207 14.4638C46.8821 13.7933 46.7628 12.9837 46.7628 12.0348C46.7628 11.0916 46.8821 10.2862 47.1207 9.61861C47.3622 8.94815 47.7088 8.43679 48.1605 8.08452C48.6151 7.7294 49.1605 7.55185 49.7969 7.55185C50.4332 7.55185 50.9773 7.7294 51.429 8.08452C51.8835 8.43679 52.2301 8.94815 52.4688 9.61861C52.7102 10.2862 52.831 11.0916 52.831 12.0348C52.831 12.9837 52.7116 13.7933 52.473 14.4638C52.2344 15.1314 51.8892 15.6413 51.4375 15.9936C50.9858 16.343 50.4389 16.5178 49.7969 16.5178ZM49.7969 15.5803C50.4332 15.5803 50.9276 15.2734 51.2798 14.6598C51.6321 14.0462 51.8082 13.1712 51.8082 12.0348C51.8082 11.2791 51.7273 10.6357 51.5653 10.1044C51.4063 9.57315 51.1761 9.16832 50.875 8.88991C50.5767 8.61151 50.2173 8.4723 49.7969 8.4723C49.1662 8.4723 48.6733 8.78338 48.3182 9.40554C47.9631 10.0249 47.7855 10.9013 47.7855 12.0348C47.7855 12.7905 47.8651 13.4325 48.0241 13.9609C48.1832 14.4893 48.4119 14.8913 48.7102 15.1669C49.0114 15.4425 49.3736 15.5803 49.7969 15.5803ZM57.2457 16.5178C56.6605 16.5178 56.1435 16.4141 55.6946 16.2067C55.2486 15.9964 54.9006 15.7081 54.6506 15.3416C54.4006 14.9723 54.277 14.5518 54.2798 14.0803C54.277 13.7109 54.3494 13.37 54.4972 13.0575C54.6449 12.7422 54.8466 12.4794 55.1023 12.2692C55.3608 12.0561 55.6491 11.9212 55.9673 11.8643V11.8132C55.5497 11.7053 55.2173 11.4709 54.9702 11.1101C54.723 10.7464 54.6009 10.3331 54.6037 9.87003C54.6009 9.42685 54.7131 9.03054 54.9403 8.68111C55.1676 8.33168 55.4801 8.05611 55.8778 7.8544C56.2784 7.6527 56.7344 7.55185 57.2457 7.55185C57.7514 7.55185 58.2031 7.6527 58.6009 7.8544C58.9986 8.05611 59.3111 8.33168 59.5384 8.68111C59.7685 9.03054 59.8849 9.42685 59.8878 9.87003C59.8849 10.3331 59.7585 10.7464 59.5085 11.1101C59.2614 11.4709 58.9332 11.7053 58.5241 11.8132V11.8643C58.8395 11.9212 59.1236 12.0561 59.3764 12.2692C59.6293 12.4794 59.831 12.7422 59.9815 13.0575C60.1321 13.37 60.2088 13.7109 60.2116 14.0803C60.2088 14.5518 60.081 14.9723 59.8281 15.3416C59.5781 15.7081 59.2301 15.9964 58.7841 16.2067C58.3409 16.4141 57.8281 16.5178 57.2457 16.5178ZM57.2457 15.5803C57.6406 15.5803 57.9815 15.5163 58.2685 15.3885C58.5554 15.2607 58.777 15.0803 58.9332 14.8473C59.0895 14.6143 59.169 14.3416 59.1719 14.0291C59.169 13.6996 59.0838 13.4084 58.9162 13.1555C58.7486 12.9027 58.5199 12.7038 58.2301 12.5589C57.9432 12.4141 57.6151 12.3416 57.2457 12.3416C56.8736 12.3416 56.5412 12.4141 56.2486 12.5589C55.9588 12.7038 55.7301 12.9027 55.5625 13.1555C55.3977 13.4084 55.3168 13.6996 55.3196 14.0291C55.3168 14.3416 55.392 14.6143 55.5455 14.8473C55.7017 15.0803 55.9247 15.2607 56.2145 15.3885C56.5043 15.5163 56.848 15.5803 57.2457 15.5803ZM57.2457 11.4382C57.5582 11.4382 57.8352 11.3757 58.0767 11.2507C58.321 11.1257 58.5128 10.951 58.652 10.7266C58.7912 10.5021 58.8622 10.2393 58.8651 9.93821C58.8622 9.64276 58.7926 9.38565 58.6562 9.1669C58.5199 8.94531 58.331 8.77486 58.0895 8.65554C57.848 8.53338 57.5668 8.4723 57.2457 8.4723C56.919 8.4723 56.6335 8.53338 56.3892 8.65554C56.1449 8.77486 55.956 8.94531 55.8224 9.1669C55.6889 9.38565 55.6236 9.64276 55.6264 9.93821C55.6236 10.2393 55.6903 10.5021 55.8267 10.7266C55.9659 10.951 56.1577 11.1257 56.402 11.2507C56.6463 11.3757 56.9276 11.4382 57.2457 11.4382ZM64.6914 16.5178C64.0494 16.5178 63.5025 16.343 63.0508 15.9936C62.5991 15.6413 62.2539 15.1314 62.0153 14.4638C61.7766 13.7933 61.6573 12.9837 61.6573 12.0348C61.6573 11.0916 61.7766 10.2862 62.0153 9.61861C62.2567 8.94815 62.6033 8.43679 63.055 8.08452C63.5096 7.7294 64.055 7.55185 64.6914 7.55185C65.3278 7.55185 65.8718 7.7294 66.3235 8.08452C66.7781 8.43679 67.1246 8.94815 67.3633 9.61861C67.6048 10.2862 67.7255 11.0916 67.7255 12.0348C67.7255 12.9837 67.6062 13.7933 67.3675 14.4638C67.1289 15.1314 66.7837 15.6413 66.332 15.9936C65.8803 16.343 65.3335 16.5178 64.6914 16.5178ZM64.6914 15.5803C65.3278 15.5803 65.8221 15.2734 66.1744 14.6598C66.5266 14.0462 66.7028 13.1712 66.7028 12.0348C66.7028 11.2791 66.6218 10.6357 66.4599 10.1044C66.3008 9.57315 66.0707 9.16832 65.7695 8.88991C65.4712 8.61151 65.1119 8.4723 64.6914 8.4723C64.0607 8.4723 63.5678 8.78338 63.2127 9.40554C62.8576 10.0249 62.68 10.9013 62.68 12.0348C62.68 12.7905 62.7596 13.4325 62.9187 13.9609C63.0778 14.4893 63.3065 14.8913 63.6048 15.1669C63.9059 15.4425 64.2681 15.5803 64.6914 15.5803ZM72.1403 16.5178C71.555 16.5178 71.038 16.4141 70.5891 16.2067C70.1431 15.9964 69.7951 15.7081 69.5451 15.3416C69.2951 14.9723 69.1715 14.5518 69.1744 14.0803C69.1715 13.7109 69.244 13.37 69.3917 13.0575C69.5394 12.7422 69.7411 12.4794 69.9968 12.2692C70.2553 12.0561 70.5437 11.9212 70.8619 11.8643V11.8132C70.4442 11.7053 70.1119 11.4709 69.8647 11.1101C69.6175 10.7464 69.4954 10.3331 69.4982 9.87003C69.4954 9.42685 69.6076 9.03054 69.8349 8.68111C70.0621 8.33168 70.3746 8.05611 70.7724 7.8544C71.1729 7.6527 71.6289 7.55185 72.1403 7.55185C72.646 7.55185 73.0977 7.6527 73.4954 7.8544C73.8931 8.05611 74.2056 8.33168 74.4329 8.68111C74.663 9.03054 74.7795 9.42685 74.7823 9.87003C74.7795 10.3331 74.6531 10.7464 74.4031 11.1101C74.1559 11.4709 73.8278 11.7053 73.4187 11.8132V11.8643C73.734 11.9212 74.0181 12.0561 74.271 12.2692C74.5238 12.4794 74.7255 12.7422 74.8761 13.0575C75.0266 13.37 75.1033 13.7109 75.1062 14.0803C75.1033 14.5518 74.9755 14.9723 74.7227 15.3416C74.4727 15.7081 74.1246 15.9964 73.6786 16.2067C73.2354 16.4141 72.7227 16.5178 72.1403 16.5178ZM72.1403 15.5803C72.5352 15.5803 72.8761 15.5163 73.163 15.3885C73.4499 15.2607 73.6715 15.0803 73.8278 14.8473C73.984 14.6143 74.0636 14.3416 74.0664 14.0291C74.0636 13.6996 73.9783 13.4084 73.8107 13.1555C73.6431 12.9027 73.4144 12.7038 73.1246 12.5589C72.8377 12.4141 72.5096 12.3416 72.1403 12.3416C71.7681 12.3416 71.4357 12.4141 71.1431 12.5589C70.8533 12.7038 70.6246 12.9027 70.457 13.1555C70.2923 13.4084 70.2113 13.6996 70.2141 14.0291C70.2113 14.3416 70.2866 14.6143 70.44 14.8473C70.5962 15.0803 70.8192 15.2607 71.109 15.3885C71.3988 15.5163 71.7425 15.5803 72.1403 15.5803ZM72.1403 11.4382C72.4528 11.4382 72.7298 11.3757 72.9712 11.2507C73.2156 11.1257 73.4073 10.951 73.5465 10.7266C73.6857 10.5021 73.7567 10.2393 73.7596 9.93821C73.7567 9.64276 73.6871 9.38565 73.5508 9.1669C73.4144 8.94531 73.2255 8.77486 72.984 8.65554C72.7425 8.53338 72.4613 8.4723 72.1403 8.4723C71.8136 8.4723 71.5281 8.53338 71.2837 8.65554C71.0394 8.77486 70.8505 8.94531 70.717 9.1669C70.5835 9.38565 70.5181 9.64276 70.521 9.93821C70.5181 10.2393 70.5849 10.5021 70.7212 10.7266C70.8604 10.951 71.0522 11.1257 71.2965 11.2507C71.5408 11.3757 71.8221 11.4382 72.1403 11.4382Z" fill="white"/>
<rect y="23.3984" width="100" height="23" fill="#B02929"/>
<rect x="0.5" y="23.8984" width="99" height="22" stroke="black" stroke-opacity="0.04"/>
<path d="M27.6761 39.3984L29.108 30.6712H29.9602L28.5284 39.3984H27.6761ZM23.7045 36.978L23.8409 36.1257H30.3523L30.2159 36.978H23.7045ZM24.608 39.3984L26.0398 30.6712H26.892L25.4602 39.3984H24.608ZM24.2159 33.9439L24.3523 33.0916H30.8636L30.7273 33.9439H24.2159ZM32.1271 39.3984V30.6712H35.1783C35.7862 30.6712 36.2876 30.7763 36.6825 30.9865C37.0774 31.1939 37.3714 31.4737 37.5646 31.826C37.7578 32.1754 37.8544 32.5632 37.8544 32.9893C37.8544 33.3643 37.7876 33.674 37.6541 33.9183C37.5234 34.1626 37.3501 34.3558 37.1342 34.4979C36.9212 34.6399 36.6896 34.745 36.4396 34.8132V34.8984C36.7067 34.9155 36.9751 35.0092 37.245 35.1797C37.5149 35.3501 37.7408 35.5945 37.9226 35.9126C38.1044 36.2308 38.1953 36.62 38.1953 37.0803C38.1953 37.5178 38.0959 37.9112 37.897 38.2607C37.6982 38.6101 37.3842 38.8871 36.9553 39.0916C36.5263 39.2962 35.968 39.3984 35.2805 39.3984H32.1271ZM33.1839 38.4609H35.2805C35.9709 38.4609 36.4609 38.3274 36.7507 38.0604C37.0433 37.7905 37.1896 37.4638 37.1896 37.0803C37.1896 36.7848 37.1143 36.5121 36.9638 36.2621C36.8132 36.0092 36.5987 35.8075 36.3203 35.657C36.0419 35.5036 35.7124 35.4268 35.3317 35.4268H33.1839V38.4609ZM33.1839 34.5064H35.1442C35.4624 34.5064 35.7493 34.4439 36.005 34.3189C36.2635 34.1939 36.468 34.0178 36.6186 33.7905C36.772 33.5632 36.8487 33.2962 36.8487 32.9893C36.8487 32.6058 36.7152 32.2805 36.4482 32.0135C36.1811 31.7436 35.7578 31.6087 35.1783 31.6087H33.1839V34.5064ZM42.625 39.5178C41.983 39.5178 41.4361 39.343 40.9844 38.9936C40.5327 38.6413 40.1875 38.1314 39.9489 37.4638C39.7102 36.7933 39.5909 35.9837 39.5909 35.0348C39.5909 34.0916 39.7102 33.2862 39.9489 32.6186C40.1903 31.9482 40.5369 31.4368 40.9886 31.0845C41.4432 30.7294 41.9886 30.5518 42.625 30.5518C43.2614 30.5518 43.8054 30.7294 44.2571 31.0845C44.7116 31.4368 45.0582 31.9482 45.2969 32.6186C45.5384 33.2862 45.6591 34.0916 45.6591 35.0348C45.6591 35.9837 45.5398 36.7933 45.3011 37.4638C45.0625 38.1314 44.7173 38.6413 44.2656 38.9936C43.8139 39.343 43.267 39.5178 42.625 39.5178ZM42.625 38.5803C43.2614 38.5803 43.7557 38.2734 44.108 37.6598C44.4602 37.0462 44.6364 36.1712 44.6364 35.0348C44.6364 34.2791 44.5554 33.6357 44.3935 33.1044C44.2344 32.5732 44.0043 32.1683 43.7031 31.8899C43.4048 31.6115 43.0455 31.4723 42.625 31.4723C41.9943 31.4723 41.5014 31.7834 41.1463 32.4055C40.7912 33.0249 40.6136 33.9013 40.6136 35.0348C40.6136 35.7905 40.6932 36.4325 40.8523 36.9609C41.0114 37.4893 41.2401 37.8913 41.5384 38.1669C41.8395 38.4425 42.2017 38.5803 42.625 38.5803ZM47.2784 39.3984V38.6314L50.1591 35.478C50.4972 35.1087 50.7756 34.7876 50.9943 34.5149C51.2131 34.2393 51.375 33.9808 51.4801 33.7393C51.5881 33.495 51.642 33.2393 51.642 32.9723C51.642 32.6655 51.5682 32.3999 51.4205 32.1754C51.2756 31.951 51.0767 31.7777 50.8239 31.6555C50.571 31.5334 50.2869 31.4723 49.9716 31.4723C49.6364 31.4723 49.3438 31.5419 49.0938 31.6811C48.8466 31.8175 48.6548 32.0092 48.5185 32.2564C48.3849 32.5036 48.3182 32.7933 48.3182 33.1257H47.3125C47.3125 32.6143 47.4304 32.1655 47.6662 31.7791C47.902 31.3928 48.223 31.0916 48.6293 30.8757C49.0384 30.6598 49.4972 30.5518 50.0057 30.5518C50.517 30.5518 50.9702 30.6598 51.3651 30.8757C51.7599 31.0916 52.0696 31.3828 52.294 31.7493C52.5185 32.1158 52.6307 32.5234 52.6307 32.9723C52.6307 33.2933 52.5724 33.6072 52.456 33.9141C52.3423 34.218 52.1435 34.5575 51.8594 34.9325C51.5781 35.3047 51.1875 35.7592 50.6875 36.2962L48.7273 38.3928V38.4609H52.7841V39.3984H47.2784ZM57.3224 30.5518C57.6804 30.5547 58.0384 30.6229 58.3963 30.7564C58.7543 30.8899 59.081 31.1115 59.3764 31.4212C59.6719 31.728 59.9091 32.147 60.0881 32.6783C60.267 33.2095 60.3565 33.8757 60.3565 34.6768C60.3565 35.4524 60.2827 36.1413 60.1349 36.7436C59.9901 37.343 59.7798 37.8487 59.5043 38.2607C59.2315 38.6726 58.8991 38.9851 58.5071 39.1982C58.1179 39.4112 57.6776 39.5178 57.1861 39.5178C56.6974 39.5178 56.2614 39.4212 55.8778 39.228C55.4972 39.032 55.1847 38.7607 54.9403 38.4141C54.6989 38.0646 54.544 37.6598 54.4759 37.1996H55.5156C55.6094 37.6001 55.7955 37.9311 56.0739 38.1925C56.3551 38.451 56.7259 38.5803 57.1861 38.5803C57.8594 38.5803 58.3906 38.2862 58.7798 37.6982C59.1719 37.1101 59.3679 36.2791 59.3679 35.2053H59.2997C59.1406 35.4439 58.9517 35.6499 58.733 35.8232C58.5142 35.9964 58.2713 36.13 58.0043 36.2237C57.7372 36.3175 57.4531 36.3643 57.152 36.3643C56.652 36.3643 56.1932 36.2408 55.7756 35.9936C55.3608 35.7436 55.0284 35.4013 54.7784 34.9666C54.5312 34.5291 54.4077 34.0291 54.4077 33.4666C54.4077 32.9325 54.527 32.4439 54.7656 32.0007C55.0071 31.5547 55.3452 31.1996 55.7798 30.9354C56.2173 30.6712 56.7315 30.5433 57.3224 30.5518ZM57.3224 31.4893C56.9645 31.4893 56.642 31.5788 56.3551 31.7578C56.071 31.9339 55.8452 32.1726 55.6776 32.4737C55.5128 32.772 55.4304 33.103 55.4304 33.4666C55.4304 33.8303 55.5099 34.1612 55.669 34.4595C55.831 34.755 56.0511 34.9908 56.3295 35.1669C56.6108 35.3402 56.9304 35.4268 57.2884 35.4268C57.5582 35.4268 57.8097 35.3743 58.0426 35.2692C58.2756 35.1612 58.4787 35.0149 58.652 34.8303C58.8281 34.6428 58.9659 34.4311 59.0653 34.1953C59.1648 33.9567 59.2145 33.7081 59.2145 33.4496C59.2145 33.1087 59.1321 32.7891 58.9673 32.4908C58.8054 32.1925 58.581 31.951 58.294 31.7663C58.0099 31.5817 57.6861 31.4893 57.3224 31.4893ZM62.0323 39.3984V38.6314L64.913 35.478C65.2511 35.1087 65.5295 34.7876 65.7482 34.5149C65.967 34.2393 66.1289 33.9808 66.234 33.7393C66.342 33.495 66.396 33.2393 66.396 32.9723C66.396 32.6655 66.3221 32.3999 66.1744 32.1754C66.0295 31.951 65.8306 31.7777 65.5778 31.6555C65.3249 31.5334 65.0408 31.4723 64.7255 31.4723C64.3903 31.4723 64.0977 31.5419 63.8477 31.6811C63.6005 31.8175 63.4087 32.0092 63.2724 32.2564C63.1388 32.5036 63.0721 32.7933 63.0721 33.1257H62.0664C62.0664 32.6143 62.1843 32.1655 62.4201 31.7791C62.6559 31.3928 62.9769 31.0916 63.3832 30.8757C63.7923 30.6598 64.2511 30.5518 64.7596 30.5518C65.271 30.5518 65.7241 30.6598 66.119 30.8757C66.5138 31.0916 66.8235 31.3828 67.0479 31.7493C67.2724 32.1158 67.3846 32.5234 67.3846 32.9723C67.3846 33.2933 67.3263 33.6072 67.2099 33.9141C67.0962 34.218 66.8974 34.5575 66.6133 34.9325C66.332 35.3047 65.9414 35.7592 65.4414 36.2962L63.4812 38.3928V38.4609H67.538V39.3984H62.0323ZM72.0763 30.5518C72.4343 30.5547 72.7923 30.6229 73.1502 30.7564C73.5082 30.8899 73.8349 31.1115 74.1303 31.4212C74.4258 31.728 74.663 32.147 74.842 32.6783C75.021 33.2095 75.1104 33.8757 75.1104 34.6768C75.1104 35.4524 75.0366 36.1413 74.8888 36.7436C74.744 37.343 74.5337 37.8487 74.2582 38.2607C73.9854 38.6726 73.6531 38.9851 73.261 39.1982C72.8718 39.4112 72.4315 39.5178 71.94 39.5178C71.4513 39.5178 71.0153 39.4212 70.6317 39.228C70.2511 39.032 69.9386 38.7607 69.6942 38.4141C69.4528 38.0646 69.2979 37.6598 69.2298 37.1996H70.2695C70.3633 37.6001 70.5494 37.9311 70.8278 38.1925C71.109 38.451 71.4798 38.5803 71.94 38.5803C72.6133 38.5803 73.1445 38.2862 73.5337 37.6982C73.9258 37.1101 74.1218 36.2791 74.1218 35.2053H74.0536C73.8945 35.4439 73.7056 35.6499 73.4869 35.8232C73.2681 35.9964 73.0252 36.13 72.7582 36.2237C72.4911 36.3175 72.207 36.3643 71.9059 36.3643C71.4059 36.3643 70.9471 36.2408 70.5295 35.9936C70.1147 35.7436 69.7823 35.4013 69.5323 34.9666C69.2852 34.5291 69.1616 34.0291 69.1616 33.4666C69.1616 32.9325 69.2809 32.4439 69.5195 32.0007C69.761 31.5547 70.0991 31.1996 70.5337 30.9354C70.9712 30.6712 71.4854 30.5433 72.0763 30.5518ZM72.0763 31.4893C71.7184 31.4893 71.396 31.5788 71.109 31.7578C70.8249 31.9339 70.5991 32.1726 70.4315 32.4737C70.2667 32.772 70.1843 33.103 70.1843 33.4666C70.1843 33.8303 70.2638 34.1612 70.4229 34.4595C70.5849 34.755 70.805 34.9908 71.0835 35.1669C71.3647 35.3402 71.6843 35.4268 72.0423 35.4268C72.3121 35.4268 72.5636 35.3743 72.7965 35.2692C73.0295 35.1612 73.2326 35.0149 73.4059 34.8303C73.582 34.6428 73.7198 34.4311 73.8192 34.1953C73.9187 33.9567 73.9684 33.7081 73.9684 33.4496C73.9684 33.1087 73.886 32.7891 73.7212 32.4908C73.5593 32.1925 73.3349 31.951 73.0479 31.7663C72.7638 31.5817 72.44 31.4893 72.0763 31.4893Z" fill="white"/>
<path d="M0 46.3984H100V61.3984C100 65.8167 96.4183 69.3984 92 69.3984H8C3.58172 69.3984 0 65.8167 0 61.3984V46.3984Z" fill="#FFE3E3"/>
<path d="M0.5 46.8984H99.5V61.3984C99.5 65.5406 96.1421 68.8984 92 68.8984H8C3.85786 68.8984 0.5 65.5406 0.5 61.3984V46.8984Z" stroke="black" stroke-opacity="0.04"/>
<path d="M28.1761 62.3984L29.608 53.6712H30.4602L29.0284 62.3984H28.1761ZM24.2045 59.978L24.3409 59.1257H30.8523L30.7159 59.978H24.2045ZM25.108 62.3984L26.5398 53.6712H27.392L25.9602 62.3984H25.108ZM24.7159 56.9439L24.8523 56.0916H31.3636L31.2273 56.9439H24.7159ZM32.6271 62.3984V53.6712H37.8601V54.6087H33.6839V57.5575H37.468V58.495H33.6839V62.3984H32.6271ZM39.6701 62.3984V53.6712H44.9031V54.6087H40.7269V57.5575H44.511V58.495H40.7269V62.3984H39.6701ZM46.7131 62.3984V53.6712H51.9801V54.6087H47.7699V57.5575H51.7074V58.495H47.7699V61.4609H52.0483V62.3984H46.7131ZM56.6804 62.5178C56.1179 62.5178 55.6165 62.4212 55.1761 62.228C54.7386 62.0348 54.3906 61.7663 54.1321 61.4226C53.8764 61.076 53.7372 60.674 53.7145 60.2166H54.7884C54.8111 60.4979 54.9077 60.7408 55.0781 60.9453C55.2486 61.147 55.4716 61.3033 55.7472 61.4141C56.0227 61.5249 56.3281 61.5803 56.6634 61.5803C57.0384 61.5803 57.3707 61.5149 57.6605 61.3842C57.9503 61.2536 58.1776 61.0717 58.3423 60.8388C58.5071 60.6058 58.5895 60.3359 58.5895 60.0291C58.5895 59.7081 58.5099 59.4254 58.3509 59.1811C58.1918 58.9339 57.9588 58.7408 57.652 58.6016C57.3452 58.4624 56.9702 58.3928 56.527 58.3928H55.8281V57.4553H56.527C56.8736 57.4553 57.1776 57.3928 57.4389 57.2678C57.7031 57.1428 57.9091 56.9666 58.0568 56.7393C58.2074 56.5121 58.2827 56.245 58.2827 55.9382C58.2827 55.6428 58.2173 55.3857 58.0866 55.1669C57.956 54.9482 57.7713 54.7777 57.5327 54.6555C57.2969 54.5334 57.0185 54.4723 56.6974 54.4723C56.3963 54.4723 56.1122 54.5277 55.8452 54.6385C55.581 54.7464 55.3651 54.9041 55.1974 55.1115C55.0298 55.3161 54.9389 55.5632 54.9247 55.853H53.902C53.919 55.3956 54.0568 54.995 54.3153 54.6513C54.5739 54.3047 54.9119 54.0348 55.3295 53.8416C55.75 53.6484 56.2116 53.5518 56.7145 53.5518C57.2543 53.5518 57.7173 53.6612 58.1037 53.88C58.4901 54.0959 58.7869 54.3814 58.9943 54.7365C59.2017 55.0916 59.3054 55.4751 59.3054 55.8871C59.3054 56.3786 59.1761 56.7976 58.9176 57.1442C58.6619 57.4908 58.3139 57.7308 57.8736 57.8643V57.9325C58.4247 58.0234 58.8551 58.2578 59.1648 58.6357C59.4744 59.0107 59.6293 59.4751 59.6293 60.0291C59.6293 60.5036 59.5 60.9297 59.2415 61.3075C58.9858 61.6825 58.6364 61.978 58.1932 62.1939C57.75 62.4098 57.2457 62.5178 56.6804 62.5178ZM61.5256 62.3984V53.6712H66.7926V54.6087H62.5824V57.5575H66.5199V58.495H62.5824V61.4609H66.8608V62.3984H61.5256ZM71.4929 62.5178C70.9304 62.5178 70.429 62.4212 69.9886 62.228C69.5511 62.0348 69.2031 61.7663 68.9446 61.4226C68.6889 61.076 68.5497 60.674 68.527 60.2166H69.6009C69.6236 60.4979 69.7202 60.7408 69.8906 60.9453C70.0611 61.147 70.2841 61.3033 70.5597 61.4141C70.8352 61.5249 71.1406 61.5803 71.4759 61.5803C71.8509 61.5803 72.1832 61.5149 72.473 61.3842C72.7628 61.2536 72.9901 61.0717 73.1548 60.8388C73.3196 60.6058 73.402 60.3359 73.402 60.0291C73.402 59.7081 73.3224 59.4254 73.1634 59.1811C73.0043 58.9339 72.7713 58.7408 72.4645 58.6016C72.1577 58.4624 71.7827 58.3928 71.3395 58.3928H70.6406V57.4553H71.3395C71.6861 57.4553 71.9901 57.3928 72.2514 57.2678C72.5156 57.1428 72.7216 56.9666 72.8693 56.7393C73.0199 56.5121 73.0952 56.245 73.0952 55.9382C73.0952 55.6428 73.0298 55.3857 72.8991 55.1669C72.7685 54.9482 72.5838 54.7777 72.3452 54.6555C72.1094 54.5334 71.831 54.4723 71.5099 54.4723C71.2088 54.4723 70.9247 54.5277 70.6577 54.6385C70.3935 54.7464 70.1776 54.9041 70.0099 55.1115C69.8423 55.3161 69.7514 55.5632 69.7372 55.853H68.7145C68.7315 55.3956 68.8693 54.995 69.1278 54.6513C69.3864 54.3047 69.7244 54.0348 70.142 53.8416C70.5625 53.6484 71.0241 53.5518 71.527 53.5518C72.0668 53.5518 72.5298 53.6612 72.9162 53.88C73.3026 54.0959 73.5994 54.3814 73.8068 54.7365C74.0142 55.0916 74.1179 55.4751 74.1179 55.8871C74.1179 56.3786 73.9886 56.7976 73.7301 57.1442C73.4744 57.4908 73.1264 57.7308 72.6861 57.8643V57.9325C73.2372 58.0234 73.6676 58.2578 73.9773 58.6357C74.2869 59.0107 74.4418 59.4751 74.4418 60.0291C74.4418 60.5036 74.3125 60.9297 74.054 61.3075C73.7983 61.6825 73.4489 61.978 73.0057 62.1939C72.5625 62.4098 72.0582 62.5178 71.4929 62.5178Z" fill="#161C0F"/>
</svg>
