<svg width="100" height="70" viewBox="0 0 100 70" fill="none" xmlns="http://www.w3.org/2000/svg">
<path d="M0 8.39844C0 3.98016 3.58172 0.398438 8 0.398438H92C96.4183 0.398438 100 3.98016 100 8.39844V23.3984H0V8.39844Z" fill="#467C5C"/>
<path d="M0.5 8.39844C0.5 4.2563 3.85786 0.898438 8 0.898438H92C96.1421 0.898438 99.5 4.2563 99.5 8.39844V22.8984H0.5V8.39844Z" stroke="black" stroke-opacity="0.04"/>
<path d="M26.6761 16.3984L28.108 7.67116H28.9602L27.5284 16.3984H26.6761ZM22.7045 13.978L22.8409 13.1257H29.3523L29.2159 13.978H22.7045ZM23.608 16.3984L25.0398 7.67116H25.892L24.4602 16.3984H23.608ZM23.2159 10.9439L23.3523 10.0916H29.8636L29.7273 10.9439H23.2159ZM30.7692 14.6087V13.7393L34.6044 7.67116H35.2351V9.01776H34.8089L31.9112 13.603V13.6712H37.076V14.6087H30.7692ZM34.8771 16.3984V14.3445V13.9396V7.67116H35.8828V16.3984H34.8771ZM41.5707 16.5178C41.2127 16.5121 40.8548 16.4439 40.4968 16.3132C40.1388 16.1825 39.8121 15.9624 39.5167 15.6527C39.2212 15.3402 38.984 14.9183 38.805 14.3871C38.6261 13.853 38.5366 13.1825 38.5366 12.3757C38.5366 11.603 38.609 10.9183 38.7539 10.3217C38.8988 9.7223 39.109 9.21804 39.3846 8.80895C39.6602 8.39702 39.9925 8.08452 40.3817 7.87145C40.7738 7.65838 41.2156 7.55185 41.707 7.55185C42.1957 7.55185 42.6303 7.64986 43.011 7.84588C43.3945 8.03906 43.707 8.30895 43.9485 8.65554C44.19 9.00213 44.3462 9.40128 44.4173 9.85298H43.3775C43.2809 9.46094 43.0934 9.13565 42.815 8.87713C42.5366 8.61861 42.1673 8.48935 41.707 8.48935C41.0309 8.48935 40.4982 8.78338 40.109 9.37145C39.7227 9.95952 39.5281 10.7848 39.5252 11.8473H39.5934C39.7525 11.6058 39.9414 11.3999 40.1602 11.2294C40.3817 11.0561 40.6261 10.9226 40.8931 10.8288C41.1602 10.7351 41.4428 10.6882 41.7411 10.6882C42.2411 10.6882 42.6985 10.8132 43.1133 11.0632C43.5281 11.3104 43.8604 11.6527 44.1104 12.0902C44.3604 12.5249 44.4854 13.0234 44.4854 13.5859C44.4854 14.1257 44.3647 14.62 44.1232 15.0689C43.8817 15.5149 43.5423 15.87 43.1048 16.1342C42.6701 16.3956 42.1587 16.5234 41.5707 16.5178ZM41.5707 15.5803C41.9286 15.5803 42.2496 15.4908 42.5337 15.3118C42.8207 15.1328 43.0465 14.8928 43.2113 14.5916C43.3789 14.2905 43.4627 13.9553 43.4627 13.5859C43.4627 13.2251 43.3817 12.897 43.2198 12.6016C43.0607 12.3033 42.8406 12.0661 42.5593 11.8899C42.2809 11.7138 41.9627 11.6257 41.6048 11.6257C41.3349 11.6257 41.0835 11.6797 40.8505 11.7876C40.6175 11.8928 40.413 12.0376 40.2369 12.2223C40.0636 12.407 39.9272 12.6186 39.8278 12.8572C39.7283 13.093 39.6786 13.3416 39.6786 13.603C39.6786 13.9496 39.7596 14.2734 39.9215 14.5746C40.0863 14.8757 40.3107 15.1186 40.5948 15.3033C40.8817 15.4879 41.207 15.5803 41.5707 15.5803ZM46.4339 16.3984L50.3374 8.67685V8.60866H45.8374V7.67116H51.4283V8.6598L47.5419 16.3984H46.4339ZM60.1928 10.3984H59.136C59.0735 10.0945 58.9641 9.82741 58.8079 9.5973C58.6545 9.36719 58.467 9.17401 58.2454 9.01776C58.0266 8.85866 57.7837 8.73935 57.5167 8.6598C57.2496 8.58026 56.9712 8.54048 56.6815 8.54048C56.1531 8.54048 55.6744 8.67401 55.2454 8.94105C54.8192 9.2081 54.4798 9.60156 54.2269 10.1214C53.9769 10.6413 53.8519 11.2791 53.8519 12.0348C53.8519 12.7905 53.9769 13.4283 54.2269 13.9482C54.4798 14.468 54.8192 14.8615 55.2454 15.1286C55.6744 15.3956 56.1531 15.5291 56.6815 15.5291C56.9712 15.5291 57.2496 15.4893 57.5167 15.4098C57.7837 15.3303 58.0266 15.2124 58.2454 15.0561C58.467 14.897 58.6545 14.7024 58.8079 14.4723C58.9641 14.2393 59.0735 13.9723 59.136 13.6712H60.1928C60.1133 14.1172 59.9684 14.5163 59.7582 14.8686C59.5479 15.2209 59.2866 15.5206 58.9741 15.7678C58.6616 16.0121 58.3107 16.1982 57.9215 16.326C57.5352 16.4538 57.1218 16.5178 56.6815 16.5178C55.9371 16.5178 55.2752 16.3359 54.6957 15.9723C54.1161 15.6087 53.6602 15.0916 53.3278 14.4212C52.9954 13.7507 52.8292 12.9553 52.8292 12.0348C52.8292 11.1143 52.9954 10.3189 53.3278 9.64844C53.6602 8.97798 54.1161 8.46094 54.6957 8.0973C55.2752 7.73366 55.9371 7.55185 56.6815 7.55185C57.1218 7.55185 57.5352 7.61577 57.9215 7.74361C58.3107 7.87145 58.6616 8.05895 58.9741 8.30611C59.2866 8.55043 59.5479 8.84872 59.7582 9.20099C59.9684 9.55043 60.1133 9.94957 60.1928 10.3984ZM64.4744 16.5178C63.9744 16.5178 63.5241 16.4183 63.1236 16.2195C62.723 16.0206 62.402 15.7479 62.1605 15.4013C61.919 15.0547 61.7869 14.6598 61.7642 14.2166H62.7869C62.8267 14.6115 63.0057 14.9382 63.3239 15.1967C63.6449 15.4524 64.0284 15.5803 64.4744 15.5803C64.8324 15.5803 65.1506 15.4964 65.429 15.3288C65.7102 15.1612 65.9304 14.9311 66.0895 14.6385C66.2514 14.343 66.3324 14.0092 66.3324 13.6371C66.3324 13.2564 66.2486 12.9169 66.081 12.6186C65.9162 12.3175 65.6889 12.0803 65.3991 11.907C65.1094 11.7337 64.7784 11.6456 64.4062 11.6428C64.1392 11.6399 63.8651 11.6811 63.5838 11.7663C63.3026 11.8487 63.071 11.9553 62.8892 12.0859L61.9006 11.9666L62.429 7.67116H66.9631V8.60866H63.3153L63.0085 11.1825H63.0597C63.2386 11.0405 63.4631 10.9226 63.733 10.8288C64.0028 10.7351 64.2841 10.6882 64.5767 10.6882C65.1108 10.6882 65.5866 10.8161 66.0043 11.0717C66.4247 11.3246 66.7543 11.6712 66.9929 12.1115C67.2344 12.5518 67.3551 13.0547 67.3551 13.62C67.3551 14.1768 67.2301 14.674 66.9801 15.1115C66.733 15.5462 66.392 15.8899 65.9574 16.1428C65.5227 16.3928 65.0284 16.5178 64.4744 16.5178ZM76.2241 10.3984H75.1673C75.1048 10.0945 74.9954 9.82741 74.8391 9.5973C74.6857 9.36719 74.4982 9.17401 74.2766 9.01776C74.0579 8.85866 73.815 8.73935 73.5479 8.6598C73.2809 8.58026 73.0025 8.54048 72.7127 8.54048C72.1843 8.54048 71.7056 8.67401 71.2766 8.94105C70.8505 9.2081 70.511 9.60156 70.2582 10.1214C70.0082 10.6413 69.8832 11.2791 69.8832 12.0348C69.8832 12.7905 70.0082 13.4283 70.2582 13.9482C70.511 14.468 70.8505 14.8615 71.2766 15.1286C71.7056 15.3956 72.1843 15.5291 72.7127 15.5291C73.0025 15.5291 73.2809 15.4893 73.5479 15.4098C73.815 15.3303 74.0579 15.2124 74.2766 15.0561C74.4982 14.897 74.6857 14.7024 74.8391 14.4723C74.9954 14.2393 75.1048 13.9723 75.1673 13.6712H76.2241C76.1445 14.1172 75.9996 14.5163 75.7894 14.8686C75.5792 15.2209 75.3178 15.5206 75.0053 15.7678C74.6928 16.0121 74.342 16.1982 73.9528 16.326C73.5664 16.4538 73.1531 16.5178 72.7127 16.5178C71.9684 16.5178 71.3065 16.3359 70.7269 15.9723C70.1474 15.6087 69.6914 15.0916 69.359 14.4212C69.0266 13.7507 68.8604 12.9553 68.8604 12.0348C68.8604 11.1143 69.0266 10.3189 69.359 9.64844C69.6914 8.97798 70.1474 8.46094 70.7269 8.0973C71.3065 7.73366 71.9684 7.55185 72.7127 7.55185C73.1531 7.55185 73.5664 7.61577 73.9528 7.74361C74.342 7.87145 74.6928 8.05895 75.0053 8.30611C75.3178 8.55043 75.5792 8.84872 75.7894 9.20099C75.9996 9.55043 76.1445 9.94957 76.2241 10.3984Z" fill="white"/>
<rect y="23.3984" width="100" height="23" fill="#64B383"/>
<rect x="0.5" y="23.8984" width="99" height="22" stroke="black" stroke-opacity="0.04"/>
<path d="M27.1761 39.3984L28.608 30.6712H29.4602L28.0284 39.3984H27.1761ZM23.2045 36.978L23.3409 36.1257H29.8523L29.7159 36.978H23.2045ZM24.108 39.3984L25.5398 30.6712H26.392L24.9602 39.3984H24.108ZM23.7159 33.9439L23.8523 33.0916H30.3636L30.2273 33.9439H23.7159ZM34.3714 39.5178C34.0135 39.5121 33.6555 39.4439 33.2976 39.3132C32.9396 39.1825 32.6129 38.9624 32.3175 38.6527C32.022 38.3402 31.7848 37.9183 31.6058 37.3871C31.4268 36.853 31.3374 36.1825 31.3374 35.3757C31.3374 34.603 31.4098 33.9183 31.5547 33.3217C31.6996 32.7223 31.9098 32.218 32.1854 31.8089C32.4609 31.397 32.7933 31.0845 33.1825 30.8714C33.5746 30.6584 34.0163 30.5518 34.5078 30.5518C34.9964 30.5518 35.4311 30.6499 35.8118 30.8459C36.1953 31.0391 36.5078 31.3089 36.7493 31.6555C36.9908 32.0021 37.147 32.4013 37.218 32.853H36.1783C36.0817 32.4609 35.8942 32.1357 35.6158 31.8771C35.3374 31.6186 34.968 31.4893 34.5078 31.4893C33.8317 31.4893 33.299 31.7834 32.9098 32.3714C32.5234 32.9595 32.3288 33.7848 32.326 34.8473H32.3942C32.5533 34.6058 32.7422 34.3999 32.9609 34.2294C33.1825 34.0561 33.4268 33.9226 33.6939 33.8288C33.9609 33.7351 34.2436 33.6882 34.5419 33.6882C35.0419 33.6882 35.4993 33.8132 35.9141 34.0632C36.3288 34.3104 36.6612 34.6527 36.9112 35.0902C37.1612 35.5249 37.2862 36.0234 37.2862 36.5859C37.2862 37.1257 37.1655 37.62 36.924 38.0689C36.6825 38.5149 36.343 38.87 35.9055 39.1342C35.4709 39.3956 34.9595 39.5234 34.3714 39.5178ZM34.3714 38.5803C34.7294 38.5803 35.0504 38.4908 35.3345 38.3118C35.6214 38.1328 35.8473 37.8928 36.0121 37.5916C36.1797 37.2905 36.2635 36.9553 36.2635 36.5859C36.2635 36.2251 36.1825 35.897 36.0206 35.6016C35.8615 35.3033 35.6413 35.0661 35.3601 34.8899C35.0817 34.7138 34.7635 34.6257 34.4055 34.6257C34.1357 34.6257 33.8842 34.6797 33.6513 34.7876C33.4183 34.8928 33.2138 35.0376 33.0376 35.2223C32.8643 35.407 32.728 35.6186 32.6286 35.8572C32.5291 36.093 32.4794 36.3416 32.4794 36.603C32.4794 36.9496 32.5604 37.2734 32.7223 37.5746C32.8871 37.8757 33.1115 38.1186 33.3956 38.3033C33.6825 38.4879 34.0078 38.5803 34.3714 38.5803ZM38.7575 37.6087V36.7393L42.5927 30.6712H43.2234V32.0178H42.7972L39.8995 36.603V36.6712H45.0643V37.6087H38.7575ZM42.8654 39.3984V37.3445V36.9396V30.6712H43.8711V39.3984H42.8654ZM46.8146 39.3984V30.6712H49.8658C50.4737 30.6712 50.9751 30.7763 51.37 30.9865C51.7649 31.1939 52.0589 31.4737 52.2521 31.826C52.4453 32.1754 52.5419 32.5632 52.5419 32.9893C52.5419 33.3643 52.4751 33.674 52.3416 33.9183C52.2109 34.1626 52.0376 34.3558 51.8217 34.4979C51.6087 34.6399 51.3771 34.745 51.1271 34.8132V34.8984C51.3942 34.9155 51.6626 35.0092 51.9325 35.1797C52.2024 35.3501 52.4283 35.5945 52.6101 35.9126C52.7919 36.2308 52.8828 36.62 52.8828 37.0803C52.8828 37.5178 52.7834 37.9112 52.5845 38.2607C52.3857 38.6101 52.0717 38.8871 51.6428 39.0916C51.2138 39.2962 50.6555 39.3984 49.968 39.3984H46.8146ZM47.8714 38.4609H49.968C50.6584 38.4609 51.1484 38.3274 51.4382 38.0604C51.7308 37.7905 51.8771 37.4638 51.8771 37.0803C51.8771 36.7848 51.8018 36.5121 51.6513 36.2621C51.5007 36.0092 51.2862 35.8075 51.0078 35.657C50.7294 35.5036 50.3999 35.4268 50.0192 35.4268H47.8714V38.4609ZM47.8714 34.5064H49.8317C50.1499 34.5064 50.4368 34.4439 50.6925 34.3189C50.951 34.1939 51.1555 34.0178 51.3061 33.7905C51.4595 33.5632 51.5362 33.2962 51.5362 32.9893C51.5362 32.6058 51.4027 32.2805 51.1357 32.0135C50.8686 31.7436 50.4453 31.6087 49.8658 31.6087H47.8714V34.5064ZM57.4148 39.5178C56.8523 39.5178 56.3509 39.4212 55.9105 39.228C55.473 39.0348 55.125 38.7663 54.8665 38.4226C54.6108 38.076 54.4716 37.674 54.4489 37.2166H55.5227C55.5455 37.4979 55.642 37.7408 55.8125 37.9453C55.983 38.147 56.206 38.3033 56.4815 38.4141C56.7571 38.5249 57.0625 38.5803 57.3977 38.5803C57.7727 38.5803 58.1051 38.5149 58.3949 38.3842C58.6847 38.2536 58.9119 38.0717 59.0767 37.8388C59.2415 37.6058 59.3239 37.3359 59.3239 37.0291C59.3239 36.7081 59.2443 36.4254 59.0852 36.1811C58.9261 35.9339 58.6932 35.7408 58.3864 35.6016C58.0795 35.4624 57.7045 35.3928 57.2614 35.3928H56.5625V34.4553H57.2614C57.608 34.4553 57.9119 34.3928 58.1733 34.2678C58.4375 34.1428 58.6435 33.9666 58.7912 33.7393C58.9418 33.5121 59.017 33.245 59.017 32.9382C59.017 32.6428 58.9517 32.3857 58.821 32.1669C58.6903 31.9482 58.5057 31.7777 58.267 31.6555C58.0313 31.5334 57.7528 31.4723 57.4318 31.4723C57.1307 31.4723 56.8466 31.5277 56.5795 31.6385C56.3153 31.7464 56.0994 31.9041 55.9318 32.1115C55.7642 32.3161 55.6733 32.5632 55.6591 32.853H54.6364C54.6534 32.3956 54.7912 31.995 55.0497 31.6513C55.3082 31.3047 55.6463 31.0348 56.0639 30.8416C56.4844 30.6484 56.946 30.5518 57.4489 30.5518C57.9886 30.5518 58.4517 30.6612 58.8381 30.88C59.2244 31.0959 59.5213 31.3814 59.7287 31.7365C59.9361 32.0916 60.0398 32.4751 60.0398 32.8871C60.0398 33.3786 59.9105 33.7976 59.652 34.1442C59.3963 34.4908 59.0483 34.7308 58.608 34.8643V34.9325C59.1591 35.0234 59.5895 35.2578 59.8991 35.6357C60.2088 36.0107 60.3636 36.4751 60.3636 37.0291C60.3636 37.5036 60.2344 37.9297 59.9759 38.3075C59.7202 38.6825 59.3707 38.978 58.9276 39.1939C58.4844 39.4098 57.9801 39.5178 57.4148 39.5178ZM64.902 39.5178C64.3168 39.5178 63.7997 39.4141 63.3509 39.2067C62.9048 38.9964 62.5568 38.7081 62.3068 38.3416C62.0568 37.9723 61.9332 37.5518 61.9361 37.0803C61.9332 36.7109 62.0057 36.37 62.1534 36.0575C62.3011 35.7422 62.5028 35.4794 62.7585 35.2692C63.017 35.0561 63.3054 34.9212 63.6236 34.8643V34.8132C63.206 34.7053 62.8736 34.4709 62.6264 34.1101C62.3793 33.7464 62.2571 33.3331 62.2599 32.87C62.2571 32.4268 62.3693 32.0305 62.5966 31.6811C62.8239 31.3317 63.1364 31.0561 63.5341 30.8544C63.9347 30.6527 64.3906 30.5518 64.902 30.5518C65.4077 30.5518 65.8594 30.6527 66.2571 30.8544C66.6548 31.0561 66.9673 31.3317 67.1946 31.6811C67.4247 32.0305 67.5412 32.4268 67.544 32.87C67.5412 33.3331 67.4148 33.7464 67.1648 34.1101C66.9176 34.4709 66.5895 34.7053 66.1804 34.8132V34.8643C66.4957 34.9212 66.7798 35.0561 67.0327 35.2692C67.2855 35.4794 67.4872 35.7422 67.6378 36.0575C67.7884 36.37 67.8651 36.7109 67.8679 37.0803C67.8651 37.5518 67.7372 37.9723 67.4844 38.3416C67.2344 38.7081 66.8864 38.9964 66.4403 39.2067C65.9972 39.4141 65.4844 39.5178 64.902 39.5178ZM64.902 38.5803C65.2969 38.5803 65.6378 38.5163 65.9247 38.3885C66.2116 38.2607 66.4332 38.0803 66.5895 37.8473C66.7457 37.6143 66.8253 37.3416 66.8281 37.0291C66.8253 36.6996 66.7401 36.4084 66.5724 36.1555C66.4048 35.9027 66.1761 35.7038 65.8864 35.5589C65.5994 35.4141 65.2713 35.3416 64.902 35.3416C64.5298 35.3416 64.1974 35.4141 63.9048 35.5589C63.6151 35.7038 63.3864 35.9027 63.2188 36.1555C63.054 36.4084 62.973 36.6996 62.9759 37.0291C62.973 37.3416 63.0483 37.6143 63.2017 37.8473C63.358 38.0803 63.581 38.2607 63.8707 38.3885C64.1605 38.5163 64.5043 38.5803 64.902 38.5803ZM64.902 34.4382C65.2145 34.4382 65.4915 34.3757 65.733 34.2507C65.9773 34.1257 66.169 33.951 66.3082 33.7266C66.4474 33.5021 66.5185 33.2393 66.5213 32.9382C66.5185 32.6428 66.4489 32.3857 66.3125 32.1669C66.1761 31.9453 65.9872 31.7749 65.7457 31.6555C65.5043 31.5334 65.223 31.4723 64.902 31.4723C64.5753 31.4723 64.2898 31.5334 64.0455 31.6555C63.8011 31.7749 63.6122 31.9453 63.4787 32.1669C63.3452 32.3857 63.2798 32.6428 63.2827 32.9382C63.2798 33.2393 63.3466 33.5021 63.483 33.7266C63.6222 33.951 63.8139 34.1257 64.0582 34.2507C64.3026 34.3757 64.5838 34.4382 64.902 34.4382ZM72.4499 39.5178C71.8874 39.5178 71.386 39.4212 70.9457 39.228C70.5082 39.0348 70.1602 38.7663 69.9016 38.4226C69.646 38.076 69.5067 37.674 69.484 37.2166H70.5579C70.5806 37.4979 70.6772 37.7408 70.8477 37.9453C71.0181 38.147 71.2411 38.3033 71.5167 38.4141C71.7923 38.5249 72.0977 38.5803 72.4329 38.5803C72.8079 38.5803 73.1403 38.5149 73.43 38.3842C73.7198 38.2536 73.9471 38.0717 74.1119 37.8388C74.2766 37.6058 74.359 37.3359 74.359 37.0291C74.359 36.7081 74.2795 36.4254 74.1204 36.1811C73.9613 35.9339 73.7283 35.7408 73.4215 35.6016C73.1147 35.4624 72.7397 35.3928 72.2965 35.3928H71.5977V34.4553H72.2965C72.6431 34.4553 72.9471 34.3928 73.2085 34.2678C73.4727 34.1428 73.6786 33.9666 73.8263 33.7393C73.9769 33.5121 74.0522 33.245 74.0522 32.9382C74.0522 32.6428 73.9869 32.3857 73.8562 32.1669C73.7255 31.9482 73.5408 31.7777 73.3022 31.6555C73.0664 31.5334 72.788 31.4723 72.467 31.4723C72.1658 31.4723 71.8817 31.5277 71.6147 31.6385C71.3505 31.7464 71.1346 31.9041 70.967 32.1115C70.7994 32.3161 70.7085 32.5632 70.6942 32.853H69.6715C69.6886 32.3956 69.8263 31.995 70.0849 31.6513C70.3434 31.3047 70.6815 31.0348 71.0991 30.8416C71.5195 30.6484 71.9812 30.5518 72.484 30.5518C73.0238 30.5518 73.4869 30.6612 73.8732 30.88C74.2596 31.0959 74.5565 31.3814 74.7638 31.7365C74.9712 32.0916 75.0749 32.4751 75.0749 32.8871C75.0749 33.3786 74.9457 33.7976 74.6871 34.1442C74.4315 34.4908 74.0835 34.7308 73.6431 34.8643V34.9325C74.1942 35.0234 74.6246 35.2578 74.9343 35.6357C75.244 36.0107 75.3988 36.4751 75.3988 37.0291C75.3988 37.5036 75.2695 37.9297 75.011 38.3075C74.7553 38.6825 74.4059 38.978 73.9627 39.1939C73.5195 39.4098 73.0153 39.5178 72.4499 39.5178Z" fill="white"/>
<path d="M0 46.3984H100V61.3984C100 65.8167 96.4183 69.3984 92 69.3984H8C3.58172 69.3984 0 65.8167 0 61.3984V46.3984Z" fill="#C9EAD6"/>
<path d="M0.5 46.8984H99.5V61.3984C99.5 65.5406 96.1421 68.8984 92 68.8984H8C3.85786 68.8984 0.5 65.5406 0.5 61.3984V46.8984Z" stroke="black" stroke-opacity="0.04"/>
<path d="M26.1761 62.3984L27.608 53.6712H28.4602L27.0284 62.3984H26.1761ZM22.2045 59.978L22.3409 59.1257H28.8523L28.7159 59.978H22.2045ZM23.108 62.3984L24.5398 53.6712H25.392L23.9602 62.3984H23.108ZM22.7159 56.9439L22.8523 56.0916H29.3636L29.2273 56.9439H22.7159ZM37.6499 56.3984H36.593C36.5305 56.0945 36.4212 55.8274 36.2649 55.5973C36.1115 55.3672 35.924 55.174 35.7024 55.0178C35.4837 54.8587 35.2408 54.7393 34.9737 54.6598C34.7067 54.5803 34.4283 54.5405 34.1385 54.5405C33.6101 54.5405 33.1314 54.674 32.7024 54.9411C32.2763 55.2081 31.9368 55.6016 31.6839 56.1214C31.4339 56.6413 31.3089 57.2791 31.3089 58.0348C31.3089 58.7905 31.4339 59.4283 31.6839 59.9482C31.9368 60.468 32.2763 60.8615 32.7024 61.1286C33.1314 61.3956 33.6101 61.5291 34.1385 61.5291C34.4283 61.5291 34.7067 61.4893 34.9737 61.4098C35.2408 61.3303 35.4837 61.2124 35.7024 61.0561C35.924 60.897 36.1115 60.7024 36.2649 60.4723C36.4212 60.2393 36.5305 59.9723 36.593 59.6712H37.6499C37.5703 60.1172 37.4254 60.5163 37.2152 60.8686C37.005 61.2209 36.7436 61.5206 36.4311 61.7678C36.1186 62.0121 35.7678 62.1982 35.3786 62.326C34.9922 62.4538 34.5788 62.5178 34.1385 62.5178C33.3942 62.5178 32.7322 62.3359 32.1527 61.9723C31.5732 61.6087 31.1172 61.0916 30.7848 60.4212C30.4524 59.7507 30.2862 58.9553 30.2862 58.0348C30.2862 57.1143 30.4524 56.3189 30.7848 55.6484C31.1172 54.978 31.5732 54.4609 32.1527 54.0973C32.7322 53.7337 33.3942 53.5518 34.1385 53.5518C34.5788 53.5518 34.9922 53.6158 35.3786 53.7436C35.7678 53.8714 36.1186 54.0589 36.4311 54.3061C36.7436 54.5504 37.005 54.8487 37.2152 55.201C37.4254 55.5504 37.5703 55.9496 37.6499 56.3984ZM41.9826 53.5518C42.3406 53.5547 42.6985 53.6229 43.0565 53.7564C43.4144 53.8899 43.7411 54.1115 44.0366 54.4212C44.332 54.728 44.5692 55.147 44.7482 55.6783C44.9272 56.2095 45.0167 56.8757 45.0167 57.6768C45.0167 58.4524 44.9428 59.1413 44.7951 59.7436C44.6502 60.343 44.44 60.8487 44.1644 61.2607C43.8917 61.6726 43.5593 61.9851 43.1673 62.1982C42.7781 62.4112 42.3377 62.5178 41.8462 62.5178C41.3576 62.5178 40.9215 62.4212 40.538 62.228C40.1573 62.032 39.8448 61.7607 39.6005 61.4141C39.359 61.0646 39.2042 60.6598 39.136 60.1996H40.1758C40.2695 60.6001 40.4556 60.9311 40.734 61.1925C41.0153 61.451 41.386 61.5803 41.8462 61.5803C42.5195 61.5803 43.0508 61.2862 43.44 60.6982C43.832 60.1101 44.0281 59.2791 44.0281 58.2053H43.9599C43.8008 58.4439 43.6119 58.6499 43.3931 58.8232C43.1744 58.9964 42.9315 59.13 42.6644 59.2237C42.3974 59.3175 42.1133 59.3643 41.8121 59.3643C41.3121 59.3643 40.8533 59.2408 40.4357 58.9936C40.021 58.7436 39.6886 58.4013 39.4386 57.9666C39.1914 57.5291 39.0678 57.0291 39.0678 56.4666C39.0678 55.9325 39.1871 55.4439 39.4258 55.0007C39.6673 54.5547 40.0053 54.1996 40.44 53.9354C40.8775 53.6712 41.3917 53.5433 41.9826 53.5518ZM41.9826 54.4893C41.6246 54.4893 41.3022 54.5788 41.0153 54.7578C40.7312 54.9339 40.5053 55.1726 40.3377 55.4737C40.1729 55.772 40.0906 56.103 40.0906 56.4666C40.0906 56.8303 40.1701 57.1612 40.3292 57.4595C40.4911 57.755 40.7113 57.9908 40.9897 58.1669C41.271 58.3402 41.5906 58.4268 41.9485 58.4268C42.2184 58.4268 42.4698 58.3743 42.7028 58.2692C42.9357 58.1612 43.1388 58.0149 43.3121 57.8303C43.4883 57.6428 43.6261 57.4311 43.7255 57.1953C43.8249 56.9567 43.8746 56.7081 43.8746 56.4496C43.8746 56.1087 43.7923 55.7891 43.6275 55.4908C43.4656 55.1925 43.2411 54.951 42.9542 54.7663C42.6701 54.5817 42.3462 54.4893 41.9826 54.4893ZM46.8459 62.3984V53.6712H52.1129V54.6087H47.9027V57.5575H51.8402V58.495H47.9027V61.4609H52.1811V62.3984H46.8459ZM54.3757 62.3984H53.2678L56.4723 53.6712H57.5632L60.7678 62.3984H59.6598L57.0518 55.0518H56.9837L54.3757 62.3984ZM54.7848 58.9893H59.2507V59.9268H54.7848V58.9893ZM64.8203 62.3984H62.1271V53.6712H64.9396C65.7862 53.6712 66.5107 53.8459 67.1129 54.1953C67.7152 54.5419 68.1768 55.0405 68.4979 55.6911C68.8189 56.3388 68.9794 57.1143 68.9794 58.0178C68.9794 58.9268 68.8175 59.7095 68.4936 60.3658C68.1697 61.0192 67.6982 61.522 67.0788 61.8743C66.4595 62.2237 65.7067 62.3984 64.8203 62.3984ZM63.1839 61.4609H64.7521C65.4737 61.4609 66.0717 61.3217 66.5462 61.0433C67.0206 60.7649 67.3743 60.3686 67.6072 59.8544C67.8402 59.3402 67.9567 58.728 67.9567 58.0178C67.9567 57.3132 67.8416 56.7067 67.6115 56.1982C67.3814 55.6868 67.0376 55.2947 66.5803 55.022C66.1229 54.7464 65.5533 54.6087 64.8714 54.6087H63.1839V61.4609ZM73.4964 62.5178C73.1385 62.5121 72.7805 62.4439 72.4226 62.3132C72.0646 62.1825 71.7379 61.9624 71.4425 61.6527C71.147 61.3402 70.9098 60.9183 70.7308 60.3871C70.5518 59.853 70.4624 59.1825 70.4624 58.3757C70.4624 57.603 70.5348 56.9183 70.6797 56.3217C70.8246 55.7223 71.0348 55.218 71.3104 54.8089C71.5859 54.397 71.9183 54.0845 72.3075 53.8714C72.6996 53.6584 73.1413 53.5518 73.6328 53.5518C74.1214 53.5518 74.5561 53.6499 74.9368 53.8459C75.3203 54.0391 75.6328 54.3089 75.8743 54.6555C76.1158 55.0021 76.272 55.4013 76.343 55.853H75.3033C75.2067 55.4609 75.0192 55.1357 74.7408 54.8771C74.4624 54.6186 74.093 54.4893 73.6328 54.4893C72.9567 54.4893 72.424 54.7834 72.0348 55.3714C71.6484 55.9595 71.4538 56.7848 71.451 57.8473H71.5192C71.6783 57.6058 71.8672 57.3999 72.0859 57.2294C72.3075 57.0561 72.5518 56.9226 72.8189 56.8288C73.0859 56.7351 73.3686 56.6882 73.6669 56.6882C74.1669 56.6882 74.6243 56.8132 75.0391 57.0632C75.4538 57.3104 75.7862 57.6527 76.0362 58.0902C76.2862 58.5249 76.4112 59.0234 76.4112 59.5859C76.4112 60.1257 76.2905 60.62 76.049 61.0689C75.8075 61.5149 75.468 61.87 75.0305 62.1342C74.5959 62.3956 74.0845 62.5234 73.4964 62.5178ZM73.4964 61.5803C73.8544 61.5803 74.1754 61.4908 74.4595 61.3118C74.7464 61.1328 74.9723 60.8928 75.1371 60.5916C75.3047 60.2905 75.3885 59.9553 75.3885 59.5859C75.3885 59.2251 75.3075 58.897 75.1456 58.6016C74.9865 58.3033 74.7663 58.0661 74.4851 57.8899C74.2067 57.7138 73.8885 57.6257 73.5305 57.6257C73.2607 57.6257 73.0092 57.6797 72.7763 57.7876C72.5433 57.8928 72.3388 58.0376 72.1626 58.2223C71.9893 58.407 71.853 58.6186 71.7536 58.8572C71.6541 59.093 71.6044 59.3416 71.6044 59.603C71.6044 59.9496 71.6854 60.2734 71.8473 60.5746C72.0121 60.8757 72.2365 61.1186 72.5206 61.3033C72.8075 61.4879 73.1328 61.5803 73.4964 61.5803Z" fill="#161C0F"/>
</svg>
