<svg width="100" height="70" viewBox="0 0 100 70" fill="none" xmlns="http://www.w3.org/2000/svg">
<path d="M0 8.39844C0 3.98016 3.58172 0.398438 8 0.398438H92C96.4183 0.398438 100 3.98016 100 8.39844V23.3984H0V8.39844Z" fill="#3B006F"/>
<path d="M0.5 8.39844C0.5 4.2563 3.85786 0.898438 8 0.898438H92C96.1421 0.898438 99.5 4.2563 99.5 8.39844V22.8984H0.5V8.39844Z" stroke="black" stroke-opacity="0.04"/>
<path d="M27.6761 16.3984L29.108 7.67116H29.9602L28.5284 16.3984H27.6761ZM23.7045 13.978L23.8409 13.1257H30.3523L30.2159 13.978H23.7045ZM24.608 16.3984L26.0398 7.67116H26.892L25.4602 16.3984H24.608ZM24.2159 10.9439L24.3523 10.0916H30.8636L30.7273 10.9439H24.2159ZM34.9226 16.5178C34.3601 16.5178 33.8587 16.4212 33.4183 16.228C32.9808 16.0348 32.6328 15.7663 32.3743 15.4226C32.1186 15.076 31.9794 14.674 31.9567 14.2166H33.0305C33.0533 14.4979 33.1499 14.7408 33.3203 14.9453C33.4908 15.147 33.7138 15.3033 33.9893 15.4141C34.2649 15.5249 34.5703 15.5803 34.9055 15.5803C35.2805 15.5803 35.6129 15.5149 35.9027 15.3842C36.1925 15.2536 36.4197 15.0717 36.5845 14.8388C36.7493 14.6058 36.8317 14.3359 36.8317 14.0291C36.8317 13.7081 36.7521 13.4254 36.593 13.1811C36.4339 12.9339 36.201 12.7408 35.8942 12.6016C35.5874 12.4624 35.2124 12.3928 34.7692 12.3928H34.0703V11.4553H34.7692C35.1158 11.4553 35.4197 11.3928 35.6811 11.2678C35.9453 11.1428 36.1513 10.9666 36.299 10.7393C36.4496 10.5121 36.5249 10.245 36.5249 9.93821C36.5249 9.64276 36.4595 9.38565 36.3288 9.1669C36.1982 8.94815 36.0135 8.7777 35.7749 8.65554C35.5391 8.53338 35.2607 8.4723 34.9396 8.4723C34.6385 8.4723 34.3544 8.5277 34.0874 8.63849C33.8232 8.74645 33.6072 8.90412 33.4396 9.11151C33.272 9.31605 33.1811 9.56321 33.1669 9.85298H32.1442C32.1612 9.3956 32.299 8.99503 32.5575 8.65128C32.8161 8.30469 33.1541 8.0348 33.5717 7.84162C33.9922 7.64844 34.4538 7.55185 34.9567 7.55185C35.4964 7.55185 35.9595 7.66122 36.3459 7.87997C36.7322 8.09588 37.0291 8.38139 37.2365 8.73651C37.4439 9.09162 37.5476 9.47514 37.5476 9.88707C37.5476 10.3786 37.4183 10.7976 37.1598 11.1442C36.9041 11.4908 36.5561 11.7308 36.1158 11.8643V11.9325C36.6669 12.0234 37.0973 12.2578 37.407 12.6357C37.7166 13.0107 37.8714 13.4751 37.8714 14.0291C37.8714 14.5036 37.7422 14.9297 37.4837 15.3075C37.228 15.6825 36.8786 15.978 36.4354 16.1939C35.9922 16.4098 35.4879 16.5178 34.9226 16.5178ZM39.7678 16.3984V7.67116H42.8189C43.4268 7.67116 43.9283 7.77628 44.3232 7.98651C44.718 8.19389 45.0121 8.47372 45.2053 8.82599C45.3984 9.17543 45.495 9.56321 45.495 9.98935C45.495 10.3643 45.4283 10.674 45.2947 10.9183C45.1641 11.1626 44.9908 11.3558 44.7749 11.4979C44.5618 11.6399 44.3303 11.745 44.0803 11.8132V11.8984C44.3473 11.9155 44.6158 12.0092 44.8857 12.1797C45.1555 12.3501 45.3814 12.5945 45.5632 12.9126C45.745 13.2308 45.8359 13.62 45.8359 14.0803C45.8359 14.5178 45.7365 14.9112 45.5376 15.2607C45.3388 15.6101 45.0249 15.8871 44.5959 16.0916C44.1669 16.2962 43.6087 16.3984 42.9212 16.3984H39.7678ZM40.8246 15.4609H42.9212C43.6115 15.4609 44.1016 15.3274 44.3913 15.0604C44.6839 14.7905 44.8303 14.4638 44.8303 14.0803C44.8303 13.7848 44.755 13.5121 44.6044 13.2621C44.4538 13.0092 44.2393 12.8075 43.9609 12.657C43.6825 12.5036 43.353 12.4268 42.9723 12.4268H40.8246V15.4609ZM40.8246 11.5064H42.7848C43.103 11.5064 43.3899 11.4439 43.6456 11.3189C43.9041 11.1939 44.1087 11.0178 44.2592 10.7905C44.4126 10.5632 44.4893 10.2962 44.4893 9.98935C44.4893 9.60582 44.3558 9.28054 44.0888 9.01349C43.8217 8.74361 43.3984 8.60866 42.8189 8.60866H40.8246V11.5064ZM50.2656 16.5178C49.6236 16.5178 49.0767 16.343 48.625 15.9936C48.1733 15.6413 47.8281 15.1314 47.5895 14.4638C47.3509 13.7933 47.2315 12.9837 47.2315 12.0348C47.2315 11.0916 47.3509 10.2862 47.5895 9.61861C47.831 8.94815 48.1776 8.43679 48.6293 8.08452C49.0838 7.7294 49.6293 7.55185 50.2656 7.55185C50.902 7.55185 51.446 7.7294 51.8977 8.08452C52.3523 8.43679 52.6989 8.94815 52.9375 9.61861C53.179 10.2862 53.2997 11.0916 53.2997 12.0348C53.2997 12.9837 53.1804 13.7933 52.9418 14.4638C52.7031 15.1314 52.358 15.6413 51.9062 15.9936C51.4545 16.343 50.9077 16.5178 50.2656 16.5178ZM50.2656 15.5803C50.902 15.5803 51.3963 15.2734 51.7486 14.6598C52.1009 14.0462 52.277 13.1712 52.277 12.0348C52.277 11.2791 52.196 10.6357 52.0341 10.1044C51.875 9.57315 51.6449 9.16832 51.3438 8.88991C51.0455 8.61151 50.6861 8.4723 50.2656 8.4723C49.6349 8.4723 49.142 8.78338 48.7869 9.40554C48.4318 10.0249 48.2543 10.9013 48.2543 12.0348C48.2543 12.7905 48.3338 13.4325 48.4929 13.9609C48.652 14.4893 48.8807 14.8913 49.179 15.1669C49.4801 15.4425 49.8423 15.5803 50.2656 15.5803ZM57.7656 16.5178C57.1236 16.5178 56.5767 16.343 56.125 15.9936C55.6733 15.6413 55.3281 15.1314 55.0895 14.4638C54.8509 13.7933 54.7315 12.9837 54.7315 12.0348C54.7315 11.0916 54.8509 10.2862 55.0895 9.61861C55.331 8.94815 55.6776 8.43679 56.1293 8.08452C56.5838 7.7294 57.1293 7.55185 57.7656 7.55185C58.402 7.55185 58.946 7.7294 59.3977 8.08452C59.8523 8.43679 60.1989 8.94815 60.4375 9.61861C60.679 10.2862 60.7997 11.0916 60.7997 12.0348C60.7997 12.9837 60.6804 13.7933 60.4418 14.4638C60.2031 15.1314 59.858 15.6413 59.4062 15.9936C58.9545 16.343 58.4077 16.5178 57.7656 16.5178ZM57.7656 15.5803C58.402 15.5803 58.8963 15.2734 59.2486 14.6598C59.6009 14.0462 59.777 13.1712 59.777 12.0348C59.777 11.2791 59.696 10.6357 59.5341 10.1044C59.375 9.57315 59.1449 9.16832 58.8438 8.88991C58.5455 8.61151 58.1861 8.4723 57.7656 8.4723C57.1349 8.4723 56.642 8.78338 56.2869 9.40554C55.9318 10.0249 55.7543 10.9013 55.7543 12.0348C55.7543 12.7905 55.8338 13.4325 55.9929 13.9609C56.152 14.4893 56.3807 14.8913 56.679 15.1669C56.9801 15.4425 57.3423 15.5803 57.7656 15.5803ZM65.3168 16.5178C64.9588 16.5121 64.6009 16.4439 64.2429 16.3132C63.8849 16.1825 63.5582 15.9624 63.2628 15.6527C62.9673 15.3402 62.7301 14.9183 62.5511 14.3871C62.3722 13.853 62.2827 13.1825 62.2827 12.3757C62.2827 11.603 62.3551 10.9183 62.5 10.3217C62.6449 9.7223 62.8551 9.21804 63.1307 8.80895C63.4063 8.39702 63.7386 8.08452 64.1278 7.87145C64.5199 7.65838 64.9616 7.55185 65.4531 7.55185C65.9418 7.55185 66.3764 7.64986 66.7571 7.84588C67.1406 8.03906 67.4531 8.30895 67.6946 8.65554C67.9361 9.00213 68.0923 9.40128 68.1634 9.85298H67.1236C67.027 9.46094 66.8395 9.13565 66.5611 8.87713C66.2827 8.61861 65.9134 8.48935 65.4531 8.48935C64.777 8.48935 64.2443 8.78338 63.8551 9.37145C63.4688 9.95952 63.2741 10.7848 63.2713 11.8473H63.3395C63.4986 11.6058 63.6875 11.3999 63.9062 11.2294C64.1278 11.0561 64.3722 10.9226 64.6392 10.8288C64.9063 10.7351 65.1889 10.6882 65.4872 10.6882C65.9872 10.6882 66.4446 10.8132 66.8594 11.0632C67.2741 11.3104 67.6065 11.6527 67.8565 12.0902C68.1065 12.5249 68.2315 13.0234 68.2315 13.5859C68.2315 14.1257 68.1108 14.62 67.8693 15.0689C67.6278 15.5149 67.2884 15.87 66.8509 16.1342C66.4162 16.3956 65.9048 16.5234 65.3168 16.5178ZM65.3168 15.5803C65.6747 15.5803 65.9957 15.4908 66.2798 15.3118C66.5668 15.1328 66.7926 14.8928 66.9574 14.5916C67.125 14.2905 67.2088 13.9553 67.2088 13.5859C67.2088 13.2251 67.1278 12.897 66.9659 12.6016C66.8068 12.3033 66.5866 12.0661 66.3054 11.8899C66.027 11.7138 65.7088 11.6257 65.3509 11.6257C65.081 11.6257 64.8295 11.6797 64.5966 11.7876C64.3636 11.8928 64.1591 12.0376 63.983 12.2223C63.8097 12.407 63.6733 12.6186 63.5739 12.8572C63.4744 13.093 63.4247 13.3416 63.4247 13.603C63.4247 13.9496 63.5057 14.2734 63.6676 14.5746C63.8324 14.8757 64.0568 15.1186 64.3409 15.3033C64.6278 15.4879 64.9531 15.5803 65.3168 15.5803ZM70.0607 16.3984V7.67116H75.2937V8.60866H71.1175V11.5575H74.9016V12.495H71.1175V16.3984H70.0607Z" fill="white"/>
<rect y="23.3984" width="100" height="23" fill="#6D3C98"/>
<rect x="0.5" y="23.8984" width="99" height="22" stroke="black" stroke-opacity="0.04"/>
<path d="M26.6761 39.3984L28.108 30.6712H28.9602L27.5284 39.3984H26.6761ZM22.7045 36.978L22.8409 36.1257H29.3523L29.2159 36.978H22.7045ZM23.608 39.3984L25.0398 30.6712H25.892L24.4602 39.3984H23.608ZM23.2159 33.9439L23.3523 33.0916H29.8636L29.7273 33.9439H23.2159ZM33.8714 39.5178C33.5135 39.5121 33.1555 39.4439 32.7976 39.3132C32.4396 39.1825 32.1129 38.9624 31.8175 38.6527C31.522 38.3402 31.2848 37.9183 31.1058 37.3871C30.9268 36.853 30.8374 36.1825 30.8374 35.3757C30.8374 34.603 30.9098 33.9183 31.0547 33.3217C31.1996 32.7223 31.4098 32.218 31.6854 31.8089C31.9609 31.397 32.2933 31.0845 32.6825 30.8714C33.0746 30.6584 33.5163 30.5518 34.0078 30.5518C34.4964 30.5518 34.9311 30.6499 35.3118 30.8459C35.6953 31.0391 36.0078 31.3089 36.2493 31.6555C36.4908 32.0021 36.647 32.4013 36.718 32.853H35.6783C35.5817 32.4609 35.3942 32.1357 35.1158 31.8771C34.8374 31.6186 34.468 31.4893 34.0078 31.4893C33.3317 31.4893 32.799 31.7834 32.4098 32.3714C32.0234 32.9595 31.8288 33.7848 31.826 34.8473H31.8942C32.0533 34.6058 32.2422 34.3999 32.4609 34.2294C32.6825 34.0561 32.9268 33.9226 33.1939 33.8288C33.4609 33.7351 33.7436 33.6882 34.0419 33.6882C34.5419 33.6882 34.9993 33.8132 35.4141 34.0632C35.8288 34.3104 36.1612 34.6527 36.4112 35.0902C36.6612 35.5249 36.7862 36.0234 36.7862 36.5859C36.7862 37.1257 36.6655 37.62 36.424 38.0689C36.1825 38.5149 35.843 38.87 35.4055 39.1342C34.9709 39.3956 34.4595 39.5234 33.8714 39.5178ZM33.8714 38.5803C34.2294 38.5803 34.5504 38.4908 34.8345 38.3118C35.1214 38.1328 35.3473 37.8928 35.5121 37.5916C35.6797 37.2905 35.7635 36.9553 35.7635 36.5859C35.7635 36.2251 35.6825 35.897 35.5206 35.6016C35.3615 35.3033 35.1413 35.0661 34.8601 34.8899C34.5817 34.7138 34.2635 34.6257 33.9055 34.6257C33.6357 34.6257 33.3842 34.6797 33.1513 34.7876C32.9183 34.8928 32.7138 35.0376 32.5376 35.2223C32.3643 35.407 32.228 35.6186 32.1286 35.8572C32.0291 36.093 31.9794 36.3416 31.9794 36.603C31.9794 36.9496 32.0604 37.2734 32.2223 37.5746C32.3871 37.8757 32.6115 38.1186 32.8956 38.3033C33.1825 38.4879 33.5078 38.5803 33.8714 38.5803ZM41.3086 39.3984H38.6154V30.6712H41.4279C42.2745 30.6712 42.9989 30.8459 43.6012 31.1953C44.2035 31.5419 44.6651 32.0405 44.9862 32.6911C45.3072 33.3388 45.4677 34.1143 45.4677 35.0178C45.4677 35.9268 45.3058 36.7095 44.9819 37.3658C44.658 38.0192 44.1864 38.522 43.5671 38.8743C42.9478 39.2237 42.195 39.3984 41.3086 39.3984ZM39.6722 38.4609H41.2404C41.962 38.4609 42.56 38.3217 43.0344 38.0433C43.5089 37.7649 43.8626 37.3686 44.0955 36.8544C44.3285 36.3402 44.445 35.728 44.445 35.0178C44.445 34.3132 44.3299 33.7067 44.0998 33.1982C43.8697 32.6868 43.5259 32.2947 43.0685 32.022C42.6112 31.7464 42.0415 31.6087 41.3597 31.6087H39.6722V38.4609ZM50.0359 39.5178C49.4734 39.5178 48.9719 39.4212 48.5316 39.228C48.0941 39.0348 47.7461 38.7663 47.4876 38.4226C47.2319 38.076 47.0927 37.674 47.07 37.2166H48.1438C48.1665 37.4979 48.2631 37.7408 48.4336 37.9453C48.604 38.147 48.8271 38.3033 49.1026 38.4141C49.3782 38.5249 49.6836 38.5803 50.0188 38.5803C50.3938 38.5803 50.7262 38.5149 51.016 38.3842C51.3058 38.2536 51.533 38.0717 51.6978 37.8388C51.8626 37.6058 51.945 37.3359 51.945 37.0291C51.945 36.7081 51.8654 36.4254 51.7063 36.1811C51.5472 35.9339 51.3143 35.7408 51.0075 35.6016C50.7006 35.4624 50.3256 35.3928 49.8825 35.3928H49.1836V34.4553H49.8825C50.229 34.4553 50.533 34.3928 50.7944 34.2678C51.0586 34.1428 51.2646 33.9666 51.4123 33.7393C51.5629 33.5121 51.6381 33.245 51.6381 32.9382C51.6381 32.6428 51.5728 32.3857 51.4421 32.1669C51.3114 31.9482 51.1268 31.7777 50.8881 31.6555C50.6523 31.5334 50.3739 31.4723 50.0529 31.4723C49.7518 31.4723 49.4677 31.5277 49.2006 31.6385C48.9364 31.7464 48.7205 31.9041 48.5529 32.1115C48.3853 32.3161 48.2944 32.5632 48.2802 32.853H47.2575C47.2745 32.3956 47.4123 31.995 47.6708 31.6513C47.9293 31.3047 48.2674 31.0348 48.685 30.8416C49.1055 30.6484 49.5671 30.5518 50.07 30.5518C50.6097 30.5518 51.0728 30.6612 51.4592 30.88C51.8455 31.0959 52.1424 31.3814 52.3498 31.7365C52.5572 32.0916 52.6609 32.4751 52.6609 32.8871C52.6609 33.3786 52.5316 33.7976 52.2731 34.1442C52.0174 34.4908 51.6694 34.7308 51.229 34.8643V34.9325C51.7802 35.0234 52.2106 35.2578 52.5202 35.6357C52.8299 36.0107 52.9847 36.4751 52.9847 37.0291C52.9847 37.5036 52.8555 37.9297 52.5969 38.3075C52.3413 38.6825 51.9918 38.978 51.5487 39.1939C51.1055 39.4098 50.6012 39.5178 50.0359 39.5178ZM61.9038 33.3984H60.8469C60.7844 33.0945 60.6751 32.8274 60.5188 32.5973C60.3654 32.3672 60.1779 32.174 59.9563 32.0178C59.7376 31.8587 59.4947 31.7393 59.2276 31.6598C58.9606 31.5803 58.6822 31.5405 58.3924 31.5405C57.864 31.5405 57.3853 31.674 56.9563 31.9411C56.5302 32.2081 56.1907 32.6016 55.9379 33.1214C55.6879 33.6413 55.5629 34.2791 55.5629 35.0348C55.5629 35.7905 55.6879 36.4283 55.9379 36.9482C56.1907 37.468 56.5302 37.8615 56.9563 38.1286C57.3853 38.3956 57.864 38.5291 58.3924 38.5291C58.6822 38.5291 58.9606 38.4893 59.2276 38.4098C59.4947 38.3303 59.7376 38.2124 59.9563 38.0561C60.1779 37.897 60.3654 37.7024 60.5188 37.4723C60.6751 37.2393 60.7844 36.9723 60.8469 36.6712H61.9038C61.8242 37.1172 61.6793 37.5163 61.4691 37.8686C61.2589 38.2209 60.9975 38.5206 60.685 38.7678C60.3725 39.0121 60.0217 39.1982 59.6325 39.326C59.2461 39.4538 58.8327 39.5178 58.3924 39.5178C57.6481 39.5178 56.9862 39.3359 56.4066 38.9723C55.8271 38.6087 55.3711 38.0916 55.0387 37.4212C54.7063 36.7507 54.5401 35.9553 54.5401 35.0348C54.5401 34.1143 54.7063 33.3189 55.0387 32.6484C55.3711 31.978 55.8271 31.4609 56.4066 31.0973C56.9862 30.7337 57.6481 30.5518 58.3924 30.5518C58.8327 30.5518 59.2461 30.6158 59.6325 30.7436C60.0217 30.8714 60.3725 31.0589 60.685 31.3061C60.9975 31.5504 61.2589 31.8487 61.4691 32.201C61.6793 32.5504 61.8242 32.9496 61.9038 33.3984ZM66.2365 30.5518C66.5945 30.5547 66.9524 30.6229 67.3104 30.7564C67.6683 30.8899 67.995 31.1115 68.2905 31.4212C68.5859 31.728 68.8232 32.147 69.0021 32.6783C69.1811 33.2095 69.2706 33.8757 69.2706 34.6768C69.2706 35.4524 69.1967 36.1413 69.049 36.7436C68.9041 37.343 68.6939 37.8487 68.4183 38.2607C68.1456 38.6726 67.8132 38.9851 67.4212 39.1982C67.032 39.4112 66.5916 39.5178 66.1001 39.5178C65.6115 39.5178 65.1754 39.4212 64.7919 39.228C64.4112 39.032 64.0987 38.7607 63.8544 38.4141C63.6129 38.0646 63.4581 37.6598 63.3899 37.1996H64.4297C64.5234 37.6001 64.7095 37.9311 64.9879 38.1925C65.2692 38.451 65.6399 38.5803 66.1001 38.5803C66.7734 38.5803 67.3047 38.2862 67.6939 37.6982C68.0859 37.1101 68.282 36.2791 68.282 35.2053H68.2138C68.0547 35.4439 67.8658 35.6499 67.647 35.8232C67.4283 35.9964 67.1854 36.13 66.9183 36.2237C66.6513 36.3175 66.3672 36.3643 66.0661 36.3643C65.5661 36.3643 65.1072 36.2408 64.6896 35.9936C64.2749 35.7436 63.9425 35.4013 63.6925 34.9666C63.4453 34.5291 63.3217 34.0291 63.3217 33.4666C63.3217 32.9325 63.4411 32.4439 63.6797 32.0007C63.9212 31.5547 64.2592 31.1996 64.6939 30.9354C65.1314 30.6712 65.6456 30.5433 66.2365 30.5518ZM66.2365 31.4893C65.8786 31.4893 65.5561 31.5788 65.2692 31.7578C64.9851 31.9339 64.7592 32.1726 64.5916 32.4737C64.4268 32.772 64.3445 33.103 64.3445 33.4666C64.3445 33.8303 64.424 34.1612 64.5831 34.4595C64.745 34.755 64.9652 34.9908 65.2436 35.1669C65.5249 35.3402 65.8445 35.4268 66.2024 35.4268C66.4723 35.4268 66.7237 35.3743 66.9567 35.2692C67.1896 35.1612 67.3928 35.0149 67.5661 34.8303C67.7422 34.6428 67.88 34.4311 67.9794 34.1953C68.0788 33.9567 68.1286 33.7081 68.1286 33.4496C68.1286 33.1087 68.0462 32.7891 67.8814 32.4908C67.7195 32.1925 67.495 31.951 67.2081 31.7663C66.924 31.5817 66.6001 31.4893 66.2365 31.4893ZM73.7418 39.5178C73.1566 39.5178 72.6396 39.4141 72.1907 39.2067C71.7447 38.9964 71.3967 38.7081 71.1467 38.3416C70.8967 37.9723 70.7731 37.5518 70.7759 37.0803C70.7731 36.7109 70.8455 36.37 70.9933 36.0575C71.141 35.7422 71.3427 35.4794 71.5984 35.2692C71.8569 35.0561 72.1452 34.9212 72.4634 34.8643V34.8132C72.0458 34.7053 71.7134 34.4709 71.4663 34.1101C71.2191 33.7464 71.0969 33.3331 71.0998 32.87C71.0969 32.4268 71.2092 32.0305 71.4364 31.6811C71.6637 31.3317 71.9762 31.0561 72.3739 30.8544C72.7745 30.6527 73.2305 30.5518 73.7418 30.5518C74.2475 30.5518 74.6992 30.6527 75.0969 30.8544C75.4947 31.0561 75.8072 31.3317 76.0344 31.6811C76.2646 32.0305 76.381 32.4268 76.3839 32.87C76.381 33.3331 76.2546 33.7464 76.0046 34.1101C75.7575 34.4709 75.4293 34.7053 75.0202 34.8132V34.8643C75.3356 34.9212 75.6197 35.0561 75.8725 35.2692C76.1254 35.4794 76.3271 35.7422 76.4776 36.0575C76.6282 36.37 76.7049 36.7109 76.7077 37.0803C76.7049 37.5518 76.5771 37.9723 76.3242 38.3416C76.0742 38.7081 75.7262 38.9964 75.2802 39.2067C74.837 39.4141 74.3242 39.5178 73.7418 39.5178ZM73.7418 38.5803C74.1367 38.5803 74.4776 38.5163 74.7646 38.3885C75.0515 38.2607 75.2731 38.0803 75.4293 37.8473C75.5856 37.6143 75.6651 37.3416 75.668 37.0291C75.6651 36.6996 75.5799 36.4084 75.4123 36.1555C75.2447 35.9027 75.016 35.7038 74.7262 35.5589C74.4393 35.4141 74.1112 35.3416 73.7418 35.3416C73.3697 35.3416 73.0373 35.4141 72.7447 35.5589C72.4549 35.7038 72.2262 35.9027 72.0586 36.1555C71.8938 36.4084 71.8129 36.6996 71.8157 37.0291C71.8129 37.3416 71.8881 37.6143 72.0415 37.8473C72.1978 38.0803 72.4208 38.2607 72.7106 38.3885C73.0004 38.5163 73.3441 38.5803 73.7418 38.5803ZM73.7418 34.4382C74.0543 34.4382 74.3313 34.3757 74.5728 34.2507C74.8171 34.1257 75.0089 33.951 75.1481 33.7266C75.2873 33.5021 75.3583 33.2393 75.3612 32.9382C75.3583 32.6428 75.2887 32.3857 75.1523 32.1669C75.016 31.9453 74.8271 31.7749 74.5856 31.6555C74.3441 31.5334 74.0629 31.4723 73.7418 31.4723C73.4151 31.4723 73.1296 31.5334 72.8853 31.6555C72.641 31.7749 72.4521 31.9453 72.3185 32.1669C72.185 32.3857 72.1197 32.6428 72.1225 32.9382C72.1197 33.2393 72.1864 33.5021 72.3228 33.7266C72.462 33.951 72.6538 34.1257 72.8981 34.2507C73.1424 34.3757 73.4237 34.4382 73.7418 34.4382Z" fill="white"/>
<path d="M0 46.3984H100V61.3984C100 65.8167 96.4183 69.3984 92 69.3984H8C3.58172 69.3984 0 65.8167 0 61.3984V46.3984Z" fill="#F0DEFF"/>
<path d="M0.5 46.8984H99.5V61.3984C99.5 65.5406 96.1421 68.8984 92 68.8984H8C3.85786 68.8984 0.5 65.5406 0.5 61.3984V46.8984Z" stroke="black" stroke-opacity="0.04"/>
<path d="M28.1761 62.3984L29.608 53.6712H30.4602L29.0284 62.3984H28.1761ZM24.2045 59.978L24.3409 59.1257H30.8523L30.7159 59.978H24.2045ZM25.108 62.3984L26.5398 53.6712H27.392L25.9602 62.3984H25.108ZM24.7159 56.9439L24.8523 56.0916H31.3636L31.2273 56.9439H24.7159ZM32.6271 62.3984V53.6712H37.8601V54.6087H33.6839V57.5575H37.468V58.495H33.6839V62.3984H32.6271ZM42.3633 62.5178C41.7212 62.5178 41.1744 62.343 40.7227 61.9936C40.271 61.6413 39.9258 61.1314 39.6871 60.4638C39.4485 59.7933 39.3292 58.9837 39.3292 58.0348C39.3292 57.0916 39.4485 56.2862 39.6871 55.6186C39.9286 54.9482 40.2752 54.4368 40.7269 54.0845C41.1815 53.7294 41.7269 53.5518 42.3633 53.5518C42.9996 53.5518 43.5437 53.7294 43.9954 54.0845C44.4499 54.4368 44.7965 54.9482 45.0352 55.6186C45.2766 56.2862 45.3974 57.0916 45.3974 58.0348C45.3974 58.9837 45.2781 59.7933 45.0394 60.4638C44.8008 61.1314 44.4556 61.6413 44.0039 61.9936C43.5522 62.343 43.0053 62.5178 42.3633 62.5178ZM42.3633 61.5803C42.9996 61.5803 43.494 61.2734 43.8462 60.6598C44.1985 60.0462 44.3746 59.1712 44.3746 58.0348C44.3746 57.2791 44.2937 56.6357 44.1317 56.1044C43.9727 55.5732 43.7425 55.1683 43.4414 54.8899C43.1431 54.6115 42.7837 54.4723 42.3633 54.4723C41.7326 54.4723 41.2397 54.7834 40.8846 55.4055C40.5295 56.0249 40.3519 56.9013 40.3519 58.0348C40.3519 58.7905 40.4315 59.4325 40.5906 59.9609C40.7496 60.4893 40.9783 60.8913 41.2766 61.1669C41.5778 61.4425 41.94 61.5803 42.3633 61.5803ZM49.8633 62.3984H47.1701V53.6712H49.9826C50.8292 53.6712 51.5536 53.8459 52.1559 54.1953C52.7582 54.5419 53.2198 55.0405 53.5408 55.6911C53.8619 56.3388 54.0224 57.1143 54.0224 58.0178C54.0224 58.9268 53.8604 59.7095 53.5366 60.3658C53.2127 61.0192 52.7411 61.522 52.1218 61.8743C51.5025 62.2237 50.7496 62.3984 49.8633 62.3984ZM48.2269 61.4609H49.7951C50.5167 61.4609 51.1147 61.3217 51.5891 61.0433C52.0636 60.7649 52.4173 60.3686 52.6502 59.8544C52.8832 59.3402 52.9996 58.728 52.9996 58.0178C52.9996 57.3132 52.8846 56.7067 52.6545 56.1982C52.4244 55.6868 52.0806 55.2947 51.6232 55.022C51.1658 54.7464 50.5962 54.6087 49.9144 54.6087H48.2269V61.4609ZM55.7951 62.3984V53.6712H61.0621V54.6087H56.8519V57.5575H60.7894V58.495H56.8519V61.4609H61.1303V62.3984H55.7951ZM62.967 62.3984V53.6712H68.1999V54.6087H64.0238V57.5575H67.8079V58.495H64.0238V62.3984H62.967ZM70.0099 62.3984V53.6712H75.2429V54.6087H71.0668V57.5575H74.8509V58.495H71.0668V62.3984H70.0099Z" fill="#161C0F"/>
</svg>
