<svg width="100" height="70" viewBox="0 0 100 70" fill="none" xmlns="http://www.w3.org/2000/svg">
<path d="M0 8.39844C0 3.98016 3.58172 0.398438 8 0.398438H92C96.4183 0.398438 100 3.98016 100 8.39844V23.3984H0V8.39844Z" fill="#5F5F5F"/>
<path d="M0.5 8.39844C0.5 4.2563 3.85786 0.898438 8 0.898438H92C96.1421 0.898438 99.5 4.2563 99.5 8.39844V22.8984H0.5V8.39844Z" stroke="#D5D5D5" stroke-opacity="0.5"/>
<path d="M28.6761 16.3984L30.108 7.67116H30.9602L29.5284 16.3984H28.6761ZM24.7045 13.978L24.8409 13.1257H31.3523L31.2159 13.978H24.7045ZM25.608 16.3984L27.0398 7.67116H27.892L26.4602 16.3984H25.608ZM25.2159 10.9439L25.3523 10.0916H31.8636L31.7273 10.9439H25.2159ZM35.701 16.5178C35.201 16.5178 34.7507 16.4183 34.3501 16.2195C33.9496 16.0206 33.6286 15.7479 33.3871 15.4013C33.1456 15.0547 33.0135 14.6598 32.9908 14.2166H34.0135C34.0533 14.6115 34.2322 14.9382 34.5504 15.1967C34.8714 15.4524 35.255 15.5803 35.701 15.5803C36.0589 15.5803 36.3771 15.4964 36.6555 15.3288C36.9368 15.1612 37.157 14.9311 37.3161 14.6385C37.478 14.343 37.5589 14.0092 37.5589 13.6371C37.5589 13.2564 37.4751 12.9169 37.3075 12.6186C37.1428 12.3175 36.9155 12.0803 36.6257 11.907C36.3359 11.7337 36.005 11.6456 35.6328 11.6428C35.3658 11.6399 35.0916 11.6811 34.8104 11.7663C34.5291 11.8487 34.2976 11.9553 34.1158 12.0859L33.1271 11.9666L33.6555 7.67116H38.1896V8.60866H34.5419L34.2351 11.1825H34.2862C34.4652 11.0405 34.6896 10.9226 34.9595 10.8288C35.2294 10.7351 35.5107 10.6882 35.8033 10.6882C36.3374 10.6882 36.8132 10.8161 37.2308 11.0717C37.6513 11.3246 37.9808 11.6712 38.2195 12.1115C38.4609 12.5518 38.5817 13.0547 38.5817 13.62C38.5817 14.1768 38.4567 14.674 38.2067 15.1115C37.9595 15.5462 37.6186 15.8899 37.1839 16.1428C36.7493 16.3928 36.255 16.5178 35.701 16.5178ZM40.4279 16.3984V7.67116H45.6609V8.60866H41.4847V11.5575H45.2688V12.495H41.4847V16.3984H40.4279ZM50.0447 16.5178C49.5447 16.5178 49.0945 16.4183 48.6939 16.2195C48.2933 16.0206 47.9723 15.7479 47.7308 15.4013C47.4893 15.0547 47.3572 14.6598 47.3345 14.2166H48.3572C48.397 14.6115 48.576 14.9382 48.8942 15.1967C49.2152 15.4524 49.5987 15.5803 50.0447 15.5803C50.4027 15.5803 50.7209 15.4964 50.9993 15.3288C51.2805 15.1612 51.5007 14.9311 51.6598 14.6385C51.8217 14.343 51.9027 14.0092 51.9027 13.6371C51.9027 13.2564 51.8189 12.9169 51.6513 12.6186C51.4865 12.3175 51.2592 12.0803 50.9695 11.907C50.6797 11.7337 50.3487 11.6456 49.9766 11.6428C49.7095 11.6399 49.4354 11.6811 49.1541 11.7663C48.8729 11.8487 48.6413 11.9553 48.4595 12.0859L47.4709 11.9666L47.9993 7.67116H52.5334V8.60866H48.8857L48.5788 11.1825H48.63C48.8089 11.0405 49.0334 10.9226 49.3033 10.8288C49.5732 10.7351 49.8544 10.6882 50.147 10.6882C50.6811 10.6882 51.157 10.8161 51.5746 11.0717C51.995 11.3246 52.3246 11.6712 52.5632 12.1115C52.8047 12.5518 52.9254 13.0547 52.9254 13.62C52.9254 14.1768 52.8004 14.674 52.5504 15.1115C52.3033 15.5462 51.9624 15.8899 51.5277 16.1428C51.093 16.3928 50.5987 16.5178 50.0447 16.5178ZM54.7717 16.3984V7.67116H60.0046V8.60866H55.8285V11.5575H59.6126V12.495H55.8285V16.3984H54.7717ZM64.3885 16.5178C63.8885 16.5178 63.4382 16.4183 63.0376 16.2195C62.6371 16.0206 62.3161 15.7479 62.0746 15.4013C61.8331 15.0547 61.701 14.6598 61.6783 14.2166H62.701C62.7408 14.6115 62.9197 14.9382 63.2379 15.1967C63.5589 15.4524 63.9425 15.5803 64.3885 15.5803C64.7464 15.5803 65.0646 15.4964 65.343 15.3288C65.6243 15.1612 65.8445 14.9311 66.0036 14.6385C66.1655 14.343 66.2464 14.0092 66.2464 13.6371C66.2464 13.2564 66.1626 12.9169 65.995 12.6186C65.8303 12.3175 65.603 12.0803 65.3132 11.907C65.0234 11.7337 64.6925 11.6456 64.3203 11.6428C64.0533 11.6399 63.7791 11.6811 63.4979 11.7663C63.2166 11.8487 62.9851 11.9553 62.8033 12.0859L61.8146 11.9666L62.343 7.67116H66.8771V8.60866H63.2294L62.9226 11.1825H62.9737C63.1527 11.0405 63.3771 10.9226 63.647 10.8288C63.9169 10.7351 64.1982 10.6882 64.4908 10.6882C65.0249 10.6882 65.5007 10.8161 65.9183 11.0717C66.3388 11.3246 66.6683 11.6712 66.907 12.1115C67.1484 12.5518 67.2692 13.0547 67.2692 13.62C67.2692 14.1768 67.1442 14.674 66.8942 15.1115C66.647 15.5462 66.3061 15.8899 65.8714 16.1428C65.4368 16.3928 64.9425 16.5178 64.3885 16.5178ZM69.1154 16.3984V7.67116H74.3484V8.60866H70.1722V11.5575H73.9563V12.495H70.1722V16.3984H69.1154Z" fill="white"/>
<rect y="23.3984" width="100" height="23" fill="#D9DBDB"/>
<rect x="0.5" y="23.8984" width="99" height="22" stroke="#D5D5D5" stroke-opacity="0.5"/>
<path d="M25.6761 39.3984L27.108 30.6712H27.9602L26.5284 39.3984H25.6761ZM21.7045 36.978L21.8409 36.1257H28.3523L28.2159 36.978H21.7045ZM22.608 39.3984L24.0398 30.6712H24.892L23.4602 39.3984H22.608ZM22.2159 33.9439L22.3523 33.0916H28.8636L28.7273 33.9439H22.2159ZM32.8203 39.3984H30.1271V30.6712H32.9396C33.7862 30.6712 34.5107 30.8459 35.1129 31.1953C35.7152 31.5419 36.1768 32.0405 36.4979 32.6911C36.8189 33.3388 36.9794 34.1143 36.9794 35.0178C36.9794 35.9268 36.8175 36.7095 36.4936 37.3658C36.1697 38.0192 35.6982 38.522 35.0788 38.8743C34.4595 39.2237 33.7067 39.3984 32.8203 39.3984ZM31.1839 38.4609H32.7521C33.4737 38.4609 34.0717 38.3217 34.5462 38.0433C35.0206 37.7649 35.3743 37.3686 35.6072 36.8544C35.8402 36.3402 35.9567 35.728 35.9567 35.0178C35.9567 34.3132 35.8416 33.7067 35.6115 33.1982C35.3814 32.6868 35.0376 32.2947 34.5803 32.022C34.1229 31.7464 33.5533 31.6087 32.8714 31.6087H31.1839V38.4609ZM41.3771 30.5518C41.7351 30.5547 42.093 30.6229 42.451 30.7564C42.8089 30.8899 43.1357 31.1115 43.4311 31.4212C43.7266 31.728 43.9638 32.147 44.1428 32.6783C44.3217 33.2095 44.4112 33.8757 44.4112 34.6768C44.4112 35.4524 44.3374 36.1413 44.1896 36.7436C44.0447 37.343 43.8345 37.8487 43.5589 38.2607C43.2862 38.6726 42.9538 38.9851 42.5618 39.1982C42.1726 39.4112 41.7322 39.5178 41.2408 39.5178C40.7521 39.5178 40.3161 39.4212 39.9325 39.228C39.5518 39.032 39.2393 38.7607 38.995 38.4141C38.7536 38.0646 38.5987 37.6598 38.5305 37.1996H39.5703C39.6641 37.6001 39.8501 37.9311 40.1286 38.1925C40.4098 38.451 40.7805 38.5803 41.2408 38.5803C41.9141 38.5803 42.4453 38.2862 42.8345 37.6982C43.2266 37.1101 43.4226 36.2791 43.4226 35.2053H43.3544C43.1953 35.4439 43.0064 35.6499 42.7876 35.8232C42.5689 35.9964 42.326 36.13 42.0589 36.2237C41.7919 36.3175 41.5078 36.3643 41.2067 36.3643C40.7067 36.3643 40.2479 36.2408 39.8303 35.9936C39.4155 35.7436 39.0831 35.4013 38.8331 34.9666C38.5859 34.5291 38.4624 34.0291 38.4624 33.4666C38.4624 32.9325 38.5817 32.4439 38.8203 32.0007C39.0618 31.5547 39.3999 31.1996 39.8345 30.9354C40.272 30.6712 40.7862 30.5433 41.3771 30.5518ZM41.3771 31.4893C41.0192 31.4893 40.6967 31.5788 40.4098 31.7578C40.1257 31.9339 39.8999 32.1726 39.7322 32.4737C39.5675 32.772 39.4851 33.103 39.4851 33.4666C39.4851 33.8303 39.5646 34.1612 39.7237 34.4595C39.8857 34.755 40.1058 34.9908 40.3842 35.1669C40.6655 35.3402 40.9851 35.4268 41.343 35.4268C41.6129 35.4268 41.8643 35.3743 42.0973 35.2692C42.3303 35.1612 42.5334 35.0149 42.7067 34.8303C42.8828 34.6428 43.0206 34.4311 43.12 34.1953C43.2195 33.9567 43.2692 33.7081 43.2692 33.4496C43.2692 33.1087 43.1868 32.7891 43.022 32.4908C42.8601 32.1925 42.6357 31.951 42.3487 31.7663C42.0646 31.5817 41.7408 31.4893 41.3771 31.4893ZM48.9336 39.3984H46.2404V30.6712H49.0529C49.8995 30.6712 50.6239 30.8459 51.2262 31.1953C51.8285 31.5419 52.2901 32.0405 52.6112 32.6911C52.9322 33.3388 53.0927 34.1143 53.0927 35.0178C53.0927 35.9268 52.9308 36.7095 52.6069 37.3658C52.283 38.0192 51.8114 38.522 51.1921 38.8743C50.5728 39.2237 49.82 39.3984 48.9336 39.3984ZM47.2972 38.4609H48.8654C49.587 38.4609 50.185 38.3217 50.6594 38.0433C51.1339 37.7649 51.4876 37.3686 51.7205 36.8544C51.9535 36.3402 52.07 35.728 52.07 35.0178C52.07 34.3132 51.9549 33.7067 51.7248 33.1982C51.4947 32.6868 51.1509 32.2947 50.6935 32.022C50.2362 31.7464 49.6665 31.6087 48.9847 31.6087H47.2972V38.4609ZM54.8654 39.3984V30.6712H57.9165C58.5245 30.6712 59.0259 30.7763 59.4208 30.9865C59.8157 31.1939 60.1097 31.4737 60.3029 31.826C60.4961 32.1754 60.5927 32.5632 60.5927 32.9893C60.5927 33.3643 60.5259 33.674 60.3924 33.9183C60.2617 34.1626 60.0884 34.3558 59.8725 34.4979C59.6594 34.6399 59.4279 34.745 59.1779 34.8132V34.8984C59.445 34.9155 59.7134 35.0092 59.9833 35.1797C60.2532 35.3501 60.479 35.5945 60.6609 35.9126C60.8427 36.2308 60.9336 36.62 60.9336 37.0803C60.9336 37.5178 60.8342 37.9112 60.6353 38.2607C60.4364 38.6101 60.1225 38.8871 59.6935 39.0916C59.2646 39.2962 58.7063 39.3984 58.0188 39.3984H54.8654ZM55.9222 38.4609H58.0188C58.7092 38.4609 59.1992 38.3274 59.489 38.0604C59.7816 37.7905 59.9279 37.4638 59.9279 37.0803C59.9279 36.7848 59.8526 36.5121 59.7021 36.2621C59.5515 36.0092 59.337 35.8075 59.0586 35.657C58.7802 35.5036 58.4506 35.4268 58.07 35.4268H55.9222V38.4609ZM55.9222 34.5064H57.8825C58.2006 34.5064 58.4876 34.4439 58.7433 34.3189C59.0018 34.1939 59.2063 34.0178 59.3569 33.7905C59.5103 33.5632 59.587 33.2962 59.587 32.9893C59.587 32.6058 59.4535 32.2805 59.1864 32.0135C58.9194 31.7436 58.4961 31.6087 57.9165 31.6087H55.9222V34.5064ZM65.3633 39.3984H62.6701V30.6712H65.4826C66.3292 30.6712 67.0536 30.8459 67.6559 31.1953C68.2582 31.5419 68.7198 32.0405 69.0408 32.6911C69.3619 33.3388 69.5224 34.1143 69.5224 35.0178C69.5224 35.9268 69.3604 36.7095 69.0366 37.3658C68.7127 38.0192 68.2411 38.522 67.6218 38.8743C67.0025 39.2237 66.2496 39.3984 65.3633 39.3984ZM63.7269 38.4609H65.2951C66.0167 38.4609 66.6147 38.3217 67.0891 38.0433C67.5636 37.7649 67.9173 37.3686 68.1502 36.8544C68.3832 36.3402 68.4996 35.728 68.4996 35.0178C68.4996 34.3132 68.3846 33.7067 68.1545 33.1982C67.9244 32.6868 67.5806 32.2947 67.1232 32.022C66.6658 31.7464 66.0962 31.6087 65.4144 31.6087H63.7269V38.4609ZM71.2951 39.3984V30.6712H74.3462C74.9542 30.6712 75.4556 30.7763 75.8505 30.9865C76.2454 31.1939 76.5394 31.4737 76.7326 31.826C76.9258 32.1754 77.0224 32.5632 77.0224 32.9893C77.0224 33.3643 76.9556 33.674 76.8221 33.9183C76.6914 34.1626 76.5181 34.3558 76.3022 34.4979C76.0891 34.6399 75.8576 34.745 75.6076 34.8132V34.8984C75.8746 34.9155 76.1431 35.0092 76.413 35.1797C76.6829 35.3501 76.9087 35.5945 77.0906 35.9126C77.2724 36.2308 77.3633 36.62 77.3633 37.0803C77.3633 37.5178 77.2638 37.9112 77.065 38.2607C76.8661 38.6101 76.5522 38.8871 76.1232 39.0916C75.6942 39.2962 75.136 39.3984 74.4485 39.3984H71.2951ZM72.3519 38.4609H74.4485C75.1388 38.4609 75.6289 38.3274 75.9187 38.0604C76.2113 37.7905 76.3576 37.4638 76.3576 37.0803C76.3576 36.7848 76.2823 36.5121 76.1317 36.2621C75.9812 36.0092 75.7667 35.8075 75.4883 35.657C75.2099 35.5036 74.8803 35.4268 74.4996 35.4268H72.3519V38.4609ZM72.3519 34.5064H74.3121C74.6303 34.5064 74.9173 34.4439 75.1729 34.3189C75.4315 34.1939 75.636 34.0178 75.7866 33.7905C75.94 33.5632 76.0167 33.2962 76.0167 32.9893C76.0167 32.6058 75.8832 32.2805 75.6161 32.0135C75.3491 31.7436 74.9258 31.6087 74.3462 31.6087H72.3519V34.5064Z" fill="#161C0F"/>
<path d="M0 46.3984H100V61.3984C100 65.8167 96.4183 69.3984 92 69.3984H8C3.58172 69.3984 0 65.8167 0 61.3984V46.3984Z" fill="white"/>
<path d="M0.5 46.8984H99.5V61.3984C99.5 65.5406 96.1421 68.8984 92 68.8984H8C3.85786 68.8984 0.5 65.5406 0.5 61.3984V46.8984Z" stroke="black" stroke-opacity="0.04"/>
<path d="M29.1761 62.3984L30.608 53.6712H31.4602L30.0284 62.3984H29.1761ZM25.2045 59.978L25.3409 59.1257H31.8523L31.7159 59.978H25.2045ZM26.108 62.3984L27.5398 53.6712H28.392L26.9602 62.3984H26.108ZM25.7159 56.9439L25.8523 56.0916H32.3636L32.2273 56.9439H25.7159ZM33.6271 62.3984V53.6712H38.8601V54.6087H34.6839V57.5575H38.468V58.495H34.6839V62.3984H33.6271ZM40.6701 62.3984V53.6712H45.9031V54.6087H41.7269V57.5575H45.511V58.495H41.7269V62.3984H40.6701ZM47.7131 62.3984V53.6712H52.946V54.6087H48.7699V57.5575H52.554V58.495H48.7699V62.3984H47.7131ZM54.756 62.3984V53.6712H59.989V54.6087H55.8129V57.5575H59.5969V58.495H55.8129V62.3984H54.756ZM61.799 62.3984V53.6712H67.032V54.6087H62.8558V57.5575H66.6399V58.495H62.8558V62.3984H61.799ZM68.842 62.3984V53.6712H74.0749V54.6087H69.8988V57.5575H73.6829V58.495H69.8988V62.3984H68.842Z" fill="#161C0F"/>
</svg>
