<svg width="100" height="70" viewBox="0 0 100 70" fill="none" xmlns="http://www.w3.org/2000/svg">
<path d="M0 8.39844C0 3.98016 3.58172 0.398438 8 0.398438H92C96.4183 0.398438 100 3.98016 100 8.39844V23.3984H0V8.39844Z" fill="#161C0F"/>
<path d="M8 0.898438H92C96.1421 0.898438 99.5 4.2563 99.5 8.39844V22.8984H0.5V8.39844C0.5 4.2563 3.85786 0.898438 8 0.898438Z" stroke="#D5D5D5" stroke-opacity="0.5"/>
<path d="M29.1761 16.3984L30.608 7.67116H31.4602L30.0284 16.3984H29.1761ZM25.2045 13.978L25.3409 13.1257H31.8523L31.7159 13.978H25.2045ZM26.108 16.3984L27.5398 7.67116H28.392L26.9602 16.3984H26.108ZM25.7159 10.9439L25.8523 10.0916H32.3636L32.2273 10.9439H25.7159ZM36.5419 7.67116V16.3984H35.4851V8.77912H35.4339L33.3033 10.1939V9.12003L35.4851 7.67116H36.5419ZM41.9496 16.5178C41.5916 16.5121 41.2337 16.4439 40.8757 16.3132C40.5178 16.1825 40.1911 15.9624 39.8956 15.6527C39.6001 15.3402 39.3629 14.9183 39.1839 14.3871C39.005 13.853 38.9155 13.1825 38.9155 12.3757C38.9155 11.603 38.9879 10.9183 39.1328 10.3217C39.2777 9.7223 39.4879 9.21804 39.7635 8.80895C40.0391 8.39702 40.3714 8.08452 40.7607 7.87145C41.1527 7.65838 41.5945 7.55185 42.0859 7.55185C42.5746 7.55185 43.0092 7.64986 43.3899 7.84588C43.7734 8.03906 44.0859 8.30895 44.3274 8.65554C44.5689 9.00213 44.7251 9.40128 44.7962 9.85298H43.7564C43.6598 9.46094 43.4723 9.13565 43.1939 8.87713C42.9155 8.61861 42.5462 8.48935 42.0859 8.48935C41.4098 8.48935 40.8771 8.78338 40.4879 9.37145C40.1016 9.95952 39.907 10.7848 39.9041 11.8473H39.9723C40.1314 11.6058 40.3203 11.3999 40.5391 11.2294C40.7607 11.0561 41.005 10.9226 41.272 10.8288C41.5391 10.7351 41.8217 10.6882 42.12 10.6882C42.62 10.6882 43.0774 10.8132 43.4922 11.0632C43.907 11.3104 44.2393 11.6527 44.4893 12.0902C44.7393 12.5249 44.8643 13.0234 44.8643 13.5859C44.8643 14.1257 44.7436 14.62 44.5021 15.0689C44.2607 15.5149 43.9212 15.87 43.4837 16.1342C43.049 16.3956 42.5376 16.5234 41.9496 16.5178ZM41.9496 15.5803C42.3075 15.5803 42.6286 15.4908 42.9126 15.3118C43.1996 15.1328 43.4254 14.8928 43.5902 14.5916C43.7578 14.2905 43.8416 13.9553 43.8416 13.5859C43.8416 13.2251 43.7607 12.897 43.5987 12.6016C43.4396 12.3033 43.2195 12.0661 42.9382 11.8899C42.6598 11.7138 42.3416 11.6257 41.9837 11.6257C41.7138 11.6257 41.4624 11.6797 41.2294 11.7876C40.9964 11.8928 40.7919 12.0376 40.6158 12.2223C40.4425 12.407 40.3061 12.6186 40.2067 12.8572C40.1072 13.093 40.0575 13.3416 40.0575 13.603C40.0575 13.9496 40.1385 14.2734 40.3004 14.5746C40.4652 14.8757 40.6896 15.1186 40.9737 15.3033C41.2607 15.4879 41.5859 15.5803 41.9496 15.5803ZM49.6083 7.67116V16.3984H48.5515V8.77912H48.5004L46.3697 10.1939V9.12003L48.5515 7.67116H49.6083ZM59.2944 10.3984H58.2376C58.1751 10.0945 58.0657 9.82741 57.9094 9.5973C57.756 9.36719 57.5685 9.17401 57.3469 9.01776C57.1282 8.85866 56.8853 8.73935 56.6183 8.6598C56.3512 8.58026 56.0728 8.54048 55.783 8.54048C55.2546 8.54048 54.7759 8.67401 54.3469 8.94105C53.9208 9.2081 53.5813 9.60156 53.3285 10.1214C53.0785 10.6413 52.9535 11.2791 52.9535 12.0348C52.9535 12.7905 53.0785 13.4283 53.3285 13.9482C53.5813 14.468 53.9208 14.8615 54.3469 15.1286C54.7759 15.3956 55.2546 15.5291 55.783 15.5291C56.0728 15.5291 56.3512 15.4893 56.6183 15.4098C56.8853 15.3303 57.1282 15.2124 57.3469 15.0561C57.5685 14.897 57.756 14.7024 57.9094 14.4723C58.0657 14.2393 58.1751 13.9723 58.2376 13.6712H59.2944C59.2148 14.1172 59.07 14.5163 58.8597 14.8686C58.6495 15.2209 58.3881 15.5206 58.0756 15.7678C57.7631 16.0121 57.4123 16.1982 57.0231 16.326C56.6367 16.4538 56.2234 16.5178 55.783 16.5178C55.0387 16.5178 54.3768 16.3359 53.7972 15.9723C53.2177 15.6087 52.7617 15.0916 52.4293 14.4212C52.0969 13.7507 51.9308 12.9553 51.9308 12.0348C51.9308 11.1143 52.0969 10.3189 52.4293 9.64844C52.7617 8.97798 53.2177 8.46094 53.7972 8.0973C54.3768 7.73366 55.0387 7.55185 55.783 7.55185C56.2234 7.55185 56.6367 7.61577 57.0231 7.74361C57.4123 7.87145 57.7631 8.05895 58.0756 8.30611C58.3881 8.55043 58.6495 8.84872 58.8597 9.20099C59.07 9.55043 59.2148 9.94957 59.2944 10.3984ZM63.6953 16.5178C63.0533 16.5178 62.5064 16.343 62.0547 15.9936C61.603 15.6413 61.2578 15.1314 61.0192 14.4638C60.7805 13.7933 60.6612 12.9837 60.6612 12.0348C60.6612 11.0916 60.7805 10.2862 61.0192 9.61861C61.2607 8.94815 61.6072 8.43679 62.0589 8.08452C62.5135 7.7294 63.0589 7.55185 63.6953 7.55185C64.3317 7.55185 64.8757 7.7294 65.3274 8.08452C65.782 8.43679 66.1286 8.94815 66.3672 9.61861C66.6087 10.2862 66.7294 11.0916 66.7294 12.0348C66.7294 12.9837 66.6101 13.7933 66.3714 14.4638C66.1328 15.1314 65.7876 15.6413 65.3359 15.9936C64.8842 16.343 64.3374 16.5178 63.6953 16.5178ZM63.6953 15.5803C64.3317 15.5803 64.826 15.2734 65.1783 14.6598C65.5305 14.0462 65.7067 13.1712 65.7067 12.0348C65.7067 11.2791 65.6257 10.6357 65.4638 10.1044C65.3047 9.57315 65.0746 9.16832 64.7734 8.88991C64.4751 8.61151 64.1158 8.4723 63.6953 8.4723C63.0646 8.4723 62.5717 8.78338 62.2166 9.40554C61.8615 10.0249 61.6839 10.9013 61.6839 12.0348C61.6839 12.7905 61.7635 13.4325 61.9226 13.9609C62.0817 14.4893 62.3104 14.8913 62.6087 15.1669C62.9098 15.4425 63.272 15.5803 63.6953 15.5803ZM68.5021 16.3984V7.67116H73.7351V8.60866H69.5589V11.5575H73.343V12.495H69.5589V16.3984H68.5021Z" fill="white"/>
<rect y="23.3984" width="100" height="23" fill="#636C57"/>
<rect x="0.5" y="23.8984" width="99" height="22" stroke="#D5D5D5" stroke-opacity="0.5"/>
<path d="M26.6761 39.3984L28.108 30.6712H28.9602L27.5284 39.3984H26.6761ZM22.7045 36.978L22.8409 36.1257H29.3523L29.2159 36.978H22.7045ZM23.608 39.3984L25.0398 30.6712H25.892L24.4602 39.3984H23.608ZM23.2159 33.9439L23.3523 33.0916H29.8636L29.7273 33.9439H23.2159ZM31.4851 39.3984H30.3771L33.5817 30.6712H34.6726L37.8771 39.3984H36.7692L34.1612 32.0518H34.093L31.4851 39.3984ZM31.8942 35.9893H36.3601V36.9268H31.8942V35.9893ZM41.8615 30.5518C42.2195 30.5547 42.5774 30.6229 42.9354 30.7564C43.2933 30.8899 43.62 31.1115 43.9155 31.4212C44.2109 31.728 44.4482 32.147 44.6271 32.6783C44.8061 33.2095 44.8956 33.8757 44.8956 34.6768C44.8956 35.4524 44.8217 36.1413 44.674 36.7436C44.5291 37.343 44.3189 37.8487 44.0433 38.2607C43.7706 38.6726 43.4382 38.9851 43.0462 39.1982C42.657 39.4112 42.2166 39.5178 41.7251 39.5178C41.2365 39.5178 40.8004 39.4212 40.4169 39.228C40.0362 39.032 39.7237 38.7607 39.4794 38.4141C39.2379 38.0646 39.0831 37.6598 39.0149 37.1996H40.0547C40.1484 37.6001 40.3345 37.9311 40.6129 38.1925C40.8942 38.451 41.2649 38.5803 41.7251 38.5803C42.3984 38.5803 42.9297 38.2862 43.3189 37.6982C43.7109 37.1101 43.907 36.2791 43.907 35.2053H43.8388C43.6797 35.4439 43.4908 35.6499 43.272 35.8232C43.0533 35.9964 42.8104 36.13 42.5433 36.2237C42.2763 36.3175 41.9922 36.3643 41.6911 36.3643C41.1911 36.3643 40.7322 36.2408 40.3146 35.9936C39.8999 35.7436 39.5675 35.4013 39.3175 34.9666C39.0703 34.5291 38.9467 34.0291 38.9467 33.4666C38.9467 32.9325 39.0661 32.4439 39.3047 32.0007C39.5462 31.5547 39.8842 31.1996 40.3189 30.9354C40.7564 30.6712 41.2706 30.5433 41.8615 30.5518ZM41.8615 31.4893C41.5036 31.4893 41.1811 31.5788 40.8942 31.7578C40.6101 31.9339 40.3842 32.1726 40.2166 32.4737C40.0518 32.772 39.9695 33.103 39.9695 33.4666C39.9695 33.8303 40.049 34.1612 40.2081 34.4595C40.37 34.755 40.5902 34.9908 40.8686 35.1669C41.1499 35.3402 41.4695 35.4268 41.8274 35.4268C42.0973 35.4268 42.3487 35.3743 42.5817 35.2692C42.8146 35.1612 43.0178 35.0149 43.1911 34.8303C43.3672 34.6428 43.505 34.4311 43.6044 34.1953C43.7038 33.9567 43.7536 33.7081 43.7536 33.4496C43.7536 33.1087 43.6712 32.7891 43.5064 32.4908C43.3445 32.1925 43.12 31.951 42.8331 31.7663C42.549 31.5817 42.2251 31.4893 41.8615 31.4893ZM46.7248 39.3984V30.6712H49.7759C50.3839 30.6712 50.8853 30.7763 51.2802 30.9865C51.6751 31.1939 51.9691 31.4737 52.1623 31.826C52.3555 32.1754 52.4521 32.5632 52.4521 32.9893C52.4521 33.3643 52.3853 33.674 52.2518 33.9183C52.1211 34.1626 51.9478 34.3558 51.7319 34.4979C51.5188 34.6399 51.2873 34.745 51.0373 34.8132V34.8984C51.3043 34.9155 51.5728 35.0092 51.8427 35.1797C52.1126 35.3501 52.3384 35.5945 52.5202 35.9126C52.7021 36.2308 52.793 36.62 52.793 37.0803C52.793 37.5178 52.6935 37.9112 52.4947 38.2607C52.2958 38.6101 51.9819 38.8871 51.5529 39.0916C51.1239 39.2962 50.5657 39.3984 49.8782 39.3984H46.7248ZM47.7816 38.4609H49.8782C50.5685 38.4609 51.0586 38.3274 51.3484 38.0604C51.641 37.7905 51.7873 37.4638 51.7873 37.0803C51.7873 36.7848 51.712 36.5121 51.5614 36.2621C51.4109 36.0092 51.1964 35.8075 50.918 35.657C50.6396 35.5036 50.31 35.4268 49.9293 35.4268H47.7816V38.4609ZM47.7816 34.5064H49.7418C50.06 34.5064 50.3469 34.4439 50.6026 34.3189C50.8612 34.1939 51.0657 34.0178 51.2163 33.7905C51.3697 33.5632 51.4464 33.2962 51.4464 32.9893C51.4464 32.6058 51.3129 32.2805 51.0458 32.0135C50.7788 31.7436 50.3555 31.6087 49.7759 31.6087H47.7816V34.5064ZM54.3761 39.3984V38.6314L57.2567 35.478C57.5948 35.1087 57.8732 34.7876 58.092 34.5149C58.3107 34.2393 58.4727 33.9808 58.5778 33.7393C58.6857 33.495 58.7397 33.2393 58.7397 32.9723C58.7397 32.6655 58.6658 32.3999 58.5181 32.1754C58.3732 31.951 58.1744 31.7777 57.9215 31.6555C57.6687 31.5334 57.3846 31.4723 57.0692 31.4723C56.734 31.4723 56.4414 31.5419 56.1914 31.6811C55.9442 31.8175 55.7525 32.0092 55.6161 32.2564C55.4826 32.5036 55.4158 32.7933 55.4158 33.1257H54.4102C54.4102 32.6143 54.5281 32.1655 54.7638 31.7791C54.9996 31.3928 55.3207 31.0916 55.7269 30.8757C56.136 30.6598 56.5948 30.5518 57.1033 30.5518C57.6147 30.5518 58.0678 30.6598 58.4627 30.8757C58.8576 31.0916 59.1673 31.3828 59.3917 31.7493C59.6161 32.1158 59.7283 32.5234 59.7283 32.9723C59.7283 33.2933 59.6701 33.6072 59.5536 33.9141C59.44 34.218 59.2411 34.5575 58.957 34.9325C58.6758 35.3047 58.2852 35.7592 57.7852 36.2962L55.8249 38.3928V38.4609H59.8817V39.3984H54.3761ZM64.4201 30.5518C64.7781 30.5547 65.136 30.6229 65.494 30.7564C65.8519 30.8899 66.1786 31.1115 66.4741 31.4212C66.7695 31.728 67.0067 32.147 67.1857 32.6783C67.3647 33.2095 67.4542 33.8757 67.4542 34.6768C67.4542 35.4524 67.3803 36.1413 67.2326 36.7436C67.0877 37.343 66.8775 37.8487 66.6019 38.2607C66.3292 38.6726 65.9968 38.9851 65.6048 39.1982C65.2156 39.4112 64.7752 39.5178 64.2837 39.5178C63.7951 39.5178 63.359 39.4212 62.9755 39.228C62.5948 39.032 62.2823 38.7607 62.038 38.4141C61.7965 38.0646 61.6417 37.6598 61.5735 37.1996H62.6133C62.707 37.6001 62.8931 37.9311 63.1715 38.1925C63.4528 38.451 63.8235 38.5803 64.2837 38.5803C64.957 38.5803 65.4883 38.2862 65.8775 37.6982C66.2695 37.1101 66.4656 36.2791 66.4656 35.2053H66.3974C66.2383 35.4439 66.0494 35.6499 65.8306 35.8232C65.6119 35.9964 65.369 36.13 65.1019 36.2237C64.8349 36.3175 64.5508 36.3643 64.2496 36.3643C63.7496 36.3643 63.2908 36.2408 62.8732 35.9936C62.4585 35.7436 62.1261 35.4013 61.8761 34.9666C61.6289 34.5291 61.5053 34.0291 61.5053 33.4666C61.5053 32.9325 61.6246 32.4439 61.8633 32.0007C62.1048 31.5547 62.4428 31.1996 62.8775 30.9354C63.315 30.6712 63.8292 30.5433 64.4201 30.5518ZM64.4201 31.4893C64.0621 31.4893 63.7397 31.5788 63.4528 31.7578C63.1687 31.9339 62.9428 32.1726 62.7752 32.4737C62.6104 32.772 62.5281 33.103 62.5281 33.4666C62.5281 33.8303 62.6076 34.1612 62.7667 34.4595C62.9286 34.755 63.1488 34.9908 63.4272 35.1669C63.7085 35.3402 64.0281 35.4268 64.386 35.4268C64.6559 35.4268 64.9073 35.3743 65.1403 35.2692C65.3732 35.1612 65.5763 35.0149 65.7496 34.8303C65.9258 34.6428 66.0636 34.4311 66.163 34.1953C66.2624 33.9567 66.3121 33.7081 66.3121 33.4496C66.3121 33.1087 66.2298 32.7891 66.065 32.4908C65.9031 32.1925 65.6786 31.951 65.3917 31.7663C65.1076 31.5817 64.7837 31.4893 64.4201 31.4893ZM71.9766 39.3984H69.2834V30.6712H72.0959C72.9425 30.6712 73.6669 30.8459 74.2692 31.1953C74.8714 31.5419 75.3331 32.0405 75.6541 32.6911C75.9751 33.3388 76.1357 34.1143 76.1357 35.0178C76.1357 35.9268 75.9737 36.7095 75.6499 37.3658C75.326 38.0192 74.8544 38.522 74.2351 38.8743C73.6158 39.2237 72.8629 39.3984 71.9766 39.3984ZM70.3402 38.4609H71.9084C72.63 38.4609 73.228 38.3217 73.7024 38.0433C74.1768 37.7649 74.5305 37.3686 74.7635 36.8544C74.9964 36.3402 75.1129 35.728 75.1129 35.0178C75.1129 34.3132 74.9979 33.7067 74.7678 33.1982C74.5376 32.6868 74.1939 32.2947 73.7365 32.022C73.2791 31.7464 72.7095 31.6087 72.0277 31.6087H70.3402V38.4609Z" fill="white"/>
<path d="M0 46.3984H100V61.3984C100 65.8167 96.4183 69.3984 92 69.3984H8C3.58172 69.3984 0 65.8167 0 61.3984V46.3984Z" fill="#A9B39D"/>
<path d="M0.5 46.8984H99.5V61.3984C99.5 65.5406 96.1421 68.8984 92 68.8984H8C3.85786 68.8984 0.5 65.5406 0.5 61.3984V46.8984Z" stroke="#D5D5D5" stroke-opacity="0.5"/>
<path d="M26.6761 62.3984L28.108 53.6712H28.9602L27.5284 62.3984H26.6761ZM22.7045 59.978L22.8409 59.1257H29.3523L29.2159 59.978H22.7045ZM23.608 62.3984L25.0398 53.6712H25.892L24.4602 62.3984H23.608ZM23.2159 56.9439L23.3523 56.0916H29.8636L29.7273 56.9439H23.2159ZM31.4851 62.3984H30.3771L33.5817 53.6712H34.6726L37.8771 62.3984H36.7692L34.1612 55.0518H34.093L31.4851 62.3984ZM31.8942 58.9893H36.3601V59.9268H31.8942V58.9893ZM41.8615 53.5518C42.2195 53.5547 42.5774 53.6229 42.9354 53.7564C43.2933 53.8899 43.62 54.1115 43.9155 54.4212C44.2109 54.728 44.4482 55.147 44.6271 55.6783C44.8061 56.2095 44.8956 56.8757 44.8956 57.6768C44.8956 58.4524 44.8217 59.1413 44.674 59.7436C44.5291 60.343 44.3189 60.8487 44.0433 61.2607C43.7706 61.6726 43.4382 61.9851 43.0462 62.1982C42.657 62.4112 42.2166 62.5178 41.7251 62.5178C41.2365 62.5178 40.8004 62.4212 40.4169 62.228C40.0362 62.032 39.7237 61.7607 39.4794 61.4141C39.2379 61.0646 39.0831 60.6598 39.0149 60.1996H40.0547C40.1484 60.6001 40.3345 60.9311 40.6129 61.1925C40.8942 61.451 41.2649 61.5803 41.7251 61.5803C42.3984 61.5803 42.9297 61.2862 43.3189 60.6982C43.7109 60.1101 43.907 59.2791 43.907 58.2053H43.8388C43.6797 58.4439 43.4908 58.6499 43.272 58.8232C43.0533 58.9964 42.8104 59.13 42.5433 59.2237C42.2763 59.3175 41.9922 59.3643 41.6911 59.3643C41.1911 59.3643 40.7322 59.2408 40.3146 58.9936C39.8999 58.7436 39.5675 58.4013 39.3175 57.9666C39.0703 57.5291 38.9467 57.0291 38.9467 56.4666C38.9467 55.9325 39.0661 55.4439 39.3047 55.0007C39.5462 54.5547 39.8842 54.1996 40.3189 53.9354C40.7564 53.6712 41.2706 53.5433 41.8615 53.5518ZM41.8615 54.4893C41.5036 54.4893 41.1811 54.5788 40.8942 54.7578C40.6101 54.9339 40.3842 55.1726 40.2166 55.4737C40.0518 55.772 39.9695 56.103 39.9695 56.4666C39.9695 56.8303 40.049 57.1612 40.2081 57.4595C40.37 57.755 40.5902 57.9908 40.8686 58.1669C41.1499 58.3402 41.4695 58.4268 41.8274 58.4268C42.0973 58.4268 42.3487 58.3743 42.5817 58.2692C42.8146 58.1612 43.0178 58.0149 43.1911 57.8303C43.3672 57.6428 43.505 57.4311 43.6044 57.1953C43.7038 56.9567 43.7536 56.7081 43.7536 56.4496C43.7536 56.1087 43.6712 55.7891 43.5064 55.4908C43.3445 55.1925 43.12 54.951 42.8331 54.7663C42.549 54.5817 42.2251 54.4893 41.8615 54.4893ZM46.7248 62.3984V53.6712H49.7759C50.3839 53.6712 50.8853 53.7763 51.2802 53.9865C51.6751 54.1939 51.9691 54.4737 52.1623 54.826C52.3555 55.1754 52.4521 55.5632 52.4521 55.9893C52.4521 56.3643 52.3853 56.674 52.2518 56.9183C52.1211 57.1626 51.9478 57.3558 51.7319 57.4979C51.5188 57.6399 51.2873 57.745 51.0373 57.8132V57.8984C51.3043 57.9155 51.5728 58.0092 51.8427 58.1797C52.1126 58.3501 52.3384 58.5945 52.5202 58.9126C52.7021 59.2308 52.793 59.62 52.793 60.0803C52.793 60.5178 52.6935 60.9112 52.4947 61.2607C52.2958 61.6101 51.9819 61.8871 51.5529 62.0916C51.1239 62.2962 50.5657 62.3984 49.8782 62.3984H46.7248ZM47.7816 61.4609H49.8782C50.5685 61.4609 51.0586 61.3274 51.3484 61.0604C51.641 60.7905 51.7873 60.4638 51.7873 60.0803C51.7873 59.7848 51.712 59.5121 51.5614 59.2621C51.4109 59.0092 51.1964 58.8075 50.918 58.657C50.6396 58.5036 50.31 58.4268 49.9293 58.4268H47.7816V61.4609ZM47.7816 57.5064H49.7418C50.06 57.5064 50.3469 57.4439 50.6026 57.3189C50.8612 57.1939 51.0657 57.0178 51.2163 56.7905C51.3697 56.5632 51.4464 56.2962 51.4464 55.9893C51.4464 55.6058 51.3129 55.2805 51.0458 55.0135C50.7788 54.7436 50.3555 54.6087 49.7759 54.6087H47.7816V57.5064ZM54.3761 62.3984V61.6314L57.2567 58.478C57.5948 58.1087 57.8732 57.7876 58.092 57.5149C58.3107 57.2393 58.4727 56.9808 58.5778 56.7393C58.6857 56.495 58.7397 56.2393 58.7397 55.9723C58.7397 55.6655 58.6658 55.3999 58.5181 55.1754C58.3732 54.951 58.1744 54.7777 57.9215 54.6555C57.6687 54.5334 57.3846 54.4723 57.0692 54.4723C56.734 54.4723 56.4414 54.5419 56.1914 54.6811C55.9442 54.8175 55.7525 55.0092 55.6161 55.2564C55.4826 55.5036 55.4158 55.7933 55.4158 56.1257H54.4102C54.4102 55.6143 54.5281 55.1655 54.7638 54.7791C54.9996 54.3928 55.3207 54.0916 55.7269 53.8757C56.136 53.6598 56.5948 53.5518 57.1033 53.5518C57.6147 53.5518 58.0678 53.6598 58.4627 53.8757C58.8576 54.0916 59.1673 54.3828 59.3917 54.7493C59.6161 55.1158 59.7283 55.5234 59.7283 55.9723C59.7283 56.2933 59.6701 56.6072 59.5536 56.9141C59.44 57.218 59.2411 57.5575 58.957 57.9325C58.6758 58.3047 58.2852 58.7592 57.7852 59.2962L55.8249 61.3928V61.4609H59.8817V62.3984H54.3761ZM64.4201 53.5518C64.7781 53.5547 65.136 53.6229 65.494 53.7564C65.8519 53.8899 66.1786 54.1115 66.4741 54.4212C66.7695 54.728 67.0067 55.147 67.1857 55.6783C67.3647 56.2095 67.4542 56.8757 67.4542 57.6768C67.4542 58.4524 67.3803 59.1413 67.2326 59.7436C67.0877 60.343 66.8775 60.8487 66.6019 61.2607C66.3292 61.6726 65.9968 61.9851 65.6048 62.1982C65.2156 62.4112 64.7752 62.5178 64.2837 62.5178C63.7951 62.5178 63.359 62.4212 62.9755 62.228C62.5948 62.032 62.2823 61.7607 62.038 61.4141C61.7965 61.0646 61.6417 60.6598 61.5735 60.1996H62.6133C62.707 60.6001 62.8931 60.9311 63.1715 61.1925C63.4528 61.451 63.8235 61.5803 64.2837 61.5803C64.957 61.5803 65.4883 61.2862 65.8775 60.6982C66.2695 60.1101 66.4656 59.2791 66.4656 58.2053H66.3974C66.2383 58.4439 66.0494 58.6499 65.8306 58.8232C65.6119 58.9964 65.369 59.13 65.1019 59.2237C64.8349 59.3175 64.5508 59.3643 64.2496 59.3643C63.7496 59.3643 63.2908 59.2408 62.8732 58.9936C62.4585 58.7436 62.1261 58.4013 61.8761 57.9666C61.6289 57.5291 61.5053 57.0291 61.5053 56.4666C61.5053 55.9325 61.6246 55.4439 61.8633 55.0007C62.1048 54.5547 62.4428 54.1996 62.8775 53.9354C63.315 53.6712 63.8292 53.5433 64.4201 53.5518ZM64.4201 54.4893C64.0621 54.4893 63.7397 54.5788 63.4528 54.7578C63.1687 54.9339 62.9428 55.1726 62.7752 55.4737C62.6104 55.772 62.5281 56.103 62.5281 56.4666C62.5281 56.8303 62.6076 57.1612 62.7667 57.4595C62.9286 57.755 63.1488 57.9908 63.4272 58.1669C63.7085 58.3402 64.0281 58.4268 64.386 58.4268C64.6559 58.4268 64.9073 58.3743 65.1403 58.2692C65.3732 58.1612 65.5763 58.0149 65.7496 57.8303C65.9258 57.6428 66.0636 57.4311 66.163 57.1953C66.2624 56.9567 66.3121 56.7081 66.3121 56.4496C66.3121 56.1087 66.2298 55.7891 66.065 55.4908C65.9031 55.1925 65.6786 54.951 65.3917 54.7663C65.1076 54.5817 64.7837 54.4893 64.4201 54.4893ZM71.9766 62.3984H69.2834V53.6712H72.0959C72.9425 53.6712 73.6669 53.8459 74.2692 54.1953C74.8714 54.5419 75.3331 55.0405 75.6541 55.6911C75.9751 56.3388 76.1357 57.1143 76.1357 58.0178C76.1357 58.9268 75.9737 59.7095 75.6499 60.3658C75.326 61.0192 74.8544 61.522 74.2351 61.8743C73.6158 62.2237 72.8629 62.3984 71.9766 62.3984ZM70.3402 61.4609H71.9084C72.63 61.4609 73.228 61.3217 73.7024 61.0433C74.1768 60.7649 74.5305 60.3686 74.7635 59.8544C74.9964 59.3402 75.1129 58.728 75.1129 58.0178C75.1129 57.3132 74.9979 56.7067 74.7678 56.1982C74.5376 55.6868 74.1939 55.2947 73.7365 55.022C73.2791 54.7464 72.7095 54.6087 72.0277 54.6087H70.3402V61.4609Z" fill="white"/>
</svg>
