<svg width="100" height="70" viewBox="0 0 100 70" fill="none" xmlns="http://www.w3.org/2000/svg">
<path d="M0 8.39844C0 3.98016 3.58172 0.398438 8 0.398438H92C96.4183 0.398438 100 3.98016 100 8.39844V23.3984H0V8.39844Z" fill="#15171F"/>
<path d="M0.5 8.39844C0.5 4.2563 3.85786 0.898438 8 0.898438H92C96.1421 0.898438 99.5 4.2563 99.5 8.39844V22.8984H0.5V8.39844Z" stroke="#D5D5D5" stroke-opacity="0.5"/>
<path d="M31.1761 16.3984L32.608 7.67116H33.4602L32.0284 16.3984H31.1761ZM27.2045 13.978L27.3409 13.1257H33.8523L33.7159 13.978H27.2045ZM28.108 16.3984L29.5398 7.67116H30.392L28.9602 16.3984H28.108ZM27.7159 10.9439L27.8523 10.0916H34.3636L34.2273 10.9439H27.7159ZM38.5419 7.67116V16.3984H37.4851V8.77912H37.4339L35.3033 10.1939V9.12003L37.4851 7.67116H38.5419ZM43.7791 16.5178C43.2791 16.5178 42.8288 16.4183 42.4283 16.2195C42.0277 16.0206 41.7067 15.7479 41.4652 15.4013C41.2237 15.0547 41.0916 14.6598 41.0689 14.2166H42.0916C42.1314 14.6115 42.3104 14.9382 42.6286 15.1967C42.9496 15.4524 43.3331 15.5803 43.7791 15.5803C44.1371 15.5803 44.4553 15.4964 44.7337 15.3288C45.0149 15.1612 45.2351 14.9311 45.3942 14.6385C45.5561 14.343 45.6371 14.0092 45.6371 13.6371C45.6371 13.2564 45.5533 12.9169 45.3857 12.6186C45.2209 12.3175 44.9936 12.0803 44.7038 11.907C44.4141 11.7337 44.0831 11.6456 43.7109 11.6428C43.4439 11.6399 43.1697 11.6811 42.8885 11.7663C42.6072 11.8487 42.3757 11.9553 42.1939 12.0859L41.2053 11.9666L41.7337 7.67116H46.2678V8.60866H42.62L42.3132 11.1825H42.3643C42.5433 11.0405 42.7678 10.9226 43.0376 10.8288C43.3075 10.7351 43.5888 10.6882 43.8814 10.6882C44.4155 10.6882 44.8913 10.8161 45.3089 11.0717C45.7294 11.3246 46.0589 11.6712 46.2976 12.1115C46.5391 12.5518 46.6598 13.0547 46.6598 13.62C46.6598 14.1768 46.5348 14.674 46.2848 15.1115C46.0376 15.5462 45.6967 15.8899 45.2621 16.1428C44.8274 16.3928 44.3331 16.5178 43.7791 16.5178ZM51.4208 7.67116V16.3984H50.364V8.77912H50.3129L48.1822 10.1939V9.12003L50.364 7.67116H51.4208ZM54.2035 16.3984L58.1069 8.67685V8.60866H53.6069V7.67116H59.1978V8.6598L55.3114 16.3984H54.2035ZM63.8544 7.67116V16.3984H62.7976V8.77912H62.7464L60.6158 10.1939V9.12003L62.7976 7.67116H63.8544ZM66.5178 16.3984V7.67116H71.7507V8.60866H67.5746V11.5575H71.3587V12.495H67.5746V16.3984H66.5178Z" fill="white"/>
<rect y="23.3984" width="100" height="23" fill="#242734"/>
<rect x="0.5" y="23.8984" width="99" height="22" stroke="#D5D5D5" stroke-opacity="0.5"/>
<path d="M28.1761 39.3984L29.608 30.6712H30.4602L29.0284 39.3984H28.1761ZM24.2045 36.978L24.3409 36.1257H30.8523L30.7159 36.978H24.2045ZM25.108 39.3984L26.5398 30.6712H27.392L25.9602 39.3984H25.108ZM24.7159 33.9439L24.8523 33.0916H31.3636L31.2273 33.9439H24.7159ZM32.4737 39.3984V38.6314L35.3544 35.478C35.6925 35.1087 35.9709 34.7876 36.1896 34.5149C36.4084 34.2393 36.5703 33.9808 36.6754 33.7393C36.7834 33.495 36.8374 33.2393 36.8374 32.9723C36.8374 32.6655 36.7635 32.3999 36.6158 32.1754C36.4709 31.951 36.272 31.7777 36.0192 31.6555C35.7663 31.5334 35.4822 31.4723 35.1669 31.4723C34.8317 31.4723 34.5391 31.5419 34.2891 31.6811C34.0419 31.8175 33.8501 32.0092 33.7138 32.2564C33.5803 32.5036 33.5135 32.7933 33.5135 33.1257H32.5078C32.5078 32.6143 32.6257 32.1655 32.8615 31.7791C33.0973 31.3928 33.4183 31.0916 33.8246 30.8757C34.2337 30.6598 34.6925 30.5518 35.201 30.5518C35.7124 30.5518 36.1655 30.6598 36.5604 30.8757C36.9553 31.0916 37.2649 31.3828 37.4893 31.7493C37.7138 32.1158 37.826 32.5234 37.826 32.9723C37.826 33.2933 37.7678 33.6072 37.6513 33.9141C37.5376 34.218 37.3388 34.5575 37.0547 34.9325C36.7734 35.3047 36.3828 35.7592 35.8828 36.2962L33.9226 38.3928V38.4609H37.9794V39.3984H32.4737ZM39.3473 37.6087V36.7393L43.1825 30.6712H43.8132V32.0178H43.3871L40.4893 36.603V36.6712H45.6541V37.6087H39.3473ZM43.4553 39.3984V37.3445V36.9396V30.6712H44.4609V39.3984H43.4553ZM47.2511 39.3984V38.6314L50.1317 35.478C50.4698 35.1087 50.7482 34.7876 50.967 34.5149C51.1857 34.2393 51.3477 33.9808 51.4528 33.7393C51.5607 33.495 51.6147 33.2393 51.6147 32.9723C51.6147 32.6655 51.5408 32.3999 51.3931 32.1754C51.2482 31.951 51.0494 31.7777 50.7965 31.6555C50.5437 31.5334 50.2596 31.4723 49.9442 31.4723C49.609 31.4723 49.3164 31.5419 49.0664 31.6811C48.8192 31.8175 48.6275 32.0092 48.4911 32.2564C48.3576 32.5036 48.2908 32.7933 48.2908 33.1257H47.2852C47.2852 32.6143 47.4031 32.1655 47.6388 31.7791C47.8746 31.3928 48.1957 31.0916 48.6019 30.8757C49.011 30.6598 49.4698 30.5518 49.9783 30.5518C50.4897 30.5518 50.9428 30.6598 51.3377 30.8757C51.7326 31.0916 52.0423 31.3828 52.2667 31.7493C52.4911 32.1158 52.6033 32.5234 52.6033 32.9723C52.6033 33.2933 52.5451 33.6072 52.4286 33.9141C52.315 34.218 52.1161 34.5575 51.832 34.9325C51.5508 35.3047 51.1602 35.7592 50.6602 36.2962L48.6999 38.3928V38.4609H52.7567V39.3984H47.2511ZM54.7894 39.3984L58.6928 31.6768V31.6087H54.1928V30.6712H59.7837V31.6598L55.8974 39.3984H54.7894ZM64.1218 39.5178C63.5593 39.5178 63.0579 39.4212 62.6175 39.228C62.18 39.0348 61.832 38.7663 61.5735 38.4226C61.3178 38.076 61.1786 37.674 61.1559 37.2166H62.2298C62.2525 37.4979 62.3491 37.7408 62.5195 37.9453C62.69 38.147 62.913 38.3033 63.1886 38.4141C63.4641 38.5249 63.7695 38.5803 64.1048 38.5803C64.4798 38.5803 64.8121 38.5149 65.1019 38.3842C65.3917 38.2536 65.619 38.0717 65.7837 37.8388C65.9485 37.6058 66.0309 37.3359 66.0309 37.0291C66.0309 36.7081 65.9513 36.4254 65.7923 36.1811C65.6332 35.9339 65.4002 35.7408 65.0934 35.6016C64.7866 35.4624 64.4116 35.3928 63.9684 35.3928H63.2695V34.4553H63.9684C64.315 34.4553 64.619 34.3928 64.8803 34.2678C65.1445 34.1428 65.3505 33.9666 65.4982 33.7393C65.6488 33.5121 65.7241 33.245 65.7241 32.9382C65.7241 32.6428 65.6587 32.3857 65.5281 32.1669C65.3974 31.9482 65.2127 31.7777 64.9741 31.6555C64.7383 31.5334 64.4599 31.4723 64.1388 31.4723C63.8377 31.4723 63.5536 31.5277 63.2866 31.6385C63.0224 31.7464 62.8065 31.9041 62.6388 32.1115C62.4712 32.3161 62.3803 32.5632 62.3661 32.853H61.3434C61.3604 32.3956 61.4982 31.995 61.7567 31.6513C62.0153 31.3047 62.3533 31.0348 62.771 30.8416C63.1914 30.6484 63.6531 30.5518 64.1559 30.5518C64.6957 30.5518 65.1587 30.6612 65.5451 30.88C65.9315 31.0959 66.2283 31.3814 66.4357 31.7365C66.6431 32.0916 66.7468 32.4751 66.7468 32.8871C66.7468 33.3786 66.6175 33.7976 66.359 34.1442C66.1033 34.4908 65.7553 34.7308 65.315 34.8643V34.9325C65.8661 35.0234 66.2965 35.2578 66.6062 35.6357C66.9158 36.0107 67.0707 36.4751 67.0707 37.0291C67.0707 37.5036 66.9414 37.9297 66.6829 38.3075C66.4272 38.6825 66.0778 38.978 65.6346 39.1939C65.1914 39.4098 64.6871 39.5178 64.1218 39.5178ZM68.609 37.6087V36.7393L72.4442 30.6712H73.0749V32.0178H72.6488L69.7511 36.603V36.6712H74.9158V37.6087H68.609ZM72.717 39.3984V37.3445V36.9396V30.6712H73.7227V39.3984H72.717Z" fill="white"/>
<path d="M0 46.3984H100V61.3984C100 65.8167 96.4183 69.3984 92 69.3984H8C3.58172 69.3984 0 65.8167 0 61.3984V46.3984Z" fill="#DADFF9"/>
<path d="M0.5 46.8984H99.5V61.3984C99.5 65.5406 96.1421 68.8984 92 68.8984H8C3.85786 68.8984 0.5 65.5406 0.5 61.3984V46.8984Z" stroke="black" stroke-opacity="0.04"/>
<path d="M26.6761 62.3984L28.108 53.6712H28.9602L27.5284 62.3984H26.6761ZM22.7045 59.978L22.8409 59.1257H29.3523L29.2159 59.978H22.7045ZM23.608 62.3984L25.0398 53.6712H25.892L24.4602 62.3984H23.608ZM23.2159 56.9439L23.3523 56.0916H29.8636L29.7273 56.9439H23.2159ZM33.8203 62.3984H31.1271V53.6712H33.9396C34.7862 53.6712 35.5107 53.8459 36.1129 54.1953C36.7152 54.5419 37.1768 55.0405 37.4979 55.6911C37.8189 56.3388 37.9794 57.1143 37.9794 58.0178C37.9794 58.9268 37.8175 59.7095 37.4936 60.3658C37.1697 61.0192 36.6982 61.522 36.0788 61.8743C35.4595 62.2237 34.7067 62.3984 33.8203 62.3984ZM32.1839 61.4609H33.7521C34.4737 61.4609 35.0717 61.3217 35.5462 61.0433C36.0206 60.7649 36.3743 60.3686 36.6072 59.8544C36.8402 59.3402 36.9567 58.728 36.9567 58.0178C36.9567 57.3132 36.8416 56.7067 36.6115 56.1982C36.3814 55.6868 36.0376 55.2947 35.5803 55.022C35.1229 54.7464 34.5533 54.6087 33.8714 54.6087H32.1839V61.4609ZM39.6999 62.3984H38.592L41.7965 53.6712H42.8874L46.092 62.3984H44.984L42.3761 55.0518H42.3079L39.6999 62.3984ZM40.109 58.9893H44.5749V59.9268H40.109V58.9893ZM50.1445 62.3984H47.4513V53.6712H50.2638C51.1104 53.6712 51.8349 53.8459 52.4371 54.1953C53.0394 54.5419 53.5011 55.0405 53.8221 55.6911C54.1431 56.3388 54.3036 57.1143 54.3036 58.0178C54.3036 58.9268 54.1417 59.7095 53.8178 60.3658C53.494 61.0192 53.0224 61.522 52.4031 61.8743C51.7837 62.2237 51.0309 62.3984 50.1445 62.3984ZM48.5082 61.4609H50.0763C50.7979 61.4609 51.396 61.3217 51.8704 61.0433C52.3448 60.7649 52.6985 60.3686 52.9315 59.8544C53.1644 59.3402 53.2809 58.728 53.2809 58.0178C53.2809 57.3132 53.1658 56.7067 52.9357 56.1982C52.7056 55.6868 52.3619 55.2947 51.9045 55.022C51.4471 54.7464 50.8775 54.6087 50.1957 54.6087H48.5082V61.4609ZM56.0763 62.3984V53.6712H61.3093V54.6087H57.1332V57.5575H60.9173V58.495H57.1332V62.3984H56.0763ZM63.1193 62.3984V53.6712H68.3523V54.6087H64.1761V57.5575H67.9602V58.495H64.1761V62.3984H63.1193ZM72.7873 53.5518C73.1452 53.5547 73.5032 53.6229 73.8612 53.7564C74.2191 53.8899 74.5458 54.1115 74.8413 54.4212C75.1367 54.728 75.3739 55.147 75.5529 55.6783C75.7319 56.2095 75.8214 56.8757 75.8214 57.6768C75.8214 58.4524 75.7475 59.1413 75.5998 59.7436C75.4549 60.343 75.2447 60.8487 74.9691 61.2607C74.6964 61.6726 74.364 61.9851 73.9719 62.1982C73.5827 62.4112 73.1424 62.5178 72.6509 62.5178C72.1623 62.5178 71.7262 62.4212 71.3427 62.228C70.962 62.032 70.6495 61.7607 70.4052 61.4141C70.1637 61.0646 70.0089 60.6598 69.9407 60.1996H70.9805C71.0742 60.6001 71.2603 60.9311 71.5387 61.1925C71.82 61.451 72.1907 61.5803 72.6509 61.5803C73.3242 61.5803 73.8555 61.2862 74.2447 60.6982C74.6367 60.1101 74.8327 59.2791 74.8327 58.2053H74.7646C74.6055 58.4439 74.4165 58.6499 74.1978 58.8232C73.979 58.9964 73.7362 59.13 73.4691 59.2237C73.2021 59.3175 72.918 59.3643 72.6168 59.3643C72.1168 59.3643 71.658 59.2408 71.2404 58.9936C70.8256 58.7436 70.4933 58.4013 70.2433 57.9666C69.9961 57.5291 69.8725 57.0291 69.8725 56.4666C69.8725 55.9325 69.9918 55.4439 70.2305 55.0007C70.4719 54.5547 70.81 54.1996 71.2447 53.9354C71.6822 53.6712 72.1964 53.5433 72.7873 53.5518ZM72.7873 54.4893C72.4293 54.4893 72.1069 54.5788 71.82 54.7578C71.5359 54.9339 71.31 55.1726 71.1424 55.4737C70.9776 55.772 70.8952 56.103 70.8952 56.4666C70.8952 56.8303 70.9748 57.1612 71.1339 57.4595C71.2958 57.755 71.516 57.9908 71.7944 58.1669C72.0756 58.3402 72.3952 58.4268 72.7532 58.4268C73.0231 58.4268 73.2745 58.3743 73.5075 58.2692C73.7404 58.1612 73.9435 58.0149 74.1168 57.8303C74.293 57.6428 74.4308 57.4311 74.5302 57.1953C74.6296 56.9567 74.6793 56.7081 74.6793 56.4496C74.6793 56.1087 74.5969 55.7891 74.4322 55.4908C74.2702 55.1925 74.0458 54.951 73.7589 54.7663C73.4748 54.5817 73.1509 54.4893 72.7873 54.4893Z" fill="#161C0F"/>
</svg>
