<svg width="100" height="70" viewBox="0 0 100 70" fill="none" xmlns="http://www.w3.org/2000/svg">
<path d="M0 8.39844C0 3.98016 3.58172 0.398438 8 0.398438H92C96.4183 0.398438 100 3.98016 100 8.39844V23.3984H0V8.39844Z" fill="#183B80"/>
<path d="M0.5 8.39844C0.5 4.2563 3.85786 0.898438 8 0.898438H92C96.1421 0.898438 99.5 4.2563 99.5 8.39844V22.8984H0.5V8.39844Z" stroke="black" stroke-opacity="0.04"/>
<path d="M28.6761 16.3984L30.108 7.67116H30.9602L29.5284 16.3984H28.6761ZM24.7045 13.978L24.8409 13.1257H31.3523L31.2159 13.978H24.7045ZM25.608 16.3984L27.0398 7.67116H27.892L26.4602 16.3984H25.608ZM25.2159 10.9439L25.3523 10.0916H31.8636L31.7273 10.9439H25.2159ZM36.0419 7.67116V16.3984H34.9851V8.77912H34.9339L32.8033 10.1939V9.12003L34.9851 7.67116H36.0419ZM41.3473 16.5178C40.7621 16.5178 40.245 16.4141 39.7962 16.2067C39.3501 15.9964 39.0021 15.7081 38.7521 15.3416C38.5021 14.9723 38.3786 14.5518 38.3814 14.0803C38.3786 13.7109 38.451 13.37 38.5987 13.0575C38.7464 12.7422 38.9482 12.4794 39.2038 12.2692C39.4624 12.0561 39.7507 11.9212 40.0689 11.8643V11.8132C39.6513 11.7053 39.3189 11.4709 39.0717 11.1101C38.8246 10.7464 38.7024 10.3331 38.7053 9.87003C38.7024 9.42685 38.8146 9.03054 39.0419 8.68111C39.2692 8.33168 39.5817 8.05611 39.9794 7.8544C40.38 7.6527 40.8359 7.55185 41.3473 7.55185C41.853 7.55185 42.3047 7.6527 42.7024 7.8544C43.1001 8.05611 43.4126 8.33168 43.6399 8.68111C43.87 9.03054 43.9865 9.42685 43.9893 9.87003C43.9865 10.3331 43.8601 10.7464 43.6101 11.1101C43.3629 11.4709 43.0348 11.7053 42.6257 11.8132V11.8643C42.9411 11.9212 43.2251 12.0561 43.478 12.2692C43.7308 12.4794 43.9325 12.7422 44.0831 13.0575C44.2337 13.37 44.3104 13.7109 44.3132 14.0803C44.3104 14.5518 44.1825 14.9723 43.9297 15.3416C43.6797 15.7081 43.3317 15.9964 42.8857 16.2067C42.4425 16.4141 41.9297 16.5178 41.3473 16.5178ZM41.3473 15.5803C41.7422 15.5803 42.0831 15.5163 42.37 15.3885C42.657 15.2607 42.8786 15.0803 43.0348 14.8473C43.1911 14.6143 43.2706 14.3416 43.2734 14.0291C43.2706 13.6996 43.1854 13.4084 43.0178 13.1555C42.8501 12.9027 42.6214 12.7038 42.3317 12.5589C42.0447 12.4141 41.7166 12.3416 41.3473 12.3416C40.9751 12.3416 40.6428 12.4141 40.3501 12.5589C40.0604 12.7038 39.8317 12.9027 39.6641 13.1555C39.4993 13.4084 39.4183 13.6996 39.4212 14.0291C39.4183 14.3416 39.4936 14.6143 39.647 14.8473C39.8033 15.0803 40.0263 15.2607 40.3161 15.3885C40.6058 15.5163 40.9496 15.5803 41.3473 15.5803ZM41.3473 11.4382C41.6598 11.4382 41.9368 11.3757 42.1783 11.2507C42.4226 11.1257 42.6143 10.951 42.7536 10.7266C42.8928 10.5021 42.9638 10.2393 42.9666 9.93821C42.9638 9.64276 42.8942 9.38565 42.7578 9.1669C42.6214 8.94531 42.4325 8.77486 42.1911 8.65554C41.9496 8.53338 41.6683 8.4723 41.3473 8.4723C41.0206 8.4723 40.7351 8.53338 40.4908 8.65554C40.2464 8.77486 40.0575 8.94531 39.924 9.1669C39.7905 9.38565 39.7251 9.64276 39.728 9.93821C39.7251 10.2393 39.7919 10.5021 39.9283 10.7266C40.0675 10.951 40.2592 11.1257 40.5036 11.2507C40.7479 11.3757 41.0291 11.4382 41.3473 11.4382ZM48.8952 16.5178C48.3327 16.5178 47.8313 16.4212 47.391 16.228C46.9535 16.0348 46.6055 15.7663 46.3469 15.4226C46.0913 15.076 45.9521 14.674 45.9293 14.2166H47.0032C47.0259 14.4979 47.1225 14.7408 47.293 14.9453C47.4634 15.147 47.6864 15.3033 47.962 15.4141C48.2376 15.5249 48.543 15.5803 48.8782 15.5803C49.2532 15.5803 49.5856 15.5149 49.8754 15.3842C50.1651 15.2536 50.3924 15.0717 50.5572 14.8388C50.7219 14.6058 50.8043 14.3359 50.8043 14.0291C50.8043 13.7081 50.7248 13.4254 50.5657 13.1811C50.4066 12.9339 50.1737 12.7408 49.8668 12.6016C49.56 12.4624 49.185 12.3928 48.7418 12.3928H48.043V11.4553H48.7418C49.0884 11.4553 49.3924 11.3928 49.6538 11.2678C49.918 11.1428 50.1239 10.9666 50.2717 10.7393C50.4222 10.5121 50.4975 10.245 50.4975 9.93821C50.4975 9.64276 50.4322 9.38565 50.3015 9.1669C50.1708 8.94815 49.9862 8.7777 49.7475 8.65554C49.5117 8.53338 49.2333 8.4723 48.9123 8.4723C48.6112 8.4723 48.3271 8.5277 48.06 8.63849C47.7958 8.74645 47.5799 8.90412 47.4123 9.11151C47.2447 9.31605 47.1538 9.56321 47.1396 9.85298H46.1168C46.1339 9.3956 46.2717 8.99503 46.5302 8.65128C46.7887 8.30469 47.1268 8.0348 47.5444 7.84162C47.9648 7.64844 48.4265 7.55185 48.9293 7.55185C49.4691 7.55185 49.9322 7.66122 50.3185 7.87997C50.7049 8.09588 51.0018 8.38139 51.2092 8.73651C51.4165 9.09162 51.5202 9.47514 51.5202 9.88707C51.5202 10.3786 51.391 10.7976 51.1325 11.1442C50.8768 11.4908 50.5288 11.7308 50.0884 11.8643V11.9325C50.6396 12.0234 51.07 12.2578 51.3796 12.6357C51.6893 13.0107 51.8441 13.4751 51.8441 14.0291C51.8441 14.5036 51.7148 14.9297 51.4563 15.3075C51.2006 15.6825 50.8512 15.978 50.408 16.1939C49.9648 16.4098 49.4606 16.5178 48.8952 16.5178ZM53.7404 16.3984V7.67116H56.7915C57.3995 7.67116 57.9009 7.77628 58.2958 7.98651C58.6907 8.19389 58.9847 8.47372 59.1779 8.82599C59.3711 9.17543 59.4677 9.56321 59.4677 9.98935C59.4677 10.3643 59.4009 10.674 59.2674 10.9183C59.1367 11.1626 58.9634 11.3558 58.7475 11.4979C58.5344 11.6399 58.3029 11.745 58.0529 11.8132V11.8984C58.32 11.9155 58.5884 12.0092 58.8583 12.1797C59.1282 12.3501 59.354 12.5945 59.5359 12.9126C59.7177 13.2308 59.8086 13.62 59.8086 14.0803C59.8086 14.5178 59.7092 14.9112 59.5103 15.2607C59.3114 15.6101 58.9975 15.8871 58.5685 16.0916C58.1396 16.2962 57.5813 16.3984 56.8938 16.3984H53.7404ZM54.7972 15.4609H56.8938C57.5842 15.4609 58.0742 15.3274 58.364 15.0604C58.6566 14.7905 58.8029 14.4638 58.8029 14.0803C58.8029 13.7848 58.7276 13.5121 58.5771 13.2621C58.4265 13.0092 58.212 12.8075 57.9336 12.657C57.6552 12.5036 57.3256 12.4268 56.945 12.4268H54.7972V15.4609ZM54.7972 11.5064H56.7575C57.0756 11.5064 57.3626 11.4439 57.6183 11.3189C57.8768 11.1939 58.0813 11.0178 58.2319 10.7905C58.3853 10.5632 58.462 10.2962 58.462 9.98935C58.462 9.60582 58.3285 9.28054 58.0614 9.01349C57.7944 8.74361 57.3711 8.60866 56.7915 8.60866H54.7972V11.5064ZM64.1871 16.5178C63.6019 16.5178 63.0849 16.4141 62.636 16.2067C62.19 15.9964 61.842 15.7081 61.592 15.3416C61.342 14.9723 61.2184 14.5518 61.2212 14.0803C61.2184 13.7109 61.2908 13.37 61.4386 13.0575C61.5863 12.7422 61.788 12.4794 62.0437 12.2692C62.3022 12.0561 62.5906 11.9212 62.9087 11.8643V11.8132C62.4911 11.7053 62.1587 11.4709 61.9116 11.1101C61.6644 10.7464 61.5423 10.3331 61.5451 9.87003C61.5423 9.42685 61.6545 9.03054 61.8817 8.68111C62.109 8.33168 62.4215 8.05611 62.8192 7.8544C63.2198 7.6527 63.6758 7.55185 64.1871 7.55185C64.6928 7.55185 65.1445 7.6527 65.5423 7.8544C65.94 8.05611 66.2525 8.33168 66.4798 8.68111C66.7099 9.03054 66.8263 9.42685 66.8292 9.87003C66.8263 10.3331 66.6999 10.7464 66.4499 11.1101C66.2028 11.4709 65.8746 11.7053 65.4656 11.8132V11.8643C65.7809 11.9212 66.065 12.0561 66.3178 12.2692C66.5707 12.4794 66.7724 12.7422 66.9229 13.0575C67.0735 13.37 67.1502 13.7109 67.1531 14.0803C67.1502 14.5518 67.0224 14.9723 66.7695 15.3416C66.5195 15.7081 66.1715 15.9964 65.7255 16.2067C65.2823 16.4141 64.7695 16.5178 64.1871 16.5178ZM64.1871 15.5803C64.582 15.5803 64.9229 15.5163 65.2099 15.3885C65.4968 15.2607 65.7184 15.0803 65.8746 14.8473C66.0309 14.6143 66.1104 14.3416 66.1133 14.0291C66.1104 13.6996 66.0252 13.4084 65.8576 13.1555C65.69 12.9027 65.4613 12.7038 65.1715 12.5589C64.8846 12.4141 64.5565 12.3416 64.1871 12.3416C63.815 12.3416 63.4826 12.4141 63.19 12.5589C62.9002 12.7038 62.6715 12.9027 62.5039 13.1555C62.3391 13.4084 62.2582 13.6996 62.261 14.0291C62.2582 14.3416 62.3335 14.6143 62.4869 14.8473C62.6431 15.0803 62.8661 15.2607 63.1559 15.3885C63.4457 15.5163 63.7894 15.5803 64.1871 15.5803ZM64.1871 11.4382C64.4996 11.4382 64.7766 11.3757 65.0181 11.2507C65.2624 11.1257 65.4542 10.951 65.5934 10.7266C65.7326 10.5021 65.8036 10.2393 65.8065 9.93821C65.8036 9.64276 65.734 9.38565 65.5977 9.1669C65.4613 8.94531 65.2724 8.77486 65.0309 8.65554C64.7894 8.53338 64.5082 8.4723 64.1871 8.4723C63.8604 8.4723 63.5749 8.53338 63.3306 8.65554C63.0863 8.77486 62.8974 8.94531 62.7638 9.1669C62.6303 9.38565 62.565 9.64276 62.5678 9.93821C62.565 10.2393 62.6317 10.5021 62.7681 10.7266C62.9073 10.951 63.0991 11.1257 63.3434 11.2507C63.5877 11.3757 63.869 11.4382 64.1871 11.4382ZM71.6328 16.5178C70.9908 16.5178 70.4439 16.343 69.9922 15.9936C69.5405 15.6413 69.1953 15.1314 68.9567 14.4638C68.718 13.7933 68.5987 12.9837 68.5987 12.0348C68.5987 11.0916 68.718 10.2862 68.9567 9.61861C69.1982 8.94815 69.5447 8.43679 69.9964 8.08452C70.451 7.7294 70.9964 7.55185 71.6328 7.55185C72.2692 7.55185 72.8132 7.7294 73.2649 8.08452C73.7195 8.43679 74.0661 8.94815 74.3047 9.61861C74.5462 10.2862 74.6669 11.0916 74.6669 12.0348C74.6669 12.9837 74.5476 13.7933 74.3089 14.4638C74.0703 15.1314 73.7251 15.6413 73.2734 15.9936C72.8217 16.343 72.2749 16.5178 71.6328 16.5178ZM71.6328 15.5803C72.2692 15.5803 72.7635 15.2734 73.1158 14.6598C73.468 14.0462 73.6442 13.1712 73.6442 12.0348C73.6442 11.2791 73.5632 10.6357 73.4013 10.1044C73.2422 9.57315 73.0121 9.16832 72.7109 8.88991C72.4126 8.61151 72.0533 8.4723 71.6328 8.4723C71.0021 8.4723 70.5092 8.78338 70.1541 9.40554C69.799 10.0249 69.6214 10.9013 69.6214 12.0348C69.6214 12.7905 69.701 13.4325 69.8601 13.9609C70.0192 14.4893 70.2479 14.8913 70.5462 15.1669C70.8473 15.4425 71.2095 15.5803 71.6328 15.5803Z" fill="white"/>
<rect y="23.3984" width="100" height="23" fill="#4769AB"/>
<rect x="0.5" y="23.8984" width="99" height="22" stroke="black" stroke-opacity="0.04"/>
<path d="M27.6761 39.3984L29.108 30.6712H29.9602L28.5284 39.3984H27.6761ZM23.7045 36.978L23.8409 36.1257H30.3523L30.2159 36.978H23.7045ZM24.608 39.3984L26.0398 30.6712H26.892L25.4602 39.3984H24.608ZM24.2159 33.9439L24.3523 33.0916H30.8636L30.7273 33.9439H24.2159ZM31.7692 37.6087V36.7393L35.6044 30.6712H36.2351V32.0178H35.8089L32.9112 36.603V36.6712H38.076V37.6087H31.7692ZM35.8771 39.3984V37.3445V36.9396V30.6712H36.8828V39.3984H35.8771ZM39.9457 39.3984L43.8491 31.6768V31.6087H39.3491V30.6712H44.94V31.6598L41.0536 39.3984H39.9457ZM49.2386 39.5178C48.8807 39.5121 48.5227 39.4439 48.1648 39.3132C47.8068 39.1825 47.4801 38.9624 47.1847 38.6527C46.8892 38.3402 46.652 37.9183 46.473 37.3871C46.294 36.853 46.2045 36.1825 46.2045 35.3757C46.2045 34.603 46.277 33.9183 46.4219 33.3217C46.5668 32.7223 46.777 32.218 47.0526 31.8089C47.3281 31.397 47.6605 31.0845 48.0497 30.8714C48.4418 30.6584 48.8835 30.5518 49.375 30.5518C49.8636 30.5518 50.2983 30.6499 50.679 30.8459C51.0625 31.0391 51.375 31.3089 51.6165 31.6555C51.858 32.0021 52.0142 32.4013 52.0852 32.853H51.0455C50.9489 32.4609 50.7614 32.1357 50.483 31.8771C50.2045 31.6186 49.8352 31.4893 49.375 31.4893C48.6989 31.4893 48.1662 31.7834 47.777 32.3714C47.3906 32.9595 47.196 33.7848 47.1932 34.8473H47.2614C47.4205 34.6058 47.6094 34.3999 47.8281 34.2294C48.0497 34.0561 48.294 33.9226 48.5611 33.8288C48.8281 33.7351 49.1108 33.6882 49.4091 33.6882C49.9091 33.6882 50.3665 33.8132 50.7812 34.0632C51.196 34.3104 51.5284 34.6527 51.7784 35.0902C52.0284 35.5249 52.1534 36.0234 52.1534 36.5859C52.1534 37.1257 52.0327 37.62 51.7912 38.0689C51.5497 38.5149 51.2102 38.87 50.7727 39.1342C50.3381 39.3956 49.8267 39.5234 49.2386 39.5178ZM49.2386 38.5803C49.5966 38.5803 49.9176 38.4908 50.2017 38.3118C50.4886 38.1328 50.7145 37.8928 50.8793 37.5916C51.0469 37.2905 51.1307 36.9553 51.1307 36.5859C51.1307 36.2251 51.0497 35.897 50.8878 35.6016C50.7287 35.3033 50.5085 35.0661 50.2273 34.8899C49.9489 34.7138 49.6307 34.6257 49.2727 34.6257C49.0028 34.6257 48.7514 34.6797 48.5185 34.7876C48.2855 34.8928 48.081 35.0376 47.9048 35.2223C47.7315 35.407 47.5952 35.6186 47.4957 35.8572C47.3963 36.093 47.3466 36.3416 47.3466 36.603C47.3466 36.9496 47.4276 37.2734 47.5895 37.5746C47.7543 37.8757 47.9787 38.1186 48.2628 38.3033C48.5497 38.4879 48.875 38.5803 49.2386 38.5803ZM56.6076 30.5518C56.9656 30.5547 57.3235 30.6229 57.6815 30.7564C58.0394 30.8899 58.3661 31.1115 58.6616 31.4212C58.957 31.728 59.1942 32.147 59.3732 32.6783C59.5522 33.2095 59.6417 33.8757 59.6417 34.6768C59.6417 35.4524 59.5678 36.1413 59.4201 36.7436C59.2752 37.343 59.065 37.8487 58.7894 38.2607C58.5167 38.6726 58.1843 38.9851 57.7923 39.1982C57.4031 39.4112 56.9627 39.5178 56.4712 39.5178C55.9826 39.5178 55.5465 39.4212 55.163 39.228C54.7823 39.032 54.4698 38.7607 54.2255 38.4141C53.984 38.0646 53.8292 37.6598 53.761 37.1996H54.8008C54.8945 37.6001 55.0806 37.9311 55.359 38.1925C55.6403 38.451 56.011 38.5803 56.4712 38.5803C57.1445 38.5803 57.6758 38.2862 58.065 37.6982C58.457 37.1101 58.6531 36.2791 58.6531 35.2053H58.5849C58.4258 35.4439 58.2369 35.6499 58.0181 35.8232C57.7994 35.9964 57.5565 36.13 57.2894 36.2237C57.0224 36.3175 56.7383 36.3643 56.4371 36.3643C55.9371 36.3643 55.4783 36.2408 55.0607 35.9936C54.646 35.7436 54.3136 35.4013 54.0636 34.9666C53.8164 34.5291 53.6928 34.0291 53.6928 33.4666C53.6928 32.9325 53.8121 32.4439 54.0508 32.0007C54.2923 31.5547 54.6303 31.1996 55.065 30.9354C55.5025 30.6712 56.0167 30.5433 56.6076 30.5518ZM56.6076 31.4893C56.2496 31.4893 55.9272 31.5788 55.6403 31.7578C55.3562 31.9339 55.1303 32.1726 54.9627 32.4737C54.7979 32.772 54.7156 33.103 54.7156 33.4666C54.7156 33.8303 54.7951 34.1612 54.9542 34.4595C55.1161 34.755 55.3363 34.9908 55.6147 35.1669C55.896 35.3402 56.2156 35.4268 56.5735 35.4268C56.8434 35.4268 57.0948 35.3743 57.3278 35.2692C57.5607 35.1612 57.7638 35.0149 57.9371 34.8303C58.1133 34.6428 58.2511 34.4311 58.3505 34.1953C58.4499 33.9567 58.4996 33.7081 58.4996 33.4496C58.4996 33.1087 58.4173 32.7891 58.2525 32.4908C58.0906 32.1925 57.8661 31.951 57.5792 31.7663C57.2951 31.5817 56.9712 31.4893 56.6076 31.4893ZM61.8288 39.3984H60.7209L63.9254 30.6712H65.0163L68.2209 39.3984H67.1129L64.505 32.0518H64.4368L61.8288 39.3984ZM62.2379 35.9893H66.7038V36.9268H62.2379V35.9893ZM69.5803 39.3984V30.6712H72.6314C73.2393 30.6712 73.7408 30.7763 74.1357 30.9865C74.5305 31.1939 74.8246 31.4737 75.0178 31.826C75.2109 32.1754 75.3075 32.5632 75.3075 32.9893C75.3075 33.3643 75.2408 33.674 75.1072 33.9183C74.9766 34.1626 74.8033 34.3558 74.5874 34.4979C74.3743 34.6399 74.1428 34.745 73.8928 34.8132V34.8984C74.1598 34.9155 74.4283 35.0092 74.6982 35.1797C74.968 35.3501 75.1939 35.5945 75.3757 35.9126C75.5575 36.2308 75.6484 36.62 75.6484 37.0803C75.6484 37.5178 75.549 37.9112 75.3501 38.2607C75.1513 38.6101 74.8374 38.8871 74.4084 39.0916C73.9794 39.2962 73.4212 39.3984 72.7337 39.3984H69.5803ZM70.6371 38.4609H72.7337C73.424 38.4609 73.9141 38.3274 74.2038 38.0604C74.4964 37.7905 74.6428 37.4638 74.6428 37.0803C74.6428 36.7848 74.5675 36.5121 74.4169 36.2621C74.2663 36.0092 74.0518 35.8075 73.7734 35.657C73.495 35.5036 73.1655 35.4268 72.7848 35.4268H70.6371V38.4609ZM70.6371 34.5064H72.5973C72.9155 34.5064 73.2024 34.4439 73.4581 34.3189C73.7166 34.1939 73.9212 34.0178 74.0717 33.7905C74.2251 33.5632 74.3018 33.2962 74.3018 32.9893C74.3018 32.6058 74.1683 32.2805 73.9013 32.0135C73.6342 31.7436 73.2109 31.6087 72.6314 31.6087H70.6371V34.5064Z" fill="white"/>
<path d="M0 46.3984H100V61.3984C100 65.8167 96.4183 69.3984 92 69.3984H8C3.58172 69.3984 0 65.8167 0 61.3984V46.3984Z" fill="#EBF4FF"/>
<path d="M0.5 46.8984H99.5V61.3984C99.5 65.5406 96.1421 68.8984 92 68.8984H8C3.85786 68.8984 0.5 65.5406 0.5 61.3984V46.8984Z" stroke="black" stroke-opacity="0.04"/>
<path d="M28.1761 62.3984L29.608 53.6712H30.4602L29.0284 62.3984H28.1761ZM24.2045 59.978L24.3409 59.1257H30.8523L30.7159 59.978H24.2045ZM25.108 62.3984L26.5398 53.6712H27.392L25.9602 62.3984H25.108ZM24.7159 56.9439L24.8523 56.0916H31.3636L31.2273 56.9439H24.7159ZM32.6271 62.3984V53.6712H37.8942V54.6087H33.6839V57.5575H37.6214V58.495H33.6839V61.4609H37.9624V62.3984H32.6271ZM39.799 62.3984V53.6712H42.8501C43.4581 53.6712 43.9595 53.7763 44.3544 53.9865C44.7493 54.1939 45.0433 54.4737 45.2365 54.826C45.4297 55.1754 45.5263 55.5632 45.5263 55.9893C45.5263 56.3643 45.4595 56.674 45.326 56.9183C45.1953 57.1626 45.022 57.3558 44.8061 57.4979C44.593 57.6399 44.3615 57.745 44.1115 57.8132V57.8984C44.3786 57.9155 44.647 58.0092 44.9169 58.1797C45.1868 58.3501 45.4126 58.5945 45.5945 58.9126C45.7763 59.2308 45.8672 59.62 45.8672 60.0803C45.8672 60.5178 45.7678 60.9112 45.5689 61.2607C45.37 61.6101 45.0561 61.8871 44.6271 62.0916C44.1982 62.2962 43.6399 62.3984 42.9524 62.3984H39.799ZM40.8558 61.4609H42.9524C43.6428 61.4609 44.1328 61.3274 44.4226 61.0604C44.7152 60.7905 44.8615 60.4638 44.8615 60.0803C44.8615 59.7848 44.7862 59.5121 44.6357 59.2621C44.4851 59.0092 44.2706 58.8075 43.9922 58.657C43.7138 58.5036 43.3842 58.4268 43.0036 58.4268H40.8558V61.4609ZM40.8558 57.5064H42.8161C43.1342 57.5064 43.4212 57.4439 43.6768 57.3189C43.9354 57.1939 44.1399 57.0178 44.2905 56.7905C44.4439 56.5632 44.5206 56.2962 44.5206 55.9893C44.5206 55.6058 44.3871 55.2805 44.12 55.0135C43.853 54.7436 43.4297 54.6087 42.8501 54.6087H40.8558V57.5064ZM47.6037 62.3984V53.6712H52.8366V54.6087H48.6605V57.5575H52.4446V58.495H48.6605V62.3984H47.6037ZM54.2887 60.6087V59.7393L58.1239 53.6712H58.7546V55.0178H58.3285L55.4308 59.603V59.6712H60.5955V60.6087H54.2887ZM58.3967 62.3984V60.3445V59.9396V53.6712H59.4023V62.3984H58.3967ZM62.3459 62.3984V53.6712H67.5788V54.6087H63.4027V57.5575H67.1868V58.495H63.4027V62.3984H62.3459ZM69.3888 62.3984V53.6712H74.6218V54.6087H70.4457V57.5575H74.2298V58.495H70.4457V62.3984H69.3888Z" fill="#161C0F"/>
</svg>
