<svg width="100" height="70" viewBox="0 0 100 70" fill="none" xmlns="http://www.w3.org/2000/svg">
<path d="M0 8.39844C0 3.98016 3.58172 0.398438 8 0.398438H92C96.4183 0.398438 100 3.98016 100 8.39844V23.3984H0V8.39844Z" fill="#5C4F09"/>
<path d="M0.5 8.39844C0.5 4.2563 3.85786 0.898438 8 0.898438H92C96.1421 0.898438 99.5 4.2563 99.5 8.39844V22.8984H0.5V8.39844Z" stroke="black" stroke-opacity="0.04"/>
<path d="M27.1761 16.3984L28.608 7.67116H29.4602L28.0284 16.3984H27.1761ZM23.2045 13.978L23.3409 13.1257H29.8523L29.7159 13.978H23.2045ZM24.108 16.3984L25.5398 7.67116H26.392L24.9602 16.3984H24.108ZM23.7159 10.9439L23.8523 10.0916H30.3636L30.2273 10.9439H23.7159ZM34.201 16.5178C33.701 16.5178 33.2507 16.4183 32.8501 16.2195C32.4496 16.0206 32.1286 15.7479 31.8871 15.4013C31.6456 15.0547 31.5135 14.6598 31.4908 14.2166H32.5135C32.5533 14.6115 32.7322 14.9382 33.0504 15.1967C33.3714 15.4524 33.755 15.5803 34.201 15.5803C34.5589 15.5803 34.8771 15.4964 35.1555 15.3288C35.4368 15.1612 35.657 14.9311 35.8161 14.6385C35.978 14.343 36.0589 14.0092 36.0589 13.6371C36.0589 13.2564 35.9751 12.9169 35.8075 12.6186C35.6428 12.3175 35.4155 12.0803 35.1257 11.907C34.8359 11.7337 34.505 11.6456 34.1328 11.6428C33.8658 11.6399 33.5916 11.6811 33.3104 11.7663C33.0291 11.8487 32.7976 11.9553 32.6158 12.0859L31.6271 11.9666L32.1555 7.67116H36.6896V8.60866H33.0419L32.7351 11.1825H32.7862C32.9652 11.0405 33.1896 10.9226 33.4595 10.8288C33.7294 10.7351 34.0107 10.6882 34.3033 10.6882C34.8374 10.6882 35.3132 10.8161 35.7308 11.0717C36.1513 11.3246 36.4808 11.6712 36.7195 12.1115C36.9609 12.5518 37.0817 13.0547 37.0817 13.62C37.0817 14.1768 36.9567 14.674 36.7067 15.1115C36.4595 15.5462 36.1186 15.8899 35.6839 16.1428C35.2493 16.3928 34.755 16.5178 34.201 16.5178ZM45.9506 10.3984H44.8938C44.8313 10.0945 44.7219 9.82741 44.5657 9.5973C44.4123 9.36719 44.2248 9.17401 44.0032 9.01776C43.7844 8.85866 43.5415 8.73935 43.2745 8.6598C43.0075 8.58026 42.729 8.54048 42.4393 8.54048C41.9109 8.54048 41.4322 8.67401 41.0032 8.94105C40.5771 9.2081 40.2376 9.60156 39.9847 10.1214C39.7347 10.6413 39.6097 11.2791 39.6097 12.0348C39.6097 12.7905 39.7347 13.4283 39.9847 13.9482C40.2376 14.468 40.5771 14.8615 41.0032 15.1286C41.4322 15.3956 41.9109 15.5291 42.4393 15.5291C42.729 15.5291 43.0075 15.4893 43.2745 15.4098C43.5415 15.3303 43.7844 15.2124 44.0032 15.0561C44.2248 14.897 44.4123 14.7024 44.5657 14.4723C44.7219 14.2393 44.8313 13.9723 44.8938 13.6712H45.9506C45.8711 14.1172 45.7262 14.5163 45.516 14.8686C45.3058 15.2209 45.0444 15.5206 44.7319 15.7678C44.4194 16.0121 44.0685 16.1982 43.6793 16.326C43.293 16.4538 42.8796 16.5178 42.4393 16.5178C41.695 16.5178 41.033 16.3359 40.4535 15.9723C39.8739 15.6087 39.418 15.0916 39.0856 14.4212C38.7532 13.7507 38.587 12.9553 38.587 12.0348C38.587 11.1143 38.7532 10.3189 39.0856 9.64844C39.418 8.97798 39.8739 8.46094 40.4535 8.0973C41.033 7.73366 41.695 7.55185 42.4393 7.55185C42.8796 7.55185 43.293 7.61577 43.6793 7.74361C44.0685 7.87145 44.4194 8.05895 44.7319 8.30611C45.0444 8.55043 45.3058 8.84872 45.516 9.20099C45.7262 9.55043 45.8711 9.94957 45.9506 10.3984ZM47.3004 14.6087V13.7393L51.1357 7.67116H51.7663V9.01776H51.3402L48.4425 13.603V13.6712H53.6072V14.6087H47.3004ZM51.4084 16.3984V14.3445V13.9396V7.67116H52.4141V16.3984H51.4084ZM55.3576 16.3984V7.67116H60.5906V8.60866H56.4144V11.5575H60.1985V12.495H56.4144V16.3984H55.3576ZM65.0938 16.5178C64.4517 16.5178 63.9048 16.343 63.4531 15.9936C63.0014 15.6413 62.6563 15.1314 62.4176 14.4638C62.179 13.7933 62.0597 12.9837 62.0597 12.0348C62.0597 11.0916 62.179 10.2862 62.4176 9.61861C62.6591 8.94815 63.0057 8.43679 63.4574 8.08452C63.9119 7.7294 64.4574 7.55185 65.0938 7.55185C65.7301 7.55185 66.2741 7.7294 66.7259 8.08452C67.1804 8.43679 67.527 8.94815 67.7656 9.61861C68.0071 10.2862 68.1278 11.0916 68.1278 12.0348C68.1278 12.9837 68.0085 13.7933 67.7699 14.4638C67.5312 15.1314 67.1861 15.6413 66.7344 15.9936C66.2827 16.343 65.7358 16.5178 65.0938 16.5178ZM65.0938 15.5803C65.7301 15.5803 66.2244 15.2734 66.5767 14.6598C66.929 14.0462 67.1051 13.1712 67.1051 12.0348C67.1051 11.2791 67.0241 10.6357 66.8622 10.1044C66.7031 9.57315 66.473 9.16832 66.1719 8.88991C65.8736 8.61151 65.5142 8.4723 65.0938 8.4723C64.4631 8.4723 63.9702 8.78338 63.6151 9.40554C63.2599 10.0249 63.0824 10.9013 63.0824 12.0348C63.0824 12.7905 63.1619 13.4325 63.321 13.9609C63.4801 14.4893 63.7088 14.8913 64.0071 15.1669C64.3082 15.4425 64.6705 15.5803 65.0938 15.5803ZM72.5256 7.55185C72.8835 7.55469 73.2415 7.62287 73.5994 7.75639C73.9574 7.88991 74.2841 8.11151 74.5795 8.42116C74.875 8.72798 75.1122 9.14702 75.2912 9.67827C75.4702 10.2095 75.5597 10.8757 75.5597 11.6768C75.5597 12.4524 75.4858 13.1413 75.3381 13.7436C75.1932 14.343 74.983 14.8487 74.7074 15.2607C74.4347 15.6726 74.1023 15.9851 73.7102 16.1982C73.321 16.4112 72.8807 16.5178 72.3892 16.5178C71.9006 16.5178 71.4645 16.4212 71.081 16.228C70.7003 16.032 70.3878 15.7607 70.1435 15.4141C69.902 15.0646 69.7472 14.6598 69.679 14.1996H70.7188C70.8125 14.6001 70.9986 14.9311 71.277 15.1925C71.5582 15.451 71.929 15.5803 72.3892 15.5803C73.0625 15.5803 73.5938 15.2862 73.983 14.6982C74.375 14.1101 74.571 13.2791 74.571 12.2053H74.5028C74.3438 12.4439 74.1548 12.6499 73.9361 12.8232C73.7173 12.9964 73.4744 13.13 73.2074 13.2237C72.9403 13.3175 72.6563 13.3643 72.3551 13.3643C71.8551 13.3643 71.3963 13.2408 70.9787 12.9936C70.5639 12.7436 70.2315 12.4013 69.9815 11.9666C69.7344 11.5291 69.6108 11.0291 69.6108 10.4666C69.6108 9.93253 69.7301 9.44389 69.9688 9.00071C70.2102 8.55469 70.5483 8.19957 70.983 7.93537C71.4205 7.67116 71.9347 7.54332 72.5256 7.55185ZM72.5256 8.48935C72.1676 8.48935 71.8452 8.57884 71.5582 8.75781C71.2741 8.93395 71.0483 9.17258 70.8807 9.47372C70.7159 9.77202 70.6335 10.103 70.6335 10.4666C70.6335 10.8303 70.7131 11.1612 70.8722 11.4595C71.0341 11.755 71.2543 11.9908 71.5327 12.1669C71.8139 12.3402 72.1335 12.4268 72.4915 12.4268C72.7614 12.4268 73.0128 12.3743 73.2457 12.2692C73.4787 12.1612 73.6818 12.0149 73.8551 11.8303C74.0313 11.6428 74.169 11.4311 74.2685 11.1953C74.3679 10.9567 74.4176 10.7081 74.4176 10.4496C74.4176 10.1087 74.3352 9.78906 74.1705 9.49077C74.0085 9.19247 73.7841 8.95099 73.4972 8.76633C73.2131 8.58168 72.8892 8.48935 72.5256 8.48935Z" fill="white"/>
<rect y="23.3984" width="100" height="23" fill="#EFB10F"/>
<rect x="0.5" y="23.8984" width="99" height="22" stroke="black" stroke-opacity="0.04"/>
<path d="M29.1761 39.3984L30.608 30.6712H31.4602L30.0284 39.3984H29.1761ZM25.2045 36.978L25.3409 36.1257H31.8523L31.7159 36.978H25.2045ZM26.108 39.3984L27.5398 30.6712H28.392L26.9602 39.3984H26.108ZM25.7159 33.9439L25.8523 33.0916H32.3636L32.2273 33.9439H25.7159ZM33.6271 39.3984V30.6712H38.8942V31.6087H34.6839V34.5575H38.6214V35.495H34.6839V38.4609H38.9624V39.3984H33.6271ZM40.799 39.3984V30.6712H46.032V31.6087H41.8558V34.5575H45.6399V35.495H41.8558V39.3984H40.799ZM47.842 39.3984V30.6712H50.8931C51.5011 30.6712 52.0025 30.7763 52.3974 30.9865C52.7923 31.1939 53.0863 31.4737 53.2795 31.826C53.4727 32.1754 53.5692 32.5632 53.5692 32.9893C53.5692 33.3643 53.5025 33.674 53.369 33.9183C53.2383 34.1626 53.065 34.3558 52.8491 34.4979C52.636 34.6399 52.4045 34.745 52.1545 34.8132V34.8984C52.4215 34.9155 52.69 35.0092 52.9599 35.1797C53.2298 35.3501 53.4556 35.5945 53.6374 35.9126C53.8192 36.2308 53.9102 36.62 53.9102 37.0803C53.9102 37.5178 53.8107 37.9112 53.6119 38.2607C53.413 38.6101 53.0991 38.8871 52.6701 39.0916C52.2411 39.2962 51.6829 39.3984 50.9954 39.3984H47.842ZM48.8988 38.4609H50.9954C51.6857 38.4609 52.1758 38.3274 52.4656 38.0604C52.7582 37.7905 52.9045 37.4638 52.9045 37.0803C52.9045 36.7848 52.8292 36.5121 52.6786 36.2621C52.5281 36.0092 52.3136 35.8075 52.0352 35.657C51.7567 35.5036 51.4272 35.4268 51.0465 35.4268H48.8988V38.4609ZM48.8988 34.5064H50.859C51.1772 34.5064 51.4641 34.4439 51.7198 34.3189C51.9783 34.1939 52.1829 34.0178 52.3335 33.7905C52.4869 33.5632 52.5636 33.2962 52.5636 32.9893C52.5636 32.6058 52.43 32.2805 52.163 32.0135C51.896 31.7436 51.4727 31.6087 50.8931 31.6087H48.8988V34.5064ZM58.5614 30.6712V39.3984H57.5046V31.7791H57.4535L55.3228 33.1939V32.12L57.5046 30.6712H58.5614ZM63.918 39.5178C63.2759 39.5178 62.729 39.343 62.2773 38.9936C61.8256 38.6413 61.4805 38.1314 61.2418 37.4638C61.0032 36.7933 60.8839 35.9837 60.8839 35.0348C60.8839 34.0916 61.0032 33.2862 61.2418 32.6186C61.4833 31.9482 61.8299 31.4368 62.2816 31.0845C62.7362 30.7294 63.2816 30.5518 63.918 30.5518C64.5543 30.5518 65.0984 30.7294 65.5501 31.0845C66.0046 31.4368 66.3512 31.9482 66.5898 32.6186C66.8313 33.2862 66.9521 34.0916 66.9521 35.0348C66.9521 35.9837 66.8327 36.7933 66.5941 37.4638C66.3555 38.1314 66.0103 38.6413 65.5586 38.9936C65.1069 39.343 64.56 39.5178 63.918 39.5178ZM63.918 38.5803C64.5543 38.5803 65.0487 38.2734 65.4009 37.6598C65.7532 37.0462 65.9293 36.1712 65.9293 35.0348C65.9293 34.2791 65.8484 33.6357 65.6864 33.1044C65.5273 32.5732 65.2972 32.1683 64.9961 31.8899C64.6978 31.6115 64.3384 31.4723 63.918 31.4723C63.2873 31.4723 62.7944 31.7834 62.4393 32.4055C62.0842 33.0249 61.9066 33.9013 61.9066 35.0348C61.9066 35.7905 61.9862 36.4325 62.1452 36.9609C62.3043 37.4893 62.533 37.8913 62.8313 38.1669C63.1325 38.4425 63.4947 38.5803 63.918 38.5803ZM68.7248 39.3984V30.6712H73.9577V31.6087H69.7816V34.5575H73.5657V35.495H69.7816V39.3984H68.7248Z" fill="white"/>
<path d="M0 46.3984H100V61.3984C100 65.8167 96.4183 69.3984 92 69.3984H8C3.58172 69.3984 0 65.8167 0 61.3984V46.3984Z" fill="#F5F5AA"/>
<path d="M0.5 46.8984H99.5V61.3984C99.5 65.5406 96.1421 68.8984 92 68.8984H8C3.85786 68.8984 0.5 65.5406 0.5 61.3984V46.8984Z" stroke="black" stroke-opacity="0.04"/>
<path d="M27.6761 62.3984L29.108 53.6712H29.9602L28.5284 62.3984H27.6761ZM23.7045 59.978L23.8409 59.1257H30.3523L30.2159 59.978H23.7045ZM24.608 62.3984L26.0398 53.6712H26.892L25.4602 62.3984H24.608ZM24.2159 56.9439L24.3523 56.0916H30.8636L30.7273 56.9439H24.2159ZM32.1271 62.3984V53.6712H37.3601V54.6087H33.1839V57.5575H36.968V58.495H33.1839V62.3984H32.1271ZM41.744 62.5178C41.244 62.5178 40.7937 62.4183 40.3931 62.2195C39.9925 62.0206 39.6715 61.7479 39.43 61.4013C39.1886 61.0547 39.0565 60.6598 39.0337 60.2166H40.0565C40.0962 60.6115 40.2752 60.9382 40.5934 61.1967C40.9144 61.4524 41.2979 61.5803 41.744 61.5803C42.1019 61.5803 42.4201 61.4964 42.6985 61.3288C42.9798 61.1612 43.1999 60.9311 43.359 60.6385C43.521 60.343 43.6019 60.0092 43.6019 59.6371C43.6019 59.2564 43.5181 58.9169 43.3505 58.6186C43.1857 58.3175 42.9585 58.0803 42.6687 57.907C42.3789 57.7337 42.0479 57.6456 41.6758 57.6428C41.4087 57.6399 41.1346 57.6811 40.8533 57.7663C40.5721 57.8487 40.3406 57.9553 40.1587 58.0859L39.1701 57.9666L39.6985 53.6712H44.2326V54.6087H40.5849L40.2781 57.1825H40.3292C40.5082 57.0405 40.7326 56.9226 41.0025 56.8288C41.2724 56.7351 41.5536 56.6882 41.8462 56.6882C42.3803 56.6882 42.8562 56.8161 43.2738 57.0717C43.6942 57.3246 44.0238 57.6712 44.2624 58.1115C44.5039 58.5518 44.6246 59.0547 44.6246 59.62C44.6246 60.1768 44.4996 60.674 44.2496 61.1115C44.0025 61.5462 43.6616 61.8899 43.2269 62.1428C42.7923 62.3928 42.2979 62.5178 41.744 62.5178ZM46.4709 62.3984V53.6712H51.7038V54.6087H47.5277V57.5575H51.3118V58.495H47.5277V62.3984H46.4709ZM56.0877 62.5178C55.5877 62.5178 55.1374 62.4183 54.7369 62.2195C54.3363 62.0206 54.0153 61.7479 53.7738 61.4013C53.5323 61.0547 53.4002 60.6598 53.3775 60.2166H54.4002C54.44 60.6115 54.619 60.9382 54.9371 61.1967C55.2582 61.4524 55.6417 61.5803 56.0877 61.5803C56.4457 61.5803 56.7638 61.4964 57.0423 61.3288C57.3235 61.1612 57.5437 60.9311 57.7028 60.6385C57.8647 60.343 57.9457 60.0092 57.9457 59.6371C57.9457 59.2564 57.8619 58.9169 57.6942 58.6186C57.5295 58.3175 57.3022 58.0803 57.0124 57.907C56.7227 57.7337 56.3917 57.6456 56.0195 57.6428C55.7525 57.6399 55.4783 57.6811 55.1971 57.7663C54.9158 57.8487 54.6843 57.9553 54.5025 58.0859L53.5138 57.9666L54.0423 53.6712H58.5763V54.6087H54.9286L54.6218 57.1825H54.6729C54.8519 57.0405 55.0763 56.9226 55.3462 56.8288C55.6161 56.7351 55.8974 56.6882 56.19 56.6882C56.7241 56.6882 57.1999 56.8161 57.6175 57.0717C58.038 57.3246 58.3675 57.6712 58.6062 58.1115C58.8477 58.5518 58.9684 59.0547 58.9684 59.62C58.9684 60.1768 58.8434 60.674 58.5934 61.1115C58.3462 61.5462 58.0053 61.8899 57.5707 62.1428C57.136 62.3928 56.6417 62.5178 56.0877 62.5178ZM61.1726 62.3984H60.0646L63.2692 53.6712H64.3601L67.5646 62.3984H66.4567L63.8487 55.0518H63.7805L61.1726 62.3984ZM61.5817 58.9893H66.0476V59.9268H61.5817V58.9893ZM69.282 62.3984H68.174L71.3786 53.6712H72.4695L75.674 62.3984H74.5661L71.9581 55.0518H71.8899L69.282 62.3984ZM69.6911 58.9893H74.157V59.9268H69.6911V58.9893Z" fill="#161C0F"/>
</svg>
