<svg width="100" height="47" viewBox="0 0 100 47" fill="none" xmlns="http://www.w3.org/2000/svg">
<path d="M0 8.39844C0 3.98016 3.58172 0.398438 8 0.398438H92C96.4183 0.398438 100 3.98016 100 8.39844V23.3984H0V8.39844Z" fill="#F8FFFB"/>
<path d="M8 0.898438H92C96.1421 0.898438 99.5 4.2563 99.5 8.39844V22.8984H0.5V8.39844C0.5 4.2563 3.85786 0.898438 8 0.898438Z" stroke="black" stroke-opacity="0.04"/>
<path d="M27.6761 16.3984L29.108 7.67116H29.9602L28.5284 16.3984H27.6761ZM23.7045 13.978L23.8409 13.1257H30.3523L30.2159 13.978H23.7045ZM24.608 16.3984L26.0398 7.67116H26.892L25.4602 16.3984H24.608ZM24.2159 10.9439L24.3523 10.0916H30.8636L30.7273 10.9439H24.2159ZM32.1271 16.3984V7.67116H37.3942V8.60866H33.1839V11.5575H37.1214V12.495H33.1839V15.4609H37.4624V16.3984H32.1271ZM41.9411 16.5178C41.3558 16.5178 40.8388 16.4141 40.3899 16.2067C39.9439 15.9964 39.5959 15.7081 39.3459 15.3416C39.0959 14.9723 38.9723 14.5518 38.9751 14.0803C38.9723 13.7109 39.0447 13.37 39.1925 13.0575C39.3402 12.7422 39.5419 12.4794 39.7976 12.2692C40.0561 12.0561 40.3445 11.9212 40.6626 11.8643V11.8132C40.245 11.7053 39.9126 11.4709 39.6655 11.1101C39.4183 10.7464 39.2962 10.3331 39.299 9.87003C39.2962 9.42685 39.4084 9.03054 39.6357 8.68111C39.8629 8.33168 40.1754 8.05611 40.5732 7.8544C40.9737 7.6527 41.4297 7.55185 41.9411 7.55185C42.4467 7.55185 42.8984 7.6527 43.2962 7.8544C43.6939 8.05611 44.0064 8.33168 44.2337 8.68111C44.4638 9.03054 44.5803 9.42685 44.5831 9.87003C44.5803 10.3331 44.4538 10.7464 44.2038 11.1101C43.9567 11.4709 43.6286 11.7053 43.2195 11.8132V11.8643C43.5348 11.9212 43.8189 12.0561 44.0717 12.2692C44.3246 12.4794 44.5263 12.7422 44.6768 13.0575C44.8274 13.37 44.9041 13.7109 44.907 14.0803C44.9041 14.5518 44.7763 14.9723 44.5234 15.3416C44.2734 15.7081 43.9254 15.9964 43.4794 16.2067C43.0362 16.4141 42.5234 16.5178 41.9411 16.5178ZM41.9411 15.5803C42.3359 15.5803 42.6768 15.5163 42.9638 15.3885C43.2507 15.2607 43.4723 15.0803 43.6286 14.8473C43.7848 14.6143 43.8643 14.3416 43.8672 14.0291C43.8643 13.6996 43.7791 13.4084 43.6115 13.1555C43.4439 12.9027 43.2152 12.7038 42.9254 12.5589C42.6385 12.4141 42.3104 12.3416 41.9411 12.3416C41.5689 12.3416 41.2365 12.4141 40.9439 12.5589C40.6541 12.7038 40.4254 12.9027 40.2578 13.1555C40.093 13.4084 40.0121 13.6996 40.0149 14.0291C40.0121 14.3416 40.0874 14.6143 40.2408 14.8473C40.397 15.0803 40.62 15.2607 40.9098 15.3885C41.1996 15.5163 41.5433 15.5803 41.9411 15.5803ZM41.9411 11.4382C42.2536 11.4382 42.5305 11.3757 42.772 11.2507C43.0163 11.1257 43.2081 10.951 43.3473 10.7266C43.4865 10.5021 43.5575 10.2393 43.5604 9.93821C43.5575 9.64276 43.4879 9.38565 43.3516 9.1669C43.2152 8.94531 43.0263 8.77486 42.7848 8.65554C42.5433 8.53338 42.2621 8.4723 41.9411 8.4723C41.6143 8.4723 41.3288 8.53338 41.0845 8.65554C40.8402 8.77486 40.6513 8.94531 40.5178 9.1669C40.3842 9.38565 40.3189 9.64276 40.3217 9.93821C40.3189 10.2393 40.3857 10.5021 40.522 10.7266C40.6612 10.951 40.853 11.1257 41.0973 11.2507C41.3416 11.3757 41.6229 11.4382 41.9411 11.4382ZM46.6935 16.3984V7.67116H51.9265V8.60866H47.7504V11.5575H51.5344V12.495H47.7504V16.3984H46.6935ZM56.532 16.5178C55.9695 16.5178 55.468 16.4212 55.0277 16.228C54.5902 16.0348 54.2422 15.7663 53.9837 15.4226C53.728 15.076 53.5888 14.674 53.5661 14.2166H54.6399C54.6626 14.4979 54.7592 14.7408 54.9297 14.9453C55.1001 15.147 55.3232 15.3033 55.5987 15.4141C55.8743 15.5249 56.1797 15.5803 56.5149 15.5803C56.8899 15.5803 57.2223 15.5149 57.5121 15.3842C57.8018 15.2536 58.0291 15.0717 58.1939 14.8388C58.3587 14.6058 58.4411 14.3359 58.4411 14.0291C58.4411 13.7081 58.3615 13.4254 58.2024 13.1811C58.0433 12.9339 57.8104 12.7408 57.5036 12.6016C57.1967 12.4624 56.8217 12.3928 56.3786 12.3928H55.6797V11.4553H56.3786C56.7251 11.4553 57.0291 11.3928 57.2905 11.2678C57.5547 11.1428 57.7607 10.9666 57.9084 10.7393C58.0589 10.5121 58.1342 10.245 58.1342 9.93821C58.1342 9.64276 58.0689 9.38565 57.9382 9.1669C57.8075 8.94815 57.6229 8.7777 57.3842 8.65554C57.1484 8.53338 56.87 8.4723 56.549 8.4723C56.2479 8.4723 55.9638 8.5277 55.6967 8.63849C55.4325 8.74645 55.2166 8.90412 55.049 9.11151C54.8814 9.31605 54.7905 9.56321 54.7763 9.85298H53.7536C53.7706 9.3956 53.9084 8.99503 54.1669 8.65128C54.4254 8.30469 54.7635 8.0348 55.1811 7.84162C55.6016 7.64844 56.0632 7.55185 56.5661 7.55185C57.1058 7.55185 57.5689 7.66122 57.9553 7.87997C58.3416 8.09588 58.6385 8.38139 58.8459 8.73651C59.0533 9.09162 59.157 9.47514 59.157 9.88707C59.157 10.3786 59.0277 10.7976 58.7692 11.1442C58.5135 11.4908 58.1655 11.7308 57.7251 11.8643V11.9325C58.2763 12.0234 58.7067 12.2578 59.0163 12.6357C59.326 13.0107 59.4808 13.4751 59.4808 14.0291C59.4808 14.5036 59.3516 14.9297 59.093 15.3075C58.8374 15.6825 58.4879 15.978 58.0447 16.1939C57.6016 16.4098 57.0973 16.5178 56.532 16.5178ZM61.3771 16.3984V7.67116H66.6442V8.60866H62.4339V11.5575H66.3714V12.495H62.4339V15.4609H66.7124V16.3984H61.3771ZM71.2422 16.3984H68.549V7.67116H71.3615C72.2081 7.67116 72.9325 7.84588 73.5348 8.19531C74.1371 8.5419 74.5987 9.04048 74.9197 9.69105C75.2408 10.3388 75.4013 11.1143 75.4013 12.0178C75.4013 12.9268 75.2393 13.7095 74.9155 14.3658C74.5916 15.0192 74.12 15.522 73.5007 15.8743C72.8814 16.2237 72.1286 16.3984 71.2422 16.3984ZM69.6058 15.4609H71.174C71.8956 15.4609 72.4936 15.3217 72.968 15.0433C73.4425 14.7649 73.7962 14.3686 74.0291 13.8544C74.2621 13.3402 74.3786 12.728 74.3786 12.0178C74.3786 11.3132 74.2635 10.7067 74.0334 10.1982C73.8033 9.68679 73.4595 9.29474 73.0021 9.02202C72.5447 8.74645 71.9751 8.60866 71.2933 8.60866H69.6058V15.4609Z" fill="#161C0F"/>
<path d="M0 23.3984H100V38.3984C100 42.8167 96.4183 46.3984 92 46.3984H8C3.58172 46.3984 0 42.8167 0 38.3984V23.3984Z" fill="white"/>
<path d="M0.5 23.8984H99.5V38.3984C99.5 42.5406 96.1421 45.8984 92 45.8984H8C3.85786 45.8984 0.5 42.5406 0.5 38.3984V23.8984Z" stroke="black" stroke-opacity="0.04"/>
<path d="M29.1761 39.3984L30.608 30.6712H31.4602L30.0284 39.3984H29.1761ZM25.2045 36.978L25.3409 36.1257H31.8523L31.7159 36.978H25.2045ZM26.108 39.3984L27.5398 30.6712H28.392L26.9602 39.3984H26.108ZM25.7159 33.9439L25.8523 33.0916H32.3636L32.2273 33.9439H25.7159ZM33.6271 39.3984V30.6712H38.8601V31.6087H34.6839V34.5575H38.468V35.495H34.6839V39.3984H33.6271ZM40.6701 39.3984V30.6712H45.9031V31.6087H41.7269V34.5575H45.511V35.495H41.7269V39.3984H40.6701ZM47.7131 39.3984V30.6712H52.946V31.6087H48.7699V34.5575H52.554V35.495H48.7699V39.3984H47.7131ZM54.756 39.3984V30.6712H59.989V31.6087H55.8129V34.5575H59.5969V35.495H55.8129V39.3984H54.756ZM61.799 39.3984V30.6712H67.032V31.6087H62.8558V34.5575H66.6399V35.495H62.8558V39.3984H61.799ZM68.842 39.3984V30.6712H74.0749V31.6087H69.8988V34.5575H73.6829V35.495H69.8988V39.3984H68.842Z" fill="#161C0F"/>
</svg>
