<svg width="100" height="70" viewBox="0 0 100 70" fill="none" xmlns="http://www.w3.org/2000/svg">
<path d="M0 8.39844C0 3.98016 3.58172 0.398438 8 0.398438H92C96.4183 0.398438 100 3.98016 100 8.39844V23.3984H0V8.39844Z" fill="#703000"/>
<path d="M0.5 8.39844C0.5 4.2563 3.85786 0.898438 8 0.898438H92C96.1421 0.898438 99.5 4.2563 99.5 8.39844V22.8984H0.5V8.39844Z" stroke="black" stroke-opacity="0.04"/>
<path d="M28.1761 16.3984L29.608 7.67116H30.4602L29.0284 16.3984H28.1761ZM24.2045 13.978L24.3409 13.1257H30.8523L30.7159 13.978H24.2045ZM25.108 16.3984L26.5398 7.67116H27.392L25.9602 16.3984H25.108ZM24.7159 10.9439L24.8523 10.0916H31.3636L31.2273 10.9439H24.7159ZM32.7464 16.3984L36.6499 8.67685V8.60866H32.1499V7.67116H37.7408V8.6598L33.8544 16.3984H32.7464ZM41.9883 16.5178C41.3462 16.5178 40.7994 16.343 40.3477 15.9936C39.896 15.6413 39.5508 15.1314 39.3121 14.4638C39.0735 13.7933 38.9542 12.9837 38.9542 12.0348C38.9542 11.0916 39.0735 10.2862 39.3121 9.61861C39.5536 8.94815 39.9002 8.43679 40.3519 8.08452C40.8065 7.7294 41.3519 7.55185 41.9883 7.55185C42.6246 7.55185 43.1687 7.7294 43.6204 8.08452C44.0749 8.43679 44.4215 8.94815 44.6602 9.61861C44.9016 10.2862 45.0224 11.0916 45.0224 12.0348C45.0224 12.9837 44.9031 13.7933 44.6644 14.4638C44.4258 15.1314 44.0806 15.6413 43.6289 15.9936C43.1772 16.343 42.6303 16.5178 41.9883 16.5178ZM41.9883 15.5803C42.6246 15.5803 43.119 15.2734 43.4712 14.6598C43.8235 14.0462 43.9996 13.1712 43.9996 12.0348C43.9996 11.2791 43.9187 10.6357 43.7567 10.1044C43.5977 9.57315 43.3675 9.16832 43.0664 8.88991C42.7681 8.61151 42.4087 8.4723 41.9883 8.4723C41.3576 8.4723 40.8647 8.78338 40.5096 9.40554C40.1545 10.0249 39.9769 10.9013 39.9769 12.0348C39.9769 12.7905 40.0565 13.4325 40.2156 13.9609C40.3746 14.4893 40.6033 14.8913 40.9016 15.1669C41.2028 15.4425 41.565 15.5803 41.9883 15.5803ZM49.5906 16.5178C49.0281 16.5178 48.5266 16.4212 48.0863 16.228C47.6488 16.0348 47.3008 15.7663 47.0423 15.4226C46.7866 15.076 46.6474 14.674 46.6246 14.2166H47.6985C47.7212 14.4979 47.8178 14.7408 47.9883 14.9453C48.1587 15.147 48.3817 15.3033 48.6573 15.4141C48.9329 15.5249 49.2383 15.5803 49.5735 15.5803C49.9485 15.5803 50.2809 15.5149 50.5707 15.3842C50.8604 15.2536 51.0877 15.0717 51.2525 14.8388C51.4173 14.6058 51.4996 14.3359 51.4996 14.0291C51.4996 13.7081 51.4201 13.4254 51.261 13.1811C51.1019 12.9339 50.869 12.7408 50.5621 12.6016C50.2553 12.4624 49.8803 12.3928 49.4371 12.3928H48.7383V11.4553H49.4371C49.7837 11.4553 50.0877 11.3928 50.3491 11.2678C50.6133 11.1428 50.8192 10.9666 50.967 10.7393C51.1175 10.5121 51.1928 10.245 51.1928 9.93821C51.1928 9.64276 51.1275 9.38565 50.9968 9.1669C50.8661 8.94815 50.6815 8.7777 50.4428 8.65554C50.207 8.53338 49.9286 8.4723 49.6076 8.4723C49.3065 8.4723 49.0224 8.5277 48.7553 8.63849C48.4911 8.74645 48.2752 8.90412 48.1076 9.11151C47.94 9.31605 47.8491 9.56321 47.8349 9.85298H46.8121C46.8292 9.3956 46.967 8.99503 47.2255 8.65128C47.484 8.30469 47.8221 8.0348 48.2397 7.84162C48.6602 7.64844 49.1218 7.55185 49.6246 7.55185C50.1644 7.55185 50.6275 7.66122 51.0138 7.87997C51.4002 8.09588 51.6971 8.38139 51.9045 8.73651C52.1119 9.09162 52.2156 9.47514 52.2156 9.88707C52.2156 10.3786 52.0863 10.7976 51.8278 11.1442C51.5721 11.4908 51.2241 11.7308 50.7837 11.8643V11.9325C51.3349 12.0234 51.7653 12.2578 52.0749 12.6357C52.3846 13.0107 52.5394 13.4751 52.5394 14.0291C52.5394 14.5036 52.4102 14.9297 52.1516 15.3075C51.896 15.6825 51.5465 15.978 51.1033 16.1939C50.6602 16.4098 50.1559 16.5178 49.5906 16.5178ZM57.1289 16.5178C56.4869 16.5178 55.94 16.343 55.4883 15.9936C55.0366 15.6413 54.6914 15.1314 54.4528 14.4638C54.2141 13.7933 54.0948 12.9837 54.0948 12.0348C54.0948 11.0916 54.2141 10.2862 54.4528 9.61861C54.6942 8.94815 55.0408 8.43679 55.4925 8.08452C55.9471 7.7294 56.4925 7.55185 57.1289 7.55185C57.7653 7.55185 58.3093 7.7294 58.761 8.08452C59.2156 8.43679 59.5621 8.94815 59.8008 9.61861C60.0423 10.2862 60.163 11.0916 60.163 12.0348C60.163 12.9837 60.0437 13.7933 59.805 14.4638C59.5664 15.1314 59.2212 15.6413 58.7695 15.9936C58.3178 16.343 57.771 16.5178 57.1289 16.5178ZM57.1289 15.5803C57.7653 15.5803 58.2596 15.2734 58.6119 14.6598C58.9641 14.0462 59.1403 13.1712 59.1403 12.0348C59.1403 11.2791 59.0593 10.6357 58.8974 10.1044C58.7383 9.57315 58.5082 9.16832 58.207 8.88991C57.9087 8.61151 57.5494 8.4723 57.1289 8.4723C56.4982 8.4723 56.0053 8.78338 55.6502 9.40554C55.2951 10.0249 55.1175 10.9013 55.1175 12.0348C55.1175 12.7905 55.1971 13.4325 55.3562 13.9609C55.5153 14.4893 55.744 14.8913 56.0423 15.1669C56.3434 15.4425 56.7056 15.5803 57.1289 15.5803ZM64.6289 16.5178C63.9869 16.5178 63.44 16.343 62.9883 15.9936C62.5366 15.6413 62.1914 15.1314 61.9528 14.4638C61.7141 13.7933 61.5948 12.9837 61.5948 12.0348C61.5948 11.0916 61.7141 10.2862 61.9528 9.61861C62.1942 8.94815 62.5408 8.43679 62.9925 8.08452C63.4471 7.7294 63.9925 7.55185 64.6289 7.55185C65.2653 7.55185 65.8093 7.7294 66.261 8.08452C66.7156 8.43679 67.0621 8.94815 67.3008 9.61861C67.5423 10.2862 67.663 11.0916 67.663 12.0348C67.663 12.9837 67.5437 13.7933 67.305 14.4638C67.0664 15.1314 66.7212 15.6413 66.2695 15.9936C65.8178 16.343 65.271 16.5178 64.6289 16.5178ZM64.6289 15.5803C65.2653 15.5803 65.7596 15.2734 66.1119 14.6598C66.4641 14.0462 66.6403 13.1712 66.6403 12.0348C66.6403 11.2791 66.5593 10.6357 66.3974 10.1044C66.2383 9.57315 66.0082 9.16832 65.707 8.88991C65.4087 8.61151 65.0494 8.4723 64.6289 8.4723C63.9982 8.4723 63.5053 8.78338 63.1502 9.40554C62.7951 10.0249 62.6175 10.9013 62.6175 12.0348C62.6175 12.7905 62.6971 13.4325 62.8562 13.9609C63.0153 14.4893 63.244 14.8913 63.5423 15.1669C63.8434 15.4425 64.2056 15.5803 64.6289 15.5803ZM72.1289 16.5178C71.4869 16.5178 70.94 16.343 70.4883 15.9936C70.0366 15.6413 69.6914 15.1314 69.4528 14.4638C69.2141 13.7933 69.0948 12.9837 69.0948 12.0348C69.0948 11.0916 69.2141 10.2862 69.4528 9.61861C69.6942 8.94815 70.0408 8.43679 70.4925 8.08452C70.9471 7.7294 71.4925 7.55185 72.1289 7.55185C72.7653 7.55185 73.3093 7.7294 73.761 8.08452C74.2156 8.43679 74.5621 8.94815 74.8008 9.61861C75.0423 10.2862 75.163 11.0916 75.163 12.0348C75.163 12.9837 75.0437 13.7933 74.805 14.4638C74.5664 15.1314 74.2212 15.6413 73.7695 15.9936C73.3178 16.343 72.771 16.5178 72.1289 16.5178ZM72.1289 15.5803C72.7653 15.5803 73.2596 15.2734 73.6119 14.6598C73.9641 14.0462 74.1403 13.1712 74.1403 12.0348C74.1403 11.2791 74.0593 10.6357 73.8974 10.1044C73.7383 9.57315 73.5082 9.16832 73.207 8.88991C72.9087 8.61151 72.5494 8.4723 72.1289 8.4723C71.4982 8.4723 71.0053 8.78338 70.6502 9.40554C70.2951 10.0249 70.1175 10.9013 70.1175 12.0348C70.1175 12.7905 70.1971 13.4325 70.3562 13.9609C70.5153 14.4893 70.744 14.8913 71.0423 15.1669C71.3434 15.4425 71.7056 15.5803 72.1289 15.5803Z" fill="white"/>
<rect y="23.3984" width="100" height="23" fill="#D45C02"/>
<rect x="0.5" y="23.8984" width="99" height="22" stroke="black" stroke-opacity="0.04"/>
<path d="M26.6761 39.3984L28.108 30.6712H28.9602L27.5284 39.3984H26.6761ZM22.7045 36.978L22.8409 36.1257H29.3523L29.2159 36.978H22.7045ZM23.608 39.3984L25.0398 30.6712H25.892L24.4602 39.3984H23.608ZM23.2159 33.9439L23.3523 33.0916H29.8636L29.7273 33.9439H23.2159ZM33.8203 39.3984H31.1271V30.6712H33.9396C34.7862 30.6712 35.5107 30.8459 36.1129 31.1953C36.7152 31.5419 37.1768 32.0405 37.4979 32.6911C37.8189 33.3388 37.9794 34.1143 37.9794 35.0178C37.9794 35.9268 37.8175 36.7095 37.4936 37.3658C37.1697 38.0192 36.6982 38.522 36.0788 38.8743C35.4595 39.2237 34.7067 39.3984 33.8203 39.3984ZM32.1839 38.4609H33.7521C34.4737 38.4609 35.0717 38.3217 35.5462 38.0433C36.0206 37.7649 36.3743 37.3686 36.6072 36.8544C36.8402 36.3402 36.9567 35.728 36.9567 35.0178C36.9567 34.3132 36.8416 33.7067 36.6115 33.1982C36.3814 32.6868 36.0376 32.2947 35.5803 32.022C35.1229 31.7464 34.5533 31.6087 33.8714 31.6087H32.1839V38.4609ZM39.3942 37.6087V36.7393L43.2294 30.6712H43.8601V32.0178H43.4339L40.5362 36.603V36.6712H45.701V37.6087H39.3942ZM43.5021 39.3984V37.3445V36.9396V30.6712H44.5078V39.3984H43.5021ZM50.0252 39.5178C49.5252 39.5178 49.0749 39.4183 48.6744 39.2195C48.2738 39.0206 47.9528 38.7479 47.7113 38.4013C47.4698 38.0547 47.3377 37.6598 47.315 37.2166H48.3377C48.3775 37.6115 48.5565 37.9382 48.8746 38.1967C49.1957 38.4524 49.5792 38.5803 50.0252 38.5803C50.3832 38.5803 50.7013 38.4964 50.9798 38.3288C51.261 38.1612 51.4812 37.9311 51.6403 37.6385C51.8022 37.343 51.8832 37.0092 51.8832 36.6371C51.8832 36.2564 51.7994 35.9169 51.6317 35.6186C51.467 35.3175 51.2397 35.0803 50.9499 34.907C50.6602 34.7337 50.3292 34.6456 49.957 34.6428C49.69 34.6399 49.4158 34.6811 49.1346 34.7663C48.8533 34.8487 48.6218 34.9553 48.44 35.0859L47.4513 34.9666L47.9798 30.6712H52.5138V31.6087H48.8661L48.5593 34.1825H48.6104C48.7894 34.0405 49.0138 33.9226 49.2837 33.8288C49.5536 33.7351 49.8349 33.6882 50.1275 33.6882C50.6616 33.6882 51.1374 33.8161 51.555 34.0717C51.9755 34.3246 52.305 34.6712 52.5437 35.1115C52.7852 35.5518 52.9059 36.0547 52.9059 36.62C52.9059 37.1768 52.7809 37.674 52.5309 38.1115C52.2837 38.5462 51.9428 38.8899 51.5082 39.1428C51.0735 39.3928 50.5792 39.5178 50.0252 39.5178ZM61.7749 33.3984H60.718C60.6555 33.0945 60.5462 32.8274 60.3899 32.5973C60.2365 32.3672 60.049 32.174 59.8274 32.0178C59.6087 31.8587 59.3658 31.7393 59.0987 31.6598C58.8317 31.5803 58.5533 31.5405 58.2635 31.5405C57.7351 31.5405 57.2564 31.674 56.8274 31.9411C56.4013 32.2081 56.0618 32.6016 55.8089 33.1214C55.5589 33.6413 55.4339 34.2791 55.4339 35.0348C55.4339 35.7905 55.5589 36.4283 55.8089 36.9482C56.0618 37.468 56.4013 37.8615 56.8274 38.1286C57.2564 38.3956 57.7351 38.5291 58.2635 38.5291C58.5533 38.5291 58.8317 38.4893 59.0987 38.4098C59.3658 38.3303 59.6087 38.2124 59.8274 38.0561C60.049 37.897 60.2365 37.7024 60.3899 37.4723C60.5462 37.2393 60.6555 36.9723 60.718 36.6712H61.7749C61.6953 37.1172 61.5504 37.5163 61.3402 37.8686C61.13 38.2209 60.8686 38.5206 60.5561 38.7678C60.2436 39.0121 59.8928 39.1982 59.5036 39.326C59.1172 39.4538 58.7038 39.5178 58.2635 39.5178C57.5192 39.5178 56.8572 39.3359 56.2777 38.9723C55.6982 38.6087 55.2422 38.0916 54.9098 37.4212C54.5774 36.7507 54.4112 35.9553 54.4112 35.0348C54.4112 34.1143 54.5774 33.3189 54.9098 32.6484C55.2422 31.978 55.6982 31.4609 56.2777 31.0973C56.8572 30.7337 57.5192 30.5518 58.2635 30.5518C58.7038 30.5518 59.1172 30.6158 59.5036 30.7436C59.8928 30.8714 60.2436 31.0589 60.5561 31.3061C60.8686 31.5504 61.13 31.8487 61.3402 32.201C61.5504 32.5504 61.6953 32.9496 61.7749 33.3984ZM66.1758 39.5178C65.5337 39.5178 64.9869 39.343 64.5352 38.9936C64.0835 38.6413 63.7383 38.1314 63.4996 37.4638C63.261 36.7933 63.1417 35.9837 63.1417 35.0348C63.1417 34.0916 63.261 33.2862 63.4996 32.6186C63.7411 31.9482 64.0877 31.4368 64.5394 31.0845C64.994 30.7294 65.5394 30.5518 66.1758 30.5518C66.8121 30.5518 67.3562 30.7294 67.8079 31.0845C68.2624 31.4368 68.609 31.9482 68.8477 32.6186C69.0891 33.2862 69.2099 34.0916 69.2099 35.0348C69.2099 35.9837 69.0906 36.7933 68.8519 37.4638C68.6133 38.1314 68.2681 38.6413 67.8164 38.9936C67.3647 39.343 66.8178 39.5178 66.1758 39.5178ZM66.1758 38.5803C66.8121 38.5803 67.3065 38.2734 67.6587 37.6598C68.011 37.0462 68.1871 36.1712 68.1871 35.0348C68.1871 34.2791 68.1062 33.6357 67.9442 33.1044C67.7852 32.5732 67.555 32.1683 67.2539 31.8899C66.9556 31.6115 66.5962 31.4723 66.1758 31.4723C65.5451 31.4723 65.0522 31.7834 64.6971 32.4055C64.342 33.0249 64.1644 33.9013 64.1644 35.0348C64.1644 35.7905 64.244 36.4325 64.4031 36.9609C64.5621 37.4893 64.7908 37.8913 65.0891 38.1669C65.3903 38.4425 65.7525 38.5803 66.1758 38.5803ZM70.8292 39.3984V38.6314L73.7099 35.478C74.0479 35.1087 74.3263 34.7876 74.5451 34.5149C74.7638 34.2393 74.9258 33.9808 75.0309 33.7393C75.1388 33.495 75.1928 33.2393 75.1928 32.9723C75.1928 32.6655 75.119 32.3999 74.9712 32.1754C74.8263 31.951 74.6275 31.7777 74.3746 31.6555C74.1218 31.5334 73.8377 31.4723 73.5224 31.4723C73.1871 31.4723 72.8945 31.5419 72.6445 31.6811C72.3974 31.8175 72.2056 32.0092 72.0692 32.2564C71.9357 32.5036 71.869 32.7933 71.869 33.1257H70.8633C70.8633 32.6143 70.9812 32.1655 71.217 31.7791C71.4528 31.3928 71.7738 31.0916 72.18 30.8757C72.5891 30.6598 73.0479 30.5518 73.5565 30.5518C74.0678 30.5518 74.521 30.6598 74.9158 30.8757C75.3107 31.0916 75.6204 31.3828 75.8448 31.7493C76.0692 32.1158 76.1815 32.5234 76.1815 32.9723C76.1815 33.2933 76.1232 33.6072 76.0067 33.9141C75.8931 34.218 75.6942 34.5575 75.4102 34.9325C75.1289 35.3047 74.7383 35.7592 74.2383 36.2962L72.2781 38.3928V38.4609H76.3349V39.3984H70.8292Z" fill="white"/>
<path d="M0 46.3984H100V61.3984C100 65.8167 96.4183 69.3984 92 69.3984H8C3.58172 69.3984 0 65.8167 0 61.3984V46.3984Z" fill="#FFD5B6"/>
<path d="M0.5 46.8984H99.5V61.3984C99.5 65.5406 96.1421 68.8984 92 68.8984H8C3.85786 68.8984 0.5 65.5406 0.5 61.3984V46.8984Z" stroke="black" stroke-opacity="0.04"/>
<path d="M27.6761 62.3984L29.108 53.6712H29.9602L28.5284 62.3984H27.6761ZM23.7045 59.978L23.8409 59.1257H30.3523L30.2159 59.978H23.7045ZM24.608 62.3984L26.0398 53.6712H26.892L25.4602 62.3984H24.608ZM24.2159 56.9439L24.3523 56.0916H30.8636L30.7273 56.9439H24.2159ZM32.1271 62.3984V53.6712H37.3601V54.6087H33.1839V57.5575H36.968V58.495H33.1839V62.3984H32.1271ZM39.1701 62.3984V53.6712H44.4031V54.6087H40.2269V57.5575H44.011V58.495H40.2269V62.3984H39.1701ZM48.9062 62.3984H46.2131V53.6712H49.0256C49.8722 53.6712 50.5966 53.8459 51.1989 54.1953C51.8011 54.5419 52.2628 55.0405 52.5838 55.6911C52.9048 56.3388 53.0653 57.1143 53.0653 58.0178C53.0653 58.9268 52.9034 59.7095 52.5795 60.3658C52.2557 61.0192 51.7841 61.522 51.1648 61.8743C50.5455 62.2237 49.7926 62.3984 48.9062 62.3984ZM47.2699 61.4609H48.8381C49.5597 61.4609 50.1577 61.3217 50.6321 61.0433C51.1065 60.7649 51.4602 60.3686 51.6932 59.8544C51.9261 59.3402 52.0426 58.728 52.0426 58.0178C52.0426 57.3132 51.9276 56.7067 51.6974 56.1982C51.4673 55.6868 51.1236 55.2947 50.6662 55.022C50.2088 54.7464 49.6392 54.6087 48.9574 54.6087H47.2699V61.4609ZM57.4119 62.5178C56.9119 62.5178 56.4616 62.4183 56.0611 62.2195C55.6605 62.0206 55.3395 61.7479 55.098 61.4013C54.8565 61.0547 54.7244 60.6598 54.7017 60.2166H55.7244C55.7642 60.6115 55.9432 60.9382 56.2614 61.1967C56.5824 61.4524 56.9659 61.5803 57.4119 61.5803C57.7699 61.5803 58.0881 61.4964 58.3665 61.3288C58.6477 61.1612 58.8679 60.9311 59.027 60.6385C59.1889 60.343 59.2699 60.0092 59.2699 59.6371C59.2699 59.2564 59.1861 58.9169 59.0185 58.6186C58.8537 58.3175 58.6264 58.0803 58.3366 57.907C58.0469 57.7337 57.7159 57.6456 57.3438 57.6428C57.0767 57.6399 56.8026 57.6811 56.5213 57.7663C56.2401 57.8487 56.0085 57.9553 55.8267 58.0859L54.8381 57.9666L55.3665 53.6712H59.9006V54.6087H56.2528L55.946 57.1825H55.9972C56.1761 57.0405 56.4006 56.9226 56.6705 56.8288C56.9403 56.7351 57.2216 56.6882 57.5142 56.6882C58.0483 56.6882 58.5241 56.8161 58.9418 57.0717C59.3622 57.3246 59.6918 57.6712 59.9304 58.1115C60.1719 58.5518 60.2926 59.0547 60.2926 59.62C60.2926 60.1768 60.1676 60.674 59.9176 61.1115C59.6705 61.5462 59.3295 61.8899 58.8949 62.1428C58.4602 62.3928 57.9659 62.5178 57.4119 62.5178ZM62.1388 62.3984V53.6712H65.19C65.7979 53.6712 66.2994 53.7763 66.6942 53.9865C67.0891 54.1939 67.3832 54.4737 67.5763 54.826C67.7695 55.1754 67.8661 55.5632 67.8661 55.9893C67.8661 56.3643 67.7994 56.674 67.6658 56.9183C67.5352 57.1626 67.3619 57.3558 67.146 57.4979C66.9329 57.6399 66.7013 57.745 66.4513 57.8132V57.8984C66.7184 57.9155 66.9869 58.0092 67.2567 58.1797C67.5266 58.3501 67.7525 58.5945 67.9343 58.9126C68.1161 59.2308 68.207 59.62 68.207 60.0803C68.207 60.5178 68.1076 60.9112 67.9087 61.2607C67.7099 61.6101 67.396 61.8871 66.967 62.0916C66.538 62.2962 65.9798 62.3984 65.2923 62.3984H62.1388ZM63.1957 61.4609H65.2923C65.9826 61.4609 66.4727 61.3274 66.7624 61.0604C67.055 60.7905 67.2013 60.4638 67.2013 60.0803C67.2013 59.7848 67.1261 59.5121 66.9755 59.2621C66.8249 59.0092 66.6104 58.8075 66.332 58.657C66.0536 58.5036 65.7241 58.4268 65.3434 58.4268H63.1957V61.4609ZM63.1957 57.5064H65.1559C65.4741 57.5064 65.761 57.4439 66.0167 57.3189C66.2752 57.1939 66.4798 57.0178 66.6303 56.7905C66.7837 56.5632 66.8604 56.2962 66.8604 55.9893C66.8604 55.6058 66.7269 55.2805 66.4599 55.0135C66.1928 54.7436 65.7695 54.6087 65.19 54.6087H63.1957V57.5064ZM72.6879 62.5178C72.3299 62.5121 71.9719 62.4439 71.614 62.3132C71.256 62.1825 70.9293 61.9624 70.6339 61.6527C70.3384 61.3402 70.1012 60.9183 69.9222 60.3871C69.7433 59.853 69.6538 59.1825 69.6538 58.3757C69.6538 57.603 69.7262 56.9183 69.8711 56.3217C70.016 55.7223 70.2262 55.218 70.5018 54.8089C70.7773 54.397 71.1097 54.0845 71.4989 53.8714C71.891 53.6584 72.3327 53.5518 72.8242 53.5518C73.3129 53.5518 73.7475 53.6499 74.1282 53.8459C74.5117 54.0391 74.8242 54.3089 75.0657 54.6555C75.3072 55.0021 75.4634 55.4013 75.5344 55.853H74.4947C74.3981 55.4609 74.2106 55.1357 73.9322 54.8771C73.6538 54.6186 73.2844 54.4893 72.8242 54.4893C72.1481 54.4893 71.6154 54.7834 71.2262 55.3714C70.8398 55.9595 70.6452 56.7848 70.6424 57.8473H70.7106C70.8697 57.6058 71.0586 57.3999 71.2773 57.2294C71.4989 57.0561 71.7433 56.9226 72.0103 56.8288C72.2773 56.7351 72.56 56.6882 72.8583 56.6882C73.3583 56.6882 73.8157 56.8132 74.2305 57.0632C74.6452 57.3104 74.9776 57.6527 75.2276 58.0902C75.4776 58.5249 75.6026 59.0234 75.6026 59.5859C75.6026 60.1257 75.4819 60.62 75.2404 61.0689C74.9989 61.5149 74.6594 61.87 74.2219 62.1342C73.7873 62.3956 73.2759 62.5234 72.6879 62.5178ZM72.6879 61.5803C73.0458 61.5803 73.3668 61.4908 73.6509 61.3118C73.9379 61.1328 74.1637 60.8928 74.3285 60.5916C74.4961 60.2905 74.5799 59.9553 74.5799 59.5859C74.5799 59.2251 74.4989 58.897 74.337 58.6016C74.1779 58.3033 73.9577 58.0661 73.6765 57.8899C73.3981 57.7138 73.0799 57.6257 72.7219 57.6257C72.4521 57.6257 72.2006 57.6797 71.9677 57.7876C71.7347 57.8928 71.5302 58.0376 71.354 58.2223C71.1808 58.407 71.0444 58.6186 70.945 58.8572C70.8455 59.093 70.7958 59.3416 70.7958 59.603C70.7958 59.9496 70.8768 60.2734 71.0387 60.5746C71.2035 60.8757 71.4279 61.1186 71.712 61.3033C71.9989 61.4879 72.3242 61.5803 72.6879 61.5803Z" fill="#161C0F"/>
</svg>
