<svg width="100" height="70" viewBox="0 0 100 70" fill="none" xmlns="http://www.w3.org/2000/svg">
<path d="M0 8.39844C0 3.98016 3.58172 0.398438 8 0.398438H92C96.4183 0.398438 100 3.98016 100 8.39844V23.3984H0V8.39844Z" fill="#4E2A0F"/>
<path d="M0.5 8.39844C0.5 4.2563 3.85786 0.898438 8 0.898438H92C96.1421 0.898438 99.5 4.2563 99.5 8.39844V22.8984H0.5V8.39844Z" stroke="black" stroke-opacity="0.04"/>
<path d="M27.6761 16.3984L29.108 7.67116H29.9602L28.5284 16.3984H27.6761ZM23.7045 13.978L23.8409 13.1257H30.3523L30.2159 13.978H23.7045ZM24.608 16.3984L26.0398 7.67116H26.892L25.4602 16.3984H24.608ZM24.2159 10.9439L24.3523 10.0916H30.8636L30.7273 10.9439H24.2159ZM31.7692 14.6087V13.7393L35.6044 7.67116H36.2351V9.01776H35.8089L32.9112 13.603V13.6712H38.076V14.6087H31.7692ZM35.8771 16.3984V14.3445V13.9396V7.67116H36.8828V16.3984H35.8771ZM39.8263 16.3984V7.67116H45.0934V8.60866H40.8832V11.5575H44.8207V12.495H40.8832V15.4609H45.1616V16.3984H39.8263ZM46.8448 16.3984V15.6314L49.7255 12.478C50.0636 12.1087 50.342 11.7876 50.5607 11.5149C50.7795 11.2393 50.9414 10.9808 51.0465 10.7393C51.1545 10.495 51.2085 10.2393 51.2085 9.9723C51.2085 9.66548 51.1346 9.39986 50.9869 9.17543C50.842 8.95099 50.6431 8.7777 50.3903 8.65554C50.1374 8.53338 49.8533 8.4723 49.538 8.4723C49.2028 8.4723 48.9102 8.5419 48.6602 8.68111C48.413 8.81747 48.2212 9.00923 48.0849 9.25639C47.9513 9.50355 47.8846 9.79332 47.8846 10.1257H46.8789C46.8789 9.61435 46.9968 9.16548 47.2326 8.77912C47.4684 8.39276 47.7894 8.09162 48.1957 7.87571C48.6048 7.6598 49.0636 7.55185 49.5721 7.55185C50.0835 7.55185 50.5366 7.6598 50.9315 7.87571C51.3263 8.09162 51.636 8.38281 51.8604 8.74929C52.0849 9.11577 52.1971 9.52344 52.1971 9.9723C52.1971 10.2933 52.1388 10.6072 52.0224 10.9141C51.9087 11.218 51.7099 11.5575 51.4258 11.9325C51.1445 12.3047 50.7539 12.7592 50.2539 13.2962L48.2937 15.3928V15.4609H52.3505V16.3984H46.8448ZM54.6218 16.3984H53.5138L56.7184 7.67116H57.8093L61.0138 16.3984H59.9059L57.2979 9.05185H57.2298L54.6218 16.3984ZM55.0309 12.9893H59.4968V13.9268H55.0309V12.9893ZM65.0664 16.5178C64.4244 16.5178 63.8775 16.343 63.4258 15.9936C62.9741 15.6413 62.6289 15.1314 62.3903 14.4638C62.1516 13.7933 62.0323 12.9837 62.0323 12.0348C62.0323 11.0916 62.1516 10.2862 62.3903 9.61861C62.6317 8.94815 62.9783 8.43679 63.43 8.08452C63.8846 7.7294 64.43 7.55185 65.0664 7.55185C65.7028 7.55185 66.2468 7.7294 66.6985 8.08452C67.1531 8.43679 67.4996 8.94815 67.7383 9.61861C67.9798 10.2862 68.1005 11.0916 68.1005 12.0348C68.1005 12.9837 67.9812 13.7933 67.7425 14.4638C67.5039 15.1314 67.1587 15.6413 66.707 15.9936C66.2553 16.343 65.7085 16.5178 65.0664 16.5178ZM65.0664 15.5803C65.7028 15.5803 66.1971 15.2734 66.5494 14.6598C66.9016 14.0462 67.0778 13.1712 67.0778 12.0348C67.0778 11.2791 66.9968 10.6357 66.8349 10.1044C66.6758 9.57315 66.4457 9.16832 66.1445 8.88991C65.8462 8.61151 65.4869 8.4723 65.0664 8.4723C64.4357 8.4723 63.9428 8.78338 63.5877 9.40554C63.2326 10.0249 63.055 10.9013 63.055 12.0348C63.055 12.7905 63.1346 13.4325 63.2937 13.9609C63.4528 14.4893 63.6815 14.8913 63.9798 15.1669C64.2809 15.4425 64.6431 15.5803 65.0664 15.5803ZM69.8732 16.3984V7.67116H75.1062V8.60866H70.93V11.5575H74.7141V12.495H70.93V16.3984H69.8732Z" fill="white"/>
<rect y="23.3984" width="100" height="23" fill="#7D461B"/>
<rect x="0.5" y="23.8984" width="99" height="22" stroke="black" stroke-opacity="0.04"/>
<path d="M28.1761 39.3984L29.608 30.6712H30.4602L29.0284 39.3984H28.1761ZM24.2045 36.978L24.3409 36.1257H30.8523L30.7159 36.978H24.2045ZM25.108 39.3984L26.5398 30.6712H27.392L25.9602 39.3984H25.108ZM24.7159 33.9439L24.8523 33.0916H31.3636L31.2273 33.9439H24.7159ZM32.7464 39.3984L36.6499 31.6768V31.6087H32.1499V30.6712H37.7408V31.6598L33.8544 39.3984H32.7464ZM42.1758 39.3984H39.4826V30.6712H42.2951C43.1417 30.6712 43.8661 30.8459 44.4684 31.1953C45.0707 31.5419 45.5323 32.0405 45.8533 32.6911C46.1744 33.3388 46.3349 34.1143 46.3349 35.0178C46.3349 35.9268 46.1729 36.7095 45.8491 37.3658C45.5252 38.0192 45.0536 38.522 44.4343 38.8743C43.815 39.2237 43.0621 39.3984 42.1758 39.3984ZM40.5394 38.4609H42.1076C42.8292 38.4609 43.4272 38.3217 43.9016 38.0433C44.3761 37.7649 44.7298 37.3686 44.9627 36.8544C45.1957 36.3402 45.3121 35.728 45.3121 35.0178C45.3121 34.3132 45.1971 33.7067 44.967 33.1982C44.7369 32.6868 44.3931 32.2947 43.9357 32.022C43.4783 31.7464 42.9087 31.6087 42.2269 31.6087H40.5394V38.4609ZM47.7496 37.6087V36.7393L51.5849 30.6712H52.2156V32.0178H51.7894L48.8917 36.603V36.6712H54.0565V37.6087H47.7496ZM51.8576 39.3984V37.3445V36.9396V30.6712H52.8633V39.3984H51.8576ZM58.5511 39.5178C58.1932 39.5121 57.8352 39.4439 57.4773 39.3132C57.1193 39.1825 56.7926 38.9624 56.4972 38.6527C56.2017 38.3402 55.9645 37.9183 55.7855 37.3871C55.6065 36.853 55.517 36.1825 55.517 35.3757C55.517 34.603 55.5895 33.9183 55.7344 33.3217C55.8793 32.7223 56.0895 32.218 56.3651 31.8089C56.6406 31.397 56.973 31.0845 57.3622 30.8714C57.7543 30.6584 58.196 30.5518 58.6875 30.5518C59.1761 30.5518 59.6108 30.6499 59.9915 30.8459C60.375 31.0391 60.6875 31.3089 60.929 31.6555C61.1705 32.0021 61.3267 32.4013 61.3977 32.853H60.358C60.2614 32.4609 60.0739 32.1357 59.7955 31.8771C59.517 31.6186 59.1477 31.4893 58.6875 31.4893C58.0114 31.4893 57.4787 31.7834 57.0895 32.3714C56.7031 32.9595 56.5085 33.7848 56.5057 34.8473H56.5739C56.733 34.6058 56.9219 34.3999 57.1406 34.2294C57.3622 34.0561 57.6065 33.9226 57.8736 33.8288C58.1406 33.7351 58.4233 33.6882 58.7216 33.6882C59.2216 33.6882 59.679 33.8132 60.0938 34.0632C60.5085 34.3104 60.8409 34.6527 61.0909 35.0902C61.3409 35.5249 61.4659 36.0234 61.4659 36.5859C61.4659 37.1257 61.3452 37.62 61.1037 38.0689C60.8622 38.5149 60.5227 38.87 60.0852 39.1342C59.6506 39.3956 59.1392 39.5234 58.5511 39.5178ZM58.5511 38.5803C58.9091 38.5803 59.2301 38.4908 59.5142 38.3118C59.8011 38.1328 60.027 37.8928 60.1918 37.5916C60.3594 37.2905 60.4432 36.9553 60.4432 36.5859C60.4432 36.2251 60.3622 35.897 60.2003 35.6016C60.0412 35.3033 59.821 35.0661 59.5398 34.8899C59.2614 34.7138 58.9432 34.6257 58.5852 34.6257C58.3153 34.6257 58.0639 34.6797 57.831 34.7876C57.598 34.8928 57.3935 35.0376 57.2173 35.2223C57.044 35.407 56.9077 35.6186 56.8082 35.8572C56.7088 36.093 56.6591 36.3416 56.6591 36.603C56.6591 36.9496 56.7401 37.2734 56.902 37.5746C57.0668 37.8757 57.2912 38.1186 57.5753 38.3033C57.8622 38.4879 58.1875 38.5803 58.5511 38.5803ZM66.2099 30.6712V39.3984H65.1531V31.7791H65.1019L62.9712 33.1939V32.12L65.1531 30.6712H66.2099ZM68.8732 39.3984V30.6712H71.9244C72.5323 30.6712 73.0337 30.7763 73.4286 30.9865C73.8235 31.1939 74.1175 31.4737 74.3107 31.826C74.5039 32.1754 74.6005 32.5632 74.6005 32.9893C74.6005 33.3643 74.5337 33.674 74.4002 33.9183C74.2695 34.1626 74.0962 34.3558 73.8803 34.4979C73.6673 34.6399 73.4357 34.745 73.1857 34.8132V34.8984C73.4528 34.9155 73.7212 35.0092 73.9911 35.1797C74.261 35.3501 74.4869 35.5945 74.6687 35.9126C74.8505 36.2308 74.9414 36.62 74.9414 37.0803C74.9414 37.5178 74.842 37.9112 74.6431 38.2607C74.4442 38.6101 74.1303 38.8871 73.7013 39.0916C73.2724 39.2962 72.7141 39.3984 72.0266 39.3984H68.8732ZM69.93 38.4609H72.0266C72.717 38.4609 73.207 38.3274 73.4968 38.0604C73.7894 37.7905 73.9357 37.4638 73.9357 37.0803C73.9357 36.7848 73.8604 36.5121 73.7099 36.2621C73.5593 36.0092 73.3448 35.8075 73.0664 35.657C72.788 35.5036 72.4585 35.4268 72.0778 35.4268H69.93V38.4609ZM69.93 34.5064H71.8903C72.2085 34.5064 72.4954 34.4439 72.7511 34.3189C73.0096 34.1939 73.2141 34.0178 73.3647 33.7905C73.5181 33.5632 73.5948 33.2962 73.5948 32.9893C73.5948 32.6058 73.4613 32.2805 73.1942 32.0135C72.9272 31.7436 72.5039 31.6087 71.9244 31.6087H69.93V34.5064Z" fill="white"/>
<path d="M0 46.3984H100V61.3984C100 65.8167 96.4183 69.3984 92 69.3984H8C3.58172 69.3984 0 65.8167 0 61.3984V46.3984Z" fill="#D5C1B2"/>
<path d="M0.5 46.8984H99.5V61.3984C99.5 65.5406 96.1421 68.8984 92 68.8984H8C3.85786 68.8984 0.5 65.5406 0.5 61.3984V46.8984Z" stroke="black" stroke-opacity="0.04"/>
<path d="M27.1761 62.3984L28.608 53.6712H29.4602L28.0284 62.3984H27.1761ZM23.2045 59.978L23.3409 59.1257H29.8523L29.7159 59.978H23.2045ZM24.108 62.3984L25.5398 53.6712H26.392L24.9602 62.3984H24.108ZM23.7159 56.9439L23.8523 56.0916H30.3636L30.2273 56.9439H23.7159ZM34.3203 62.3984H31.6271V53.6712H34.4396C35.2862 53.6712 36.0107 53.8459 36.6129 54.1953C37.2152 54.5419 37.6768 55.0405 37.9979 55.6911C38.3189 56.3388 38.4794 57.1143 38.4794 58.0178C38.4794 58.9268 38.3175 59.7095 37.9936 60.3658C37.6697 61.0192 37.1982 61.522 36.5788 61.8743C35.9595 62.2237 35.2067 62.3984 34.3203 62.3984ZM32.6839 61.4609H34.2521C34.9737 61.4609 35.5717 61.3217 36.0462 61.0433C36.5206 60.7649 36.8743 60.3686 37.1072 59.8544C37.3402 59.3402 37.4567 58.728 37.4567 58.0178C37.4567 57.3132 37.3416 56.7067 37.1115 56.1982C36.8814 55.6868 36.5376 55.2947 36.0803 55.022C35.6229 54.7464 35.0533 54.6087 34.3714 54.6087H32.6839V61.4609ZM39.8942 60.6087V59.7393L43.7294 53.6712H44.3601V55.0178H43.9339L41.0362 59.603V59.6712H46.201V60.6087H39.8942ZM44.0021 62.3984V60.3445V59.9396V53.6712H45.0078V62.3984H44.0021ZM54.9741 56.3984H53.9173C53.8548 56.0945 53.7454 55.8274 53.5891 55.5973C53.4357 55.3672 53.2482 55.174 53.0266 55.0178C52.8079 54.8587 52.565 54.7393 52.2979 54.6598C52.0309 54.5803 51.7525 54.5405 51.4627 54.5405C50.9343 54.5405 50.4556 54.674 50.0266 54.9411C49.6005 55.2081 49.261 55.6016 49.0082 56.1214C48.7582 56.6413 48.6332 57.2791 48.6332 58.0348C48.6332 58.7905 48.7582 59.4283 49.0082 59.9482C49.261 60.468 49.6005 60.8615 50.0266 61.1286C50.4556 61.3956 50.9343 61.5291 51.4627 61.5291C51.7525 61.5291 52.0309 61.4893 52.2979 61.4098C52.565 61.3303 52.8079 61.2124 53.0266 61.0561C53.2482 60.897 53.4357 60.7024 53.5891 60.4723C53.7454 60.2393 53.8548 59.9723 53.9173 59.6712H54.9741C54.8945 60.1172 54.7496 60.5163 54.5394 60.8686C54.3292 61.2209 54.0678 61.5206 53.7553 61.7678C53.4428 62.0121 53.092 62.1982 52.7028 62.326C52.3164 62.4538 51.9031 62.5178 51.4627 62.5178C50.7184 62.5178 50.0565 62.3359 49.4769 61.9723C48.8974 61.6087 48.4414 61.0916 48.109 60.4212C47.7766 59.7507 47.6104 58.9553 47.6104 58.0348C47.6104 57.1143 47.7766 56.3189 48.109 55.6484C48.4414 54.978 48.8974 54.4609 49.4769 54.0973C50.0565 53.7337 50.7184 53.5518 51.4627 53.5518C51.9031 53.5518 52.3164 53.6158 52.7028 53.7436C53.092 53.8714 53.4428 54.0589 53.7553 54.3061C54.0678 54.5504 54.3292 54.8487 54.5394 55.201C54.7496 55.5504 54.8945 55.9496 54.9741 56.3984ZM59.5966 53.6712V62.3984H58.5398V54.7791H58.4886L56.358 56.1939V55.12L58.5398 53.6712H59.5966ZM62.2599 62.3984V53.6712H65.3111C65.919 53.6712 66.4205 53.7763 66.8153 53.9865C67.2102 54.1939 67.5043 54.4737 67.6974 54.826C67.8906 55.1754 67.9872 55.5632 67.9872 55.9893C67.9872 56.3643 67.9205 56.674 67.7869 56.9183C67.6563 57.1626 67.483 57.3558 67.267 57.4979C67.054 57.6399 66.8224 57.745 66.5724 57.8132V57.8984C66.8395 57.9155 67.108 58.0092 67.3778 58.1797C67.6477 58.3501 67.8736 58.5945 68.0554 58.9126C68.2372 59.2308 68.3281 59.62 68.3281 60.0803C68.3281 60.5178 68.2287 60.9112 68.0298 61.2607C67.831 61.6101 67.517 61.8871 67.0881 62.0916C66.6591 62.2962 66.1009 62.3984 65.4134 62.3984H62.2599ZM63.3168 61.4609H65.4134C66.1037 61.4609 66.5938 61.3274 66.8835 61.0604C67.1761 60.7905 67.3224 60.4638 67.3224 60.0803C67.3224 59.7848 67.2472 59.5121 67.0966 59.2621C66.946 59.0092 66.7315 58.8075 66.4531 58.657C66.1747 58.5036 65.8452 58.4268 65.4645 58.4268H63.3168V61.4609ZM63.3168 57.5064H65.277C65.5952 57.5064 65.8821 57.4439 66.1378 57.3189C66.3963 57.1939 66.6009 57.0178 66.7514 56.7905C66.9048 56.5632 66.9815 56.2962 66.9815 55.9893C66.9815 55.6058 66.848 55.2805 66.581 55.0135C66.3139 54.7436 65.8906 54.6087 65.3111 54.6087H63.3168V57.5064ZM69.9112 62.3984V61.6314L72.7919 58.478C73.13 58.1087 73.4084 57.7876 73.6271 57.5149C73.8459 57.2393 74.0078 56.9808 74.1129 56.7393C74.2209 56.495 74.2749 56.2393 74.2749 55.9723C74.2749 55.6655 74.201 55.3999 74.0533 55.1754C73.9084 54.951 73.7095 54.7777 73.4567 54.6555C73.2038 54.5334 72.9197 54.4723 72.6044 54.4723C72.2692 54.4723 71.9766 54.5419 71.7266 54.6811C71.4794 54.8175 71.2876 55.0092 71.1513 55.2564C71.0178 55.5036 70.951 55.7933 70.951 56.1257H69.9453C69.9453 55.6143 70.0632 55.1655 70.299 54.7791C70.5348 54.3928 70.8558 54.0916 71.2621 53.8757C71.6712 53.6598 72.13 53.5518 72.6385 53.5518C73.1499 53.5518 73.603 53.6598 73.9979 53.8757C74.3928 54.0916 74.7024 54.3828 74.9268 54.7493C75.1513 55.1158 75.2635 55.5234 75.2635 55.9723C75.2635 56.2933 75.2053 56.6072 75.0888 56.9141C74.9751 57.218 74.7763 57.5575 74.4922 57.9325C74.2109 58.3047 73.8203 58.7592 73.3203 59.2962L71.3601 61.3928V61.4609H75.4169V62.3984H69.9112Z" fill="#161C0F"/>
</svg>
