<svg width="100" height="70" viewBox="0 0 100 70" fill="none" xmlns="http://www.w3.org/2000/svg">
<path d="M0 8.39844C0 3.98016 3.58172 0.398438 8 0.398438H92C96.4183 0.398438 100 3.98016 100 8.39844V23.3984H0V8.39844Z" fill="#2F2F2F"/>
<path d="M0.5 8.39844C0.5 4.2563 3.85786 0.898438 8 0.898438H92C96.1421 0.898438 99.5 4.2563 99.5 8.39844V22.8984H0.5V8.39844Z" stroke="#D5D5D5" stroke-opacity="0.5"/>
<path d="M28.6761 16.3984L30.108 7.67116H30.9602L29.5284 16.3984H28.6761ZM24.7045 13.978L24.8409 13.1257H31.3523L31.2159 13.978H24.7045ZM25.608 16.3984L27.0398 7.67116H27.892L26.4602 16.3984H25.608ZM25.2159 10.9439L25.3523 10.0916H31.8636L31.7273 10.9439H25.2159ZM32.9737 16.3984V15.6314L35.8544 12.478C36.1925 12.1087 36.4709 11.7876 36.6896 11.5149C36.9084 11.2393 37.0703 10.9808 37.1754 10.7393C37.2834 10.495 37.3374 10.2393 37.3374 9.9723C37.3374 9.66548 37.2635 9.39986 37.1158 9.17543C36.9709 8.95099 36.772 8.7777 36.5192 8.65554C36.2663 8.53338 35.9822 8.4723 35.6669 8.4723C35.3317 8.4723 35.0391 8.5419 34.7891 8.68111C34.5419 8.81747 34.3501 9.00923 34.2138 9.25639C34.0803 9.50355 34.0135 9.79332 34.0135 10.1257H33.0078C33.0078 9.61435 33.1257 9.16548 33.3615 8.77912C33.5973 8.39276 33.9183 8.09162 34.3246 7.87571C34.7337 7.6598 35.1925 7.55185 35.701 7.55185C36.2124 7.55185 36.6655 7.6598 37.0604 7.87571C37.4553 8.09162 37.7649 8.38281 37.9893 8.74929C38.2138 9.11577 38.326 9.52344 38.326 9.9723C38.326 10.2933 38.2678 10.6072 38.1513 10.9141C38.0376 11.218 37.8388 11.5575 37.5547 11.9325C37.2734 12.3047 36.8828 12.7592 36.3828 13.2962L34.4226 15.3928V15.4609H38.4794V16.3984H32.9737ZM40.3928 16.3984V7.67116H45.6257V8.60866H41.4496V11.5575H45.2337V12.495H41.4496V16.3984H40.3928ZM47.2823 16.3984V15.6314L50.163 12.478C50.5011 12.1087 50.7795 11.7876 50.9982 11.5149C51.217 11.2393 51.3789 10.9808 51.484 10.7393C51.592 10.495 51.646 10.2393 51.646 9.9723C51.646 9.66548 51.5721 9.39986 51.4244 9.17543C51.2795 8.95099 51.0806 8.7777 50.8278 8.65554C50.5749 8.53338 50.2908 8.4723 49.9755 8.4723C49.6403 8.4723 49.3477 8.5419 49.0977 8.68111C48.8505 8.81747 48.6587 9.00923 48.5224 9.25639C48.3888 9.50355 48.3221 9.79332 48.3221 10.1257H47.3164C47.3164 9.61435 47.4343 9.16548 47.6701 8.77912C47.9059 8.39276 48.2269 8.09162 48.6332 7.87571C49.0423 7.6598 49.5011 7.55185 50.0096 7.55185C50.521 7.55185 50.9741 7.6598 51.369 7.87571C51.7638 8.09162 52.0735 8.38281 52.2979 8.74929C52.5224 9.11577 52.6346 9.52344 52.6346 9.9723C52.6346 10.2933 52.5763 10.6072 52.4599 10.9141C52.3462 11.218 52.1474 11.5575 51.8633 11.9325C51.582 12.3047 51.1914 12.7592 50.6914 13.2962L48.7312 15.3928V15.4609H52.788V16.3984H47.2823ZM54.7013 16.3984V7.67116H59.9343V8.60866H55.7582V11.5575H59.5423V12.495H55.7582V16.3984H54.7013ZM61.5909 16.3984V15.6314L64.4716 12.478C64.8097 12.1087 65.0881 11.7876 65.3068 11.5149C65.5256 11.2393 65.6875 10.9808 65.7926 10.7393C65.9006 10.495 65.9545 10.2393 65.9545 9.9723C65.9545 9.66548 65.8807 9.39986 65.733 9.17543C65.5881 8.95099 65.3892 8.7777 65.1364 8.65554C64.8835 8.53338 64.5994 8.4723 64.2841 8.4723C63.9489 8.4723 63.6562 8.5419 63.4062 8.68111C63.1591 8.81747 62.9673 9.00923 62.831 9.25639C62.6974 9.50355 62.6307 9.79332 62.6307 10.1257H61.625C61.625 9.61435 61.7429 9.16548 61.9787 8.77912C62.2145 8.39276 62.5355 8.09162 62.9418 7.87571C63.3509 7.6598 63.8097 7.55185 64.3182 7.55185C64.8295 7.55185 65.2827 7.6598 65.6776 7.87571C66.0724 8.09162 66.3821 8.38281 66.6065 8.74929C66.831 9.11577 66.9432 9.52344 66.9432 9.9723C66.9432 10.2933 66.8849 10.6072 66.7685 10.9141C66.6548 11.218 66.456 11.5575 66.1719 11.9325C65.8906 12.3047 65.5 12.7592 65 13.2962L63.0398 15.3928V15.4609H67.0966V16.3984H61.5909ZM69.0099 16.3984V7.67116H74.2429V8.60866H70.0668V11.5575H73.8509V12.495H70.0668V16.3984H69.0099Z" fill="white"/>
<rect y="23.3984" width="100" height="23" fill="#767676"/>
<rect x="0.5" y="23.8984" width="99" height="22" stroke="#D5D5D5" stroke-opacity="0.5"/>
<path d="M28.6761 39.3984L30.108 30.6712H30.9602L29.5284 39.3984H28.6761ZM24.7045 36.978L24.8409 36.1257H31.3523L31.2159 36.978H24.7045ZM25.608 39.3984L27.0398 30.6712H27.892L26.4602 39.3984H25.608ZM25.2159 33.9439L25.3523 33.0916H31.8636L31.7273 33.9439H25.2159ZM33.2464 39.3984L37.1499 31.6768V31.6087H32.6499V30.6712H38.2408V31.6598L34.3544 39.3984H33.2464ZM42.5394 39.5178C42.1815 39.5121 41.8235 39.4439 41.4656 39.3132C41.1076 39.1825 40.7809 38.9624 40.4854 38.6527C40.19 38.3402 39.9528 37.9183 39.7738 37.3871C39.5948 36.853 39.5053 36.1825 39.5053 35.3757C39.5053 34.603 39.5778 33.9183 39.7227 33.3217C39.8675 32.7223 40.0778 32.218 40.3533 31.8089C40.6289 31.397 40.9613 31.0845 41.3505 30.8714C41.7425 30.6584 42.1843 30.5518 42.6758 30.5518C43.1644 30.5518 43.5991 30.6499 43.9798 30.8459C44.3633 31.0391 44.6758 31.3089 44.9173 31.6555C45.1587 32.0021 45.315 32.4013 45.386 32.853H44.3462C44.2496 32.4609 44.0621 32.1357 43.7837 31.8771C43.5053 31.6186 43.136 31.4893 42.6758 31.4893C41.9996 31.4893 41.467 31.7834 41.0778 32.3714C40.6914 32.9595 40.4968 33.7848 40.494 34.8473H40.5621C40.7212 34.6058 40.9102 34.3999 41.1289 34.2294C41.3505 34.0561 41.5948 33.9226 41.8619 33.8288C42.1289 33.7351 42.4116 33.6882 42.7099 33.6882C43.2099 33.6882 43.6673 33.8132 44.082 34.0632C44.4968 34.3104 44.8292 34.6527 45.0792 35.0902C45.3292 35.5249 45.4542 36.0234 45.4542 36.5859C45.4542 37.1257 45.3335 37.62 45.092 38.0689C44.8505 38.5149 44.511 38.87 44.0735 39.1342C43.6388 39.3956 43.1275 39.5234 42.5394 39.5178ZM42.5394 38.5803C42.8974 38.5803 43.2184 38.4908 43.5025 38.3118C43.7894 38.1328 44.0153 37.8928 44.18 37.5916C44.3477 37.2905 44.4315 36.9553 44.4315 36.5859C44.4315 36.2251 44.3505 35.897 44.1886 35.6016C44.0295 35.3033 43.8093 35.0661 43.5281 34.8899C43.2496 34.7138 42.9315 34.6257 42.5735 34.6257C42.3036 34.6257 42.0522 34.6797 41.8192 34.7876C41.5863 34.8928 41.3817 35.0376 41.2056 35.2223C41.0323 35.407 40.896 35.6186 40.7965 35.8572C40.6971 36.093 40.6474 36.3416 40.6474 36.603C40.6474 36.9496 40.7283 37.2734 40.8903 37.5746C41.055 37.8757 41.2795 38.1186 41.5636 38.3033C41.8505 38.4879 42.1758 38.5803 42.5394 38.5803ZM47.4027 39.3984L51.3061 31.6768V31.6087H46.8061V30.6712H52.397V31.6598L48.5107 39.3984H47.4027ZM56.6957 39.5178C56.3377 39.5121 55.9798 39.4439 55.6218 39.3132C55.2638 39.1825 54.9371 38.9624 54.6417 38.6527C54.3462 38.3402 54.109 37.9183 53.93 37.3871C53.7511 36.853 53.6616 36.1825 53.6616 35.3757C53.6616 34.603 53.734 33.9183 53.8789 33.3217C54.0238 32.7223 54.234 32.218 54.5096 31.8089C54.7852 31.397 55.1175 31.0845 55.5067 30.8714C55.8988 30.6584 56.3406 30.5518 56.832 30.5518C57.3207 30.5518 57.7553 30.6499 58.136 30.8459C58.5195 31.0391 58.832 31.3089 59.0735 31.6555C59.315 32.0021 59.4712 32.4013 59.5423 32.853H58.5025C58.4059 32.4609 58.2184 32.1357 57.94 31.8771C57.6616 31.6186 57.2923 31.4893 56.832 31.4893C56.1559 31.4893 55.6232 31.7834 55.234 32.3714C54.8477 32.9595 54.6531 33.7848 54.6502 34.8473H54.7184C54.8775 34.6058 55.0664 34.3999 55.2852 34.2294C55.5067 34.0561 55.7511 33.9226 56.0181 33.8288C56.2852 33.7351 56.5678 33.6882 56.8661 33.6882C57.3661 33.6882 57.8235 33.8132 58.2383 34.0632C58.6531 34.3104 58.9854 34.6527 59.2354 35.0902C59.4854 35.5249 59.6104 36.0234 59.6104 36.5859C59.6104 37.1257 59.4897 37.62 59.2482 38.0689C59.0067 38.5149 58.6673 38.87 58.2298 39.1342C57.7951 39.3956 57.2837 39.5234 56.6957 39.5178ZM56.6957 38.5803C57.0536 38.5803 57.3746 38.4908 57.6587 38.3118C57.9457 38.1328 58.1715 37.8928 58.3363 37.5916C58.5039 37.2905 58.5877 36.9553 58.5877 36.5859C58.5877 36.2251 58.5067 35.897 58.3448 35.6016C58.1857 35.3033 57.9656 35.0661 57.6843 34.8899C57.4059 34.7138 57.0877 34.6257 56.7298 34.6257C56.4599 34.6257 56.2085 34.6797 55.9755 34.7876C55.7425 34.8928 55.538 35.0376 55.3619 35.2223C55.1886 35.407 55.0522 35.6186 54.9528 35.8572C54.8533 36.093 54.8036 36.3416 54.8036 36.603C54.8036 36.9496 54.8846 37.2734 55.0465 37.5746C55.2113 37.8757 55.4357 38.1186 55.7198 38.3033C56.0067 38.4879 56.332 38.5803 56.6957 38.5803ZM61.5589 39.3984L65.4624 31.6768V31.6087H60.9624V30.6712H66.5533V31.6598L62.6669 39.3984H61.5589ZM70.8519 39.5178C70.494 39.5121 70.136 39.4439 69.7781 39.3132C69.4201 39.1825 69.0934 38.9624 68.7979 38.6527C68.5025 38.3402 68.2653 37.9183 68.0863 37.3871C67.9073 36.853 67.8178 36.1825 67.8178 35.3757C67.8178 34.603 67.8903 33.9183 68.0352 33.3217C68.18 32.7223 68.3903 32.218 68.6658 31.8089C68.9414 31.397 69.2738 31.0845 69.663 30.8714C70.055 30.6584 70.4968 30.5518 70.9883 30.5518C71.4769 30.5518 71.9116 30.6499 72.2923 30.8459C72.6758 31.0391 72.9883 31.3089 73.2298 31.6555C73.4712 32.0021 73.6275 32.4013 73.6985 32.853H72.6587C72.5621 32.4609 72.3746 32.1357 72.0962 31.8771C71.8178 31.6186 71.4485 31.4893 70.9883 31.4893C70.3121 31.4893 69.7795 31.7834 69.3903 32.3714C69.0039 32.9595 68.8093 33.7848 68.8065 34.8473H68.8746C69.0337 34.6058 69.2227 34.3999 69.4414 34.2294C69.663 34.0561 69.9073 33.9226 70.1744 33.8288C70.4414 33.7351 70.7241 33.6882 71.0224 33.6882C71.5224 33.6882 71.9798 33.8132 72.3945 34.0632C72.8093 34.3104 73.1417 34.6527 73.3917 35.0902C73.6417 35.5249 73.7667 36.0234 73.7667 36.5859C73.7667 37.1257 73.646 37.62 73.4045 38.0689C73.163 38.5149 72.8235 38.87 72.386 39.1342C71.9513 39.3956 71.44 39.5234 70.8519 39.5178ZM70.8519 38.5803C71.2099 38.5803 71.5309 38.4908 71.815 38.3118C72.1019 38.1328 72.3278 37.8928 72.4925 37.5916C72.6602 37.2905 72.744 36.9553 72.744 36.5859C72.744 36.2251 72.663 35.897 72.5011 35.6016C72.342 35.3033 72.1218 35.0661 71.8406 34.8899C71.5621 34.7138 71.244 34.6257 70.886 34.6257C70.6161 34.6257 70.3647 34.6797 70.1317 34.7876C69.8988 34.8928 69.6942 35.0376 69.5181 35.2223C69.3448 35.407 69.2085 35.6186 69.109 35.8572C69.0096 36.093 68.9599 36.3416 68.9599 36.603C68.9599 36.9496 69.0408 37.2734 69.2028 37.5746C69.3675 37.8757 69.592 38.1186 69.8761 38.3033C70.163 38.4879 70.4883 38.5803 70.8519 38.5803Z" fill="white"/>
<path d="M0 46.3984H100V61.3984C100 65.8167 96.4183 69.3984 92 69.3984H8C3.58172 69.3984 0 65.8167 0 61.3984V46.3984Z" fill="#C7C7C7"/>
<path d="M0.5 46.8984H99.5V61.3984C99.5 65.5406 96.1421 68.8984 92 68.8984H8C3.85786 68.8984 0.5 65.5406 0.5 61.3984V46.8984Z" stroke="#D5D5D5" stroke-opacity="0.5"/>
<path d="M26.6761 62.3984L28.108 53.6712H28.9602L27.5284 62.3984H26.6761ZM22.7045 59.978L22.8409 59.1257H29.3523L29.2159 59.978H22.7045ZM23.608 62.3984L25.0398 53.6712H25.892L24.4602 62.3984H23.608ZM23.2159 56.9439L23.3523 56.0916H29.8636L29.7273 56.9439H23.2159ZM38.1499 56.3984H37.093C37.0305 56.0945 36.9212 55.8274 36.7649 55.5973C36.6115 55.3672 36.424 55.174 36.2024 55.0178C35.9837 54.8587 35.7408 54.7393 35.4737 54.6598C35.2067 54.5803 34.9283 54.5405 34.6385 54.5405C34.1101 54.5405 33.6314 54.674 33.2024 54.9411C32.7763 55.2081 32.4368 55.6016 32.1839 56.1214C31.9339 56.6413 31.8089 57.2791 31.8089 58.0348C31.8089 58.7905 31.9339 59.4283 32.1839 59.9482C32.4368 60.468 32.7763 60.8615 33.2024 61.1286C33.6314 61.3956 34.1101 61.5291 34.6385 61.5291C34.9283 61.5291 35.2067 61.4893 35.4737 61.4098C35.7408 61.3303 35.9837 61.2124 36.2024 61.0561C36.424 60.897 36.6115 60.7024 36.7649 60.4723C36.9212 60.2393 37.0305 59.9723 37.093 59.6712H38.1499C38.0703 60.1172 37.9254 60.5163 37.7152 60.8686C37.505 61.2209 37.2436 61.5206 36.9311 61.7678C36.6186 62.0121 36.2678 62.1982 35.8786 62.326C35.4922 62.4538 35.0788 62.5178 34.6385 62.5178C33.8942 62.5178 33.2322 62.3359 32.6527 61.9723C32.0732 61.6087 31.6172 61.0916 31.2848 60.4212C30.9524 59.7507 30.7862 58.9553 30.7862 58.0348C30.7862 57.1143 30.9524 56.3189 31.2848 55.6484C31.6172 54.978 32.0732 54.4609 32.6527 54.0973C33.2322 53.7337 33.8942 53.5518 34.6385 53.5518C35.0788 53.5518 35.4922 53.6158 35.8786 53.7436C36.2678 53.8714 36.6186 54.0589 36.9311 54.3061C37.2436 54.5504 37.505 54.8487 37.7152 55.201C37.9254 55.5504 38.0703 55.9496 38.1499 56.3984ZM39.9769 62.3984L43.8803 54.6768V54.6087H39.3803V53.6712H44.9712V54.6598L41.0849 62.3984H39.9769ZM53.7358 56.3984H52.679C52.6165 56.0945 52.5071 55.8274 52.3509 55.5973C52.1974 55.3672 52.0099 55.174 51.7884 55.0178C51.5696 54.8587 51.3267 54.7393 51.0597 54.6598C50.7926 54.5803 50.5142 54.5405 50.2244 54.5405C49.696 54.5405 49.2173 54.674 48.7884 54.9411C48.3622 55.2081 48.0227 55.6016 47.7699 56.1214C47.5199 56.6413 47.3949 57.2791 47.3949 58.0348C47.3949 58.7905 47.5199 59.4283 47.7699 59.9482C48.0227 60.468 48.3622 60.8615 48.7884 61.1286C49.2173 61.3956 49.696 61.5291 50.2244 61.5291C50.5142 61.5291 50.7926 61.4893 51.0597 61.4098C51.3267 61.3303 51.5696 61.2124 51.7884 61.0561C52.0099 60.897 52.1974 60.7024 52.3509 60.4723C52.5071 60.2393 52.6165 59.9723 52.679 59.6712H53.7358C53.6563 60.1172 53.5114 60.5163 53.3011 60.8686C53.0909 61.2209 52.8295 61.5206 52.517 61.7678C52.2045 62.0121 51.8537 62.1982 51.4645 62.326C51.0781 62.4538 50.6648 62.5178 50.2244 62.5178C49.4801 62.5178 48.8182 62.3359 48.2386 61.9723C47.6591 61.6087 47.2031 61.0916 46.8707 60.4212C46.5384 59.7507 46.3722 58.9553 46.3722 58.0348C46.3722 57.1143 46.5384 56.3189 46.8707 55.6484C47.2031 54.978 47.6591 54.4609 48.2386 54.0973C48.8182 53.7337 49.4801 53.5518 50.2244 53.5518C50.6648 53.5518 51.0781 53.6158 51.4645 53.7436C51.8537 53.8714 52.2045 54.0589 52.517 54.3061C52.8295 54.5504 53.0909 54.8487 53.3011 55.201C53.5114 55.5504 53.6563 55.9496 53.7358 56.3984ZM55.5629 62.3984L59.4663 54.6768V54.6087H54.9663V53.6712H60.5572V54.6598L56.6708 62.3984H55.5629ZM69.3217 56.3984H68.2649C68.2024 56.0945 68.093 55.8274 67.9368 55.5973C67.7834 55.3672 67.5959 55.174 67.3743 55.0178C67.1555 54.8587 66.9126 54.7393 66.6456 54.6598C66.3786 54.5803 66.1001 54.5405 65.8104 54.5405C65.282 54.5405 64.8033 54.674 64.3743 54.9411C63.9482 55.2081 63.6087 55.6016 63.3558 56.1214C63.1058 56.6413 62.9808 57.2791 62.9808 58.0348C62.9808 58.7905 63.1058 59.4283 63.3558 59.9482C63.6087 60.468 63.9482 60.8615 64.3743 61.1286C64.8033 61.3956 65.282 61.5291 65.8104 61.5291C66.1001 61.5291 66.3786 61.4893 66.6456 61.4098C66.9126 61.3303 67.1555 61.2124 67.3743 61.0561C67.5959 60.897 67.7834 60.7024 67.9368 60.4723C68.093 60.2393 68.2024 59.9723 68.2649 59.6712H69.3217C69.2422 60.1172 69.0973 60.5163 68.8871 60.8686C68.6768 61.2209 68.4155 61.5206 68.103 61.7678C67.7905 62.0121 67.4396 62.1982 67.0504 62.326C66.6641 62.4538 66.2507 62.5178 65.8104 62.5178C65.0661 62.5178 64.4041 62.3359 63.8246 61.9723C63.245 61.6087 62.7891 61.0916 62.4567 60.4212C62.1243 59.7507 61.9581 58.9553 61.9581 58.0348C61.9581 57.1143 62.1243 56.3189 62.4567 55.6484C62.7891 54.978 63.245 54.4609 63.8246 54.0973C64.4041 53.7337 65.0661 53.5518 65.8104 53.5518C66.2507 53.5518 66.6641 53.6158 67.0504 53.7436C67.4396 53.8714 67.7905 54.0589 68.103 54.3061C68.4155 54.5504 68.6768 54.8487 68.8871 55.201C69.0973 55.5504 69.2422 55.9496 69.3217 56.3984ZM71.1488 62.3984L75.0522 54.6768V54.6087H70.5522V53.6712H76.1431V54.6598L72.2567 62.3984H71.1488Z" fill="#161C0F"/>
</svg>
