<svg width="100" height="47" viewBox="0 0 100 47" fill="none" xmlns="http://www.w3.org/2000/svg">
<path d="M0 8.39844C0 3.98016 3.58172 0.398438 8 0.398438H92C96.4183 0.398438 100 3.98016 100 8.39844V23.3984H0V8.39844Z" fill="#E8F3ED"/>
<path d="M8 0.898438H92C96.1421 0.898438 99.5 4.2563 99.5 8.39844V22.8984H0.5V8.39844C0.5 4.2563 3.85786 0.898438 8 0.898438Z" stroke="black" stroke-opacity="0.04"/>
<path d="M27.6761 16.3984L29.108 7.67116H29.9602L28.5284 16.3984H27.6761ZM23.7045 13.978L23.8409 13.1257H30.3523L30.2159 13.978H23.7045ZM24.608 16.3984L26.0398 7.67116H26.892L25.4602 16.3984H24.608ZM24.2159 10.9439L24.3523 10.0916H30.8636L30.7273 10.9439H24.2159ZM32.1271 16.3984V7.67116H37.3942V8.60866H33.1839V11.5575H37.1214V12.495H33.1839V15.4609H37.4624V16.3984H32.1271ZM41.9411 16.5178C41.3558 16.5178 40.8388 16.4141 40.3899 16.2067C39.9439 15.9964 39.5959 15.7081 39.3459 15.3416C39.0959 14.9723 38.9723 14.5518 38.9751 14.0803C38.9723 13.7109 39.0447 13.37 39.1925 13.0575C39.3402 12.7422 39.5419 12.4794 39.7976 12.2692C40.0561 12.0561 40.3445 11.9212 40.6626 11.8643V11.8132C40.245 11.7053 39.9126 11.4709 39.6655 11.1101C39.4183 10.7464 39.2962 10.3331 39.299 9.87003C39.2962 9.42685 39.4084 9.03054 39.6357 8.68111C39.8629 8.33168 40.1754 8.05611 40.5732 7.8544C40.9737 7.6527 41.4297 7.55185 41.9411 7.55185C42.4467 7.55185 42.8984 7.6527 43.2962 7.8544C43.6939 8.05611 44.0064 8.33168 44.2337 8.68111C44.4638 9.03054 44.5803 9.42685 44.5831 9.87003C44.5803 10.3331 44.4538 10.7464 44.2038 11.1101C43.9567 11.4709 43.6286 11.7053 43.2195 11.8132V11.8643C43.5348 11.9212 43.8189 12.0561 44.0717 12.2692C44.3246 12.4794 44.5263 12.7422 44.6768 13.0575C44.8274 13.37 44.9041 13.7109 44.907 14.0803C44.9041 14.5518 44.7763 14.9723 44.5234 15.3416C44.2734 15.7081 43.9254 15.9964 43.4794 16.2067C43.0362 16.4141 42.5234 16.5178 41.9411 16.5178ZM41.9411 15.5803C42.3359 15.5803 42.6768 15.5163 42.9638 15.3885C43.2507 15.2607 43.4723 15.0803 43.6286 14.8473C43.7848 14.6143 43.8643 14.3416 43.8672 14.0291C43.8643 13.6996 43.7791 13.4084 43.6115 13.1555C43.4439 12.9027 43.2152 12.7038 42.9254 12.5589C42.6385 12.4141 42.3104 12.3416 41.9411 12.3416C41.5689 12.3416 41.2365 12.4141 40.9439 12.5589C40.6541 12.7038 40.4254 12.9027 40.2578 13.1555C40.093 13.4084 40.0121 13.6996 40.0149 14.0291C40.0121 14.3416 40.0874 14.6143 40.2408 14.8473C40.397 15.0803 40.62 15.2607 40.9098 15.3885C41.1996 15.5163 41.5433 15.5803 41.9411 15.5803ZM41.9411 11.4382C42.2536 11.4382 42.5305 11.3757 42.772 11.2507C43.0163 11.1257 43.2081 10.951 43.3473 10.7266C43.4865 10.5021 43.5575 10.2393 43.5604 9.93821C43.5575 9.64276 43.4879 9.38565 43.3516 9.1669C43.2152 8.94531 43.0263 8.77486 42.7848 8.65554C42.5433 8.53338 42.2621 8.4723 41.9411 8.4723C41.6143 8.4723 41.3288 8.53338 41.0845 8.65554C40.8402 8.77486 40.6513 8.94531 40.5178 9.1669C40.3842 9.38565 40.3189 9.64276 40.3217 9.93821C40.3189 10.2393 40.3857 10.5021 40.522 10.7266C40.6612 10.951 40.853 11.1257 41.0973 11.2507C41.3416 11.3757 41.6229 11.4382 41.9411 11.4382ZM46.6935 16.3984V7.67116H51.9265V8.60866H47.7504V11.5575H51.5344V12.495H47.7504V16.3984H46.6935ZM56.532 16.5178C55.9695 16.5178 55.468 16.4212 55.0277 16.228C54.5902 16.0348 54.2422 15.7663 53.9837 15.4226C53.728 15.076 53.5888 14.674 53.5661 14.2166H54.6399C54.6626 14.4979 54.7592 14.7408 54.9297 14.9453C55.1001 15.147 55.3232 15.3033 55.5987 15.4141C55.8743 15.5249 56.1797 15.5803 56.5149 15.5803C56.8899 15.5803 57.2223 15.5149 57.5121 15.3842C57.8018 15.2536 58.0291 15.0717 58.1939 14.8388C58.3587 14.6058 58.4411 14.3359 58.4411 14.0291C58.4411 13.7081 58.3615 13.4254 58.2024 13.1811C58.0433 12.9339 57.8104 12.7408 57.5036 12.6016C57.1967 12.4624 56.8217 12.3928 56.3786 12.3928H55.6797V11.4553H56.3786C56.7251 11.4553 57.0291 11.3928 57.2905 11.2678C57.5547 11.1428 57.7607 10.9666 57.9084 10.7393C58.0589 10.5121 58.1342 10.245 58.1342 9.93821C58.1342 9.64276 58.0689 9.38565 57.9382 9.1669C57.8075 8.94815 57.6229 8.7777 57.3842 8.65554C57.1484 8.53338 56.87 8.4723 56.549 8.4723C56.2479 8.4723 55.9638 8.5277 55.6967 8.63849C55.4325 8.74645 55.2166 8.90412 55.049 9.11151C54.8814 9.31605 54.7905 9.56321 54.7763 9.85298H53.7536C53.7706 9.3956 53.9084 8.99503 54.1669 8.65128C54.4254 8.30469 54.7635 8.0348 55.1811 7.84162C55.6016 7.64844 56.0632 7.55185 56.5661 7.55185C57.1058 7.55185 57.5689 7.66122 57.9553 7.87997C58.3416 8.09588 58.6385 8.38139 58.8459 8.73651C59.0533 9.09162 59.157 9.47514 59.157 9.88707C59.157 10.3786 59.0277 10.7976 58.7692 11.1442C58.5135 11.4908 58.1655 11.7308 57.7251 11.8643V11.9325C58.2763 12.0234 58.7067 12.2578 59.0163 12.6357C59.326 13.0107 59.4808 13.4751 59.4808 14.0291C59.4808 14.5036 59.3516 14.9297 59.093 15.3075C58.8374 15.6825 58.4879 15.978 58.0447 16.1939C57.6016 16.4098 57.0973 16.5178 56.532 16.5178ZM61.3771 16.3984V7.67116H66.6442V8.60866H62.4339V11.5575H66.3714V12.495H62.4339V15.4609H66.7124V16.3984H61.3771ZM71.2422 16.3984H68.549V7.67116H71.3615C72.2081 7.67116 72.9325 7.84588 73.5348 8.19531C74.1371 8.5419 74.5987 9.04048 74.9197 9.69105C75.2408 10.3388 75.4013 11.1143 75.4013 12.0178C75.4013 12.9268 75.2393 13.7095 74.9155 14.3658C74.5916 15.0192 74.12 15.522 73.5007 15.8743C72.8814 16.2237 72.1286 16.3984 71.2422 16.3984ZM69.6058 15.4609H71.174C71.8956 15.4609 72.4936 15.3217 72.968 15.0433C73.4425 14.7649 73.7962 14.3686 74.0291 13.8544C74.2621 13.3402 74.3786 12.728 74.3786 12.0178C74.3786 11.3132 74.2635 10.7067 74.0334 10.1982C73.8033 9.68679 73.4595 9.29474 73.0021 9.02202C72.5447 8.74645 71.9751 8.60866 71.2933 8.60866H69.6058V15.4609Z" fill="#161C0F"/>
<path d="M0 23.3984H100V38.3984C100 42.8167 96.4183 46.3984 92 46.3984H8C3.58172 46.3984 0 42.8167 0 38.3984V23.3984Z" fill="#F7F7F7"/>
<path d="M0.5 23.8984H99.5V38.3984C99.5 42.5406 96.1421 45.8984 92 45.8984H8C3.85786 45.8984 0.5 42.5406 0.5 38.3984V23.8984Z" stroke="black" stroke-opacity="0.04"/>
<path d="M28.1761 39.3984L29.608 30.6712H30.4602L29.0284 39.3984H28.1761ZM24.2045 36.978L24.3409 36.1257H30.8523L30.7159 36.978H24.2045ZM25.108 39.3984L26.5398 30.6712H27.392L25.9602 39.3984H25.108ZM24.7159 33.9439L24.8523 33.0916H31.3636L31.2273 33.9439H24.7159ZM32.6271 39.3984V30.6712H37.8601V31.6087H33.6839V34.5575H37.468V35.495H33.6839V39.3984H32.6271ZM42.4144 39.5178C42.0565 39.5121 41.6985 39.4439 41.3406 39.3132C40.9826 39.1825 40.6559 38.9624 40.3604 38.6527C40.065 38.3402 39.8278 37.9183 39.6488 37.3871C39.4698 36.853 39.3803 36.1825 39.3803 35.3757C39.3803 34.603 39.4528 33.9183 39.5977 33.3217C39.7425 32.7223 39.9528 32.218 40.2283 31.8089C40.5039 31.397 40.8363 31.0845 41.2255 30.8714C41.6175 30.6584 42.0593 30.5518 42.5508 30.5518C43.0394 30.5518 43.4741 30.6499 43.8548 30.8459C44.2383 31.0391 44.5508 31.3089 44.7923 31.6555C45.0337 32.0021 45.19 32.4013 45.261 32.853H44.2212C44.1246 32.4609 43.9371 32.1357 43.6587 31.8771C43.3803 31.6186 43.011 31.4893 42.5508 31.4893C41.8746 31.4893 41.342 31.7834 40.9528 32.3714C40.5664 32.9595 40.3718 33.7848 40.369 34.8473H40.4371C40.5962 34.6058 40.7852 34.3999 41.0039 34.2294C41.2255 34.0561 41.4698 33.9226 41.7369 33.8288C42.0039 33.7351 42.2866 33.6882 42.5849 33.6882C43.0849 33.6882 43.5423 33.8132 43.957 34.0632C44.3718 34.3104 44.7042 34.6527 44.9542 35.0902C45.2042 35.5249 45.3292 36.0234 45.3292 36.5859C45.3292 37.1257 45.2085 37.62 44.967 38.0689C44.7255 38.5149 44.386 38.87 43.9485 39.1342C43.5138 39.3956 43.0025 39.5234 42.4144 39.5178ZM42.4144 38.5803C42.7724 38.5803 43.0934 38.4908 43.3775 38.3118C43.6644 38.1328 43.8903 37.8928 44.055 37.5916C44.2227 37.2905 44.3065 36.9553 44.3065 36.5859C44.3065 36.2251 44.2255 35.897 44.0636 35.6016C43.9045 35.3033 43.6843 35.0661 43.4031 34.8899C43.1246 34.7138 42.8065 34.6257 42.4485 34.6257C42.1786 34.6257 41.9272 34.6797 41.6942 34.7876C41.4613 34.8928 41.2567 35.0376 41.0806 35.2223C40.9073 35.407 40.771 35.6186 40.6715 35.8572C40.5721 36.093 40.5224 36.3416 40.5224 36.603C40.5224 36.9496 40.6033 37.2734 40.7653 37.5746C40.93 37.8757 41.1545 38.1186 41.4386 38.3033C41.7255 38.4879 42.0508 38.5803 42.4144 38.5803ZM47.1584 39.3984V30.6712H52.3913V31.6087H48.2152V34.5575H51.9993V35.495H48.2152V39.3984H47.1584ZM56.9457 39.5178C56.5877 39.5121 56.2298 39.4439 55.8718 39.3132C55.5138 39.1825 55.1871 38.9624 54.8917 38.6527C54.5962 38.3402 54.359 37.9183 54.18 37.3871C54.0011 36.853 53.9116 36.1825 53.9116 35.3757C53.9116 34.603 53.984 33.9183 54.1289 33.3217C54.2738 32.7223 54.484 32.218 54.7596 31.8089C55.0352 31.397 55.3675 31.0845 55.7567 30.8714C56.1488 30.6584 56.5906 30.5518 57.082 30.5518C57.5707 30.5518 58.0053 30.6499 58.386 30.8459C58.7695 31.0391 59.082 31.3089 59.3235 31.6555C59.565 32.0021 59.7212 32.4013 59.7923 32.853H58.7525C58.6559 32.4609 58.4684 32.1357 58.19 31.8771C57.9116 31.6186 57.5423 31.4893 57.082 31.4893C56.4059 31.4893 55.8732 31.7834 55.484 32.3714C55.0977 32.9595 54.9031 33.7848 54.9002 34.8473H54.9684C55.1275 34.6058 55.3164 34.3999 55.5352 34.2294C55.7567 34.0561 56.0011 33.9226 56.2681 33.8288C56.5352 33.7351 56.8178 33.6882 57.1161 33.6882C57.6161 33.6882 58.0735 33.8132 58.4883 34.0632C58.9031 34.3104 59.2354 34.6527 59.4854 35.0902C59.7354 35.5249 59.8604 36.0234 59.8604 36.5859C59.8604 37.1257 59.7397 37.62 59.4982 38.0689C59.2567 38.5149 58.9173 38.87 58.4798 39.1342C58.0451 39.3956 57.5337 39.5234 56.9457 39.5178ZM56.9457 38.5803C57.3036 38.5803 57.6246 38.4908 57.9087 38.3118C58.1957 38.1328 58.4215 37.8928 58.5863 37.5916C58.7539 37.2905 58.8377 36.9553 58.8377 36.5859C58.8377 36.2251 58.7567 35.897 58.5948 35.6016C58.4357 35.3033 58.2156 35.0661 57.9343 34.8899C57.6559 34.7138 57.3377 34.6257 56.9798 34.6257C56.7099 34.6257 56.4585 34.6797 56.2255 34.7876C55.9925 34.8928 55.788 35.0376 55.6119 35.2223C55.4386 35.407 55.3022 35.6186 55.2028 35.8572C55.1033 36.093 55.0536 36.3416 55.0536 36.603C55.0536 36.9496 55.1346 37.2734 55.2965 37.5746C55.4613 37.8757 55.6857 38.1186 55.9698 38.3033C56.2567 38.4879 56.582 38.5803 56.9457 38.5803ZM61.6896 39.3984V30.6712H66.9226V31.6087H62.7464V34.5575H66.5305V35.495H62.7464V39.3984H61.6896ZM71.4769 39.5178C71.119 39.5121 70.761 39.4439 70.4031 39.3132C70.0451 39.1825 69.7184 38.9624 69.4229 38.6527C69.1275 38.3402 68.8903 37.9183 68.7113 37.3871C68.5323 36.853 68.4428 36.1825 68.4428 35.3757C68.4428 34.603 68.5153 33.9183 68.6602 33.3217C68.805 32.7223 69.0153 32.218 69.2908 31.8089C69.5664 31.397 69.8988 31.0845 70.288 30.8714C70.68 30.6584 71.1218 30.5518 71.6133 30.5518C72.1019 30.5518 72.5366 30.6499 72.9173 30.8459C73.3008 31.0391 73.6133 31.3089 73.8548 31.6555C74.0962 32.0021 74.2525 32.4013 74.3235 32.853H73.2837C73.1871 32.4609 72.9996 32.1357 72.7212 31.8771C72.4428 31.6186 72.0735 31.4893 71.6133 31.4893C70.9371 31.4893 70.4045 31.7834 70.0153 32.3714C69.6289 32.9595 69.4343 33.7848 69.4315 34.8473H69.4996C69.6587 34.6058 69.8477 34.3999 70.0664 34.2294C70.288 34.0561 70.5323 33.9226 70.7994 33.8288C71.0664 33.7351 71.3491 33.6882 71.6474 33.6882C72.1474 33.6882 72.6048 33.8132 73.0195 34.0632C73.4343 34.3104 73.7667 34.6527 74.0167 35.0902C74.2667 35.5249 74.3917 36.0234 74.3917 36.5859C74.3917 37.1257 74.271 37.62 74.0295 38.0689C73.788 38.5149 73.4485 38.87 73.011 39.1342C72.5763 39.3956 72.065 39.5234 71.4769 39.5178ZM71.4769 38.5803C71.8349 38.5803 72.1559 38.4908 72.44 38.3118C72.7269 38.1328 72.9528 37.8928 73.1175 37.5916C73.2852 37.2905 73.369 36.9553 73.369 36.5859C73.369 36.2251 73.288 35.897 73.1261 35.6016C72.967 35.3033 72.7468 35.0661 72.4656 34.8899C72.1871 34.7138 71.869 34.6257 71.511 34.6257C71.2411 34.6257 70.9897 34.6797 70.7567 34.7876C70.5238 34.8928 70.3192 35.0376 70.1431 35.2223C69.9698 35.407 69.8335 35.6186 69.734 35.8572C69.6346 36.093 69.5849 36.3416 69.5849 36.603C69.5849 36.9496 69.6658 37.2734 69.8278 37.5746C69.9925 37.8757 70.217 38.1186 70.5011 38.3033C70.788 38.4879 71.1133 38.5803 71.4769 38.5803Z" fill="#161C0F"/>
</svg>
