<svg width="100" height="70" viewBox="0 0 100 70" fill="none" xmlns="http://www.w3.org/2000/svg">
<path d="M0 8.39844C0 3.98016 3.58172 0.398438 8 0.398438H92C96.4183 0.398438 100 3.98016 100 8.39844V23.3984H0V8.39844Z" fill="#308222"/>
<path d="M0.5 8.39844C0.5 4.2563 3.85786 0.898438 8 0.898438H92C96.1421 0.898438 99.5 4.2563 99.5 8.39844V22.8984H0.5V8.39844Z" stroke="black" stroke-opacity="0.04"/>
<path d="M28.1761 16.3984L29.608 7.67116H30.4602L29.0284 16.3984H28.1761ZM24.2045 13.978L24.3409 13.1257H30.8523L30.7159 13.978H24.2045ZM25.108 16.3984L26.5398 7.67116H27.392L25.9602 16.3984H25.108ZM24.7159 10.9439L24.8523 10.0916H31.3636L31.2273 10.9439H24.7159ZM35.4226 16.5178C34.8601 16.5178 34.3587 16.4212 33.9183 16.228C33.4808 16.0348 33.1328 15.7663 32.8743 15.4226C32.6186 15.076 32.4794 14.674 32.4567 14.2166H33.5305C33.5533 14.4979 33.6499 14.7408 33.8203 14.9453C33.9908 15.147 34.2138 15.3033 34.4893 15.4141C34.7649 15.5249 35.0703 15.5803 35.4055 15.5803C35.7805 15.5803 36.1129 15.5149 36.4027 15.3842C36.6925 15.2536 36.9197 15.0717 37.0845 14.8388C37.2493 14.6058 37.3317 14.3359 37.3317 14.0291C37.3317 13.7081 37.2521 13.4254 37.093 13.1811C36.9339 12.9339 36.701 12.7408 36.3942 12.6016C36.0874 12.4624 35.7124 12.3928 35.2692 12.3928H34.5703V11.4553H35.2692C35.6158 11.4553 35.9197 11.3928 36.1811 11.2678C36.4453 11.1428 36.6513 10.9666 36.799 10.7393C36.9496 10.5121 37.0249 10.245 37.0249 9.93821C37.0249 9.64276 36.9595 9.38565 36.8288 9.1669C36.6982 8.94815 36.5135 8.7777 36.2749 8.65554C36.0391 8.53338 35.7607 8.4723 35.4396 8.4723C35.1385 8.4723 34.8544 8.5277 34.5874 8.63849C34.3232 8.74645 34.1072 8.90412 33.9396 9.11151C33.772 9.31605 33.6811 9.56321 33.6669 9.85298H32.6442C32.6612 9.3956 32.799 8.99503 33.0575 8.65128C33.3161 8.30469 33.6541 8.0348 34.0717 7.84162C34.4922 7.64844 34.9538 7.55185 35.4567 7.55185C35.9964 7.55185 36.4595 7.66122 36.8459 7.87997C37.2322 8.09588 37.5291 8.38139 37.7365 8.73651C37.9439 9.09162 38.0476 9.47514 38.0476 9.88707C38.0476 10.3786 37.9183 10.7976 37.6598 11.1442C37.4041 11.4908 37.0561 11.7308 36.6158 11.8643V11.9325C37.1669 12.0234 37.5973 12.2578 37.907 12.6357C38.2166 13.0107 38.3714 13.4751 38.3714 14.0291C38.3714 14.5036 38.2422 14.9297 37.9837 15.3075C37.728 15.6825 37.3786 15.978 36.9354 16.1939C36.4922 16.4098 35.9879 16.5178 35.4226 16.5178ZM42.9609 16.5178C42.3189 16.5178 41.772 16.343 41.3203 15.9936C40.8686 15.6413 40.5234 15.1314 40.2848 14.4638C40.0462 13.7933 39.9268 12.9837 39.9268 12.0348C39.9268 11.0916 40.0462 10.2862 40.2848 9.61861C40.5263 8.94815 40.8729 8.43679 41.3246 8.08452C41.7791 7.7294 42.3246 7.55185 42.9609 7.55185C43.5973 7.55185 44.1413 7.7294 44.593 8.08452C45.0476 8.43679 45.3942 8.94815 45.6328 9.61861C45.8743 10.2862 45.995 11.0916 45.995 12.0348C45.995 12.9837 45.8757 13.7933 45.6371 14.4638C45.3984 15.1314 45.0533 15.6413 44.6016 15.9936C44.1499 16.343 43.603 16.5178 42.9609 16.5178ZM42.9609 15.5803C43.5973 15.5803 44.0916 15.2734 44.4439 14.6598C44.7962 14.0462 44.9723 13.1712 44.9723 12.0348C44.9723 11.2791 44.8913 10.6357 44.7294 10.1044C44.5703 9.57315 44.3402 9.16832 44.0391 8.88991C43.7408 8.61151 43.3814 8.4723 42.9609 8.4723C42.3303 8.4723 41.8374 8.78338 41.4822 9.40554C41.1271 10.0249 40.9496 10.9013 40.9496 12.0348C40.9496 12.7905 41.0291 13.4325 41.1882 13.9609C41.3473 14.4893 41.576 14.8913 41.8743 15.1669C42.1754 15.4425 42.5376 15.5803 42.9609 15.5803ZM50.4098 16.5178C49.8246 16.5178 49.3075 16.4141 48.8587 16.2067C48.4126 15.9964 48.0646 15.7081 47.8146 15.3416C47.5646 14.9723 47.4411 14.5518 47.4439 14.0803C47.4411 13.7109 47.5135 13.37 47.6612 13.0575C47.8089 12.7422 48.0107 12.4794 48.2663 12.2692C48.5249 12.0561 48.8132 11.9212 49.1314 11.8643V11.8132C48.7138 11.7053 48.3814 11.4709 48.1342 11.1101C47.8871 10.7464 47.7649 10.3331 47.7678 9.87003C47.7649 9.42685 47.8771 9.03054 48.1044 8.68111C48.3317 8.33168 48.6442 8.05611 49.0419 7.8544C49.4425 7.6527 49.8984 7.55185 50.4098 7.55185C50.9155 7.55185 51.3672 7.6527 51.7649 7.8544C52.1626 8.05611 52.4751 8.33168 52.7024 8.68111C52.9325 9.03054 53.049 9.42685 53.0518 9.87003C53.049 10.3331 52.9226 10.7464 52.6726 11.1101C52.4254 11.4709 52.0973 11.7053 51.6882 11.8132V11.8643C52.0036 11.9212 52.2876 12.0561 52.5405 12.2692C52.7933 12.4794 52.995 12.7422 53.1456 13.0575C53.2962 13.37 53.3729 13.7109 53.3757 14.0803C53.3729 14.5518 53.245 14.9723 52.9922 15.3416C52.7422 15.7081 52.3942 15.9964 51.9482 16.2067C51.505 16.4141 50.9922 16.5178 50.4098 16.5178ZM50.4098 15.5803C50.8047 15.5803 51.1456 15.5163 51.4325 15.3885C51.7195 15.2607 51.9411 15.0803 52.0973 14.8473C52.2536 14.6143 52.3331 14.3416 52.3359 14.0291C52.3331 13.6996 52.2479 13.4084 52.0803 13.1555C51.9126 12.9027 51.6839 12.7038 51.3942 12.5589C51.1072 12.4141 50.7791 12.3416 50.4098 12.3416C50.0376 12.3416 49.7053 12.4141 49.4126 12.5589C49.1229 12.7038 48.8942 12.9027 48.7266 13.1555C48.5618 13.4084 48.4808 13.6996 48.4837 14.0291C48.4808 14.3416 48.5561 14.6143 48.7095 14.8473C48.8658 15.0803 49.0888 15.2607 49.3786 15.3885C49.6683 15.5163 50.0121 15.5803 50.4098 15.5803ZM50.4098 11.4382C50.7223 11.4382 50.9993 11.3757 51.2408 11.2507C51.4851 11.1257 51.6768 10.951 51.8161 10.7266C51.9553 10.5021 52.0263 10.2393 52.0291 9.93821C52.0263 9.64276 51.9567 9.38565 51.8203 9.1669C51.6839 8.94531 51.495 8.77486 51.2536 8.65554C51.0121 8.53338 50.7308 8.4723 50.4098 8.4723C50.0831 8.4723 49.7976 8.53338 49.5533 8.65554C49.3089 8.77486 49.12 8.94531 48.9865 9.1669C48.853 9.38565 48.7876 9.64276 48.7905 9.93821C48.7876 10.2393 48.8544 10.5021 48.9908 10.7266C49.13 10.951 49.3217 11.1257 49.5661 11.2507C49.8104 11.3757 50.0916 11.4382 50.4098 11.4382ZM55.0089 16.3984V15.6314L57.8896 12.478C58.2276 12.1087 58.506 11.7876 58.7248 11.5149C58.9435 11.2393 59.1055 10.9808 59.2106 10.7393C59.3185 10.495 59.3725 10.2393 59.3725 9.9723C59.3725 9.66548 59.2987 9.39986 59.1509 9.17543C59.006 8.95099 58.8072 8.7777 58.5543 8.65554C58.3015 8.53338 58.0174 8.4723 57.7021 8.4723C57.3668 8.4723 57.0742 8.5419 56.8242 8.68111C56.5771 8.81747 56.3853 9.00923 56.2489 9.25639C56.1154 9.50355 56.0487 9.79332 56.0487 10.1257H55.043C55.043 9.61435 55.1609 9.16548 55.3967 8.77912C55.6325 8.39276 55.9535 8.09162 56.3597 7.87571C56.7688 7.6598 57.2276 7.55185 57.7362 7.55185C58.2475 7.55185 58.7006 7.6598 59.0955 7.87571C59.4904 8.09162 59.8001 8.38281 60.0245 8.74929C60.2489 9.11577 60.3612 9.52344 60.3612 9.9723C60.3612 10.2933 60.3029 10.6072 60.1864 10.9141C60.0728 11.218 59.8739 11.5575 59.5898 11.9325C59.3086 12.3047 58.918 12.7592 58.418 13.2962L56.4577 15.3928V15.4609H60.5146V16.3984H55.0089ZM62.2745 16.3984V15.6314L65.1552 12.478C65.4933 12.1087 65.7717 11.7876 65.9904 11.5149C66.2092 11.2393 66.3711 10.9808 66.4762 10.7393C66.5842 10.495 66.6381 10.2393 66.6381 9.9723C66.6381 9.66548 66.5643 9.39986 66.4165 9.17543C66.2717 8.95099 66.0728 8.7777 65.82 8.65554C65.5671 8.53338 65.283 8.4723 64.9677 8.4723C64.6325 8.4723 64.3398 8.5419 64.0898 8.68111C63.8427 8.81747 63.6509 9.00923 63.5146 9.25639C63.381 9.50355 63.3143 9.79332 63.3143 10.1257H62.3086C62.3086 9.61435 62.4265 9.16548 62.6623 8.77912C62.8981 8.39276 63.2191 8.09162 63.6254 7.87571C64.0344 7.6598 64.4933 7.55185 65.0018 7.55185C65.5131 7.55185 65.9663 7.6598 66.3612 7.87571C66.756 8.09162 67.0657 8.38281 67.2901 8.74929C67.5146 9.11577 67.6268 9.52344 67.6268 9.9723C67.6268 10.2933 67.5685 10.6072 67.4521 10.9141C67.3384 11.218 67.1396 11.5575 66.8555 11.9325C66.5742 12.3047 66.1836 12.7592 65.6836 13.2962L63.7234 15.3928V15.4609H67.7802V16.3984H62.2745ZM69.5401 16.3984V15.6314L72.4208 12.478C72.7589 12.1087 73.0373 11.7876 73.256 11.5149C73.4748 11.2393 73.6367 10.9808 73.7418 10.7393C73.8498 10.495 73.9038 10.2393 73.9038 9.9723C73.9038 9.66548 73.8299 9.39986 73.6822 9.17543C73.5373 8.95099 73.3384 8.7777 73.0856 8.65554C72.8327 8.53338 72.5487 8.4723 72.2333 8.4723C71.8981 8.4723 71.6055 8.5419 71.3555 8.68111C71.1083 8.81747 70.9165 9.00923 70.7802 9.25639C70.6467 9.50355 70.5799 9.79332 70.5799 10.1257H69.5742C69.5742 9.61435 69.6921 9.16548 69.9279 8.77912C70.1637 8.39276 70.4847 8.09162 70.891 7.87571C71.3001 7.6598 71.7589 7.55185 72.2674 7.55185C72.7788 7.55185 73.2319 7.6598 73.6268 7.87571C74.0217 8.09162 74.3313 8.38281 74.5558 8.74929C74.7802 9.11577 74.8924 9.52344 74.8924 9.9723C74.8924 10.2933 74.8342 10.6072 74.7177 10.9141C74.604 11.218 74.4052 11.5575 74.1211 11.9325C73.8398 12.3047 73.4492 12.7592 72.9492 13.2962L70.989 15.3928V15.4609H75.0458V16.3984H69.5401Z" fill="white"/>
<rect y="23.3984" width="100" height="23" fill="#76B83B"/>
<rect x="0.5" y="23.8984" width="99" height="22" stroke="black" stroke-opacity="0.04"/>
<path d="M27.6761 39.3984L29.108 30.6712H29.9602L28.5284 39.3984H27.6761ZM23.7045 36.978L23.8409 36.1257H30.3523L30.2159 36.978H23.7045ZM24.608 39.3984L26.0398 30.6712H26.892L25.4602 39.3984H24.608ZM24.2159 33.9439L24.3523 33.0916H30.8636L30.7273 33.9439H24.2159ZM32.2464 39.3984L36.1499 31.6768V31.6087H31.6499V30.6712H37.2408V31.6598L33.3544 39.3984H32.2464ZM41.5394 39.5178C41.1815 39.5121 40.8235 39.4439 40.4656 39.3132C40.1076 39.1825 39.7809 38.9624 39.4854 38.6527C39.19 38.3402 38.9528 37.9183 38.7738 37.3871C38.5948 36.853 38.5053 36.1825 38.5053 35.3757C38.5053 34.603 38.5778 33.9183 38.7227 33.3217C38.8675 32.7223 39.0778 32.218 39.3533 31.8089C39.6289 31.397 39.9613 31.0845 40.3505 30.8714C40.7425 30.6584 41.1843 30.5518 41.6758 30.5518C42.1644 30.5518 42.5991 30.6499 42.9798 30.8459C43.3633 31.0391 43.6758 31.3089 43.9173 31.6555C44.1587 32.0021 44.315 32.4013 44.386 32.853H43.3462C43.2496 32.4609 43.0621 32.1357 42.7837 31.8771C42.5053 31.6186 42.136 31.4893 41.6758 31.4893C40.9996 31.4893 40.467 31.7834 40.0778 32.3714C39.6914 32.9595 39.4968 33.7848 39.494 34.8473H39.5621C39.7212 34.6058 39.9102 34.3999 40.1289 34.2294C40.3505 34.0561 40.5948 33.9226 40.8619 33.8288C41.1289 33.7351 41.4116 33.6882 41.7099 33.6882C42.2099 33.6882 42.6673 33.8132 43.082 34.0632C43.4968 34.3104 43.8292 34.6527 44.0792 35.0902C44.3292 35.5249 44.4542 36.0234 44.4542 36.5859C44.4542 37.1257 44.3335 37.62 44.092 38.0689C43.8505 38.5149 43.511 38.87 43.0735 39.1342C42.6388 39.3956 42.1275 39.5234 41.5394 39.5178ZM41.5394 38.5803C41.8974 38.5803 42.2184 38.4908 42.5025 38.3118C42.7894 38.1328 43.0153 37.8928 43.18 37.5916C43.3477 37.2905 43.4315 36.9553 43.4315 36.5859C43.4315 36.2251 43.3505 35.897 43.1886 35.6016C43.0295 35.3033 42.8093 35.0661 42.5281 34.8899C42.2496 34.7138 41.9315 34.6257 41.5735 34.6257C41.3036 34.6257 41.0522 34.6797 40.8192 34.7876C40.5863 34.8928 40.3817 35.0376 40.2056 35.2223C40.0323 35.407 39.896 35.6186 39.7965 35.8572C39.6971 36.093 39.6474 36.3416 39.6474 36.603C39.6474 36.9496 39.7283 37.2734 39.8903 37.5746C40.055 37.8757 40.2795 38.1186 40.5636 38.3033C40.8505 38.4879 41.1758 38.5803 41.5394 38.5803ZM46.2834 39.3984V30.6712H49.3345C49.9425 30.6712 50.4439 30.7763 50.8388 30.9865C51.2337 31.1939 51.5277 31.4737 51.7209 31.826C51.9141 32.1754 52.0107 32.5632 52.0107 32.9893C52.0107 33.3643 51.9439 33.674 51.8104 33.9183C51.6797 34.1626 51.5064 34.3558 51.2905 34.4979C51.0774 34.6399 50.8459 34.745 50.5959 34.8132V34.8984C50.8629 34.9155 51.1314 35.0092 51.4013 35.1797C51.6712 35.3501 51.897 35.5945 52.0788 35.9126C52.2607 36.2308 52.3516 36.62 52.3516 37.0803C52.3516 37.5178 52.2521 37.9112 52.0533 38.2607C51.8544 38.6101 51.5405 38.8871 51.1115 39.0916C50.6825 39.2962 50.1243 39.3984 49.4368 39.3984H46.2834ZM47.3402 38.4609H49.4368C50.1271 38.4609 50.6172 38.3274 50.907 38.0604C51.1996 37.7905 51.3459 37.4638 51.3459 37.0803C51.3459 36.7848 51.2706 36.5121 51.12 36.2621C50.9695 36.0092 50.755 35.8075 50.4766 35.657C50.1982 35.5036 49.8686 35.4268 49.4879 35.4268H47.3402V38.4609ZM47.3402 34.5064H49.3004C49.6186 34.5064 49.9055 34.4439 50.1612 34.3189C50.4197 34.1939 50.6243 34.0178 50.7749 33.7905C50.9283 33.5632 51.005 33.2962 51.005 32.9893C51.005 32.6058 50.8714 32.2805 50.6044 32.0135C50.3374 31.7436 49.9141 31.6087 49.3345 31.6087H47.3402V34.5064ZM56.7301 39.5178C56.1449 39.5178 55.6278 39.4141 55.179 39.2067C54.733 38.9964 54.3849 38.7081 54.1349 38.3416C53.8849 37.9723 53.7614 37.5518 53.7642 37.0803C53.7614 36.7109 53.8338 36.37 53.9815 36.0575C54.1293 35.7422 54.331 35.4794 54.5866 35.2692C54.8452 35.0561 55.1335 34.9212 55.4517 34.8643V34.8132C55.0341 34.7053 54.7017 34.4709 54.4545 34.1101C54.2074 33.7464 54.0852 33.3331 54.0881 32.87C54.0852 32.4268 54.1974 32.0305 54.4247 31.6811C54.652 31.3317 54.9645 31.0561 55.3622 30.8544C55.7628 30.6527 56.2188 30.5518 56.7301 30.5518C57.2358 30.5518 57.6875 30.6527 58.0852 30.8544C58.483 31.0561 58.7955 31.3317 59.0227 31.6811C59.2528 32.0305 59.3693 32.4268 59.3722 32.87C59.3693 33.3331 59.2429 33.7464 58.9929 34.1101C58.7457 34.4709 58.4176 34.7053 58.0085 34.8132V34.8643C58.3239 34.9212 58.608 35.0561 58.8608 35.2692C59.1136 35.4794 59.3153 35.7422 59.4659 36.0575C59.6165 36.37 59.6932 36.7109 59.696 37.0803C59.6932 37.5518 59.5653 37.9723 59.3125 38.3416C59.0625 38.7081 58.7145 38.9964 58.2685 39.2067C57.8253 39.4141 57.3125 39.5178 56.7301 39.5178ZM56.7301 38.5803C57.125 38.5803 57.4659 38.5163 57.7528 38.3885C58.0398 38.2607 58.2614 38.0803 58.4176 37.8473C58.5739 37.6143 58.6534 37.3416 58.6562 37.0291C58.6534 36.6996 58.5682 36.4084 58.4006 36.1555C58.233 35.9027 58.0043 35.7038 57.7145 35.5589C57.4276 35.4141 57.0994 35.3416 56.7301 35.3416C56.358 35.3416 56.0256 35.4141 55.733 35.5589C55.4432 35.7038 55.2145 35.9027 55.0469 36.1555C54.8821 36.4084 54.8011 36.6996 54.804 37.0291C54.8011 37.3416 54.8764 37.6143 55.0298 37.8473C55.1861 38.0803 55.4091 38.2607 55.6989 38.3885C55.9886 38.5163 56.3324 38.5803 56.7301 38.5803ZM56.7301 34.4382C57.0426 34.4382 57.3196 34.3757 57.5611 34.2507C57.8054 34.1257 57.9972 33.951 58.1364 33.7266C58.2756 33.5021 58.3466 33.2393 58.3494 32.9382C58.3466 32.6428 58.277 32.3857 58.1406 32.1669C58.0043 31.9453 57.8153 31.7749 57.5739 31.6555C57.3324 31.5334 57.0511 31.4723 56.7301 31.4723C56.4034 31.4723 56.1179 31.5334 55.8736 31.6555C55.6293 31.7749 55.4403 31.9453 55.3068 32.1669C55.1733 32.3857 55.108 32.6428 55.1108 32.9382C55.108 33.2393 55.1747 33.5021 55.3111 33.7266C55.4503 33.951 55.642 34.1257 55.8864 34.2507C56.1307 34.3757 56.4119 34.4382 56.7301 34.4382ZM64.2781 39.5178C63.7156 39.5178 63.2141 39.4212 62.7738 39.228C62.3363 39.0348 61.9883 38.7663 61.7298 38.4226C61.4741 38.076 61.3349 37.674 61.3121 37.2166H62.386C62.4087 37.4979 62.5053 37.7408 62.6758 37.9453C62.8462 38.147 63.0692 38.3033 63.3448 38.4141C63.6204 38.5249 63.9258 38.5803 64.261 38.5803C64.636 38.5803 64.9684 38.5149 65.2582 38.3842C65.5479 38.2536 65.7752 38.0717 65.94 37.8388C66.1048 37.6058 66.1871 37.3359 66.1871 37.0291C66.1871 36.7081 66.1076 36.4254 65.9485 36.1811C65.7894 35.9339 65.5565 35.7408 65.2496 35.6016C64.9428 35.4624 64.5678 35.3928 64.1246 35.3928H63.4258V34.4553H64.1246C64.4712 34.4553 64.7752 34.3928 65.0366 34.2678C65.3008 34.1428 65.5067 33.9666 65.6545 33.7393C65.805 33.5121 65.8803 33.245 65.8803 32.9382C65.8803 32.6428 65.815 32.3857 65.6843 32.1669C65.5536 31.9482 65.369 31.7777 65.1303 31.6555C64.8945 31.5334 64.6161 31.4723 64.2951 31.4723C63.994 31.4723 63.7099 31.5277 63.4428 31.6385C63.1786 31.7464 62.9627 31.9041 62.7951 32.1115C62.6275 32.3161 62.5366 32.5632 62.5224 32.853H61.4996C61.5167 32.3956 61.6545 31.995 61.913 31.6513C62.1715 31.3047 62.5096 31.0348 62.9272 30.8416C63.3477 30.6484 63.8093 30.5518 64.3121 30.5518C64.8519 30.5518 65.315 30.6612 65.7013 30.88C66.0877 31.0959 66.3846 31.3814 66.592 31.7365C66.7994 32.0916 66.9031 32.4751 66.9031 32.8871C66.9031 33.3786 66.7738 33.7976 66.5153 34.1442C66.2596 34.4908 65.9116 34.7308 65.4712 34.8643V34.9325C66.0224 35.0234 66.4528 35.2578 66.7624 35.6357C67.0721 36.0107 67.2269 36.4751 67.2269 37.0291C67.2269 37.5036 67.0977 37.9297 66.8391 38.3075C66.5835 38.6825 66.234 38.978 65.7908 39.1939C65.3477 39.4098 64.8434 39.5178 64.2781 39.5178ZM69.1232 39.3984V30.6712H72.1744C72.7823 30.6712 73.2837 30.7763 73.6786 30.9865C74.0735 31.1939 74.3675 31.4737 74.5607 31.826C74.7539 32.1754 74.8505 32.5632 74.8505 32.9893C74.8505 33.3643 74.7837 33.674 74.6502 33.9183C74.5195 34.1626 74.3462 34.3558 74.1303 34.4979C73.9173 34.6399 73.6857 34.745 73.4357 34.8132V34.8984C73.7028 34.9155 73.9712 35.0092 74.2411 35.1797C74.511 35.3501 74.7369 35.5945 74.9187 35.9126C75.1005 36.2308 75.1914 36.62 75.1914 37.0803C75.1914 37.5178 75.092 37.9112 74.8931 38.2607C74.6942 38.6101 74.3803 38.8871 73.9513 39.0916C73.5224 39.2962 72.9641 39.3984 72.2766 39.3984H69.1232ZM70.18 38.4609H72.2766C72.967 38.4609 73.457 38.3274 73.7468 38.0604C74.0394 37.7905 74.1857 37.4638 74.1857 37.0803C74.1857 36.7848 74.1104 36.5121 73.9599 36.2621C73.8093 36.0092 73.5948 35.8075 73.3164 35.657C73.038 35.5036 72.7085 35.4268 72.3278 35.4268H70.18V38.4609ZM70.18 34.5064H72.1403C72.4585 34.5064 72.7454 34.4439 73.0011 34.3189C73.2596 34.1939 73.4641 34.0178 73.6147 33.7905C73.7681 33.5632 73.8448 33.2962 73.8448 32.9893C73.8448 32.6058 73.7113 32.2805 73.4442 32.0135C73.1772 31.7436 72.7539 31.6087 72.1744 31.6087H70.18V34.5064Z" fill="white"/>
<path d="M0 46.3984H100V61.3984C100 65.8167 96.4183 69.3984 92 69.3984H8C3.58172 69.3984 0 65.8167 0 61.3984V46.3984Z" fill="#BAEA91"/>
<path d="M0.5 46.8984H99.5V61.3984C99.5 65.5406 96.1421 68.8984 92 68.8984H8C3.85786 68.8984 0.5 65.5406 0.5 61.3984V46.8984Z" stroke="black" stroke-opacity="0.04"/>
<path d="M28.1761 62.3984L29.608 53.6712H30.4602L29.0284 62.3984H28.1761ZM24.2045 59.978L24.3409 59.1257H30.8523L30.7159 59.978H24.2045ZM25.108 62.3984L26.5398 53.6712H27.392L25.9602 62.3984H25.108ZM24.7159 56.9439L24.8523 56.0916H31.3636L31.2273 56.9439H24.7159ZM32.6271 62.3984V53.6712H35.6783C36.2862 53.6712 36.7876 53.7763 37.1825 53.9865C37.5774 54.1939 37.8714 54.4737 38.0646 54.826C38.2578 55.1754 38.3544 55.5632 38.3544 55.9893C38.3544 56.3643 38.2876 56.674 38.1541 56.9183C38.0234 57.1626 37.8501 57.3558 37.6342 57.4979C37.4212 57.6399 37.1896 57.745 36.9396 57.8132V57.8984C37.2067 57.9155 37.4751 58.0092 37.745 58.1797C38.0149 58.3501 38.2408 58.5945 38.4226 58.9126C38.6044 59.2308 38.6953 59.62 38.6953 60.0803C38.6953 60.5178 38.5959 60.9112 38.397 61.2607C38.1982 61.6101 37.8842 61.8871 37.4553 62.0916C37.0263 62.2962 36.468 62.3984 35.7805 62.3984H32.6271ZM33.6839 61.4609H35.7805C36.4709 61.4609 36.9609 61.3274 37.2507 61.0604C37.5433 60.7905 37.6896 60.4638 37.6896 60.0803C37.6896 59.7848 37.6143 59.5121 37.4638 59.2621C37.3132 59.0092 37.0987 58.8075 36.8203 58.657C36.5419 58.5036 36.2124 58.4268 35.8317 58.4268H33.6839V61.4609ZM33.6839 57.5064H35.6442C35.9624 57.5064 36.2493 57.4439 36.505 57.3189C36.7635 57.1939 36.968 57.0178 37.1186 56.7905C37.272 56.5632 37.3487 56.2962 37.3487 55.9893C37.3487 55.6058 37.2152 55.2805 36.9482 55.0135C36.6811 54.7436 36.2578 54.6087 35.6783 54.6087H33.6839V57.5064ZM40.7898 62.3984H39.6818L42.8864 53.6712H43.9773L47.1818 62.3984H46.0739L43.4659 55.0518H43.3977L40.7898 62.3984ZM41.1989 58.9893H45.6648V59.9268H41.1989V58.9893ZM48.5412 62.3984V53.6712H53.8082V54.6087H49.598V57.5575H53.5355V58.495H49.598V61.4609H53.8764V62.3984H48.5412ZM56.071 62.3984H54.9631L58.1676 53.6712H59.2585L62.4631 62.3984H61.3551L58.7472 55.0518H58.679L56.071 62.3984ZM56.4801 58.9893H60.946V59.9268H56.4801V58.9893ZM66.4474 53.5518C66.8054 53.5547 67.1634 53.6229 67.5213 53.7564C67.8793 53.8899 68.206 54.1115 68.5014 54.4212C68.7969 54.728 69.0341 55.147 69.2131 55.6783C69.392 56.2095 69.4815 56.8757 69.4815 57.6768C69.4815 58.4524 69.4077 59.1413 69.2599 59.7436C69.1151 60.343 68.9048 60.8487 68.6293 61.2607C68.3565 61.6726 68.0241 61.9851 67.6321 62.1982C67.2429 62.4112 66.8026 62.5178 66.3111 62.5178C65.8224 62.5178 65.3864 62.4212 65.0028 62.228C64.6222 62.032 64.3097 61.7607 64.0653 61.4141C63.8239 61.0646 63.669 60.6598 63.6009 60.1996H64.6406C64.7344 60.6001 64.9205 60.9311 65.1989 61.1925C65.4801 61.451 65.8509 61.5803 66.3111 61.5803C66.9844 61.5803 67.5156 61.2862 67.9048 60.6982C68.2969 60.1101 68.4929 59.2791 68.4929 58.2053H68.4247C68.2656 58.4439 68.0767 58.6499 67.858 58.8232C67.6392 58.9964 67.3963 59.13 67.1293 59.2237C66.8622 59.3175 66.5781 59.3643 66.277 59.3643C65.777 59.3643 65.3182 59.2408 64.9006 58.9936C64.4858 58.7436 64.1534 58.4013 63.9034 57.9666C63.6562 57.5291 63.5327 57.0291 63.5327 56.4666C63.5327 55.9325 63.652 55.4439 63.8906 55.0007C64.1321 54.5547 64.4702 54.1996 64.9048 53.9354C65.3423 53.6712 65.8565 53.5433 66.4474 53.5518ZM66.4474 54.4893C66.0895 54.4893 65.767 54.5788 65.4801 54.7578C65.196 54.9339 64.9702 55.1726 64.8026 55.4737C64.6378 55.772 64.5554 56.103 64.5554 56.4666C64.5554 56.8303 64.6349 57.1612 64.794 57.4595C64.956 57.755 65.1761 57.9908 65.4545 58.1669C65.7358 58.3402 66.0554 58.4268 66.4134 58.4268C66.6832 58.4268 66.9347 58.3743 67.1676 58.2692C67.4006 58.1612 67.6037 58.0149 67.777 57.8303C67.9531 57.6428 68.0909 57.4311 68.1903 57.1953C68.2898 56.9567 68.3395 56.7081 68.3395 56.4496C68.3395 56.1087 68.2571 55.7891 68.0923 55.4908C67.9304 55.1925 67.706 54.951 67.419 54.7663C67.1349 54.5817 66.8111 54.4893 66.4474 54.4893ZM74.2255 53.6712V62.3984H73.1687V54.7791H73.1175L70.9869 56.1939V55.12L73.1687 53.6712H74.2255Z" fill="#161C0F"/>
</svg>
